<?xml version="1.0" encoding="UTF-8"?>
<svg id="Calque_2" data-name="Calque 2" xmlns="http://www.w3.org/2000/svg" viewBox="0 0 361 121.5">
  <defs>
    <style>
      .cls-1 {
        fill: #5cb5a1;
        stroke: #5cb5a1;
        stroke-miterlimit: 10;
      }
    </style>
  </defs>
  <g id="Calque_1-2" data-name="Calque 1">
    <path class="cls-1" d="m.5,0l.17,46.39v.86c.04,9.3.09,18.51.12,27.72v.4c.08,1.28.17,2.55.29,3.81.06.49.13.99.2,1.48.21,1.53.47,3.09.79,4.62.23.85.45,1.69.71,2.52l.07.24.08.25c.24.64.49,1.3.75,1.93l.17.32.2.4c.16.32.32.64.5.97.35.57.72,1.15,1.08,1.72.41.63.69,1.05.95,1.49,11.78,15.34,29.63,24.16,48.97,24.21,24.7-.04,47.02-14.61,56.83-37.14l7.49.02c9.4,23.5,31.89,38.72,57.26,38.78,25.59-.04,48.2-15.34,57.6-38.98l11.56.02c9.6,22.96,31.94,37.84,56.9,37.9,21.85-.03,41.65-11.16,52.98-29.76.28-.6.57-1.19.88-1.77.93-2.21,1.61-4.17,2.09-5.99l.16-.58c.29-1.09.53-2.19.73-3.3l.1-.51.05-.3.11-.61.09-1.52.1-1.63-.07-19.88h-.01s-.07-19.74-.07-19.74L360.21,0M11.25,8.11c3.11,0,5.63,2.51,5.63,5.61,0,3.1-2.51,5.62-5.62,5.62-3.11,0-5.63-2.51-5.63-5.61,0-3.1,2.51-5.62,5.62-5.62Zm.04,25.33c3.11,0,5.63,2.51,5.63,5.61,0,3.1-2.51,5.62-5.62,5.62-3.11,0-5.63-2.51-5.63-5.61,0-3.1,2.51-5.62,5.62-5.62Zm.05,36.56c-3.11,0-5.63-2.51-5.63-5.61,0-3.1,2.51-5.62,5.62-5.62,3.11,0,5.63,2.51,5.63,5.61,0,3.1-2.51,5.62-5.62,5.62Zm7.65,22.79c-3.11,0-5.63-2.51-5.63-5.61,0-3.1,2.51-5.62,5.62-5.62,3.11,0,5.63,2.51,5.63,5.61,0,3.1-2.51,5.62-5.62,5.62Zm15.24,12.65c-3.11,0-5.63-2.51-5.63-5.61,0-3.1,2.51-5.62,5.62-5.62,3.11,0,5.63,2.51,5.63,5.61,0,3.1-2.51,5.62-5.62,5.62Zm20.31,7.57c-3.11,0-5.63-2.51-5.63-5.61,0-3.1,2.51-5.62,5.62-5.62,3.11,0,5.63,2.51,5.63,5.61,0,3.1-2.51,5.62-5.62,5.62Zm20.29-5.09c-3.11,0-5.63-2.51-5.63-5.61,0-3.1,2.51-5.62,5.62-5.62,3.11,0,5.63,2.51,5.63,5.61,0,3.1-2.51,5.62-5.62,5.62Zm8.93-52.82c-1.77,3.6-4.79,6.61-8.3,8.23-3.28,1.54-6.9,2.3-11.1,2.3-.81,0-1.63-.03-2.38-.14l.11,25.23c0,2.18-.87,4.25-2.44,5.83-1.6,1.59-3.67,2.47-5.85,2.47-4.49,0-8.3-3.79-8.32-8.28v-14.23h-.51c-1.61,0-3.11-.16-4.56-.45-2.67-.59-5.06-1.65-6.94-3.08-2.84-2.19-4.63-4.2-5.82-6.51-1.28-2.5-2.1-4.61-2.56-6.61-1.68-7.1-1.42-14.32-1.18-21.29l.03-.78c.07-2.16.14-4.32.14-6.49.01-4.57,3.73-8.3,8.29-8.3,2.16,0,4.29.9,5.87,2.47,1.58,1.58,2.45,3.64,2.45,5.8,0,2.24-.1,4.48-.19,6.73l-.03.71c-.18,4.64-.36,9.44.11,14.17.29,1.8.68,3.33,1.18,4.81.24.44.49.88.75,1.29l.44.46c.15.09.3.18.45.25.33.11.68.2.99.26l.39.02.57.06-.07-17.99-.09-24.33c0-2.18.87-4.25,2.43-5.84,1.6-1.58,3.67-2.47,5.85-2.47,4.49,0,8.3,3.79,8.32,8.28l.05,12.94c.01.11.01.23.01.35v17.98c.87.06,1.73.1,2.59.1.61,0,1.23-.02,1.84-.07.57-.1,1.14-.24,1.7-.42.17-.09.34-.19.48-.29l.24-.22c.15-.25.3-.5.43-.76.27-.87.5-1.8.7-2.85.4-4.24.19-8.56-.02-12.8l-.09-1.86c-.09-2.03.7-4.02,2.2-5.6,1.63-1.71,3.85-2.69,6.09-2.7,4.51,0,8.08,3.55,8.32,8.28l.1,2.28c.4,7.83.81,15.95-2.68,23.03v-.02Zm8.81,40.13c-3.11,0-5.63-2.51-5.63-5.61,0-3.1,2.51-5.62,5.62-5.62,3.11,0,5.63,2.51,5.63,5.61,0,3.1-2.51,5.62-5.62,5.62Zm7.59-15.21c-3.11,0-5.63-2.51-5.63-5.61,0-3.1,2.51-5.62,5.62-5.62,3.11,0,5.63,2.51,5.63,5.61,0,3.1-2.51,5.62-5.62,5.62Zm32.99,2.48c-3.11,0-5.63-2.51-5.63-5.61,0-3.1,2.51-5.62,5.62-5.62,3.11,0,5.63,2.51,5.63,5.61,0,3.1-2.51,5.62-5.62,5.62Zm10.17,15.19c-3.11,0-5.63-2.51-5.63-5.61,0-3.1,2.51-5.62,5.62-5.62,3.11,0,5.63,2.51,5.63,5.61,0,3.1-2.51,5.62-5.62,5.62Zm15.24,12.65c-3.11,0-5.63-2.51-5.63-5.61,0-3.1,2.51-5.62,5.62-5.62,3.1,0,5.63,2.51,5.63,5.61,0,3.1-2.51,5.62-5.62,5.62Zm20.31,5.04c-3.1,0-5.63-2.51-5.63-5.61,0-3.1,2.51-5.62,5.62-5.62,3.11,0,5.63,2.51,5.63,5.61,0,3.1-2.51,5.62-5.62,5.62Zm20.29-2.56c-3.1,0-5.63-2.51-5.63-5.61,0-3.1,2.51-5.62,5.62-5.62,3.11,0,5.63,2.51,5.63,5.61,0,3.1-2.51,5.62-5.62,5.62Zm2.46-48.74c-3.28,1.54-6.9,2.3-11.1,2.3-.81,0-1.62-.03-2.38-.14l.1,25.23c0,2.18-.87,4.25-2.44,5.83-1.6,1.59-3.67,2.47-5.86,2.47-4.49,0-8.3-3.79-8.32-8.28v-14.23h-.52c-1.61,0-3.1-.15-4.56-.45-2.67-.59-5.06-1.66-6.94-3.08-2.84-2.19-4.63-4.2-5.82-6.51-1.28-2.5-2.1-4.61-2.56-6.61-1.68-7.1-1.42-14.32-1.18-21.29l.03-.78c.07-2.16.14-4.32.13-6.49.02-4.57,3.73-8.3,8.29-8.31,2.16,0,4.29.91,5.87,2.47,1.58,1.58,2.46,3.64,2.45,5.81-.02,2.42-.11,4.85-.21,7.27l-.02.28c-.17,4.61-.36,9.37.12,14.05.29,1.79.68,3.36,1.19,4.81.23.45.48.89.76,1.29l.44.46c.14.09.29.18.44.26.34.11.68.19,1,.25l.4.02.57.06-.07-17.99-.1-24.34c0-2.18.87-4.25,2.44-5.83,1.6-1.58,3.67-2.47,5.85-2.47,4.5,0,8.31,3.79,8.33,8.28l.05,12.93v.36s.01,17.99.01,17.99c.87.06,1.72.09,2.58.09.62,0,1.23-.02,1.83-.06.57-.1,1.15-.24,1.71-.42l.48-.29.24-.22c.15-.25.3-.5.43-.76.3-.94.53-1.9.7-2.85.41-4.24.21-8.57-.01-12.81l-.09-1.84c-.09-2.02.7-4.01,2.2-5.6,1.63-1.71,3.85-2.7,6.09-2.7,4.51,0,8.08,3.55,8.32,8.28l.1,2.28c.4,7.84.81,15.95-2.68,23.03-1.77,3.6-4.8,6.61-8.3,8.23h0Zm15.28,36.05c-3.1,0-5.63-2.51-5.63-5.61,0-3.1,2.51-5.62,5.62-5.62,3.11,0,5.63,2.51,5.63,5.61,0,3.1-2.51,5.62-5.62,5.62Zm10.12-17.75c-3.1,0-5.63-2.51-5.63-5.61,0-3.1,2.51-5.62,5.62-5.62,3.11,0,5.63,2.51,5.63,5.61,0,3.1-2.51,5.62-5.62,5.62Zm29.89-5.63c0-3.1,2.51-5.62,5.62-5.62,3.11,0,5.63,2.51,5.63,5.61,0,3.1-2.51,5.62-5.62,5.62-3.1,0-5.63-2.51-5.63-5.61Zm13.27,23.3c-3.11,0-5.63-2.51-5.63-5.61,0-3.1,2.51-5.62,5.62-5.62,3.1,0,5.63,2.51,5.63,5.61,0,3.1-2.51,5.62-5.62,5.62Zm17.78,12.64c-3.11,0-5.63-2.51-5.63-5.61,0-3.1,2.51-5.62,5.62-5.62,3.11,0,5.63,2.51,5.63,5.61,0,3.1-2.51,5.62-5.62,5.62Zm20.3,2.5c-3.11,0-5.63-2.51-5.63-5.61,0-3.1,2.51-5.62,5.62-5.62,3.11,0,5.63,2.51,5.63,5.61,0,3.1-2.51,5.62-5.62,5.62Zm21.85-8.38c-3.11,0-5.63-2.51-5.63-5.61,0-3.1,2.51-5.62,5.62-5.62,3.11,0,5.63,2.51,5.63,5.61,0,3.1-2.51,5.62-5.62,5.62Zm3.74-51.32c-1.77,3.6-4.8,6.61-8.3,8.23-3.28,1.54-6.9,2.3-11.1,2.3-.81,0-1.62-.03-2.38-.14l.1,25.22c0,2.18-.87,4.25-2.44,5.83-1.6,1.58-3.67,2.47-5.86,2.47-4.49,0-8.3-3.79-8.32-8.28v-14.23h-.5c-1.61,0-3.11-.16-4.56-.45-2.67-.59-5.06-1.65-6.94-3.08-2.83-2.17-4.63-4.18-5.82-6.51-1.28-2.5-2.1-4.61-2.56-6.61-1.68-7.1-1.42-14.32-1.18-21.3l.03-.78c.07-2.16.15-4.32.14-6.49.02-4.57,3.73-8.3,8.29-8.3,2.16,0,4.3.91,5.87,2.47,1.58,1.58,2.46,3.64,2.45,5.81-.02,2.44-.11,4.88-.21,7.31-.19,4.67-.39,9.49.09,14.3.29,1.79.69,3.36,1.2,4.81.23.44.48.88.75,1.29l.23.24.21.24.44.25c.34.1.68.19.99.25l.49.03.48.05-.07-17.97-.09-24.35c0-2.18.87-4.25,2.44-5.83,1.6-1.58,3.67-2.47,5.85-2.47,4.49,0,8.3,3.79,8.32,8.28l.05,12.94c.01.12.01.23.01.35v17.99c.85.06,1.69.1,2.52.1.63,0,1.28-.02,1.92-.08.57-.1,1.14-.24,1.7-.42.17-.09.34-.19.48-.29l.24-.22c.16-.25.3-.5.43-.76.29-.9.51-1.83.7-2.85.41-4.19.21-8.48-.01-12.68l-.1-1.96c-.09-2.03.7-4.02,2.2-5.6,1.63-1.71,3.85-2.7,6.09-2.7,4.51,0,8.08,3.55,8.32,8.28l.1,2.27c.39,7.84.81,15.95-2.68,23.03h-.01Zm11.88,36.3c-3.11,0-5.63-2.51-5.63-5.61,0-3.1,2.51-5.62,5.62-5.62,3.11,0,5.63,2.51,5.63,5.61,0,3.1-2.51,5.62-5.62,5.62Zm5.59-22.26c-3.11,0-5.63-2.51-5.63-5.61,0-3.1,2.51-5.62,5.62-5.62,3.11,0,5.63,2.51,5.63,5.61,0,3.1-2.51,5.62-5.62,5.62Zm-.04-25.33c-3.1,0-5.63-2.51-5.63-5.61,0-3.1,2.51-5.62,5.62-5.62,3.11,0,5.63,2.51,5.63,5.61,0,3.1-2.51,5.62-5.62,5.62Zm-.04-25.33c-3.1,0-5.63-2.51-5.63-5.61,0-3.1,2.51-5.62,5.62-5.62,3.11,0,5.63,2.51,5.63,5.61,0,3.1-2.51,5.62-5.62,5.62Z"/>
  </g>
</svg>