<svg width="720" height="1093" viewBox="0 0 720 1093" fill="none" xmlns="http://www.w3.org/2000/svg">
<g clip-path="url(#clip0_76_9)">
<path d="M721.935 959.242L721.871 919.59L721.569 799.51L721.385 700.158L720.566 290.345L720.469 290.248L0 290L0.399062 544.053L0.808909 744.075L1.1864 942.509V944.236C1.24033 962.924 1.29425 981.427 1.32661 999.931L1.34818 1000.73C1.48839 1003.3 1.66096 1005.84 1.89824 1008.38C2.01688 1009.38 2.15709 1010.37 2.2973 1011.36C2.71794 1014.45 3.23564 1017.57 3.86119 1020.65C4.31418 1022.35 4.76717 1024.05 5.28487 1025.71L5.42509 1026.21L5.58687 1026.7C6.06143 1028 6.55756 1029.31 7.08605 1030.58L7.43118 1031.24L7.83024 1032.05C8.15381 1032.71 8.46658 1033.34 8.8225 1034C9.52356 1035.16 10.257 1036.31 10.9904 1037.46C11.7993 1038.73 12.3601 1039.56 12.8994 1040.44C36.4441 1071.29 72.1763 1089.07 110.918 1089.24C160.401 1089.25 205.172 1060.06 224.92 1014.85L239.933 1014.92C258.689 1062.15 303.686 1092.81 354.518 1093C405.792 1093.02 451.156 1062.36 470.073 1014.9L493.241 1014.99C512.385 1061.14 557.101 1091.11 607.103 1091.31C650.881 1091.32 690.604 1069.06 713.35 1031.73C713.9 1030.55 714.504 1029.35 715.119 1028.18C716.985 1023.76 718.355 1019.82 719.336 1016.16L719.649 1014.98C720.231 1012.8 720.706 1010.59 721.116 1008.36L721.321 1007.33L721.418 1006.72L721.633 1005.49L721.817 1002.44L722.011 999.154L721.946 959.221L721.935 959.242ZM121.401 947.475C121.876 945.348 122.566 943.157 123.45 940.954C124.227 939.011 125.079 937.403 126.05 936.032C127.365 934.099 128.638 932.609 129.922 931.476C131.086 930.461 132.262 929.511 133.61 928.842C134.861 928.183 136.231 927.546 137.719 927.492H138.194C138.712 927.492 139.1 927.557 139.445 927.633C140.082 927.773 140.61 927.978 141.031 928.248C141.43 928.486 141.807 928.766 142.098 929.047C142.336 929.263 142.551 929.522 142.778 929.824C143.252 930.461 143.565 931.141 143.846 931.757C144.223 932.588 144.482 933.344 144.601 934.045C144.719 934.704 144.838 935.373 144.838 936.053C144.859 937.727 144.579 939.27 144.018 940.663C143.403 942.293 142.767 943.502 142.034 944.474C139.984 947.432 137.288 950.174 133.276 953.391L132.359 954.028C131.529 954.579 130.709 955.14 129.9 955.712C128.789 956.306 127.711 956.943 126.459 957.698L124.173 959.124C122.943 959.901 121.692 960.667 120.301 961.423C120.085 961.142 119.945 960.829 119.945 960.505C120.021 955.442 120.484 951.307 121.38 947.475H121.401ZM94.5453 930.407C94.6424 929.436 94.7394 928.453 95.0091 927.525C95.2679 926.391 95.6023 925.301 96.0445 924.2C96.4651 923.142 96.9397 922.095 97.5545 921.145C98.1692 920.184 98.8703 919.137 99.7115 918.24C100.208 917.722 100.704 917.269 101.524 916.632C101.761 916.47 101.998 916.297 102.235 916.157C103.109 915.639 104.015 915.283 104.996 915.088C105.395 914.969 105.902 914.894 106.345 914.894L107.38 914.991C107.779 915.056 108.21 915.11 109.214 915.488C109.569 915.606 109.947 915.747 110.271 915.984C110.67 916.2 111.101 916.502 111.457 916.794C113.139 918.133 114.477 919.903 115.394 922.051C116.127 923.757 116.602 925.808 116.817 928.151C116.979 930.375 116.914 932.739 116.677 935.168C116.397 937.673 116.008 940.177 115.48 942.682L114.779 945.726C114.585 946.385 114.401 947.043 114.261 947.615C113.722 949.461 113.15 951.297 112.568 953.121L112.169 954.298C111.565 955.82 110.993 957.353 110.422 958.908L109.742 960.451C108.674 962.859 107.596 965.266 106.463 967.728L106.01 967.026L105.687 966.529L104.899 965.191L103.691 962.826L102.494 960.441C99.2478 953.564 95.9474 946.19 94.7826 938.461C94.3296 935.524 94.2433 933.041 94.5453 930.407ZM64.5186 936.399C65.0579 934.412 65.9099 932.663 66.9561 931.357C67.4522 930.796 68.0454 930.159 68.7789 929.781C69.3828 929.403 69.9329 929.187 70.4506 929.079C70.8712 929.025 71.2811 928.982 71.7017 928.982C71.9929 928.982 72.2949 929.004 72.6508 929.079C73.3627 929.241 73.902 929.425 74.3549 929.662C75.5306 930.191 76.6954 931.055 78.0651 932.34C79.2515 933.57 80.384 934.963 81.4626 936.474C82.1313 937.435 82.7892 938.407 83.4039 939.4L84.8923 942.304L85.5071 943.675L86.3592 945.618L86.7151 946.417C87.2328 947.745 87.7073 949.094 88.1819 950.455C88.7104 952.236 89.2497 954.028 89.7458 955.82L90.0694 957.094L90.3821 958.389C90.4684 958.951 90.5439 959.501 90.5978 960.063L90.6949 960.775C90.792 961.574 90.9106 962.362 90.9322 963.258C90.6518 963.193 90.4576 963.139 90.3174 963.042C88.4623 961.909 86.5856 960.872 84.6766 959.858C83.4255 959.177 82.1744 958.508 80.9449 957.796C77.3964 955.766 73.6755 953.499 70.483 950.617C68.7357 949.008 67.5493 947.669 66.6326 946.298C65.4462 944.603 64.7235 943.06 64.4108 941.548C64.0548 939.616 64.0764 937.889 64.497 936.399H64.5186ZM20.6434 867.21C26.8666 867.21 31.9142 872.262 31.9142 878.491C31.9142 884.72 26.8666 889.772 20.6434 889.772C14.4202 889.772 9.37256 884.72 9.37256 878.491C9.37256 872.262 14.4202 867.21 20.6434 867.21ZM20.6218 918.089C26.845 918.089 31.8926 923.142 31.8926 929.371C31.8926 935.6 26.845 940.652 20.6218 940.652C14.3986 940.652 9.35099 935.6 9.35099 929.371C9.35099 923.142 14.3986 918.089 20.6218 918.089ZM9.32942 980.251C9.32942 974.021 14.377 968.969 20.6002 968.969C26.8234 968.969 31.871 974.021 31.871 980.251C31.871 986.48 26.8234 991.532 20.6002 991.532C14.377 991.532 9.32942 986.48 9.32942 980.251ZM35.8293 1037.33C29.6061 1037.33 24.5585 1032.27 24.5585 1026.05C24.5585 1019.82 29.6061 1014.76 35.8293 1014.76C42.0525 1014.76 47.1001 1019.82 47.1001 1026.05C47.1001 1032.27 42.0525 1037.33 35.8293 1037.33ZM66.3198 1062.78C60.0966 1062.78 55.049 1057.73 55.049 1051.5C55.049 1045.27 60.0966 1040.22 66.3198 1040.22C72.543 1040.22 77.5906 1045.27 77.5906 1051.5C77.5906 1057.73 72.543 1062.78 66.3198 1062.78ZM106.981 1078.06C100.758 1078.06 95.7101 1073.01 95.7101 1066.78C95.7101 1060.55 100.758 1055.5 106.981 1055.5C113.204 1055.5 118.252 1060.55 118.252 1066.78C118.252 1073.01 113.204 1078.06 106.981 1078.06ZM135.099 990.28C134.786 991.931 134.247 993.637 133.47 995.408C132.478 997.75 131.108 999.834 129.749 1001.74C126.848 1005.93 123.159 1010.04 118.09 1014.66C115.545 1016.96 112.589 1019.44 108.502 1022.62C107.865 1023.08 107.207 1023.58 106.355 1024.02L105.266 1023.22L104.177 1022.41C100.801 1019.88 97.5545 1017.2 94.513 1014.46C89.4546 1009.83 85.7552 1005.73 82.8647 1001.54C81.5165 999.629 80.1467 997.534 79.1545 995.202C78.3779 993.432 77.8494 991.726 77.5259 990.075C76.8356 986.037 76.8356 982.302 77.5906 978.987C78.4211 975.285 79.931 972.488 82.0989 970.642C82.8323 970.049 83.5873 969.574 84.3854 969.217C85.162 968.861 85.8954 968.537 86.9524 968.408C87.5671 968.311 88.1603 968.235 89.131 968.235H89.1742L89.2928 968.278C90.1233 968.354 90.9969 968.44 91.8597 968.678C96.0984 969.757 100.24 972.521 103.195 976.191C104.522 977.897 105.6 979.635 106.269 981.341C107.207 979.538 108.297 977.886 109.472 976.396C112.428 972.726 116.569 969.962 120.819 968.894C121.714 968.634 122.706 968.537 123.893 968.462C124.507 968.462 125.111 968.548 125.996 968.678C126.848 968.796 127.646 969.153 128.282 969.455C129.08 969.811 129.825 970.286 130.569 970.88C132.747 972.758 134.279 975.576 135.055 979.236C135.832 982.539 135.843 986.253 135.131 990.323L135.099 990.28ZM147.653 1067.89C141.43 1067.89 136.382 1062.84 136.382 1056.61C136.382 1050.38 141.43 1045.33 147.653 1045.33C153.876 1045.33 158.924 1050.38 158.924 1056.61C158.924 1062.84 153.876 1067.89 147.653 1067.89ZM183.245 1042.47C177.022 1042.47 171.974 1037.41 171.974 1031.18C171.974 1024.96 177.022 1019.9 183.245 1019.9C189.468 1019.9 194.516 1024.96 194.516 1031.18C194.516 1037.41 189.468 1042.47 183.245 1042.47ZM198.506 1011.95C192.283 1011.95 187.236 1006.89 187.236 1000.67C187.236 994.436 192.283 989.384 198.506 989.384C204.73 989.384 209.777 994.436 209.777 1000.67C209.777 1006.89 204.73 1011.95 198.506 1011.95ZM370.103 950.044C370.578 947.918 371.268 945.726 372.152 943.524C372.929 941.581 373.781 939.972 374.751 938.601C376.067 936.669 377.34 935.179 378.623 934.045C379.788 933.031 380.964 932.081 382.312 931.411C383.563 930.753 384.933 930.116 386.421 930.062H386.896C387.414 930.062 387.802 930.126 388.147 930.202C388.783 930.342 389.312 930.548 389.732 930.817C390.132 931.055 390.509 931.336 390.8 931.616C391.038 931.832 391.253 932.091 391.48 932.394C391.954 933.03 392.278 933.711 392.547 934.326C392.925 935.157 393.184 935.913 393.302 936.615C393.421 937.273 393.54 937.943 393.54 938.623C393.561 940.296 393.281 941.84 392.72 943.232C392.105 944.863 391.469 946.072 390.736 947.043C388.686 950.001 385.99 952.743 381.978 955.96L381.061 956.597C380.23 957.148 379.411 957.709 378.602 958.281C377.491 958.875 376.412 959.512 375.161 960.268L372.875 961.693C371.645 962.47 370.394 963.237 369.003 963.992C368.787 963.712 368.647 963.399 368.647 963.075C368.722 958.012 369.186 953.877 370.081 950.044H370.103ZM343.247 932.977C343.344 932.005 343.441 931.022 343.711 930.094C343.97 928.961 344.304 927.87 344.746 926.769C345.167 925.711 345.642 924.664 346.256 923.714C346.871 922.753 347.572 921.706 348.413 920.81C348.91 920.292 349.406 919.838 350.225 919.201C350.463 919.039 350.7 918.867 350.937 918.726C351.811 918.208 352.717 917.852 353.698 917.658C354.097 917.539 354.604 917.463 355.046 917.463L356.082 917.56C356.481 917.625 356.912 917.679 357.915 918.057C358.271 918.176 358.649 918.316 358.972 918.554C359.371 918.769 359.803 919.072 360.159 919.363C361.841 920.702 363.179 922.472 364.095 924.621C364.829 926.326 365.303 928.378 365.519 930.72C365.681 932.944 365.616 935.308 365.379 937.737C365.098 940.242 364.71 942.747 364.182 945.251L363.481 948.296C363.287 948.954 363.103 949.613 362.963 950.185C362.424 952.031 361.852 953.866 361.27 955.69L360.871 956.867C360.267 958.389 359.695 959.922 359.123 961.477L358.444 963.021C357.376 965.428 356.298 967.836 355.165 970.297L354.712 969.595L354.389 969.099L353.601 967.76L352.393 965.396L351.196 963.01C347.95 956.133 344.649 948.76 343.484 941.03C343.031 938.094 342.945 935.611 343.247 932.977ZM313.22 938.968C313.76 936.982 314.612 935.233 315.658 933.927C316.154 933.365 316.747 932.728 317.481 932.35C318.085 931.973 318.635 931.757 319.152 931.649C319.573 931.595 319.983 931.552 320.404 931.552C320.695 931.552 320.997 931.573 321.353 931.649C322.065 931.811 322.604 931.994 323.057 932.232C324.232 932.761 325.397 933.624 326.767 934.909C327.953 936.14 329.086 937.532 330.164 939.044C330.833 940.005 331.491 940.976 332.106 941.969L333.594 944.873L334.209 946.244L335.061 948.188L335.417 948.986C335.935 950.314 336.409 951.664 336.884 953.024C337.412 954.805 337.952 956.597 338.448 958.389L338.771 959.663L339.084 960.959C339.17 961.52 339.246 962.071 339.3 962.632L339.397 963.345C339.494 964.143 339.612 964.932 339.634 965.828C339.354 965.763 339.159 965.709 339.019 965.612C337.164 964.478 335.288 963.442 333.378 962.427C332.127 961.747 330.876 961.078 329.647 960.365C326.098 958.335 322.377 956.068 319.185 953.186C317.438 951.577 316.251 950.239 315.334 948.868C314.148 947.173 313.425 945.629 313.113 944.118C312.757 942.185 312.778 940.458 313.199 938.968H313.22ZM264.589 1017.05C258.366 1017.05 253.318 1012 253.318 1005.77C253.318 999.542 258.366 994.49 264.589 994.49C270.812 994.49 275.86 999.542 275.86 1005.77C275.86 1012 270.812 1017.05 264.589 1017.05ZM284.909 1047.58C278.685 1047.58 273.638 1042.53 273.638 1036.3C273.638 1030.07 278.685 1025.02 284.909 1025.02C291.132 1025.02 296.179 1030.07 296.179 1036.3C296.179 1042.53 291.132 1047.58 284.909 1047.58ZM315.399 1073.03C309.176 1073.03 304.128 1067.98 304.128 1061.75C304.128 1055.52 309.176 1050.47 315.399 1050.47C321.622 1050.47 326.67 1055.52 326.67 1061.75C326.67 1067.98 321.622 1073.03 315.399 1073.03ZM356.06 1083.22C349.837 1083.22 344.789 1078.17 344.789 1071.94C344.789 1065.71 349.837 1060.66 356.06 1060.66C362.284 1060.66 367.331 1065.71 367.331 1071.94C367.331 1078.17 362.284 1083.22 356.06 1083.22ZM383.8 992.849C383.488 994.501 382.948 996.206 382.172 997.977C381.18 1000.32 379.81 1002.4 378.451 1004.31C375.55 1008.5 371.861 1012.61 366.792 1017.23C364.246 1019.53 361.291 1022.01 357.204 1025.19C356.567 1025.65 355.909 1026.15 355.057 1026.59L353.968 1025.79L352.879 1024.98C349.503 1022.45 346.256 1019.77 343.215 1017.03C338.156 1012.4 334.457 1008.3 331.567 1004.11C330.218 1002.2 328.849 1000.1 327.856 997.772C327.08 996.001 326.551 994.296 326.228 992.644C325.537 988.606 325.537 984.871 326.292 981.557C327.123 977.854 328.633 975.058 330.801 973.212C331.534 972.618 332.289 972.143 333.087 971.787C333.864 971.43 334.597 971.107 335.654 970.977C336.269 970.88 336.862 970.804 337.833 970.804H337.876L337.995 970.848C338.825 970.923 339.699 971.009 340.562 971.247C344.8 972.327 348.942 975.09 351.897 978.761C353.224 980.466 354.302 982.205 354.971 983.91C355.909 982.107 356.999 980.456 358.174 978.966C361.129 975.295 365.271 972.532 369.521 971.463C370.416 971.204 371.408 971.107 372.594 971.031C373.209 971.031 373.813 971.117 374.698 971.247C375.55 971.366 376.348 971.722 376.984 972.024C377.782 972.381 378.526 972.856 379.271 973.449C381.449 975.328 382.981 978.145 383.757 981.805C384.534 985.109 384.545 988.822 383.833 992.892L383.8 992.849ZM396.732 1078.15C390.509 1078.15 385.461 1073.09 385.461 1066.86C385.461 1060.63 390.509 1055.58 396.732 1055.58C402.955 1055.58 408.003 1060.63 408.003 1066.86C408.003 1073.09 402.955 1078.15 396.732 1078.15ZM432.324 1052.72C426.101 1052.72 421.053 1047.67 421.053 1041.44C421.053 1035.21 426.101 1030.16 432.324 1030.16C438.547 1030.16 443.595 1035.21 443.595 1041.44C443.595 1047.67 438.547 1052.72 432.324 1052.72ZM452.666 1017.11C446.442 1017.11 441.395 1012.05 441.395 1005.83C441.395 999.596 446.442 994.544 452.666 994.544C458.889 994.544 463.936 999.596 463.936 1005.83C463.936 1012.05 458.889 1017.11 452.666 1017.11ZM600.318 938.115C600.416 937.133 600.513 936.161 600.772 935.233C601.03 934.099 601.365 933.009 601.807 931.919C602.228 930.861 602.702 929.813 603.317 928.863C603.932 927.903 604.622 926.855 605.474 925.959C605.97 925.441 606.466 924.988 607.286 924.351C607.523 924.189 607.76 924.005 607.998 923.876C608.871 923.358 609.777 923.001 610.759 922.807C611.158 922.688 611.665 922.613 612.107 922.613L613.142 922.71C613.542 922.764 613.973 922.829 614.976 923.206C615.332 923.325 615.709 923.466 616.033 923.703C616.432 923.919 616.863 924.221 617.219 924.513C618.902 925.851 620.239 927.611 621.145 929.759C621.879 931.465 622.364 933.516 622.58 935.87C622.741 938.094 622.677 940.458 622.44 942.876C622.159 945.381 621.749 947.907 621.232 950.39L620.552 953.434C620.358 954.093 620.175 954.74 620.034 955.323C619.495 957.169 618.923 958.994 618.341 960.829L618.147 961.401L617.953 961.995C617.349 963.528 616.756 965.061 616.206 966.605C614.89 969.53 613.585 972.445 612.247 975.436L611.794 974.734L611.471 974.237L610.683 972.91L609.475 970.545L608.278 968.159C605.032 961.283 601.731 953.909 600.567 946.18C600.114 943.243 600.027 940.749 600.329 938.126L600.318 938.115ZM570.292 944.107C570.831 942.12 571.683 940.371 572.729 939.054C573.225 938.504 573.819 937.867 574.552 937.489C575.156 937.111 575.706 936.895 576.224 936.787C576.644 936.723 577.054 936.69 577.475 936.69C577.766 936.69 578.068 936.712 578.424 936.787C579.136 936.949 579.675 937.122 580.128 937.36C581.304 937.899 582.469 938.752 583.838 940.048C585.025 941.278 586.157 942.671 587.236 944.182C587.904 945.143 588.562 946.115 589.177 947.108L590.666 950.012L591.28 951.383L592.132 953.337L592.488 954.136C593.006 955.464 593.481 956.824 593.955 958.173L594.742 960.862L595.551 963.56C595.713 964.37 595.897 965.234 596.123 966.108L596.242 966.94L596.36 967.771L596.457 968.483C596.554 969.282 596.673 970.07 596.695 970.966C596.414 970.902 596.22 970.848 596.08 970.75C594.225 969.617 592.348 968.581 590.439 967.566C589.188 966.886 587.937 966.216 586.707 965.504C583.159 963.474 579.438 961.207 576.245 958.325C574.498 956.716 573.312 955.377 572.395 954.017C571.209 952.322 570.486 950.779 570.173 949.267C569.817 947.335 569.839 945.607 570.259 944.128L570.292 944.107ZM512.557 1005.9C512.557 999.672 517.605 994.62 523.828 994.62C530.051 994.62 535.099 999.672 535.099 1005.9C535.099 1012.13 530.051 1017.18 523.828 1017.18C517.605 1017.18 512.557 1012.13 512.557 1005.9ZM539.057 1052.74C532.834 1052.74 527.786 1047.69 527.786 1041.46C527.786 1035.23 532.834 1030.18 539.057 1030.18C545.28 1030.18 550.328 1035.23 550.328 1041.46C550.328 1047.69 545.28 1052.74 539.057 1052.74ZM574.628 1078.2C568.404 1078.2 563.357 1073.15 563.357 1066.92C563.357 1060.69 568.404 1055.64 574.628 1055.64C580.851 1055.64 585.898 1060.69 585.898 1066.92C585.898 1073.15 580.851 1078.2 574.628 1078.2ZM615.289 1083.31C609.065 1083.31 604.018 1078.25 604.018 1072.02C604.018 1065.8 609.065 1060.74 615.289 1060.74C621.512 1060.74 626.56 1065.8 626.56 1072.02C626.56 1078.25 621.512 1083.31 615.289 1083.31ZM640.861 997.999C640.548 999.65 640.009 1001.38 639.232 1003.13C638.24 1005.47 636.87 1007.55 635.511 1009.46C632.61 1013.66 628.922 1017.75 623.852 1022.38C621.275 1024.74 618.298 1027.21 614.145 1030.42C613.552 1030.86 612.938 1031.31 612.118 1031.73L611.029 1030.94L609.939 1030.13C606.563 1027.6 603.306 1024.91 600.275 1022.17C595.217 1017.54 591.518 1013.44 588.627 1009.25C587.279 1007.34 585.909 1005.25 584.917 1002.91C584.14 1001.16 583.612 999.434 583.288 997.783C582.598 993.745 582.598 990.01 583.353 986.695C584.183 982.993 585.693 980.197 587.861 978.351C588.595 977.757 589.35 977.282 590.148 976.925C590.924 976.569 591.658 976.245 592.715 976.116C593.33 976.019 593.923 975.932 594.893 975.932H594.937L595.055 975.975C595.886 976.062 596.759 976.137 597.611 976.375C601.861 977.454 605.992 980.218 608.947 983.889C610.273 985.594 611.352 987.333 612.021 989.038C612.959 987.225 614.048 985.584 615.224 984.094C618.179 980.412 622.321 977.66 626.57 976.58C627.466 976.321 628.458 976.224 629.644 976.148C630.259 976.148 630.863 976.224 631.747 976.364C632.599 976.483 633.398 976.839 634.034 977.141C634.832 977.498 635.576 977.973 636.32 978.566C638.499 980.434 640.031 983.263 640.807 986.922C641.584 990.215 641.594 993.939 640.883 998.009L640.861 997.999ZM639.028 961.099L638.111 961.736L637.41 962.211L635.641 963.431C634.703 963.949 633.807 964.489 632.783 965.094L632.233 965.407L629.946 966.832C628.717 967.609 627.455 968.386 626.074 969.142C625.858 968.861 625.718 968.537 625.718 968.224C625.794 963.161 626.258 959.016 627.153 955.183C627.627 953.056 628.328 950.876 629.202 948.663C629.979 946.709 630.831 945.111 631.801 943.729C633.117 941.797 634.39 940.318 635.673 939.184C636.838 938.169 638.014 937.219 639.362 936.539C640.613 935.881 641.983 935.244 643.471 935.19H643.946C644.463 935.19 644.852 935.244 645.197 935.33C645.833 935.47 646.362 935.665 646.782 935.945C647.181 936.183 647.559 936.464 647.85 936.744C648.087 936.96 648.303 937.219 648.529 937.521C649.004 938.158 649.317 938.839 649.597 939.454C649.975 940.285 650.234 941.041 650.352 941.743C650.471 942.401 650.59 943.07 650.59 943.751C650.611 945.424 650.331 946.968 649.77 948.36C649.155 949.99 648.519 951.2 647.785 952.171C645.186 955.95 641.724 958.929 639.006 961.088L639.028 961.099ZM659.089 1066.55C652.865 1066.55 647.818 1061.5 647.818 1055.27C647.818 1049.04 652.865 1043.99 659.089 1043.99C665.312 1043.99 670.359 1049.04 670.359 1055.27C670.359 1061.5 665.312 1066.55 659.089 1066.55ZM690.442 1036.44C684.219 1036.44 679.171 1031.39 679.171 1025.16C679.171 1018.93 684.219 1013.88 690.442 1013.88C696.665 1013.88 701.713 1018.93 701.713 1025.16C701.713 1031.39 696.665 1036.44 690.442 1036.44ZM701.723 991.759C695.5 991.759 690.453 986.706 690.453 980.477C690.453 974.248 695.5 969.196 701.723 969.196C707.947 969.196 712.994 974.248 712.994 980.477C712.994 986.706 707.947 991.759 701.723 991.759ZM701.734 940.879C695.511 940.879 690.463 935.827 690.463 929.598C690.463 923.368 695.511 918.316 701.734 918.316C707.957 918.316 713.005 923.368 713.005 929.598C713.005 935.827 707.957 940.879 701.734 940.879ZM701.756 889.999C695.533 889.999 690.485 884.947 690.485 878.718C690.485 872.489 695.533 867.436 701.756 867.436C707.979 867.436 713.027 872.489 713.027 878.718C713.027 884.947 707.979 889.999 701.756 889.999Z" fill="#5CB5A1"/>
</g>
<path d="M0 0H720V913H0V0Z" fill="#5CB5A1"/>
<defs>
<clipPath id="clip0_76_9">
<rect width="722" height="803" fill="white" transform="translate(0 290)"/>
</clipPath>
</defs>
</svg>
