<?xml version="1.0" encoding="UTF-8"?>
<svg id="Calque_2" data-name="Calque 2" xmlns="http://www.w3.org/2000/svg" viewBox="0 0 719.97 225.51">
  <defs>
    <style>
      .cls-1 {
        fill: #ff9e22;
        stroke-width: 0px;
      }
    </style>
  </defs>
  <g id="Calque_1-2" data-name="Calque 1">
    <path class="cls-1" d="m0,0l.14,75.2v1.73c.05,18.66.11,37.14.14,55.62l.02.8c.14,2.57.31,5.1.55,7.65.12.99.26,1.98.4,2.98.42,3.08.94,6.19,1.56,9.27.45,1.7.9,3.39,1.42,5.05l.14.5.16.5c.47,1.29.97,2.6,1.5,3.87l.34.66.4.8c.32.66.64,1.3.99,1.96.7,1.15,1.43,2.3,2.16,3.45.81,1.27,1.37,2.1,1.91,2.97,23.51,30.82,59.19,48.58,97.88,48.75,49.42.01,94.12-29.15,113.84-74.3l14.99.06c18.73,47.17,63.66,77.8,114.43,77.99,51.2.02,96.5-30.6,115.39-78l23.14.09c19.12,46.09,63.77,76.02,113.71,76.22,43.72,0,83.38-22.22,106.1-59.5.55-1.18,1.15-2.38,1.77-3.55,1.86-4.42,3.23-8.35,4.21-12.01l.31-1.17c.58-2.18,1.06-4.39,1.47-6.61l.2-1.04.1-.6.22-1.23.18-3.05.19-3.28-.07-39.88v.02s-.08-39.6-.08-39.6l-.13-52.09M120.19,80.16c.47-2.12,1.16-4.31,2.05-6.51.78-1.94,1.63-3.55,2.6-4.92,1.31-1.93,2.58-3.42,3.87-4.55,1.16-1.01,2.34-1.96,3.68-2.63,1.25-.66,2.62-1.29,4.1-1.35h.47c.52,0,.9.07,1.25.14.63.14,1.16.35,1.58.61.4.24.78.52,1.07.8.24.22.45.47.68.78.47.64.79,1.32,1.07,1.93.38.83.64,1.59.75,2.29.12.66.24,1.33.24,2.01.02,1.67-.26,3.21-.82,4.6-.61,1.63-1.25,2.83-1.98,3.81-2.05,2.95-4.74,5.69-8.75,8.91l-.92.64c-.83.55-1.65,1.11-2.46,1.68-1.11.59-2.19,1.23-3.44,1.98l-2.28,1.42c-1.23.78-2.48,1.54-3.87,2.3-.22-.28-.36-.59-.36-.92.07-5.06.54-9.19,1.43-13.01h.02Zm-26.82-17.05c.1-.97.19-1.95.46-2.88.26-1.13.59-2.22,1.03-3.32.42-1.06.89-2.1,1.51-3.05.61-.96,1.31-2.01,2.15-2.9.5-.52.99-.97,1.81-1.61.24-.16.47-.33.71-.47.87-.52,1.78-.87,2.76-1.07.4-.12.9-.19,1.35-.19l1.03.1c.4.06.83.12,1.83.5.36.12.73.26,1.06.5.4.21.83.52,1.19.81,1.68,1.34,3.01,3.11,3.93,5.25.73,1.7,1.21,3.75,1.42,6.09.16,2.22.1,4.58-.14,7.01-.28,2.5-.67,5-1.19,7.5l-.7,3.04c-.19.66-.38,1.32-.52,1.89-.54,1.84-1.11,3.68-1.69,5.5l-.4,1.18c-.6,1.52-1.17,3.05-1.74,4.6l-.68,1.54c-1.07,2.4-2.14,4.81-3.27,7.27l-.45-.7-.32-.5-.79-1.34-1.21-2.36-1.2-2.38c-3.24-6.87-6.54-14.23-7.7-21.95-.45-2.93-.54-5.41-.24-8.04Zm-29.99,5.98c.54-1.98,1.39-3.73,2.43-5.04.5-.56,1.09-1.2,1.82-1.57.6-.38,1.15-.59,1.67-.7.42-.05.83-.1,1.25-.1.29,0,.59.02.95.1.71.16,1.25.34,1.7.58,1.17.53,2.34,1.39,3.71,2.67,1.18,1.23,2.32,2.62,3.39,4.13.67.96,1.32,1.93,1.94,2.92l1.49,2.9.61,1.37.85,1.94.36.8c.52,1.33.99,2.67,1.46,4.03.53,1.78,1.07,3.57,1.56,5.36l.32,1.27.31,1.29c.09.56.16,1.11.22,1.67l.1.71c.1.8.22,1.59.24,2.48-.28-.07-.47-.12-.61-.22-1.85-1.13-3.73-2.17-5.63-3.18-1.25-.68-2.5-1.35-3.73-2.06-3.54-2.03-7.26-4.29-10.45-7.17-1.74-1.61-2.93-2.94-3.85-4.31-1.18-1.69-1.91-3.24-2.22-4.74-.36-1.93-.33-3.66.09-5.14h.02ZM19.57,0c6.21,0,11.26,5.05,11.26,11.27s-5.04,11.27-11.26,11.27-11.26-5.05-11.26-11.27S13.36,0,19.57,0Zm-.02,50.82c6.21,0,11.26,5.05,11.26,11.27s-5.04,11.27-11.26,11.27-11.26-5.05-11.26-11.27,5.04-11.27,11.26-11.27Zm-11.28,62.08c0-6.22,5.04-11.27,11.26-11.27s11.26,5.05,11.26,11.27-5.04,11.27-11.26,11.27-11.26-5.05-11.26-11.27Zm26.46,57.01c-6.21,0-11.26-5.05-11.26-11.27s5.04-11.27,11.26-11.27,11.26,5.05,11.26,11.27-5.04,11.27-11.26,11.27Zm30.45,25.42c-6.21,0-11.26-5.05-11.26-11.27s5.04-11.26,11.26-11.26,11.26,5.04,11.26,11.26-5.04,11.27-11.26,11.27Zm40.61,15.26c-6.21,0-11.26-5.05-11.26-11.27s5.04-11.27,11.26-11.27,11.25,5.05,11.25,11.27-5.04,11.27-11.25,11.27Zm28.08-87.67c-.31,1.65-.85,3.35-1.63,5.12-.99,2.34-2.36,4.42-3.72,6.33-2.9,4.18-6.58,8.28-11.64,12.89-2.54,2.3-5.49,4.78-9.58,7.96-.63.45-1.29.96-2.14,1.39l-1.09-.8-1.09-.8c-3.37-2.53-6.61-5.2-9.65-7.94-5.05-4.63-8.75-8.72-11.63-12.91-1.35-1.91-2.71-4-3.71-6.33-.78-1.77-1.3-3.47-1.63-5.12-.69-4.03-.69-7.76.06-11.07.83-3.7,2.34-6.49,4.5-8.33.73-.59,1.49-1.07,2.28-1.42.78-.36,1.51-.68,2.56-.81.61-.1,1.21-.17,2.18-.17h.04l.12.04c.83.08,1.7.16,2.56.4,4.23,1.08,8.37,3.84,11.32,7.51,1.32,1.7,2.4,3.44,3.07,5.14.94-1.8,2.03-3.45,3.2-4.94,2.95-3.67,7.09-6.43,11.33-7.49.89-.26,1.89-.36,3.07-.43.61,0,1.22.09,2.1.21.85.12,1.65.48,2.28.78.8.36,1.54.83,2.28,1.42,2.18,1.88,3.71,4.69,4.48,8.35.78,3.3.79,7.01.08,11.07l-.03-.04Zm12.54,77.51c-6.21,0-11.26-5.05-11.26-11.27s5.04-11.26,11.26-11.26,11.26,5.04,11.26,11.26-5.04,11.27-11.26,11.27Zm35.54-25.39c-6.21,0-11.26-5.05-11.26-11.27s5.04-11.27,11.26-11.27,11.26,5.05,11.26,11.27-5.04,11.27-11.26,11.27Zm15.24-30.48c-6.21,0-11.26-5.05-11.26-11.27s5.04-11.27,11.26-11.27,11.26,5.05,11.26,11.27-5.04,11.27-11.26,11.27Zm171.36-61.83c.47-2.12,1.16-4.31,2.05-6.51.77-1.94,1.63-3.55,2.6-4.92,1.31-1.93,2.58-3.42,3.87-4.55,1.16-1.01,2.34-1.96,3.68-2.63,1.25-.66,2.62-1.29,4.1-1.35h.47c.52,0,.91.06,1.25.14.64.14,1.16.34,1.58.61.4.24.77.52,1.07.8.24.22.45.47.68.78.47.64.8,1.32,1.07,1.93.38.83.64,1.59.75,2.29.12.66.24,1.33.24,2.01.02,1.67-.26,3.21-.82,4.6-.61,1.63-1.25,2.84-1.98,3.81-2.05,2.95-4.74,5.69-8.74,8.91l-.92.64c-.83.55-1.65,1.11-2.46,1.68-1.11.59-2.19,1.23-3.43,1.98l-2.28,1.42c-1.23.78-2.48,1.54-3.87,2.3-.22-.28-.36-.59-.36-.92.08-5.06.54-9.19,1.43-13.01h.02Zm-26.82-17.05c.1-.97.19-1.95.46-2.88.26-1.13.59-2.22,1.03-3.32.42-1.06.89-2.1,1.51-3.05.61-.96,1.31-2.01,2.15-2.9.49-.52.99-.97,1.81-1.61.24-.16.47-.34.71-.48.87-.52,1.78-.87,2.76-1.07.4-.12.9-.19,1.35-.19l1.03.1c.4.07.83.12,1.83.5.35.12.73.26,1.05.5.4.22.83.52,1.18.81,1.68,1.34,3.02,3.11,3.93,5.25.73,1.7,1.21,3.75,1.42,6.09.16,2.22.1,4.58-.14,7.01-.28,2.5-.67,5-1.2,7.5l-.7,3.04c-.19.66-.38,1.32-.52,1.89-.54,1.84-1.11,3.68-1.69,5.5l-.4,1.17c-.6,1.52-1.17,3.05-1.74,4.6l-.68,1.54c-1.07,2.4-2.14,4.81-3.27,7.27l-.45-.7-.32-.5-.79-1.34-1.21-2.36-1.2-2.38c-3.24-6.87-6.54-14.23-7.7-21.95-.45-2.93-.54-5.41-.24-8.04Zm-29.99,5.98c.54-1.98,1.39-3.73,2.43-5.03.49-.56,1.09-1.2,1.82-1.58.6-.38,1.15-.59,1.67-.7.42-.05.83-.1,1.25-.1.29,0,.59.02.95.1.71.16,1.25.35,1.7.58,1.17.53,2.34,1.39,3.7,2.67,1.18,1.23,2.32,2.62,3.39,4.13.67.96,1.33,1.93,1.94,2.92l1.49,2.9.61,1.37.85,1.94.36.8c.52,1.33.99,2.67,1.46,4.03.53,1.78,1.07,3.57,1.56,5.36l.32,1.27.31,1.29c.09.56.16,1.11.22,1.67l.1.71c.1.8.21,1.59.24,2.48-.28-.07-.47-.12-.61-.22-1.85-1.13-3.73-2.17-5.63-3.18-1.25-.68-2.5-1.35-3.73-2.06-3.54-2.03-7.26-4.29-10.45-7.17-1.75-1.61-2.93-2.94-3.85-4.31-1.18-1.69-1.91-3.23-2.22-4.74-.36-1.93-.33-3.65.09-5.14h.02Zm-48.57,77.99c-6.21,0-11.25-5.05-11.25-11.27s5.04-11.27,11.25-11.27,11.26,5.05,11.26,11.27-5.04,11.27-11.26,11.27Zm20.29,30.49c-6.21,0-11.26-5.05-11.26-11.27s5.04-11.27,11.26-11.27,11.26,5.05,11.26,11.27-5.04,11.27-11.26,11.27Zm30.45,25.41c-6.21,0-11.26-5.04-11.26-11.26s5.04-11.27,11.26-11.27,11.26,5.04,11.26,11.27-5.04,11.26-11.26,11.26Zm40.6,10.18c-6.21,0-11.25-5.04-11.25-11.27s5.04-11.26,11.25-11.26,11.26,5.04,11.26,11.26-5.04,11.27-11.26,11.27Zm27.7-90.26c-.31,1.65-.85,3.35-1.63,5.12-.99,2.34-2.36,4.43-3.72,6.33-2.9,4.19-6.58,8.29-11.64,12.9-2.54,2.3-5.49,4.78-9.57,7.96-.64.45-1.29.96-2.14,1.39l-1.09-.8-1.09-.81c-3.37-2.52-6.61-5.2-9.65-7.93-5.05-4.63-8.75-8.73-11.63-12.91-1.35-1.91-2.71-4-3.7-6.33-.77-1.77-1.3-3.47-1.63-5.12-.69-4.03-.69-7.76.06-11.07.83-3.7,2.34-6.49,4.5-8.33.73-.59,1.49-1.07,2.28-1.42.77-.36,1.51-.68,2.56-.81.61-.1,1.21-.17,2.18-.17h.04l.12.04c.83.08,1.7.16,2.56.4,4.23,1.08,8.37,3.84,11.32,7.5,1.32,1.7,2.4,3.44,3.07,5.14.94-1.8,2.02-3.45,3.2-4.94,2.95-3.67,7.09-6.43,11.33-7.49.89-.26,1.89-.36,3.07-.43.61,0,1.22.09,2.1.22.85.12,1.65.47,2.28.78.8.36,1.54.83,2.28,1.42,2.18,1.88,3.71,4.69,4.48,8.35.77,3.3.79,7.01.07,11.07l-.03-.04Zm12.91,85.19c-6.22,0-11.26-5.04-11.26-11.26s5.04-11.27,11.26-11.27,11.25,5.05,11.25,11.27-5.04,11.26-11.25,11.26Zm35.54-25.39c-6.21,0-11.26-5.04-11.26-11.27s5.04-11.26,11.26-11.26,11.26,5.04,11.26,11.26-5.04,11.27-11.26,11.27Zm20.31-35.57c-6.21,0-11.26-5.04-11.26-11.27s5.04-11.26,11.26-11.26,11.26,5.05,11.26,11.26-5.04,11.27-11.26,11.27Zm147.45-78.89c.1-.98.19-1.95.45-2.88.26-1.13.59-2.22,1.03-3.31.42-1.06.89-2.1,1.51-3.05.61-.96,1.3-2.01,2.15-2.9.5-.52.99-.97,1.81-1.61.24-.16.47-.34.71-.47.87-.52,1.78-.87,2.76-1.07.4-.12.9-.19,1.35-.19l1.03.1c.4.05.83.12,1.83.5.36.12.73.26,1.06.5.4.22.83.52,1.18.81,1.68,1.34,3.02,3.09,3.92,5.24.73,1.7,1.22,3.75,1.43,6.1.16,2.22.1,4.58-.14,7-.28,2.5-.69,5.03-1.21,7.5l-.68,3.04c-.19.66-.38,1.31-.52,1.89-.54,1.84-1.11,3.67-1.69,5.5l-.19.57-.19.59c-.6,1.53-1.2,3.06-1.74,4.6-1.31,2.92-2.62,5.83-3.95,8.82l-.45-.7-.32-.5-.79-1.33-1.21-2.36-1.2-2.38c-3.24-6.87-6.54-14.23-7.7-21.95-.45-2.93-.54-5.42-.24-8.04h-.01Zm-29.98,5.98c.54-1.98,1.39-3.73,2.43-5.05.5-.55,1.09-1.19,1.82-1.56.6-.38,1.15-.59,1.67-.7.42-.07.83-.1,1.25-.1.29,0,.59.02.95.1.71.16,1.25.33,1.7.57,1.17.54,2.34,1.39,3.71,2.68,1.18,1.23,2.31,2.62,3.39,4.13.67.96,1.33,1.93,1.94,2.92l1.49,2.9.61,1.37.85,1.95.36.8c.52,1.33.99,2.68,1.46,4.03l.79,2.68.81,2.7c.16.81.34,1.67.57,2.54l.12.83.12.83.1.71c.1.8.22,1.59.24,2.48-.28-.06-.47-.12-.61-.21-1.85-1.13-3.73-2.17-5.63-3.18-1.25-.68-2.5-1.35-3.73-2.06-3.54-2.03-7.26-4.29-10.45-7.17-1.74-1.61-2.93-2.94-3.85-4.3-1.18-1.69-1.91-3.23-2.22-4.74-.35-1.93-.33-3.65.09-5.13l.03-.02Zm-57.66,61.72c0-6.22,5.04-11.27,11.26-11.27s11.26,5.05,11.26,11.27-5.04,11.27-11.26,11.27-11.26-5.05-11.26-11.27Zm26.46,46.78c-6.21,0-11.26-5.04-11.26-11.26s5.04-11.27,11.26-11.27,11.26,5.04,11.26,11.27-5.04,11.26-11.26,11.26Zm35.52,25.43c-6.21,0-11.26-5.05-11.26-11.27s5.04-11.27,11.26-11.27,11.26,5.05,11.26,11.27-5.04,11.27-11.26,11.27Zm40.6,5.1c-6.21,0-11.25-5.05-11.25-11.27s5.04-11.27,11.25-11.27,11.26,5.05,11.26,11.27-5.04,11.27-11.26,11.27Zm25.54-85.2c-.31,1.65-.85,3.38-1.63,5.12-.99,2.34-2.36,4.42-3.72,6.33-2.9,4.19-6.58,8.28-11.64,12.89-2.57,2.36-5.55,4.83-9.69,8.04-.59.44-1.21.89-2.02,1.31l-1.09-.8-1.09-.81c-3.37-2.52-6.62-5.2-9.65-7.94-5.05-4.63-8.75-8.72-11.63-12.91-1.35-1.91-2.71-3.99-3.71-6.33-.78-1.74-1.3-3.47-1.63-5.12-.69-4.03-.69-7.76.07-11.07.83-3.7,2.34-6.49,4.5-8.34.73-.59,1.49-1.07,2.28-1.42.78-.36,1.51-.68,2.56-.81.61-.1,1.21-.18,2.17-.18h.04l.12.04c.83.09,1.7.16,2.55.4,4.24,1.08,8.37,3.84,11.32,7.51,1.32,1.7,2.4,3.44,3.07,5.14.94-1.81,2.03-3.45,3.2-4.94,2.95-3.68,7.09-6.43,11.33-7.5.89-.26,1.88-.36,3.07-.43.61,0,1.22.08,2.1.21.85.12,1.65.48,2.28.78.8.35,1.54.83,2.28,1.42,2.18,1.86,3.7,4.69,4.48,8.35.78,3.29.79,7.01.08,11.07h-.02Zm-1.83-36.85l-.92.64-.7.48-1.77,1.22c-.94.52-1.83,1.06-2.85,1.66l-.55.31-2.28,1.42c-1.23.78-2.49,1.55-3.87,2.31-.21-.28-.35-.6-.35-.92.08-5.06.54-9.2,1.43-13.03.47-2.12,1.17-4.3,2.05-6.51.78-1.95,1.63-3.55,2.6-4.93,1.31-1.93,2.58-3.41,3.87-4.54,1.16-1.01,2.34-1.96,3.68-2.64,1.25-.66,2.62-1.29,4.1-1.35h.47c.52,0,.9.05,1.25.14.64.14,1.16.34,1.58.61.4.24.78.52,1.07.8.24.21.45.47.68.78.47.64.79,1.32,1.07,1.93.38.83.64,1.58.75,2.29.12.66.24,1.33.24,2,.02,1.67-.26,3.21-.82,4.6-.61,1.63-1.25,2.84-1.98,3.81-2.6,3.77-6.05,6.75-8.77,8.91h.02Zm20.03,105.32c-6.22,0-11.26-5.04-11.26-11.26s5.04-11.27,11.26-11.27,11.26,5.04,11.26,11.27-5.04,11.26-11.26,11.26Zm31.31-30.07c-6.21,0-11.26-5.04-11.26-11.27s5.04-11.26,11.26-11.26,11.26,5.04,11.26,11.26-5.04,11.27-11.26,11.27Zm11.27-44.62c-6.21,0-11.26-5.05-11.26-11.27s5.04-11.27,11.26-11.27,11.26,5.05,11.26,11.27-5.04,11.27-11.26,11.27Zm.01-50.82c-6.21,0-11.26-5.05-11.26-11.27s5.04-11.27,11.26-11.27,11.26,5.05,11.26,11.27-5.04,11.27-11.26,11.27Zm.02-50.82c-6.22,0-11.26-5.05-11.26-11.27s5.04-11.27,11.26-11.27,11.26,5.05,11.26,11.27-5.04,11.27-11.26,11.27Z"/>
  </g>
</svg>