<svg width="721" height="1091" viewBox="0 0 721 1091" fill="none" xmlns="http://www.w3.org/2000/svg">
<path d="M0 0H720V913H0V0Z" fill="#FF9E22"/>
<path d="M719.935 957.409L719.871 917.806L719.569 797.876L719.386 698.647L718.568 289.345L718.471 289.248L-1 289L-0.601491 542.737L-0.192211 742.509L0.184757 940.696V942.422C0.23861 961.086 0.292462 979.566 0.324774 998.047L0.346315 998.845C0.486331 1001.41 0.65866 1003.94 0.895611 1006.49C1.01409 1007.48 1.1541 1008.47 1.29412 1009.47C1.71417 1012.55 2.23116 1015.66 2.85585 1018.74C3.30821 1020.44 3.76057 1022.13 4.27755 1023.79L4.41757 1024.29L4.57913 1024.79C5.05303 1026.08 5.54847 1027.39 6.07623 1028.66L6.42089 1029.32L6.8194 1030.12C7.14251 1030.78 7.45486 1031.42 7.81028 1032.08C8.51037 1033.23 9.24276 1034.38 9.97516 1035.53C10.7829 1036.8 11.343 1037.63 11.8815 1038.5C35.3936 1069.32 71.0763 1087.08 109.764 1087.25C159.179 1087.26 203.888 1058.1 223.608 1012.95L238.601 1013.01C257.331 1060.18 302.265 1090.81 353.027 1091C404.23 1091.02 449.531 1060.4 468.422 1013L491.557 1013.09C510.675 1059.18 555.33 1089.11 605.262 1089.31C648.979 1089.32 688.647 1067.09 711.362 1029.81C711.911 1028.63 712.514 1027.43 713.128 1026.26C714.992 1021.84 716.36 1017.91 717.34 1014.25L717.652 1013.08C718.234 1010.9 718.708 1008.69 719.117 1006.47L719.321 1005.43L719.418 1004.83L719.634 1003.6L719.817 1000.55L720.011 997.271L719.946 957.387L719.935 957.409ZM120.233 945.656C120.707 943.532 121.396 941.343 122.279 939.144C123.055 937.203 123.906 935.596 124.875 934.227C126.189 932.297 127.46 930.809 128.742 929.677C129.905 928.664 131.079 927.715 132.425 927.046C133.675 926.388 135.042 925.752 136.529 925.698H137.003C137.52 925.698 137.907 925.763 138.252 925.839C138.887 925.979 139.415 926.184 139.835 926.453C140.234 926.69 140.611 926.971 140.902 927.251C141.139 927.467 141.354 927.725 141.58 928.027C142.054 928.664 142.366 929.343 142.646 929.957C143.023 930.788 143.282 931.542 143.4 932.243C143.519 932.901 143.637 933.569 143.637 934.249C143.659 935.92 143.379 937.462 142.819 938.853C142.205 940.481 141.569 941.688 140.837 942.659C138.791 945.613 136.098 948.352 132.091 951.565L131.176 952.201C130.346 952.751 129.528 953.312 128.72 953.883C127.611 954.476 126.534 955.112 125.284 955.867L123.001 957.29C121.773 958.067 120.524 958.832 119.134 959.587C118.919 959.306 118.779 958.994 118.779 958.67C118.854 953.614 119.317 949.484 120.211 945.656H120.233ZM93.4144 928.61C93.5113 927.639 93.6082 926.658 93.8775 925.731C94.136 924.599 94.4699 923.51 94.9115 922.41C95.3315 921.353 95.8054 920.307 96.4193 919.359C97.0332 918.399 97.7333 917.353 98.5734 916.458C99.0689 915.941 99.5643 915.488 100.383 914.852C100.62 914.69 100.857 914.517 101.094 914.377C101.966 913.86 102.871 913.504 103.851 913.31C104.249 913.191 104.756 913.116 105.197 913.116L106.231 913.213C106.63 913.277 107.061 913.331 108.062 913.709C108.418 913.827 108.795 913.967 109.118 914.205C109.516 914.42 109.947 914.722 110.303 915.013C111.983 916.35 113.318 918.119 114.234 920.264C114.966 921.968 115.44 924.016 115.655 926.356C115.817 928.577 115.752 930.939 115.515 933.365C115.235 935.866 114.848 938.367 114.32 940.869L113.62 943.91C113.426 944.567 113.243 945.225 113.103 945.796C112.564 947.64 111.993 949.473 111.412 951.295L111.013 952.471C110.41 953.991 109.839 955.522 109.269 957.075L108.59 958.616C107.524 961.021 106.447 963.425 105.316 965.884L104.863 965.183L104.54 964.687L103.754 963.35L102.548 960.988L101.352 958.606C98.1103 951.737 94.8145 944.373 93.6513 936.653C93.1989 933.72 93.1128 931.24 93.4144 928.61ZM63.4292 934.594C63.9678 932.61 64.8186 930.863 65.8634 929.558C66.3588 928.998 66.9512 928.362 67.6836 927.984C68.2867 927.607 68.836 927.391 69.353 927.283C69.7731 927.229 70.1824 927.186 70.6024 927.186C70.8932 927.186 71.1948 927.208 71.5502 927.283C72.2611 927.445 72.7996 927.628 73.252 927.866C74.4259 928.394 75.5891 929.257 76.957 930.54C78.1418 931.769 79.2727 933.16 80.3497 934.669C81.0175 935.629 81.6745 936.599 82.2884 937.591L83.7747 940.492L84.3887 941.861L85.2395 943.802L85.595 944.6C86.1119 945.926 86.5859 947.274 87.0598 948.632C87.5875 950.411 88.126 952.201 88.6215 953.991L88.9446 955.263L89.2569 956.557C89.3431 957.118 89.4185 957.668 89.4724 958.228L89.5693 958.94C89.6662 959.738 89.7847 960.525 89.8062 961.42C89.5262 961.355 89.3323 961.301 89.1923 961.204C87.3398 960.072 85.4657 959.037 83.5593 958.023C82.31 957.344 81.0606 956.676 79.8327 955.964C76.2892 953.937 72.5734 951.673 69.3853 948.794C67.6405 947.187 66.4557 945.85 65.5403 944.481C64.3555 942.788 63.6339 941.246 63.3215 939.737C62.9661 937.807 62.9876 936.082 63.4077 934.594H63.4292ZM19.6148 865.491C25.8294 865.491 30.87 870.537 30.87 876.758C30.87 882.979 25.8294 888.026 19.6148 888.026C13.4002 888.026 8.35958 882.979 8.35958 876.758C8.35958 870.537 13.4002 865.491 19.6148 865.491ZM19.5932 916.307C25.8078 916.307 30.8484 921.353 30.8484 927.575C30.8484 933.796 25.8078 938.842 19.5932 938.842C13.3786 938.842 8.33804 933.796 8.33804 927.575C8.33804 921.353 13.3786 916.307 19.5932 916.307ZM8.3165 978.391C8.3165 972.17 13.3571 967.124 19.5717 967.124C25.7863 967.124 30.8269 972.17 30.8269 978.391C30.8269 984.612 25.7863 989.658 19.5717 989.658C13.3571 989.658 8.3165 984.612 8.3165 978.391ZM34.7797 1035.4C28.5651 1035.4 23.5245 1030.35 23.5245 1024.13C23.5245 1017.91 28.5651 1012.86 34.7797 1012.86C40.9943 1012.86 46.0348 1017.91 46.0348 1024.13C46.0348 1030.35 40.9943 1035.4 34.7797 1035.4ZM65.2279 1060.82C59.0133 1060.82 53.9727 1055.77 53.9727 1049.55C53.9727 1043.33 59.0133 1038.29 65.2279 1038.29C71.4425 1038.29 76.4831 1043.33 76.4831 1049.55C76.4831 1055.77 71.4425 1060.82 65.2279 1060.82ZM105.833 1076.08C99.6182 1076.08 94.5776 1071.03 94.5776 1064.81C94.5776 1058.59 99.6182 1053.54 105.833 1053.54C112.047 1053.54 117.088 1058.59 117.088 1064.81C117.088 1071.03 112.047 1076.08 105.833 1076.08ZM133.911 988.408C133.599 990.057 133.061 991.761 132.285 993.529C131.294 995.869 129.926 997.95 128.569 999.858C125.672 1004.04 121.989 1008.14 116.926 1012.75C114.385 1015.05 111.433 1017.53 107.351 1020.71C106.716 1021.16 106.059 1021.67 105.208 1022.1L104.12 1021.3L103.032 1020.5C99.6613 1017.97 96.4193 1015.3 93.382 1012.56C88.3307 1007.93 84.6364 1003.84 81.7499 999.653C80.4036 997.745 79.0357 995.653 78.0448 993.324C77.2693 991.556 76.7416 989.852 76.4185 988.203C75.7292 984.17 75.7292 980.44 76.4831 977.129C77.3124 973.431 78.8203 970.639 80.9852 968.795C81.7176 968.202 82.4715 967.727 83.2685 967.372C84.044 967.016 84.7764 966.692 85.8319 966.563C86.4458 966.466 87.0382 966.39 88.0076 966.39H88.0506L88.1691 966.433C88.9984 966.509 89.8709 966.595 90.7325 966.832C94.9653 967.911 99.1012 970.671 102.052 974.337C103.377 976.04 104.454 977.776 105.122 979.48C106.059 977.679 107.147 976.03 108.321 974.542C111.272 970.876 115.408 968.115 119.651 967.048C120.545 966.789 121.536 966.692 122.721 966.617C123.335 966.617 123.938 966.703 124.821 966.832C125.672 966.951 126.469 967.307 127.105 967.609C127.902 967.965 128.645 968.439 129.388 969.032C131.564 970.908 133.093 973.722 133.868 977.377C134.644 980.677 134.655 984.386 133.944 988.451L133.911 988.408ZM146.448 1065.92C140.234 1065.92 135.193 1060.87 135.193 1054.65C135.193 1048.43 140.234 1043.39 146.448 1043.39C152.663 1043.39 157.704 1048.43 157.704 1054.65C157.704 1060.87 152.663 1065.92 146.448 1065.92ZM181.991 1040.53C175.777 1040.53 170.736 1035.48 170.736 1029.26C170.736 1023.04 175.777 1017.99 181.991 1017.99C188.206 1017.99 193.246 1023.04 193.246 1029.26C193.246 1035.48 188.206 1040.53 181.991 1040.53ZM197.231 1010.05C191.017 1010.05 185.976 1005 185.976 998.78C185.976 992.559 191.017 987.513 197.231 987.513C203.446 987.513 208.487 992.559 208.487 998.78C208.487 1005 203.446 1010.05 197.231 1010.05ZM368.59 948.222C369.064 946.098 369.754 943.909 370.637 941.71C371.412 939.769 372.263 938.163 373.232 936.793C374.546 934.863 375.817 933.375 377.099 932.243C378.262 931.23 379.436 930.281 380.783 929.612C382.032 928.955 383.4 928.319 384.886 928.265H385.36C385.877 928.265 386.265 928.329 386.609 928.405C387.245 928.545 387.773 928.75 388.193 929.019C388.591 929.257 388.968 929.537 389.259 929.817C389.496 930.033 389.711 930.292 389.937 930.594C390.411 931.23 390.734 931.909 391.004 932.524C391.381 933.354 391.639 934.109 391.758 934.809C391.876 935.467 391.995 936.136 391.995 936.815C392.016 938.486 391.736 940.028 391.176 941.419C390.562 943.047 389.927 944.255 389.194 945.225C387.148 948.179 384.455 950.918 380.449 954.131L379.533 954.767C378.704 955.317 377.885 955.878 377.077 956.449C375.968 957.042 374.891 957.678 373.642 958.433L371.358 959.856C370.13 960.633 368.881 961.398 367.492 962.153C367.276 961.873 367.136 961.56 367.136 961.236C367.212 956.18 367.675 952.05 368.569 948.222H368.59ZM341.772 931.176C341.869 930.205 341.966 929.224 342.235 928.297C342.493 927.165 342.827 926.076 343.269 924.976C343.689 923.919 344.163 922.874 344.777 921.925C345.391 920.965 346.091 919.919 346.931 919.024C347.426 918.507 347.922 918.054 348.74 917.418C348.977 917.256 349.214 917.083 349.451 916.943C350.324 916.426 351.228 916.07 352.208 915.876C352.607 915.757 353.113 915.682 353.555 915.682L354.589 915.779C354.987 915.844 355.418 915.897 356.42 916.275C356.775 916.393 357.152 916.534 357.475 916.771C357.874 916.986 358.304 917.288 358.66 917.579C360.34 918.916 361.676 920.685 362.591 922.83C363.324 924.534 363.797 926.583 364.013 928.922C364.174 931.143 364.11 933.505 363.873 935.931C363.593 938.432 363.205 940.934 362.677 943.435L361.977 946.476C361.783 947.133 361.6 947.791 361.46 948.363C360.922 950.206 360.351 952.039 359.769 953.862L359.371 955.037C358.768 956.557 358.197 958.088 357.626 959.641L356.947 961.183C355.881 963.587 354.804 965.991 353.673 968.45L353.221 967.749L352.898 967.253L352.111 965.916L350.905 963.555L349.71 961.172C346.468 954.304 343.172 946.939 342.009 939.219C341.556 936.286 341.47 933.807 341.772 931.176ZM311.787 937.16C312.325 935.176 313.176 933.429 314.221 932.125C314.716 931.564 315.309 930.928 316.041 930.55C316.644 930.173 317.193 929.957 317.71 929.85C318.13 929.796 318.54 929.753 318.96 929.753C319.251 929.753 319.552 929.774 319.908 929.85C320.618 930.011 321.157 930.195 321.609 930.432C322.783 930.96 323.947 931.823 325.314 933.106C326.499 934.335 327.63 935.726 328.707 937.235C329.375 938.195 330.032 939.165 330.646 940.157L332.132 943.058L332.746 944.427L333.597 946.368L333.952 947.166C334.469 948.492 334.943 949.84 335.417 951.198C335.945 952.977 336.483 954.767 336.979 956.557L337.302 957.829L337.614 959.123C337.7 959.684 337.776 960.234 337.83 960.794L337.927 961.506C338.024 962.304 338.142 963.091 338.164 963.986C337.884 963.921 337.69 963.867 337.55 963.77C335.697 962.638 333.823 961.603 331.917 960.59C330.667 959.91 329.418 959.242 328.19 958.53C324.647 956.503 320.931 954.239 317.743 951.36C315.998 949.753 314.813 948.417 313.898 947.047C312.713 945.354 311.991 943.812 311.679 942.303C311.323 940.373 311.345 938.648 311.765 937.16H311.787ZM263.222 1015.15C257.008 1015.15 251.967 1010.1 251.967 1003.88C251.967 997.659 257.008 992.613 263.222 992.613C269.437 992.613 274.478 997.659 274.478 1003.88C274.478 1010.1 269.437 1015.15 263.222 1015.15ZM283.514 1045.64C277.299 1045.64 272.259 1040.59 272.259 1034.37C272.259 1028.15 277.299 1023.1 283.514 1023.1C289.729 1023.1 294.769 1028.15 294.769 1034.37C294.769 1040.59 289.729 1045.64 283.514 1045.64ZM313.962 1071.05C307.748 1071.05 302.707 1066.01 302.707 1059.79C302.707 1053.56 307.748 1048.52 313.962 1048.52C320.177 1048.52 325.217 1053.56 325.217 1059.79C325.217 1066.01 320.177 1071.05 313.962 1071.05ZM354.567 1081.23C348.353 1081.23 343.312 1076.19 343.312 1069.96C343.312 1063.74 348.353 1058.7 354.567 1058.7C360.782 1058.7 365.822 1063.74 365.822 1069.96C365.822 1076.19 360.782 1081.23 354.567 1081.23ZM382.269 990.974C381.957 992.623 381.418 994.327 380.643 996.095C379.652 998.435 378.284 1000.52 376.927 1002.42C374.029 1006.61 370.346 1010.71 365.284 1015.32C362.742 1017.62 359.791 1020.1 355.709 1023.28C355.073 1023.73 354.416 1024.24 353.565 1024.67L352.478 1023.87L351.39 1023.06C348.019 1020.54 344.777 1017.86 341.739 1015.13C336.688 1010.5 332.994 1006.4 330.107 1002.22C328.761 1000.31 327.393 998.219 326.402 995.89C325.627 994.122 325.099 992.419 324.776 990.769C324.087 986.736 324.087 983.006 324.84 979.696C325.67 975.997 327.178 973.205 329.343 971.361C330.075 970.768 330.829 970.294 331.626 969.938C332.401 969.582 333.134 969.258 334.189 969.129C334.803 969.032 335.396 968.957 336.365 968.957H336.408L336.526 969C337.356 969.075 338.228 969.161 339.09 969.399C343.323 970.477 347.459 973.237 350.41 976.903C351.734 978.607 352.811 980.343 353.479 982.046C354.416 980.245 355.504 978.596 356.678 977.108C359.629 973.442 363.765 970.682 368.009 969.614C368.903 969.355 369.894 969.258 371.078 969.183C371.692 969.183 372.295 969.269 373.179 969.399C374.029 969.517 374.826 969.873 375.462 970.175C376.259 970.531 377.002 971.005 377.745 971.598C379.921 973.474 381.45 976.288 382.226 979.944C383.001 983.243 383.012 986.952 382.301 991.017L382.269 990.974ZM395.183 1076.16C388.968 1076.16 383.928 1071.12 383.928 1064.9C383.928 1058.68 388.968 1053.63 395.183 1053.63C401.397 1053.63 406.438 1058.68 406.438 1064.9C406.438 1071.12 401.397 1076.16 395.183 1076.16ZM430.725 1050.77C424.511 1050.77 419.47 1045.73 419.47 1039.5C419.47 1033.28 424.511 1028.24 430.725 1028.24C436.94 1028.24 441.981 1033.28 441.981 1039.5C441.981 1045.73 436.94 1050.77 430.725 1050.77ZM451.039 1015.2C444.824 1015.2 439.783 1010.16 439.783 1003.93C439.783 997.713 444.824 992.667 451.039 992.667C457.253 992.667 462.294 997.713 462.294 1003.93C462.294 1010.16 457.253 1015.2 451.039 1015.2ZM598.487 936.308C598.584 935.327 598.681 934.357 598.939 933.429C599.198 932.297 599.532 931.208 599.973 930.119C600.393 929.062 600.867 928.017 601.481 927.068C602.095 926.108 602.784 925.062 603.635 924.167C604.131 923.65 604.626 923.197 605.445 922.561C605.682 922.399 605.919 922.216 606.156 922.086C607.028 921.569 607.933 921.213 608.913 921.019C609.311 920.9 609.818 920.825 610.259 920.825L611.293 920.922C611.692 920.976 612.122 921.041 613.124 921.418C613.48 921.536 613.857 921.677 614.18 921.914C614.578 922.13 615.009 922.431 615.364 922.723C617.045 924.06 618.38 925.817 619.285 927.963C620.017 929.666 620.502 931.715 620.717 934.065C620.879 936.287 620.814 938.648 620.577 941.063C620.297 943.565 619.888 946.088 619.371 948.567L618.693 951.608C618.499 952.266 618.316 952.913 618.176 953.495C617.637 955.339 617.066 957.161 616.485 958.994L616.291 959.565L616.097 960.158C615.494 961.689 614.901 963.22 614.352 964.762C613.038 967.684 611.735 970.595 610.399 973.582L609.947 972.881L609.624 972.385L608.838 971.059L607.631 968.698L606.436 966.315C603.194 959.447 599.898 952.082 598.735 944.362C598.282 941.43 598.196 938.939 598.498 936.319L598.487 936.308ZM568.502 942.292C569.04 940.308 569.891 938.562 570.936 937.246C571.432 936.696 572.024 936.06 572.756 935.683C573.359 935.305 573.909 935.09 574.426 934.982C574.846 934.917 575.255 934.885 575.675 934.885C575.966 934.885 576.267 934.906 576.623 934.982C577.334 935.144 577.872 935.316 578.325 935.553C579.499 936.092 580.662 936.944 582.03 938.238C583.214 939.467 584.345 940.858 585.422 942.368C586.09 943.327 586.747 944.298 587.361 945.29L588.847 948.19L589.461 949.559L590.312 951.511L590.668 952.309C591.185 953.635 591.659 954.994 592.132 956.341L592.919 959.026L593.726 961.722C593.888 962.53 594.071 963.393 594.297 964.266L594.416 965.096L594.534 965.927L594.631 966.638C594.728 967.436 594.847 968.223 594.868 969.118C594.588 969.054 594.394 969 594.254 968.903C592.402 967.771 590.528 966.735 588.621 965.722C587.372 965.043 586.122 964.374 584.895 963.662C581.351 961.635 577.635 959.371 574.447 956.492C572.702 954.886 571.518 953.549 570.602 952.19C569.417 950.497 568.696 948.956 568.383 947.446C568.028 945.516 568.049 943.791 568.47 942.314L568.502 942.292ZM510.847 1004.01C510.847 997.788 515.888 992.742 522.102 992.742C528.317 992.742 533.358 997.788 533.358 1004.01C533.358 1010.23 528.317 1015.28 522.102 1015.28C515.888 1015.28 510.847 1010.23 510.847 1004.01ZM537.31 1050.79C531.096 1050.79 526.055 1045.75 526.055 1039.53C526.055 1033.3 531.096 1028.26 537.31 1028.26C543.525 1028.26 548.566 1033.3 548.566 1039.53C548.566 1045.75 543.525 1050.79 537.31 1050.79ZM572.832 1076.22C566.617 1076.22 561.576 1071.17 561.576 1064.95C561.576 1058.73 566.617 1053.68 572.832 1053.68C579.046 1053.68 584.087 1058.73 584.087 1064.95C584.087 1071.17 579.046 1076.22 572.832 1076.22ZM613.436 1081.32C607.222 1081.32 602.181 1076.27 602.181 1070.05C602.181 1063.83 607.222 1058.78 613.436 1058.78C619.651 1058.78 624.692 1063.83 624.692 1070.05C624.692 1076.27 619.651 1081.32 613.436 1081.32ZM638.973 996.117C638.661 997.767 638.122 999.492 637.347 1001.24C636.356 1003.58 634.988 1005.66 633.631 1007.57C630.734 1011.76 627.05 1015.85 621.988 1020.46C619.414 1022.82 616.441 1025.29 612.295 1028.5C611.702 1028.94 611.089 1029.39 610.27 1029.81L609.182 1029.01L608.094 1028.2C604.723 1025.68 601.47 1023 598.444 1020.26C593.393 1015.63 589.698 1011.54 586.812 1007.35C585.465 1005.44 584.098 1003.36 583.107 1001.02C582.331 999.276 581.803 997.551 581.48 995.901C580.791 991.869 580.791 988.138 581.545 984.828C582.374 981.13 583.882 978.337 586.047 976.493C586.779 975.9 587.533 975.426 588.33 975.07C589.106 974.714 589.838 974.391 590.894 974.261C591.508 974.164 592.1 974.078 593.069 974.078H593.112L593.231 974.121C594.06 974.207 594.933 974.283 595.784 974.52C600.027 975.598 604.152 978.359 607.103 982.025C608.428 983.728 609.505 985.464 610.173 987.168C611.11 985.356 612.198 983.717 613.372 982.229C616.323 978.553 620.459 975.803 624.702 974.725C625.596 974.466 626.587 974.369 627.772 974.294C628.386 974.294 628.989 974.369 629.872 974.509C630.723 974.628 631.52 974.984 632.156 975.286C632.953 975.641 633.696 976.116 634.439 976.709C636.615 978.574 638.144 981.399 638.92 985.054C639.695 988.343 639.706 992.063 638.995 996.128L638.973 996.117ZM637.142 959.263L636.227 959.899L635.527 960.374L633.76 961.592C632.823 962.11 631.93 962.649 630.906 963.253L630.357 963.565L628.074 964.989C626.846 965.765 625.586 966.541 624.207 967.296C623.992 967.016 623.852 966.692 623.852 966.38C623.927 961.323 624.39 957.182 625.284 953.355C625.758 951.231 626.458 949.053 627.33 946.842C628.106 944.891 628.957 943.295 629.926 941.915C631.24 939.985 632.511 938.508 633.793 937.376C634.956 936.362 636.13 935.413 637.476 934.734C638.726 934.076 640.094 933.44 641.58 933.386H642.054C642.571 933.386 642.958 933.44 643.303 933.526C643.939 933.667 644.466 933.861 644.886 934.141C645.285 934.378 645.662 934.658 645.953 934.939C646.19 935.154 646.405 935.413 646.631 935.715C647.105 936.351 647.417 937.031 647.698 937.645C648.074 938.475 648.333 939.23 648.451 939.931C648.57 940.589 648.688 941.257 648.688 941.936C648.71 943.608 648.43 945.15 647.87 946.54C647.256 948.169 646.62 949.376 645.888 950.346C643.292 954.12 639.835 957.096 637.121 959.253L637.142 959.263ZM657.176 1064.58C650.961 1064.58 645.92 1059.54 645.92 1053.32C645.92 1047.09 650.961 1042.05 657.176 1042.05C663.39 1042.05 668.431 1047.09 668.431 1053.32C668.431 1059.54 663.39 1064.58 657.176 1064.58ZM688.485 1034.51C682.271 1034.51 677.23 1029.47 677.23 1023.24C677.23 1017.02 682.271 1011.98 688.485 1011.98C694.7 1011.98 699.741 1017.02 699.741 1023.24C699.741 1029.47 694.7 1034.51 688.485 1034.51ZM699.751 989.885C693.537 989.885 688.496 984.839 688.496 978.617C688.496 972.396 693.537 967.35 699.751 967.35C705.966 967.35 711.007 972.396 711.007 978.617C711.007 984.839 705.966 989.885 699.751 989.885ZM699.762 939.068C693.548 939.068 688.507 934.022 688.507 927.801C688.507 921.58 693.548 916.534 699.762 916.534C705.977 916.534 711.017 921.58 711.017 927.801C711.017 934.022 705.977 939.068 699.762 939.068ZM699.784 888.252C693.569 888.252 688.529 883.206 688.529 876.985C688.529 870.763 693.569 865.717 699.784 865.717C705.998 865.717 711.039 870.763 711.039 876.985C711.039 883.206 705.998 888.252 699.784 888.252Z" fill="#FF9E22"/>
</svg>
