<svg width="148" height="237" viewBox="0 0 148 237" fill="none" xmlns="http://www.w3.org/2000/svg">
<g clip-path="url(#clip0_34_265)">
<path d="M108.399 86.0511C111.414 86.5269 114.001 88.2086 116.042 90.3337L111.793 90.6905C112.973 88.8196 114.559 87.1596 116.491 85.97C117.184 85.5536 117.91 85.1643 118.814 84.8885C118.922 85.824 118.857 86.6459 118.759 87.4462C118.445 89.6902 117.563 91.8098 116.324 93.6429L114.37 96.5466L112.074 93.9998C110.115 91.8044 108.643 89.09 108.404 86.0511H108.399Z" fill="#FF9E22"/>
<path d="M81.9354 166.922C84.8529 167.809 87.1913 169.826 88.918 172.21L84.6581 171.983C86.6608 169.653 89.2753 167.782 92.4094 167.198C92.3877 168.139 92.2145 168.944 92.0034 169.723C91.3809 171.902 90.2171 173.881 88.7394 175.525L86.4064 178.137L84.4848 175.298C82.8447 172.854 81.7621 169.966 81.9408 166.922H81.9354Z" fill="#FF9E22"/>
<path d="M59.645 223.109H54.232V5.8777C52.8355 6.31569 51.5689 7.11056 50.4159 8.28934C47.3143 11.4418 45.0463 17.2654 43.8501 25.1329C42.9082 31.3242 42.9894 36.5747 42.9894 36.6234V220.356H37.5765V36.6666C37.5603 35.7906 37.2734 13.9399 46.5511 4.49885C49.4416 1.56271 52.9384 0.0703125 56.9385 0.0703125H59.645V223.109Z" fill="#FF9E22"/>
<path d="M29.4246 224.244L24.0117 224.233C24.0604 205.059 24.0442 185.523 24.028 166.625C23.9901 122.464 23.9522 76.7938 24.71 32.1029C24.71 23.6621 28.0335 15.335 34.0743 8.70026L34.1609 8.60834C38.1881 4.58534 43.7635 1.77357 49.6689 0.621825C50.1778 0.227096 50.7678 0.113543 51.3415 0.0810998V0.0702853C51.3415 0.0702853 51.5039 0.0702853 51.7908 0.0702853C51.8612 0.0702853 51.937 0.0702853 52.0073 0.0702853H54.2266C55.1739 0.0270273 56.1266 0.0270273 57.0684 0.0702853L56.9331 5.47213H56.067C49.1168 5.76413 46.3617 13.6046 44.1748 21.7372C42.6159 60.2044 42.8757 99.3583 43.1247 137.231C43.3034 164.332 43.4874 192.358 43.0056 219.973L37.5927 219.881C38.0691 192.331 37.885 164.337 37.7064 137.269C37.4574 99.2393 37.1976 59.9124 38.7727 21.2235L38.7836 20.9261L38.8593 20.6395C39.7579 17.2708 41.0137 12.5773 43.3142 8.52183C41.3385 9.57624 39.5414 10.8794 38.0203 12.388C32.916 18.017 30.1067 25.0356 30.1067 32.1515C29.3488 76.8425 29.3867 122.48 29.4246 166.619C29.4409 185.518 29.4571 205.065 29.4084 224.244H29.4246Z" fill="#FF9E22"/>
<path d="M37.5989 219.887L37.579 220.99L42.9911 221.087L43.0109 219.984L37.5989 219.887Z" fill="#FF9E22"/>
<path d="M59.6449 223.747H54.232V0.0703125H56.9385C61.0361 0.0703125 64.5923 1.57894 67.5207 4.56374C76.5982 13.8047 76.3167 34.6065 76.2951 35.4878V221.065H70.8822V35.4338C70.8822 35.1904 71.142 15.9676 63.6505 8.34341C62.4434 7.11597 61.1227 6.29406 59.6395 5.85608V223.747H59.6449Z" fill="#FF9E22"/>
<path d="M84.4578 227.532C84.3928 206.222 84.3982 184.647 84.409 163.786C84.4253 118.997 84.4469 72.6843 83.7108 26.9606C83.3698 24.6679 82.704 22.4455 81.7242 20.3529C80.2303 17.1518 78.4332 15.1457 77.356 13.9453C76.3221 12.7936 74.2652 10.4955 70.9038 8.54889C73.2097 12.096 74.7037 16.2867 75.0339 20.5854V20.6611C77.1557 64.395 76.7389 108.599 76.3384 151.344C76.1219 174.227 75.8999 197.884 76.0677 221.189L70.6548 221.227C70.487 197.879 70.709 174.195 70.9255 151.29C71.326 108.632 71.7428 64.5248 69.6372 20.9585C69.1284 14.5401 65.2148 8.25149 60.0563 5.51542C59.8994 5.51542 59.7424 5.51542 59.5854 5.51542C59.0225 5.51542 58.4433 5.51542 57.8587 5.50461C57.4527 5.51542 57.0251 5.50461 56.5812 5.45053L56.9331 0.0649061H58.2809C58.3242 0.0649061 58.3621 0.0594988 58.4054 0.0540916C59.082 1.90185e-05 59.8669 -0.0594608 60.6788 0.0649061H62.7844V0.178458C64.6735 0.297418 66.6222 0.627261 68.4951 1.52486C69.87 2.0007 71.2178 2.58469 72.5006 3.25519C77.2694 5.75334 80.1491 8.96525 81.3832 10.3333C82.5741 11.6635 84.7934 14.1346 86.6229 18.0603C87.8462 20.6828 88.6744 23.4729 89.0804 26.355L89.1075 26.6902C89.849 72.5113 89.8274 118.906 89.8111 163.775C89.8003 184.636 89.7949 206.206 89.8599 227.505L84.4469 227.521L84.4578 227.532Z" fill="#FF9E22"/>
<path d="M115.214 117.154H84.4578V97.0819H111.198V44.9181C111.198 35.3418 118.998 27.55 128.584 27.55H131.29V101.327C131.29 101.781 131.225 108.28 126.695 112.844C123.858 115.699 119.994 117.148 115.214 117.148V117.154ZM89.8707 111.746H115.214C119.696 111.746 122.722 110.135 124.465 106.82C125.861 104.165 125.883 101.375 125.883 101.348L128.589 101.337H125.883V33.2655C120.578 34.4929 116.616 39.2513 116.616 44.9181V102.489H89.8761V111.746H89.8707Z" fill="#FF9E22"/>
<path d="M115.214 131.813H84.4634V111.741H115.22C125.569 111.741 125.883 102.408 125.883 101.343V27.55H128.59C138.176 27.55 145.976 35.3418 145.976 44.9181V101.3C145.976 112.136 141.304 119.035 137.386 122.912C129.039 131.169 118.305 131.813 115.214 131.813ZM89.8764 126.405H115.176C117.044 126.405 126.522 126.054 133.575 119.073C136.763 115.921 140.563 110.276 140.563 101.3V44.9181C140.563 39.2513 136.601 34.4929 131.296 33.2655V101.332C131.296 101.592 131.296 108.215 126.7 112.844C123.864 115.699 119.999 117.148 115.22 117.148H89.8764V126.405Z" fill="#FF9E22"/>
<path d="M20.4717 51.9205C23.5191 51.98 26.3176 53.294 28.6289 55.1162L24.4664 56.0517C25.7601 53.2669 27.7737 50.758 30.6263 49.3467C31.3516 52.445 30.6858 55.5921 29.3543 58.3606L27.817 61.5076L25.1917 59.296C22.9508 57.3873 21.1212 54.9053 20.4662 51.9259L20.4717 51.9205Z" fill="#FF9E22"/>
<path d="M36.1962 82.4391C39.0055 83.6287 41.1111 85.8835 42.578 88.4357L38.3668 87.7598C40.6023 85.6564 43.4062 84.0721 46.5782 83.8179C46.4591 84.7534 46.1993 85.5374 45.907 86.2891C45.0571 88.3925 43.6931 90.2363 42.0475 91.7179L39.4493 94.0701L37.8363 91.042C36.4668 88.4357 35.6928 85.4509 36.1908 82.4445L36.1962 82.4391Z" fill="#FF9E22"/>
<path d="M52.527 22.0237C55.4445 22.9105 57.7829 24.9274 59.5096 27.312L55.2497 27.0849C57.2524 24.7544 59.8723 22.8835 63.001 22.2995C62.9793 23.2404 62.8061 24.0461 62.595 24.8247C61.9725 27.0038 60.8087 28.9829 59.331 30.6267L56.998 33.2384L55.0765 30.3996C53.4363 27.9555 52.3538 25.068 52.5324 22.0237H52.527Z" fill="#FF9E22"/>
<path d="M122.933 46.2807C125.948 46.7566 128.535 48.4382 130.576 50.5633L126.327 50.9201C127.507 49.0492 129.093 47.3892 131.025 46.1996C131.718 45.7833 132.443 45.3939 133.347 45.1182C133.455 46.0536 133.391 46.8755 133.293 47.6758C132.979 49.9198 132.097 52.0394 130.857 53.8725L128.903 56.7762L126.608 54.2294C124.649 52.034 123.176 49.3196 122.938 46.2807H122.933Z" fill="#FF9E22"/>
<path d="M137.531 77.8807C140.546 78.3565 143.134 80.0382 145.174 82.1632L140.925 82.5201C142.105 80.6492 143.691 78.9892 145.624 77.7996C146.317 77.3832 147.042 76.9939 147.946 76.7181C148.054 77.6536 147.989 78.4755 147.892 79.2758C147.578 81.5198 146.696 83.6394 145.456 85.4725L143.502 88.3762L141.207 85.8294C139.247 83.634 137.775 80.9196 137.537 77.8807H137.531Z" fill="#FF9E22"/>
<path d="M68.3597 135.16C71.2773 136.047 73.6157 138.063 75.3424 140.448L71.0824 140.221C73.0852 137.89 75.7051 136.02 78.8337 135.436C78.8121 136.376 78.6389 137.182 78.4278 137.961C77.8053 140.14 76.6415 142.119 75.1638 143.763L72.8308 146.374L70.9092 143.536C69.2691 141.092 68.1865 138.204 68.3651 135.16H68.3597Z" fill="#FF9E22"/>
<path d="M35.0486 163.505C37.9662 164.391 40.3046 166.408 42.0313 168.793L37.7713 168.566C39.7741 166.235 42.394 164.364 45.5226 163.78C45.501 164.721 45.3278 165.527 45.1167 166.306C44.4942 168.485 43.3304 170.464 41.8527 172.108L39.5197 174.719L37.5981 171.88C35.958 169.436 34.8754 166.549 35.0541 163.505H35.0486Z" fill="#FF9E22"/>
<path d="M52.2292 200.642C55.1468 201.528 57.4852 203.545 59.2119 205.93L54.9519 205.703C56.9547 203.372 59.5746 201.501 62.7032 200.917C62.6816 201.858 62.5084 202.664 62.2973 203.443C61.6748 205.622 60.511 207.601 59.0333 209.245L56.7003 211.856L54.7787 209.017C53.1386 206.573 52.056 203.686 52.2347 200.642H52.2292Z" fill="#FF9E22"/>
<path d="M124.898 237H0L0.839002 233.642C1.84039 229.63 6.79862 222.179 18.4147 222.682C21.6463 222.822 24.5855 223.13 27.162 223.595L26.1931 228.916C23.8601 228.494 21.1645 228.213 18.182 228.083C13.9437 227.9 10.631 228.986 8.34672 231.312C8.2547 231.404 8.16809 231.495 8.08149 231.587H82.2818L82.2222 231.42C82.1302 231.166 79.7214 224.855 73.1448 224.006C66.1621 223.109 60.5922 228.581 60.5327 228.635L57.9832 231.182L56.2456 228.024C56.2456 228.024 55.2172 226.207 53.3335 224.542C51.0167 222.498 48.4835 221.595 45.8041 221.849C44.2993 221.99 42.9082 222.476 41.6686 223.287L38.7078 218.761C40.6943 217.464 42.9082 216.696 45.2899 216.469C52.1156 215.814 56.7761 219.929 59.1524 222.801C62.097 220.697 67.4449 217.821 73.8322 218.642C80.6633 219.524 84.4199 224.206 86.1357 227.164C90.5852 225.699 100.442 222.898 107.95 224.023C118.326 225.58 122.44 232.658 122.608 232.955L124.887 236.989L124.898 237ZM90.1467 231.593H113.536C111.928 230.636 109.823 229.781 107.154 229.376C101.839 228.581 94.6936 230.252 90.1467 231.593Z" fill="#FF9E22"/>
<path d="M35.5412 233.712L32.5912 230.939C32.3151 230.76 30.5559 229.706 26.1985 228.916L27.1674 223.595C29.7223 224.061 31.6168 224.623 32.9809 225.153C34.0581 223.19 35.8822 220.616 38.7078 218.772L41.6686 223.298C38.2314 225.542 36.8782 229.608 36.8674 229.652L35.5466 233.712H35.5412Z" fill="#FF9E22"/>
</g>
<defs>
<clipPath id="clip0_34_265">
<rect width="148" height="237" fill="white"/>
</clipPath>
</defs>
</svg>
