<svg width="163" height="232" viewBox="0 0 163 232" fill="none" xmlns="http://www.w3.org/2000/svg">
<g clip-path="url(#clip0_34_232)">
<path d="M81.3252 184.867C51.56 184.867 27.3414 158.04 27.3414 125.065C27.3414 123.82 28.3482 122.81 29.588 122.81C30.8279 122.81 31.8346 123.82 31.8346 125.065C31.8346 155.556 54.035 180.357 81.3252 180.357C108.615 180.357 130.816 155.551 130.816 125.065C130.816 123.82 131.823 122.81 133.062 122.81C134.302 122.81 135.309 123.82 135.309 125.065C135.309 158.04 111.09 184.867 81.3252 184.867Z" fill="#FF9E22"/>
<path d="M81.3252 186.037C50.9168 186.037 26.1762 158.686 26.1762 125.065C26.1762 123.179 27.705 121.64 29.5881 121.64C31.4711 121.64 32.9999 123.175 32.9999 125.065C32.9999 154.91 54.6782 179.187 81.3252 179.187C107.972 179.187 129.651 154.91 129.651 125.065C129.651 123.179 131.179 121.64 133.062 121.64C134.945 121.64 136.474 123.175 136.474 125.065C136.474 158.686 111.734 186.037 81.3252 186.037ZM29.5881 123.984C28.9915 123.984 28.5067 124.471 28.5067 125.07C28.5067 157.399 52.1986 183.702 81.3252 183.702C110.452 183.702 134.144 157.399 134.144 125.07C134.144 124.471 133.659 123.984 133.062 123.984C132.466 123.984 131.981 124.471 131.981 125.07C131.981 156.201 109.259 181.531 81.3252 181.531C53.3918 181.531 30.6694 156.201 30.6694 125.07C30.6694 124.471 30.1847 123.984 29.5881 123.984Z" fill="#FF9E22"/>
<path d="M139.592 116.559C139.387 116.559 139.182 116.531 138.973 116.47C120.944 111.3 102.318 108.493 83.6138 108.133C62.1126 107.721 40.6906 110.524 19.9538 116.47C18.7606 116.812 17.5207 116.119 17.1758 114.922C16.8356 113.724 17.5254 112.479 18.7186 112.133C39.8889 106.065 61.749 103.202 83.7023 103.627C102.794 103.992 121.806 106.856 140.208 112.133C141.401 112.475 142.091 113.724 141.751 114.922C141.471 115.913 140.571 116.554 139.592 116.559Z" fill="#FF9E22"/>
<path d="M139.592 117.729C139.276 117.729 138.959 117.682 138.656 117.598C120.725 112.456 102.197 109.667 83.5951 109.307C62.2011 108.895 40.9003 111.684 20.2754 117.598C18.4669 118.117 16.5746 117.06 16.0572 115.244C15.5398 113.429 16.5932 111.53 18.4017 111.01C39.6838 104.909 61.6605 102.032 83.7256 102.458C102.92 102.827 122.03 105.705 140.529 111.01C142.338 111.53 143.387 113.429 142.869 115.244C142.454 116.704 141.107 117.729 139.592 117.729ZM79.4795 106.926C80.8685 106.926 82.2528 106.94 83.6417 106.968C102.444 107.328 121.172 110.149 139.299 115.347C139.867 115.511 140.473 115.16 140.632 114.603C140.795 114.028 140.464 113.429 139.891 113.265C121.587 108.016 102.673 105.167 83.6837 104.802C61.8469 104.381 40.1033 107.23 19.0449 113.265C18.4716 113.429 18.1407 114.033 18.3038 114.603C18.4669 115.179 19.0635 115.511 19.6368 115.347C39.1478 109.756 59.26 106.926 79.4795 106.926Z" fill="#FF9E22"/>
<path d="M30.5203 112.035C29.3364 112.035 28.3762 111.071 28.3762 109.883V80.1546C28.3762 78.9662 29.3364 78.0024 30.5203 78.0024C31.7042 78.0024 32.6643 78.9662 32.6643 80.1546V109.883C32.6643 111.071 31.7042 112.035 30.5203 112.035Z" fill="#FF9E22"/>
<path d="M30.5203 113.205C28.6931 113.205 27.2109 111.712 27.2109 109.883V80.1546C27.2109 78.3206 28.6978 76.8328 30.5203 76.8328C32.3427 76.8328 33.8296 78.3253 33.8296 80.1546V109.883C33.8296 111.717 32.3427 113.205 30.5203 113.205ZM30.5203 79.1674C29.9796 79.1674 29.5414 79.6072 29.5414 80.1499V109.878C29.5414 110.421 29.9796 110.861 30.5203 110.861C31.0609 110.861 31.4991 110.421 31.4991 109.878V80.1499C31.4991 79.6072 31.0609 79.1674 30.5203 79.1674Z" fill="#FF9E22"/>
<path d="M131.664 114.472C130.424 114.472 129.417 113.462 129.417 112.217V68.4532C129.417 67.2087 130.424 66.1981 131.664 66.1981C132.904 66.1981 133.911 67.2087 133.911 68.4532V112.217C133.911 113.462 132.904 114.472 131.664 114.472Z" fill="#FF9E22"/>
<path d="M131.664 115.642C129.786 115.642 128.252 114.107 128.252 112.217V68.4532C128.252 66.5677 129.781 65.0284 131.664 65.0284C133.547 65.0284 135.076 66.563 135.076 68.4532V112.217C135.076 114.103 133.547 115.642 131.664 115.642ZM131.664 67.3678C131.067 67.3678 130.583 67.8543 130.583 68.4532V112.217C130.583 112.816 131.067 113.303 131.664 113.303C132.261 113.303 132.745 112.816 132.745 112.217V68.4532C132.745 67.8543 132.261 67.3678 131.664 67.3678Z" fill="#FF9E22"/>
<path d="M30.0075 81.8061C25.7054 81.8061 21.408 80.8517 17.4182 78.9054C2.86186 71.7845 1.30975 55.7601 1.24915 55.0817C1.02542 52.5178 0.769069 43.5114 6.80507 35.3004C16.5093 22.0926 33.0419 23.0143 34.8923 23.164C36.1274 23.2622 37.0503 24.3477 36.9524 25.5922C36.8546 26.832 35.7686 27.7537 34.5334 27.6602C33.8995 27.6087 18.8258 26.542 10.4173 37.9812C5.31821 44.9244 5.53262 52.5272 5.71906 54.6934C5.73304 54.8337 7.08939 68.8416 19.3805 74.8537C28.2643 79.2001 39.0126 77.6702 46.7592 70.961C47.6961 70.1469 49.1177 70.2545 49.924 71.195C50.735 72.1354 50.6278 73.5623 49.691 74.3718C44.0418 79.2609 37.0224 81.8061 29.9982 81.8061H30.0075Z" fill="#FF9E22"/>
<path d="M30.0075 82.9758C25.4165 82.9758 21.0071 81.9605 16.9101 79.9534C1.76652 72.5518 0.15381 55.8911 0.0885556 55.1846C-0.144495 52.5178 -0.410172 43.1512 5.8682 34.608C15.9406 20.8995 33.0652 21.8446 34.9855 21.999C36.8592 22.1487 38.2622 23.8003 38.113 25.6858C37.9639 27.5619 36.3185 28.9702 34.4448 28.8252C33.8296 28.7737 19.3898 27.7397 11.3542 38.6737C6.49744 45.2846 6.70252 52.5272 6.87964 54.5905C6.89362 54.7215 8.27328 68.1211 19.8885 73.801C28.3529 77.9416 38.6024 76.4772 45.9995 70.0768C47.4257 68.8463 49.5838 69.0054 50.8096 70.4323C51.4062 71.1248 51.6952 72.009 51.6299 72.9214C51.5647 73.8337 51.1452 74.6665 50.4554 75.2607C44.7084 80.2388 37.4465 82.9758 30.0029 82.9758H30.0075ZM32.8694 24.2635C27.9614 24.2635 15.5398 25.3863 7.74193 35.9975C1.9483 43.881 2.19533 52.5225 2.40974 54.9835C2.46567 55.6338 3.95719 71.0219 17.9262 77.8527C21.7063 79.7007 25.7707 80.6365 30.0029 80.6365C36.8872 80.6365 43.6084 78.096 48.9312 73.4875C49.3833 73.0992 49.4346 72.4114 49.0431 71.9576C48.6516 71.5038 47.9711 71.4523 47.5189 71.8453C39.4181 78.8586 28.1711 80.454 18.8677 75.9017C5.99405 69.6089 4.56778 54.9413 4.5538 54.7963C4.35804 52.5272 4.12965 44.5548 9.47582 37.2841C18.2711 25.3162 33.9601 26.439 34.6219 26.4952C35.2092 26.5373 35.7359 26.0928 35.7825 25.4986C35.8291 24.9044 35.3863 24.3804 34.7897 24.3337C34.4961 24.3103 33.8202 24.2681 32.8601 24.2681L32.8694 24.2635Z" fill="#FF9E22"/>
<path d="M29.5927 48.2509C29.4669 48.2509 29.3363 48.2415 29.2058 48.2181C27.9847 48.0029 27.1643 46.8379 27.3787 45.6121C30.8978 25.2834 45.6172 8.60405 64.8672 3.12535C75.5036 0.0982689 86.718 0.594205 97.2938 4.5617C107.888 8.53387 116.87 15.6314 123.27 25.0822C123.969 26.1115 123.698 27.5151 122.673 28.2123C121.648 28.914 120.249 28.6427 119.555 27.6134C113.682 18.9392 105.441 12.4265 95.723 8.78184C86.0468 5.15589 75.8019 4.69738 66.093 7.46246C48.4884 12.4733 35.0321 27.7491 31.802 46.3841C31.6109 47.4789 30.6647 48.2509 29.5927 48.2509Z" fill="#FF9E22"/>
<path d="M29.5927 49.4206C29.397 49.4206 29.1965 49.4018 29.0054 49.3691C28.1105 49.2147 27.3275 48.7141 26.8008 47.9655C26.2787 47.2169 26.0737 46.3093 26.2275 45.411C29.8258 24.6424 44.8668 7.60282 64.5503 1.9978C75.429 -1.09946 86.8905 -0.58949 97.704 3.46222C108.527 7.5186 117.7 14.7658 124.234 24.4179C125.292 25.9805 124.887 28.114 123.33 29.1761C121.773 30.2381 119.648 29.8311 118.59 28.2684C112.852 19.7954 104.803 13.4324 95.3129 9.87664C85.8744 6.33491 75.8765 5.89043 66.41 8.58533C49.2342 13.4745 36.0995 28.39 32.9486 46.5806C32.6643 48.2228 31.252 49.4159 29.5927 49.4159V49.4206ZM78.8456 2.33934C74.2498 2.33934 69.668 2.97564 65.1888 4.24823C46.363 9.60528 31.9745 25.9197 28.53 45.8086C28.4787 46.094 28.544 46.3794 28.7118 46.618C28.8796 46.8567 29.1266 47.0111 29.4109 47.0625C30.0029 47.1654 30.5575 46.7631 30.6601 46.1783C33.9647 27.1034 47.7473 11.4627 65.7808 6.33023C75.732 3.49965 86.2286 3.96283 96.1379 7.68236C106.084 11.4112 114.516 18.0736 120.524 26.9537C120.86 27.4496 121.531 27.576 122.025 27.2391C122.519 26.9022 122.645 26.2285 122.309 25.7326C116.045 16.4829 107.259 9.53978 96.8883 5.65182C91.0015 3.4435 84.9142 2.33466 78.8456 2.33466V2.33934Z" fill="#FF9E22"/>
<path d="M131.748 83.4904C130.527 83.4904 129.525 82.5079 129.506 81.2774C129.483 80.0329 130.471 79.0036 131.711 78.9802C142.002 78.7883 151.24 72.65 155.244 63.3488C159.099 54.3892 157.593 43.9324 151.408 36.7039C144.673 28.8344 133.678 25.8963 124.048 29.4006C111.659 33.9061 108.354 46.9174 108.219 47.4695C107.926 48.6766 106.709 49.4205 105.502 49.121C104.299 48.8263 103.558 47.6052 103.857 46.3934C104.253 44.7699 108.14 30.3878 122.519 25.1617C133.897 21.0258 146.873 24.4833 154.82 33.7657C162.114 42.2902 163.904 54.6044 159.374 65.1361C154.675 76.056 143.853 83.2611 131.804 83.4857C131.79 83.4857 131.776 83.4857 131.762 83.4857L131.748 83.4904Z" fill="#FF9E22"/>
<path d="M131.748 84.6601C129.902 84.6601 128.373 83.1535 128.341 81.3008C128.322 80.3885 128.662 79.5182 129.296 78.8632C129.93 78.2082 130.779 77.8339 131.687 77.8152C141.527 77.6281 150.35 71.7704 154.172 62.8903C157.85 54.3378 156.419 44.3629 150.523 37.4712C144.1 29.9667 133.622 27.1689 124.44 30.5047C112.629 34.7997 109.473 47.2215 109.343 47.7502C109.128 48.6392 108.578 49.3878 107.8 49.865C107.021 50.3375 106.103 50.4826 105.218 50.2627C103.39 49.8135 102.267 47.9561 102.715 46.1221C103.125 44.4377 107.161 29.5035 122.109 24.0669C133.939 19.7672 147.432 23.3604 155.687 33.0078C163.27 41.8692 165.13 54.6653 160.427 65.6039C155.547 76.945 144.314 84.4261 131.809 84.6601H131.743H131.748ZM132.363 26.7712C139.853 26.7712 147.223 30.0228 152.284 35.9413C158.759 43.5067 160.334 54.4454 156.307 63.812C152.126 73.5342 142.478 79.944 131.725 80.1498C131.436 80.1545 131.165 80.2715 130.965 80.482C130.765 80.6926 130.657 80.9639 130.662 81.254C130.671 81.8388 131.156 82.3161 131.739 82.3161V83.4857L131.753 82.3161C143.354 82.0962 153.767 75.1718 158.283 64.6729C162.636 54.553 160.921 42.7207 153.916 34.5284C146.286 25.6109 133.822 22.289 122.897 26.2612C109.091 31.2814 105.353 45.1115 104.971 46.6741C104.831 47.2543 105.185 47.8438 105.763 47.9842C106.043 48.0543 106.332 48.0076 106.579 47.8578C106.826 47.7081 106.998 47.4695 107.068 47.1888C107.208 46.6133 110.662 33.0172 123.633 28.3011C126.472 27.2671 129.422 26.7712 132.354 26.7712H132.363Z" fill="#FF9E22"/>
<path d="M81.4185 196.658C80.4816 196.658 79.5448 196.648 78.6079 196.634C59.8753 196.288 41.5482 192.55 24.1394 185.522C22.825 184.994 22.1911 183.492 22.7178 182.177C23.2445 180.863 24.7407 180.217 26.0504 180.75C42.8813 187.544 60.5931 191.156 78.7011 191.488C80.1087 191.511 81.5303 191.52 82.9286 191.506C101.442 191.315 119.555 187.698 136.763 180.75C138.078 180.222 139.569 180.858 140.096 182.177C140.623 183.497 139.989 184.994 138.674 185.522C120.869 192.709 102.132 196.452 82.9753 196.653C82.4579 196.658 81.9312 196.662 81.4092 196.662L81.4185 196.658Z" fill="#FF9E22"/>
<path d="M81.4184 197.827C80.4769 197.827 79.5261 197.818 78.5892 197.804C59.7168 197.458 41.2499 193.691 23.7059 186.608C22.783 186.234 22.0559 185.522 21.669 184.605C21.2775 183.684 21.2682 182.668 21.6411 181.742C22.0139 180.816 22.7224 180.086 23.636 179.693C24.5542 179.3 25.5656 179.29 26.4885 179.665C43.1842 186.402 60.7609 189.991 78.7244 190.318C80.174 190.346 81.5862 190.351 82.9193 190.337C101.288 190.15 119.261 186.556 136.334 179.665C137.257 179.29 138.273 179.3 139.187 179.693C140.105 180.086 140.814 180.811 141.187 181.742C141.559 182.668 141.545 183.688 141.159 184.605C140.767 185.527 140.045 186.238 139.117 186.608C121.177 193.85 102.295 197.621 82.9985 197.823C82.4765 197.827 81.9498 197.832 81.4184 197.832V197.827ZM25.0995 181.728C24.9131 181.728 24.7266 181.765 24.5495 181.84C24.2046 181.985 23.9389 182.261 23.7991 182.608C23.6593 182.954 23.6639 183.337 23.8084 183.684C23.9529 184.03 24.2279 184.297 24.5728 184.437C41.8512 191.413 60.0384 195.118 78.6265 195.465C80.0714 195.493 81.5303 195.497 82.9659 195.483C101.973 195.287 120.571 191.572 138.241 184.442C138.586 184.301 138.861 184.035 139.005 183.688C139.15 183.342 139.154 182.963 139.014 182.617C138.875 182.266 138.609 181.995 138.264 181.85C137.919 181.705 137.542 181.7 137.192 181.84C119.848 188.844 101.591 192.489 82.9333 192.681C81.5816 192.695 80.146 192.69 78.6731 192.662C60.4253 192.325 42.5736 188.685 25.6122 181.84C25.4444 181.77 25.2673 181.737 25.0902 181.737L25.0995 181.728Z" fill="#FF9E22"/>
<path d="M49.2016 230.129C48.4511 230.129 47.7054 229.941 47.0295 229.567C45.8456 228.917 45.016 227.78 44.755 226.446C43.9067 222.147 43.5198 215.643 46.4935 209.079C51.7511 197.49 65.1702 190.585 79.8943 191.904C81.0875 192.012 81.9731 193.069 81.8659 194.271C81.8333 194.622 81.7214 194.95 81.5443 195.231C82.2155 194.65 83.1989 194.519 84.0146 194.978C85.0633 195.563 85.4409 196.891 84.8582 197.944C76.4358 213.178 65.4125 223.733 52.1007 229.31C51.6812 229.488 51.2571 229.656 50.8376 229.82C50.3062 230.026 49.7516 230.129 49.1969 230.129H49.2016ZM76.31 196.105C64.718 196.105 54.5664 201.804 50.446 210.885C47.9477 216.392 48.288 221.922 49.0151 225.595C49.0291 225.66 49.0617 225.707 49.1177 225.74C49.1876 225.777 49.2388 225.759 49.2621 225.749C49.649 225.6 50.0405 225.441 50.4274 225.277C62.8164 220.088 73.1218 210.174 81.0595 195.82C81.0782 195.787 81.0968 195.755 81.1155 195.722C80.6866 196.096 80.1133 196.302 79.5028 196.241C78.4307 196.143 77.3633 196.096 76.31 196.096V196.105Z" fill="#FF9E22"/>
<path d="M49.2016 231.298C48.2507 231.298 47.3045 231.055 46.4702 230.592C44.9833 229.773 43.9439 228.346 43.613 226.671C42.7321 222.203 42.3312 215.438 45.4355 208.593C50.8982 196.55 64.7833 189.373 79.9968 190.734C81.2599 190.847 82.2994 191.656 82.7655 192.751L86.1447 189.827L83.7862 193.635C84.0612 193.705 84.3269 193.808 84.5832 193.953C86.1913 194.852 86.7739 196.891 85.8837 198.51C77.3307 213.983 66.1163 224.706 52.5575 230.386C52.1287 230.564 51.6999 230.741 51.2664 230.91C50.6045 231.167 49.91 231.298 49.2062 231.298H49.2016ZM76.3146 192.915C63.4829 192.915 52.1893 199.338 47.5516 209.566C44.7037 215.845 45.0812 222.091 45.8969 226.222C46.0927 227.214 46.7079 228.061 47.5888 228.542C48.4511 229.02 49.5045 229.085 50.4181 228.73C50.8282 228.571 51.2431 228.402 51.6532 228.229C64.718 222.755 75.5456 212.373 83.8421 197.373C84.1125 196.887 83.9354 196.269 83.4506 195.998C83.0824 195.792 82.621 195.839 82.304 196.115L82.1875 196.213L82.0803 196.391C74.0121 210.983 63.5155 221.066 50.8795 226.358C50.4833 226.526 50.0871 226.685 49.691 226.839L49.6443 226.858C49.1643 227.027 48.7634 226.877 48.5723 226.774C48.2041 226.568 47.9571 226.227 47.8778 225.824C47.1181 221.983 46.7638 216.191 49.3927 210.403C53.6528 201.009 64.224 194.936 76.3146 194.936C77.4053 194.936 78.5146 194.987 79.6146 195.085C79.8896 195.114 80.1553 195.025 80.3604 194.842L80.4769 194.739L80.5561 194.608C80.64 194.473 80.6913 194.323 80.7053 194.164C80.7566 193.607 80.3464 193.116 79.7917 193.064C78.6265 192.961 77.4659 192.91 76.3193 192.91L76.3146 192.915ZM76.31 197.275C65.1282 197.275 55.3914 202.81 51.5088 211.372C49.388 216.046 49.4299 220.762 49.9566 224.21C49.966 224.21 49.9706 224.205 49.9799 224.201C60.3833 219.84 69.2998 212.064 76.5523 201.041L78.8269 197.383C78.8269 197.383 78.8362 197.369 78.8362 197.364C77.9926 197.303 77.1443 197.27 76.31 197.27V197.275Z" fill="#FF9E22"/>
<path d="M118.301 230.83C117.718 230.83 117.136 230.718 116.586 230.489C116.166 230.316 115.751 230.138 115.332 229.951C102.127 224.121 91.3091 213.36 83.171 197.967C82.607 196.905 83.0125 195.581 84.0706 195.02C84.8956 194.58 85.879 194.73 86.5362 195.319C86.3684 195.034 86.2612 194.706 86.2333 194.356C86.1494 193.153 87.0536 192.11 88.2515 192.026C102.999 190.987 116.283 198.145 121.321 209.832C124.174 216.448 123.661 222.947 122.734 227.228C122.445 228.552 121.596 229.675 120.398 230.306C119.741 230.652 119.023 230.826 118.301 230.826V230.83ZM86.9557 195.829C86.9744 195.862 86.993 195.895 87.0116 195.928C94.679 210.431 104.793 220.537 117.084 225.96C117.471 226.133 117.858 226.297 118.24 226.456C118.259 226.465 118.31 226.484 118.385 226.446C118.441 226.418 118.478 226.367 118.492 226.306C119.284 222.647 119.732 217.122 117.341 211.568C113.034 201.575 101.47 195.478 88.5638 196.381C87.9532 196.423 87.3845 196.208 86.9604 195.829H86.9557Z" fill="#FF9E22"/>
<path d="M118.301 232C117.56 232 116.833 231.855 116.143 231.57C115.714 231.392 115.29 231.209 114.861 231.022C101.414 225.085 90.4049 214.151 82.1409 198.52C81.7214 197.729 81.6375 196.821 81.8985 195.965C82.1595 195.109 82.7375 194.407 83.5252 193.986C83.7769 193.85 84.0473 193.752 84.3176 193.687L81.9918 189.799L85.3617 192.826C85.8511 191.74 86.9044 190.95 88.1722 190.861C103.409 189.789 117.159 197.224 122.393 209.369C125.367 216.27 124.84 223.026 123.876 227.48C123.512 229.146 122.445 230.554 120.944 231.345C120.133 231.775 119.219 232 118.306 232H118.301ZM85.0913 195.937C84.9282 195.937 84.7697 195.974 84.6206 196.054C84.3828 196.18 84.2057 196.391 84.1312 196.653C84.0519 196.91 84.0799 197.186 84.2057 197.425C92.2133 212.579 102.845 223.162 115.807 228.884C116.218 229.066 116.628 229.24 117.038 229.408C117.947 229.782 119 229.731 119.867 229.277C120.757 228.809 121.391 227.976 121.606 226.989C122.501 222.872 122.995 216.635 120.263 210.305C115.42 199.067 102.589 192.189 88.3447 193.2C87.79 193.237 87.3705 193.724 87.4078 194.281C87.4172 194.44 87.4638 194.594 87.5477 194.73L87.6269 194.861L87.7388 194.964C87.9439 195.146 88.2095 195.24 88.4845 195.221C101.89 194.285 113.91 200.667 118.413 211.11C120.93 216.949 120.468 222.732 119.634 226.559C119.545 226.961 119.289 227.298 118.93 227.49C118.59 227.677 118.184 227.7 117.812 227.546C117.411 227.382 117.015 227.214 116.623 227.036C104.09 221.501 93.7841 211.222 85.9909 196.48L85.8837 196.302L85.7718 196.199C85.5854 196.031 85.343 195.942 85.1006 195.942L85.0913 195.937ZM91.365 201.144C98.4171 212.35 107.203 220.322 117.551 224.888C117.56 224.888 117.565 224.893 117.574 224.898C118.166 221.459 118.296 216.743 116.264 212.032C112.218 202.641 101.391 196.854 89.2023 197.514C89.2163 197.532 89.2256 197.556 89.235 197.574L91.3604 201.144H91.365Z" fill="#FF9E22"/>
</g>
<defs>
<clipPath id="clip0_34_232">
<rect width="163" height="232" fill="white"/>
</clipPath>
</defs>
</svg>
