<?xml version="1.0" encoding="utf-8"?>
<!-- Generator: Adobe Illustrator 27.9.0, SVG Export Plug-In . SVG Version: 6.00 Build 0)  -->
<svg version="1.1" id="Calque_1" xmlns="http://www.w3.org/2000/svg" xmlns:xlink="http://www.w3.org/1999/xlink" x="0px" y="0px"
	 viewBox="0 0 1441 1068.4" style="enable-background:new 0 0 1441 1068.4;" xml:space="preserve">
<style type="text/css">
	.st0{clip-path:url(#SVGID_00000181074474049806332250000009252854990745459848_);}
	.st1{clip-path:url(#SVGID_00000041289000662290757490000002574604985133070261_);}
	.st2{fill:#FFF8EF;}
	.st3{clip-path:url(#SVGID_00000181074474049806332250000009252854990745459848_);fill:#FFF8EF;}
	.st4{clip-path:url(#SVGID_00000181074474049806332250000009252854990745459848_);fill:#FFFFFF;}
</style>
<g>
	<defs>
		<rect id="SVGID_1_" width="1441" height="1068.4"/>
	</defs>
	<clipPath id="SVGID_00000036931879906135306550000015692069857175986853_">
		<use xlink:href="#SVGID_1_"  style="overflow:visible;"/>
	</clipPath>
	<g transform="matrix(1 0 0 1 0 0)" style="clip-path:url(#SVGID_00000036931879906135306550000015692069857175986853_);">
		
			<image style="overflow:visible;" width="828" height="1212" xlink:href="Birriaa.png"  transform="matrix(1.7403 0 0 1.7403 0 -308.0777)">
		</image>
	</g>
	<g style="clip-path:url(#SVGID_00000036931879906135306550000015692069857175986853_);">
		<defs>
			<polyline id="SVGID_00000129889618088828294150000010780772134042081212_" points="0,1068 0,891.8 1441,891.8 1441,1764.8 
				0,1764.8 0,1068 			"/>
		</defs>
		<clipPath id="SVGID_00000118375650854114333580000006249310595190606763_">
			<use xlink:href="#SVGID_00000129889618088828294150000010780772134042081212_"  style="overflow:visible;"/>
		</clipPath>
		<g style="clip-path:url(#SVGID_00000118375650854114333580000006249310595190606763_);">
			<rect x="-5" y="1020.8" class="st2" width="1475" height="799"/>
			<path class="st2" d="M396.4,1147.5c-25.8,10.2-44.2,35.3-44.3,64.7c-0.2,32.3,21.7,59.6,51.6,67.8c-28.9,8.6-50.1,35.1-50.2,66.7
				c-0.2,32,21.2,59,50.6,67.5c-29.4,8.2-51.1,35-51.3,67c-0.2,32.3,21.7,59.6,51.5,67.8c-30.9,7.2-54.1,34.7-54.3,67.8
				c-0.2,30.9,19.8,57.2,47.6,66.7c0.2,0,0.4,0,0.6,0c0.6,0,1.1,0.1,1.7,0.1l27.3,0.1v0l183.7,1l448.4,2.3l368.2,1.9l0,0l3,0
				c0.1-0.1,0.3-0.1,0.4-0.1c2.4-0.1,4.8-0.1,7.2,0c33.9-4.7,60.2-33.8,60.3-68.9c0.2-33-22.7-60.8-53.5-68.3
				c29.9-7.9,52.1-34.9,52.2-67.2c0.2-32-21.2-59-50.6-67.5c29.4-8.2,51.1-35,51.3-67c0.2-31.6-20.8-58.4-49.6-67.3
				c29.9-7.9,52.1-34.9,52.3-67.2c0.2-29.4-17.9-54.6-43.7-65.1c25.3-10.5,43.2-35.3,43.3-64.3c0.2-33.8-23.7-62.2-55.7-68.9
				c1.6-6.9,2.5-14.1,2.5-21.5c0.3-55.5-44.7-100.9-100.3-101.2c-49.8-0.3-91.2,35.6-99.7,82.9l-12.4-0.1
				c-7-47.6-47.9-84.4-97.7-84.6c-49.7-0.3-91,36.1-98.6,83.6l-16-0.1c-6.3-48.5-47.6-86.1-97.9-86.3c-50.3-0.3-92,36.9-98.8,85.3
				l-12.5-0.1c-7-47.6-48-84.4-97.7-84.6s-91,36.1-98.5,83.6l-9.1,0c-9.1-46-49.7-80.8-98.4-81.1c-55.7-0.3-101.1,44.6-101.4,100.1
				c0,7.4,0.8,14.6,2.3,21.5c-32,6.4-56.2,34.5-56.3,68.3C353.6,1111.7,371.2,1136.8,396.4,1147.5L396.4,1147.5z M1459.4,1607.7
				c7.6,0,13.9,6.4,13.9,14c0,7.6-6.4,13.9-14,13.8c-7.6,0-13.9-6.4-13.9-14C1445.5,1613.9,1451.8,1607.7,1459.4,1607.7z
				 M1459.5,1471.7c7.6,0,13.9,6.4,13.9,14s-6.4,13.9-14,13.8s-13.9-6.4-13.9-14C1445.5,1477.9,1451.9,1471.6,1459.5,1471.7z
				 M1460.7,1333.9c7.6,0,13.9,6.4,13.9,14c0,7.6-6.4,13.9-14,13.8c-7.6,0-13.9-6.4-13.9-14
				C1446.7,1340.1,1453.1,1333.9,1460.7,1333.9z M1458.8,1201.9c7.6,0,13.9,6.4,13.9,14c0,7.6-6.4,13.9-14,13.8
				c-7.6,0-13.9-6.4-13.9-14C1444.9,1208.2,1451.2,1201.9,1458.8,1201.9z M1456.9,1068.6c7.6,0,13.9,6.4,13.9,14
				c0,7.6-6.4,13.9-14,13.8c-7.6,0-13.9-6.4-13.9-14C1443,1074.9,1449.3,1068.6,1456.9,1068.6z M445.8,1015.5
				c-5.3,0-9.6-4.3-9.5-9.6c0-5.3,4.3-9.5,9.6-9.5c5.3,0,9.6,4.3,9.5,9.6C455.4,1011.2,451.1,1015.5,445.8,1015.5z M486.9,1006.1
				c0-5.3,4.3-9.5,9.6-9.5c5.3,0,9.6,4.3,9.5,9.6c0,5.3-4.3,9.5-9.6,9.5C491.1,1015.7,486.9,1011.4,486.9,1006.1z M537.6,1006.4
				c0-5.3,4.3-9.5,9.6-9.5c5.3,0,9.6,4.3,9.5,9.6c0,5.3-4.3,9.5-9.6,9.5C541.8,1015.9,537.5,1011.6,537.6,1006.4z M1307.1,1019.9
				c-5.3,0-9.6-4.3-9.5-9.6c0-5.3,4.3-9.5,9.6-9.5c5.3,0,9.6,4.3,9.5,9.6C1316.7,1015.7,1312.4,1020,1307.1,1019.9z M1348.2,1010.6
				c0-5.3,4.3-9.5,9.6-9.5c5.3,0,9.6,4.3,9.5,9.6c0,5.3-4.3,9.5-9.6,9.5C1352.5,1020.2,1348.2,1015.9,1348.2,1010.6z M1297,977.4
				c10.9-15.9,29.2-26.2,50-26.1c20.7,0.1,38.9,10.7,49.7,26.7L1297,977.4z M1405.1,958.1c2.6-0.6,5.2-0.9,7.8-0.9h0.4
				c3.6,0,8,0.3,11.2,2.1c1.5,0.5,2.3,1.5,2.7,3c0,2.5-4.1,3.5-5.7,4c-2.6,0.6-5.2,0.9-7.8,0.9h-0.4c-3.6,0-8-0.3-11.2-2.1
				c-1.5-0.5-2.3-1.5-2.7-3C1399.4,959.6,1403.5,958.6,1405.1,958.1z M1408.5,1001.3c5.3,0,9.6,4.3,9.5,9.6c0,5.3-4.3,9.5-9.6,9.5
				c-5.3,0-9.6-4.3-9.5-9.6C1398.9,1005.6,1403.2,1001.3,1408.5,1001.3z M1376.8,938.8c0.9-2.2,2.2-4.2,3.8-6c2.7-3.2,6.1-6.1,9.8-8
				c1.7-1,3.4-1.5,5.3-1.6c2.7,0,2.2,3.1,1.6,4.7c-0.9,2.2-2.2,4.2-3.8,6c-2.7,3.2-6,6.1-9.8,8c-1.7,1-3.4,1.5-5.3,1.6
				C1375.7,943.4,1376.2,940.3,1376.8,938.8z M1344.7,911c0.5-1.5,1.5-2.3,3-2.7c2.5,0,3.6,4.1,4,5.7c0.6,2.7,1,5.4,0.9,8.2
				c0,3.6-0.3,8-2.1,11.2c-0.5,1.5-1.5,2.3-3,2.7c-2.5,0-3.6-4.1-4-5.7c-0.6-2.7-1-5.4-0.9-8.2C1342.6,918.7,1343,914.3,1344.7,911z
				 M1290.7,924.8c0.8-0.9,1.8-1.3,2.9-1.3c0.3,0,0.6,0,0.9,0.1c3.7,0,7.7,2,10.8,3.8c2.4,1.4,4.7,3,6.7,4.9c1.2,1.2,4.2,4.2,3,6.3
				c-0.8,0.9-1.8,1.3-2.9,1.3c-0.3,0-0.6,0-0.9-0.1c-3.7,0-7.7-2-10.8-3.8c-2.4-1.4-4.7-3-6.7-4.9
				C1292.4,929.9,1289.4,927,1290.7,924.8L1290.7,924.8z M1270.9,956.9c2.6-0.6,5.1-0.9,7.8-0.9h0.4c3.6,0,8,0.3,11.2,2.1
				c1.5,0.5,2.3,1.5,2.7,3c0,2.5-4.1,3.5-5.7,4c-2.6,0.6-5.1,0.9-7.8,0.9h-0.5c-3.6,0-8-0.3-11.2-2.1c-1.5-0.5-2.3-1.5-2.7-3
				C1265.2,958.4,1269.3,957.3,1270.9,956.9L1270.9,956.9z M1256.5,1000.5c5.3,0,9.6,4.3,9.5,9.6c0,5.3-4.3,9.5-9.6,9.5
				c-5.3,0-9.6-4.3-9.5-9.6C1246.9,1004.8,1251.3,1000.5,1256.5,1000.5z M1196.2,1009.8c0-5.3,4.3-9.5,9.6-9.5
				c5.3,0,9.6,4.3,9.5,9.6c0,5.3-4.3,9.5-9.6,9.5C1200.5,1019.4,1196.2,1015.1,1196.2,1009.8z M1195.1,956.4
				c2.6-0.6,5.2-0.9,7.8-0.9h0.4c3.6,0,8,0.3,11.2,2.1c1.5,0.5,2.3,1.5,2.7,3c0,2.5-4.1,3.5-5.7,4c-2.6,0.6-5.2,0.9-7.8,0.9
				c-0.1,0-0.3,0-0.4,0c-3.6,0-8-0.3-11.2-2.1c-1.5-0.5-2.3-1.5-2.7-3C1189.4,958,1193.5,956.9,1195.1,956.4L1195.1,956.4z
				 M1084.3,976.3c10.8-16.6,29.5-27.5,50.8-27.4c21.3,0.1,39.9,11.3,50.5,28L1084.3,976.3L1084.3,976.3z M1104.4,1018.9
				c-5.3,0-9.6-4.3-9.5-9.6c0-5.3,4.3-9.5,9.6-9.5c5.3,0,9.6,4.3,9.5,9.6C1114,1014.6,1109.7,1018.9,1104.4,1018.9z M1145.6,1009.5
				c0-5.3,4.3-9.5,9.6-9.5c5.3,0,9.6,4.3,9.5,9.6c0,5.3-4.3,9.5-9.6,9.5C1149.8,1019.1,1145.6,1014.8,1145.6,1009.5z M1164.9,933.7
				c0.9-2.2,2.2-4.2,3.8-6c2.7-3.2,6.1-6.1,9.8-8c1.7-1,3.4-1.5,5.3-1.6c2.7,0,2.2,3.1,1.6,4.7c-0.9,2.2-2.2,4.2-3.8,6
				c-2.7,3.2-6,6.1-9.8,8c-1.7,1-3.4,1.5-5.3,1.6C1163.8,938.4,1164.3,935.3,1164.9,933.7L1164.9,933.7z M1129.4,911
				c0.5-1.5,1.5-2.3,3-2.7c2.5,0,3.6,4.1,4,5.7c0.6,2.7,1,5.4,0.9,8.2c0,3.6-0.3,8-2.1,11.2c-0.5,1.5-1.5,2.3-3,2.7
				c-2.5,0-3.6-4.1-4-5.7c-0.6-2.7-1-5.4-0.9-8.2C1127.3,918.6,1127.6,914.2,1129.4,911z M1078.8,925.7c0.8-0.9,1.8-1.3,2.9-1.3
				c0.3,0,0.6,0,0.9,0.1c3.7,0,7.7,2,10.8,3.8c2.4,1.4,4.7,3,6.7,4.9c1.2,1.2,4.2,4.2,3,6.3c-0.8,0.9-1.8,1.3-2.9,1.3
				c-0.3,0-0.6,0-0.9-0.1c-3.7,0-7.7-2-10.8-3.8c-2.4-1.4-4.7-3-6.7-4.9C1080.6,930.8,1077.6,927.9,1078.8,925.7L1078.8,925.7z
				 M1063.5,952.6c2.6-0.6,5.1-0.9,7.8-0.9h0.4c3.6,0,8,0.3,11.2,2.1c1.5,0.5,2.3,1.5,2.7,3c0,2.5-4.1,3.5-5.7,4
				c-2.6,0.6-5.2,0.9-7.8,0.9c-0.1,0-0.3,0-0.4,0c-3.6,0-8-0.3-11.2-2.1c-1.5-0.5-2.3-1.5-2.7-3
				C1057.8,954.2,1061.9,953.1,1063.5,952.6L1063.5,952.6z M1053.9,999.5c5.3,0,9.6,4.3,9.5,9.6c0,5.3-4.3,9.5-9.6,9.5
				c-5.3,0-9.6-4.3-9.5-9.6C1044.3,1003.7,1048.6,999.4,1053.9,999.5z M1012.7,1008.8c0,5.3-4.3,9.5-9.6,9.5c-5.3,0-9.6-4.3-9.5-9.6
				c0-5.3,4.3-9.5,9.6-9.5C1008.5,999.2,1012.8,1003.5,1012.7,1008.8z M985.2,953.6c2.6-0.6,5.2-0.9,7.8-0.9h0.4
				c3.6,0,8,0.3,11.2,2.1c1.5,0.5,2.4,1.5,2.7,3c0,2.5-4.1,3.5-5.7,4c-2.6,0.6-5.2,0.9-7.8,0.9h-0.4c-3.6,0-8-0.3-11.2-2.1
				c-1.5-0.5-2.3-1.5-2.7-3C979.4,955.1,983.5,954,985.2,953.6L985.2,953.6z M871.8,975.2c10.6-17.7,29.9-29.5,52-29.4
				c22.1,0.1,41.3,12.2,51.7,30L871.8,975.2L871.8,975.2z M962.1,1008.6c0,5.3-4.3,9.5-9.6,9.5c-5.3,0-9.6-4.3-9.5-9.6
				s4.3-9.5,9.6-9.5C957.8,999,962.1,1003.3,962.1,1008.6z M911.4,1008.3c0,5.3-4.3,9.5-9.6,9.5c-5.3,0-9.6-4.3-9.5-9.6
				c0-5.3,4.3-9.5,9.6-9.5C907.2,998.7,911.4,1003,911.4,1008.3z M950.3,931.5c0.9-2.2,2.2-4.2,3.8-6c2.7-3.2,6-6.1,9.8-8
				c1.7-1,3.4-1.5,5.3-1.6c2.7,0,2.2,3.1,1.6,4.7c-0.9,2.2-2.2,4.2-3.8,6c-2.7,3.2-6,6.1-9.8,8c-1.7,1-3.4,1.5-5.3,1.6
				C949.2,936.1,949.8,933,950.3,931.5L950.3,931.5z M918.1,907.8c0.5-1.5,1.5-2.3,3-2.7c2.5,0,3.6,4.1,4,5.7c0.6,2.7,1,5.4,0.9,8.2
				c0,3.6-0.3,8-2.1,11.2c-0.5,1.5-1.5,2.3-3,2.7c-2.5,0-3.6-4.1-4-5.7c-0.6-2.7-1-5.4-0.9-8.2C916.1,915.4,916.4,911,918.1,907.8z
				 M867.9,924.9c0.8-0.9,1.8-1.4,2.9-1.3c0.3,0,0.5,0,0.8,0.1c3.7,0,7.7,2,10.8,3.8c2.4,1.4,4.7,3,6.7,4.9c1.2,1.2,4.2,4.2,3,6.3
				c-0.8,0.9-1.8,1.3-2.9,1.3c-0.3,0-0.6,0-0.9-0.1c-3.7,0-7.7-2-10.8-3.8c-2.4-1.4-4.7-3-6.7-4.9
				C869.7,930,866.7,927.1,867.9,924.9L867.9,924.9z M849.9,953.5c2.6-0.6,5.2-0.9,7.8-0.9h0.4c3.6,0,8,0.3,11.2,2.1
				c1.5,0.5,2.3,1.5,2.7,3c0,2.5-4.1,3.5-5.7,4c-2.6,0.6-5.2,0.9-7.8,0.9h-0.4c-3.6,0-8-0.3-11.2-2.1c-1.5-0.5-2.3-1.5-2.7-3
				C844.2,955.1,848.3,954,849.9,953.5L849.9,953.5z M851.2,998.4c5.3,0,9.6,4.3,9.5,9.6c0,5.3-4.3,9.5-9.6,9.5
				c-5.3,0-9.6-4.3-9.5-9.6C841.6,1002.7,845.9,998.4,851.2,998.4z M699.1,1016.8c-5.3,0-9.6-4.3-9.5-9.6c0-5.3,4.3-9.5,9.6-9.5
				c5.3,0,9.6,4.3,9.5,9.6C708.7,1012.5,704.4,1016.8,699.1,1016.8z M740.2,1007.4c0-5.3,4.3-9.5,9.6-9.5c5.3,0,9.6,4.3,9.5,9.6
				c0,5.3-4.3,9.5-9.6,9.5C744.5,1017,740.2,1012.7,740.2,1007.4z M810.1,1007.8c0,5.3-4.3,9.5-9.6,9.5c-5.3,0-9.6-4.3-9.5-9.6
				c0-5.3,4.3-9.5,9.6-9.5C805.8,998.2,810.1,1002.5,810.1,1007.8z M778.6,952.9c2.6-0.6,5.2-0.9,7.8-0.9h0.4c3.6,0,8,0.3,11.2,2.1
				c1.5,0.5,2.3,1.5,2.7,3c0,2.5-4.1,3.5-5.7,4c-2.6,0.6-5.2,0.9-7.8,0.9h-0.4c-3.6,0-8-0.3-11.2-2.1c-1.5-0.5-2.3-1.5-2.7-3
				C772.9,954.4,777,953.3,778.6,952.9L778.6,952.9z M664.1,974.1c10-19.5,30.4-32.9,53.9-32.7c23.5,0.1,43.7,13.7,53.5,33.3
				L664.1,974.1z M744.8,931.4c0.9-2.2,2.2-4.2,3.8-6c2.7-3.2,6-6.1,9.8-8c1.7-1,3.4-1.5,5.3-1.6c2.7,0,2.2,3.1,1.6,4.7
				c-0.9,2.2-2.2,4.2-3.8,6c-2.7,3.2-6,6.1-9.8,8c-1.7,1-3.4,1.5-5.3,1.6C743.7,936,744.2,933,744.8,931.4z M711.3,904.2
				c0.5-1.5,1.5-2.3,3-2.7c2.5,0,3.6,4.1,4,5.7c0.6,2.7,1,5.4,0.9,8.2c0,3.6-0.3,8-2.1,11.2c-0.5,1.5-1.5,2.3-3,2.7
				c-2.5,0-3.6-4.1-4-5.7c-0.6-2.7-1-5.4-0.9-8.2C709.2,911.8,709.5,907.4,711.3,904.2z M662.3,921.6c0.8-0.9,1.8-1.3,2.9-1.3
				c0.3,0,0.6,0,0.9,0.1c3.7,0,7.7,2,10.8,3.8c2.4,1.4,4.7,3,6.7,4.9c1.2,1.2,4.2,4.2,3,6.3c-0.8,0.9-1.8,1.3-2.9,1.3
				c-0.3,0-0.6,0-0.9-0.1c-3.7,0-7.7-2-10.8-3.8c-2.4-1.4-4.7-3-6.7-4.9C664.1,926.7,661.1,923.7,662.3,921.6L662.3,921.6z
				 M638.6,952.1c2.6-0.6,5.2-0.9,7.8-0.9h0.4c3.6,0,8,0.3,11.2,2.1c1.5,0.5,2.3,1.5,2.7,3c0,2.5-4.1,3.5-5.7,4
				c-2.6,0.6-5.2,0.9-7.8,0.9h-0.4c-3.6,0-8-0.3-11.2-2.1c-1.5-0.5-2.3-1.5-2.7-3C632.9,953.7,636.9,952.6,638.6,952.1L638.6,952.1z
				 M658.1,1007c0,5.3-4.3,9.5-9.6,9.5c-5.3,0-9.6-4.3-9.5-9.6c0-5.3,4.3-9.5,9.6-9.5C653.8,997.4,658.1,1001.7,658.1,1007z
				 M597.9,997.1c5.3,0,9.6,4.3,9.5,9.6c0,5.3-4.3,9.5-9.6,9.5c-5.3,0-9.6-4.3-9.5-9.6C588.3,1001.3,592.6,997.1,597.9,997.1z
				 M565.7,951c2.6-0.6,5.2-0.9,7.8-0.9h0.4c3.6,0,8,0.3,11.2,2.1c1.5,0.5,2.3,1.5,2.7,3c0,2.5-4.1,3.5-5.7,4
				c-2.6,0.6-5.2,0.9-7.8,0.9c-0.1,0-0.3,0-0.4,0c-3.6,0-8-0.3-11.2-2.1c-1.5-0.5-2.3-1.5-2.7-3C560,952.5,564.1,951.5,565.7,951z
				 M531.1,932.8c0.9-2.2,2.2-4.2,3.8-6c2.7-3.2,6-6.1,9.8-8c1.7-1,3.4-1.5,5.3-1.6c2.7,0,2.2,3.1,1.6,4.7c-0.9,2.2-2.2,4.2-3.8,6
				c-2.7,3.2-6,6.1-9.8,8c-1.7,1-3.4,1.5-5.3,1.6C530,937.5,530.6,934.4,531.1,932.8L531.1,932.8z M559.2,973.6L453.8,973
				c10.4-18.4,30.2-30.8,52.8-30.7C529.3,942.4,549,955,559.2,973.6L559.2,973.6z M500,906.8c0.5-1.5,1.5-2.3,3-2.7
				c2.5,0,3.6,4.1,4,5.7c0.6,2.7,1,5.4,0.9,8.2c0,3.6-0.3,8-2.1,11.2c-0.5,1.5-1.5,2.3-3,2.7c-2.5,0-3.6-4.1-4-5.7
				c-0.6-2.7-1-5.4-0.9-8.2C497.9,914.5,498.3,910,500,906.8z M453.1,925.3c0.8-0.9,1.8-1.3,2.9-1.3c0.3,0,0.6,0,0.8,0.1
				c3.7,0,7.7,2,10.8,3.8c2.4,1.4,4.7,3,6.7,4.9c1.2,1.2,4.2,4.2,3,6.3c-0.8,0.9-1.8,1.3-2.9,1.3c-0.3,0-0.6,0-0.8-0.1
				c-3.7,0-7.7-2-10.8-3.8c-2.4-1.3-4.7-3-6.7-4.9C454.9,930.4,451.9,927.4,453.1,925.3z M431.3,950.6c2.6-0.6,5.2-0.9,7.8-0.9h0.4
				c3.6,0,8,0.3,11.2,2.1c1.5,0.5,2.3,1.5,2.7,3c0,2.5-4.1,3.5-5.7,4c-2.6,0.6-5.2,0.9-7.8,0.9h-0.4c-3.6,0-8-0.3-11.2-2.1
				c-1.5-0.5-2.3-1.5-2.7-3C425.6,952.1,429.6,951.1,431.3,950.6L431.3,950.6z"/>
			<path class="st2" d="M-650.4,1143.8c-25.8,10.2-44.2,35.3-44.4,64.7c-0.2,32.3,21.7,59.6,51.6,67.8
				c-28.9,8.5-50.1,35.1-50.2,66.7c-0.2,32,21.2,59,50.6,67.5c-29.4,8.2-51.1,35-51.3,67c-0.2,32.3,21.7,59.6,51.5,67.8
				c-30.9,7.2-54.1,34.7-54.3,67.8c-0.2,30.9,19.8,57.2,47.6,66.7c0.2,0,0.4,0,0.6,0c0.6,0,1.1,0.1,1.6,0.1l27.3,0.1v0l183.7,1
				l448.4,2.3l368.2,1.9l0,0l3,0c0.1-0.1,0.3-0.1,0.4-0.1c2.4-0.1,4.8-0.1,7.2,0c33.9-4.7,60.2-33.8,60.3-68.9
				c0.2-33-22.7-60.8-53.5-68.3c29.9-7.9,52.1-34.9,52.2-67.2c0.2-32-21.2-59-50.6-67.5c29.4-8.2,51.1-35,51.3-67
				c0.2-31.6-20.8-58.4-49.6-67.3c29.9-7.9,52.1-34.9,52.3-67.2c0.2-29.4-17.9-54.6-43.7-65.1c25.3-10.5,43.2-35.3,43.3-64.3
				c0.2-33.8-23.7-62.2-55.7-68.9c1.6-6.9,2.5-14.1,2.5-21.5c0.3-55.5-44.7-100.9-100.3-101.2c-49.8-0.3-91.2,35.6-99.7,82.9
				l-12.4-0.1c-7-47.6-47.9-84.4-97.7-84.6c-49.7-0.3-91,36.1-98.6,83.6l-16-0.1c-6.3-48.5-47.6-86.1-97.9-86.3
				c-50.3-0.3-92,36.9-98.8,85.3l-12.5-0.1c-7-47.6-47.9-84.4-97.7-84.6c-49.7-0.3-91,36.1-98.6,83.6l-9.1,0
				c-9.1-46-49.7-80.8-98.4-81.1c-55.7-0.3-101.1,44.6-101.4,100.1c0,7.4,0.8,14.6,2.3,21.5c-32,6.4-56.2,34.5-56.4,68.3
				C-693.2,1108-675.6,1133.1-650.4,1143.8L-650.4,1143.8z M412.6,1604c7.6,0,13.9,6.4,13.9,14c0,7.6-6.4,13.9-14,13.8
				c-7.6,0-13.9-6.4-13.9-14C398.6,1610.3,405,1604,412.6,1604z M412.6,1468c7.6,0,13.9,6.4,13.9,14c0,7.6-6.4,13.9-14,13.8
				c-7.6,0-13.9-6.4-13.9-14C398.7,1474.2,405,1467.9,412.6,1468z M413.8,1330.2c7.6,0,13.9,6.4,13.9,14c0,7.6-6.4,13.9-14,13.8
				c-7.6,0-13.9-6.4-13.9-14C399.9,1336.5,406.2,1330.2,413.8,1330.2z M412,1198.2c7.6,0,13.9,6.4,13.9,14c0,7.6-6.4,13.9-14,13.8
				c-7.6,0-13.9-6.4-13.9-14C398,1204.5,404.4,1198.2,412,1198.2z M410.1,1064.9c7.6,0,13.9,6.4,13.9,14c0,7.6-6.4,13.9-14,13.8
				c-7.6,0-13.9-6.4-13.9-14C396.1,1071.2,402.5,1064.9,410.1,1064.9z M-601.1,1011.8c-5.3,0-9.6-4.3-9.5-9.6c0-5.3,4.3-9.5,9.6-9.5
				c5.3,0,9.6,4.3,9.5,9.6C-591.5,1007.5-595.8,1011.8-601.1,1011.8z M-559.9,1002.4c0-5.3,4.3-9.5,9.6-9.5c5.3,0,9.6,4.3,9.5,9.6
				c0,5.3-4.3,9.5-9.6,9.5C-555.7,1012-560,1007.7-559.9,1002.4z M-509.2,1002.7c0-5.3,4.3-9.5,9.6-9.5c5.3,0,9.6,4.3,9.5,9.6
				c0,5.3-4.3,9.5-9.6,9.5C-505,1012.3-509.3,1008-509.2,1002.7z M260.3,1016.2c-5.3,0-9.6-4.3-9.5-9.6c0-5.3,4.3-9.5,9.6-9.5
				c5.3,0,9.6,4.3,9.5,9.6C269.9,1012,265.6,1016.3,260.3,1016.2z M301.4,1006.9c0-5.3,4.3-9.5,9.6-9.5c5.3,0,9.6,4.3,9.5,9.6
				c0,5.3-4.3,9.5-9.6,9.5C305.7,1016.5,301.4,1012.2,301.4,1006.9z M250.2,973.7c10.9-15.9,29.2-26.2,50-26.1
				c20.7,0.1,38.9,10.7,49.7,26.7L250.2,973.7L250.2,973.7z M358.3,954.4c2.6-0.6,5.2-0.9,7.8-0.9h0.4c3.6,0,8,0.3,11.2,2.1
				c1.5,0.5,2.3,1.5,2.7,3c0,2.5-4.1,3.5-5.7,4c-2.6,0.6-5.2,0.9-7.8,0.9h-0.4c-3.6,0-8-0.3-11.2-2.1c-1.5-0.5-2.3-1.5-2.7-3
				C352.6,956,356.7,954.9,358.3,954.4z M361.7,997.6c5.3,0,9.6,4.3,9.5,9.6c0,5.3-4.3,9.5-9.6,9.5c-5.3,0-9.6-4.3-9.5-9.6
				C352.1,1001.9,356.4,997.6,361.7,997.6z M329.9,935.1c0.9-2.2,2.2-4.2,3.8-6c2.7-3.2,6.1-6.1,9.8-8c1.7-1,3.4-1.5,5.3-1.6
				c2.7,0,2.2,3.1,1.6,4.7c-0.9,2.2-2.2,4.2-3.8,6c-2.7,3.2-6.1,6.1-9.8,8c-1.7,1-3.4,1.5-5.3,1.6
				C328.9,939.7,329.4,936.7,329.9,935.1z M297.9,907.3c0.5-1.5,1.5-2.3,3-2.7c2.5,0,3.6,4.1,4,5.7c0.6,2.7,1,5.4,0.9,8.2
				c0,3.6-0.3,8-2.1,11.2c-0.5,1.5-1.5,2.3-3,2.7c-2.5,0-3.6-4.1-4-5.7c-0.6-2.7-1-5.4-0.9-8.2C295.8,915,296.1,910.6,297.9,907.3z
				 M243.8,921.1c0.8-0.9,1.8-1.3,2.9-1.3c0.3,0,0.6,0,0.9,0.1c3.7,0,7.7,2,10.8,3.8c2.4,1.4,4.7,3,6.7,4.9c1.2,1.2,4.2,4.2,3,6.3
				c-0.8,0.9-1.8,1.3-2.9,1.3c-0.3,0-0.6,0-0.8-0.1c-3.7,0-7.7-2-10.8-3.8c-2.4-1.4-4.7-3-6.7-4.9
				C245.6,926.2,242.6,923.3,243.8,921.1L243.8,921.1z M224.1,953.2c2.6-0.6,5.2-0.9,7.8-0.9h0.4c3.6,0,8,0.3,11.2,2.1
				c1.5,0.5,2.3,1.5,2.7,3c0,2.5-4.1,3.5-5.7,4c-2.6,0.6-5.2,0.9-7.8,0.9h-0.4c-3.6,0-8-0.3-11.2-2.1c-1.5-0.5-2.3-1.5-2.7-3
				C218.4,954.7,222.5,953.6,224.1,953.2L224.1,953.2z M209.7,996.8c5.3,0,9.6,4.3,9.5,9.6c0,5.3-4.3,9.5-9.6,9.5
				c-5.3,0-9.6-4.3-9.5-9.6C200.1,1001.1,204.4,996.8,209.7,996.8z M149.4,1006.1c0-5.3,4.3-9.5,9.6-9.5c5.3,0,9.6,4.3,9.5,9.6
				c0,5.3-4.3,9.5-9.6,9.5C153.7,1015.7,149.4,1011.4,149.4,1006.1z M148.3,952.8c2.6-0.6,5.2-0.9,7.8-0.9h0.4c3.6,0,8,0.3,11.2,2.1
				c1.5,0.5,2.3,1.5,2.7,3c0,2.5-4.1,3.5-5.7,4c-2.6,0.6-5.2,0.9-7.8,0.9c-0.1,0-0.3,0-0.4,0c-3.6,0-8-0.3-11.2-2.1
				c-1.5-0.5-2.3-1.5-2.7-3C142.6,954.3,146.6,953.2,148.3,952.8L148.3,952.8z M37.4,972.6C48.2,956,67,945,88.2,945.2
				s39.9,11.3,50.5,28L37.4,972.6L37.4,972.6z M57.6,1015.2c-5.3,0-9.6-4.3-9.5-9.6c0-5.3,4.3-9.5,9.6-9.5c5.3,0,9.6,4.3,9.5,9.6
				C67.2,1010.9,62.9,1015.2,57.6,1015.2z M98.8,1005.8c0-5.3,4.3-9.5,9.6-9.5c5.3,0,9.6,4.3,9.5,9.6c0,5.3-4.3,9.5-9.6,9.5
				C103,1015.4,98.7,1011.1,98.8,1005.8z M118.1,930c0.9-2.2,2.2-4.2,3.8-6c2.7-3.2,6.1-6.1,9.8-8c1.7-1,3.4-1.5,5.3-1.6
				c2.7,0,2.2,3.1,1.6,4.7c-0.9,2.2-2.2,4.2-3.8,6c-2.7,3.2-6.1,6.1-9.8,8c-1.7,1-3.4,1.5-5.3,1.6C117,934.7,117.5,931.6,118.1,930
				L118.1,930z M82.5,907.3c0.5-1.5,1.5-2.3,3-2.7c2.5,0,3.6,4.1,4,5.7c0.6,2.7,1,5.4,0.9,8.2c0,3.6-0.3,8-2.1,11.2
				c-0.5,1.5-1.5,2.3-3,2.7c-2.5,0-3.6-4.1-4-5.7c-0.6-2.7-1-5.4-0.9-8.2C80.5,914.9,80.8,910.5,82.5,907.3z M32,922
				c0.8-0.9,1.8-1.3,2.9-1.3c0.3,0,0.6,0,0.9,0.1c3.7,0,7.7,2,10.8,3.8c2.4,1.4,4.7,3,6.7,4.9c1.2,1.2,4.2,4.2,3,6.3
				c-0.8,0.9-1.8,1.3-2.9,1.3c-0.3,0-0.6,0-0.9-0.1c-3.7,0-7.7-2-10.8-3.8c-2.4-1.4-4.7-3-6.7-4.9C33.8,927.2,30.8,924.2,32,922
				L32,922z M16.7,948.9c2.6-0.6,5.2-0.9,7.8-0.9h0.4c3.6,0,8,0.3,11.2,2.1c1.5,0.5,2.3,1.5,2.7,3c0,2.5-4.1,3.5-5.7,4
				c-2.6,0.6-5.2,0.9-7.8,0.9c-0.1,0-0.3,0-0.4,0c-3.6,0-8-0.3-11.2-2.1c-1.5-0.5-2.3-1.5-2.7-3C11,950.5,15,949.4,16.7,948.9
				L16.7,948.9z M7,995.8c5.3,0,9.6,4.3,9.5,9.6c0,5.3-4.3,9.5-9.6,9.5c-5.3,0-9.6-4.3-9.5-9.6C-2.6,1000,1.8,995.8,7,995.8z
				 M-34.1,1005.1c0,5.3-4.3,9.5-9.6,9.5c-5.3,0-9.6-4.3-9.5-9.6c0-5.3,4.3-9.5,9.6-9.5C-38.3,995.6-34.1,999.9-34.1,1005.1z
				 M-61.7,949.9c2.6-0.6,5.2-0.9,7.8-0.9h0.4c3.6,0,8,0.3,11.2,2.1c1.5,0.5,2.3,1.5,2.7,3c0,2.5-4.1,3.5-5.7,4
				c-2.6,0.6-5.2,0.9-7.8,0.9h-0.4c-3.6,0-8-0.3-11.2-2.1c-1.5-0.5-2.3-1.5-2.7-3C-67.4,951.4-63.3,950.3-61.7,949.9L-61.7,949.9z
				 M-175,971.5c10.6-17.7,29.9-29.5,52-29.4c22.1,0.1,41.3,12.2,51.7,30L-175,971.5L-175,971.5z M-84.8,1004.9
				c0,5.3-4.3,9.5-9.6,9.5c-5.3,0-9.6-4.3-9.5-9.6s4.3-9.5,9.6-9.5C-89,995.3-84.7,999.6-84.8,1004.9z M-135.4,1004.6
				c0,5.3-4.3,9.5-9.6,9.5c-5.3,0-9.6-4.3-9.5-9.6c0-5.3,4.3-9.5,9.6-9.5C-139.7,995-135.4,999.3-135.4,1004.6z M-96.5,927.8
				c0.9-2.2,2.2-4.2,3.8-6c2.7-3.2,6.1-6.1,9.8-8c1.7-1,3.4-1.5,5.3-1.6c2.7,0,2.2,3.1,1.6,4.7c-0.9,2.2-2.2,4.2-3.8,6
				c-2.7,3.2-6.1,6.1-9.8,8c-1.7,1-3.4,1.5-5.3,1.6C-97.6,932.4-97.1,929.3-96.5,927.8L-96.5,927.8z M-128.7,904.1
				c0.5-1.5,1.5-2.3,3-2.7c2.5,0,3.6,4.1,4,5.7c0.6,2.7,1,5.4,0.9,8.2c0,3.6-0.3,8-2.1,11.2c-0.5,1.5-1.5,2.3-3,2.7
				c-2.5,0-3.6-4.1-4-5.7c-0.6-2.7-1-5.4-0.9-8.2C-130.8,911.8-130.5,907.3-128.7,904.1z M-178.9,921.2c0.8-0.9,1.8-1.4,2.9-1.3
				c0.3,0,0.6,0,0.8,0.1c3.7,0,7.7,2,10.8,3.8c2.4,1.4,4.7,3,6.7,4.9c1.2,1.2,4.2,4.2,3,6.3c-0.8,0.9-1.8,1.3-2.9,1.3
				c-0.3,0-0.6,0-0.9-0.1c-3.7,0-7.7-2-10.8-3.8c-2.4-1.4-4.7-3-6.7-4.9C-177.2,926.3-180.2,923.4-178.9,921.2L-178.9,921.2z
				 M-196.9,949.9c2.6-0.6,5.2-0.9,7.8-0.9h0.4c3.6,0,8,0.3,11.2,2.1c1.5,0.5,2.3,1.5,2.7,3c0,2.5-4.1,3.5-5.7,4
				c-2.6,0.6-5.2,0.9-7.8,0.9h-0.4c-3.6,0-8-0.3-11.2-2.1c-1.5-0.5-2.3-1.5-2.7-3C-202.6,951.4-198.6,950.3-196.9,949.9
				L-196.9,949.9z M-195.6,994.7c5.3,0,9.6,4.3,9.5,9.6c0,5.3-4.3,9.5-9.6,9.5c-5.3,0-9.6-4.3-9.5-9.6
				C-205.2,999-200.9,994.7-195.6,994.7z M-347.7,1013.1c-5.3,0-9.6-4.3-9.5-9.6c0-5.3,4.3-9.5,9.6-9.5c5.3,0,9.6,4.3,9.5,9.6
				C-338.1,1008.8-342.4,1013.1-347.7,1013.1z M-306.6,1003.7c0-5.3,4.3-9.5,9.6-9.5c5.3,0,9.6,4.3,9.5,9.6c0,5.3-4.3,9.5-9.6,9.5
				C-302.3,1013.3-306.6,1009-306.6,1003.7z M-236.8,1004.1c0,5.3-4.3,9.5-9.6,9.5c-5.3,0-9.6-4.3-9.5-9.6c0-5.3,4.3-9.5,9.6-9.5
				C-241,994.5-236.7,998.8-236.8,1004.1z M-268.2,949.2c2.6-0.6,5.2-0.9,7.8-0.9h0.4c3.6,0,8,0.3,11.2,2.1c1.5,0.5,2.3,1.5,2.7,3
				c0,2.5-4.1,3.5-5.7,4c-2.6,0.6-5.2,0.9-7.8,0.9h-0.4c-3.6,0-8-0.3-11.2-2.1c-1.5-0.5-2.3-1.5-2.7-3
				C-273.9,950.7-269.8,949.6-268.2,949.2L-268.2,949.2z M-382.8,970.4c10-19.5,30.4-32.9,53.9-32.7c23.5,0.1,43.7,13.7,53.5,33.3
				L-382.8,970.4z M-302.1,927.7c0.9-2.2,2.2-4.2,3.8-6c2.7-3.2,6.1-6.1,9.8-8c1.7-1,3.4-1.5,5.3-1.6c2.7,0,2.2,3.1,1.6,4.7
				c-0.9,2.2-2.2,4.2-3.8,6c-2.7,3.2-6.1,6.1-9.8,8c-1.7,1-3.4,1.5-5.3,1.6C-303.1,932.4-302.6,929.3-302.1,927.7z M-335.5,900.5
				c0.5-1.5,1.5-2.3,3-2.7c2.5,0,3.6,4.1,4,5.7c0.6,2.7,1,5.4,0.9,8.2c0,3.6-0.3,8-2.1,11.2c-0.5,1.5-1.5,2.3-3,2.7
				c-2.5,0-3.6-4.1-4-5.7c-0.6-2.7-1-5.4-0.9-8.2C-337.6,908.1-337.3,903.7-335.5,900.5z M-384.5,917.9c0.8-0.9,1.8-1.3,2.9-1.3
				c0.3,0,0.6,0,0.9,0.1c3.7,0,7.7,2,10.8,3.8c2.4,1.4,4.7,3,6.7,4.9c1.2,1.2,4.2,4.2,3,6.3c-0.8,0.9-1.8,1.3-2.9,1.3
				c-0.3,0-0.6,0-0.9-0.1c-3.7,0-7.7-2-10.8-3.8c-2.4-1.4-4.7-3-6.7-4.9C-382.7,923-385.7,920-384.5,917.9L-384.5,917.9z
				 M-408.3,948.4c2.6-0.6,5.2-0.9,7.8-0.9h0.4c3.6,0,8,0.3,11.2,2.1c1.5,0.5,2.3,1.5,2.7,3c0,2.5-4.1,3.5-5.7,4
				c-2.6,0.6-5.2,0.9-7.8,0.9h-0.4c-3.6,0-8-0.3-11.2-2.1c-1.5-0.5-2.3-1.5-2.7-3C-414,950-409.9,948.9-408.3,948.4L-408.3,948.4z
				 M-388.8,1003.3c0,5.3-4.3,9.5-9.6,9.5c-5.3,0-9.6-4.3-9.5-9.6c0-5.3,4.3-9.5,9.6-9.5C-393,993.7-388.7,998-388.8,1003.3z
				 M-449,993.4c5.3,0,9.6,4.3,9.5,9.6c0,5.3-4.3,9.5-9.6,9.5c-5.3,0-9.6-4.3-9.5-9.6C-458.6,997.7-454.3,993.4-449,993.4z
				 M-481.1,947.3c2.6-0.6,5.2-0.9,7.8-0.9h0.4c3.6,0,8,0.3,11.2,2.1c1.5,0.5,2.3,1.5,2.7,3c0,2.5-4.1,3.5-5.7,4
				c-2.6,0.6-5.2,0.9-7.8,0.9c-0.1,0-0.3,0-0.4,0c-3.6,0-8-0.3-11.2-2.1c-1.5-0.5-2.3-1.5-2.7-3
				C-486.8,948.8-482.7,947.8-481.1,947.3z M-515.7,929.1c0.9-2.2,2.2-4.2,3.8-6c2.7-3.2,6.1-6.1,9.8-8c1.7-1,3.4-1.5,5.3-1.6
				c2.7,0,2.2,3.1,1.6,4.7c-0.9,2.2-2.2,4.2-3.8,6c-2.7,3.2-6.1,6.1-9.8,8c-1.7,1-3.4,1.5-5.3,1.6
				C-516.8,933.8-516.3,930.7-515.7,929.1L-515.7,929.1z M-487.7,969.9l-105.3-0.5c10.4-18.4,30.2-30.8,52.8-30.7
				S-497.8,951.3-487.7,969.9L-487.7,969.9z M-546.8,903.1c0.5-1.5,1.5-2.3,3-2.7c2.5,0,3.6,4.1,4,5.7c0.6,2.7,1,5.4,0.9,8.2
				c0,3.6-0.3,8-2.1,11.2c-0.5,1.5-1.5,2.3-3,2.7c-2.5,0-3.6-4.1-4-5.7c-0.6-2.7-1-5.4-0.9-8.2
				C-548.9,910.8-548.6,906.4-546.8,903.1L-546.8,903.1z M-593.7,921.6c0.8-0.9,1.8-1.3,2.9-1.3c0.3,0,0.6,0,0.9,0.1
				c3.7,0,7.7,2,10.8,3.8c2.4,1.4,4.7,3,6.7,4.9c1.2,1.2,4.2,4.2,3,6.3c-0.8,0.9-1.8,1.3-2.9,1.3c-0.3,0-0.6,0-0.9-0.1
				c-3.7,0-7.7-2-10.8-3.8c-2.4-1.3-4.7-3-6.7-4.9C-592,926.7-594.9,923.8-593.7,921.6z M-615.6,946.9c2.6-0.6,5.1-0.9,7.8-0.9h0.4
				c3.6,0,8,0.3,11.2,2.1c1.5,0.5,2.3,1.5,2.7,3c0,2.5-4.1,3.5-5.7,4c-2.6,0.6-5.2,0.9-7.8,0.9h-0.4c-3.6,0-8-0.3-11.2-2.1
				c-1.5-0.5-2.4-1.5-2.7-3C-621.3,948.4-617.2,947.4-615.6,946.9L-615.6,946.9z"/>
		</g>
	</g>
	
		<rect x="387" y="976.8" style="clip-path:url(#SVGID_00000036931879906135306550000015692069857175986853_);fill:#FFF8EF;" width="38" height="64"/>
	
		<circle style="clip-path:url(#SVGID_00000036931879906135306550000015692069857175986853_);fill:#FFFFFF;" cx="403.5" cy="1006.3" r="9.5"/>
</g>
</svg>
