<?xml version="1.0" encoding="UTF-8"?>
<svg id="Calque_2" data-name="Calque 2" xmlns="http://www.w3.org/2000/svg" viewBox="0 0 1097.02 165.72">
  <defs>
    <style>
      .cls-1 {
        fill: #873b74;
      }

      .cls-1, .cls-2 {
        stroke-width: 0px;
      }

      .cls-2 {
        fill: #fff8f0;
      }
    </style>
  </defs>
  <g id="Calque_1-2" data-name="Calque 1">
    <rect class="cls-2" width="1096.7" height="165.72"/>
    <path class="cls-1" d="m.06,91.64c.47,3.81,1.01,7.61,1.54,11.41.12.89.25,1.78.34,2.66.25.35.46.73.61,1.13.68,1.77,1.1,3.59,1.47,5.42.59.58,1.03,1.39,1.21,2.45,0,.06.02.12.02.17,2.42.02,4.66,1.57,4.41,4.78-.25,3.24-.45,6.45-.83,9.66.71.39,1.32,1.03,1.73,1.98,2.52,5.88,2.12,12.02,1.63,18.27-.05.65-.2,1.23-.41,1.76l1076.46-2.27s0-.08,0-.13c-2.17-.76-3.79-2.85-2.95-5.8,1.15-4.03,2.51-7.91,4.22-11.74.46-1.02,1.11-1.68,1.86-2.08,1.36-2.38,2.92-4.64,4.73-6.72.6-4.48.93-9.05.93-13.7-.02-58.77-47.84-106.46-106.73-106.44-52.64.02-96.31,38.19-104.99,88.26h-13.11c-7.71-50.34-51.21-88.99-103.79-88.97-52.59.02-96.06,38.69-103.75,89.04h-16.94C640.78,39.56,596.85-.02,543.63,0c-53.21.02-97.12,39.62-104.02,90.85h-13.24C418.66,40.52,375.16,1.86,322.58,1.88c-52.58.02-96.06,38.69-103.75,89.04h-9.65C199.28,42.33,156.19,5.71,104.6,5.73,52.88,5.74,9.73,42.57,0,91.34c.02.1.04.2.06.3Zm949.5,44c-5.6,0-10.14-4.53-10.14-10.11,0-5.59,4.54-10.12,10.13-10.12,5.6,0,10.14,4.53,10.14,10.11,0,5.59-4.54,10.12-10.13,10.12Zm53.61-.02c-5.6,0-10.14-4.53-10.14-10.11,0-5.59,4.54-10.12,10.13-10.12,5.6,0,10.14,4.53,10.14,10.11,0,5.59-4.54,10.12-10.13,10.12Zm-64.55-44.92c11.46-16.85,30.8-27.93,52.72-27.94,21.92,0,41.26,11.07,52.73,27.9l-105.45.03Zm114.29-21.04c2.72-.65,5.45-1,8.25-1h.46c3.79,0,8.46.31,11.9,2.15,1.55.55,2.49,1.59,2.85,3.13,0,2.63-4.29,3.78-6.03,4.29-2.72.67-5.45,1-8.25,1h-.46c-3.79,0-8.46-.31-11.9-2.15-1.55-.55-2.49-1.59-2.85-3.13,0-2.63,4.29-3.78,6.03-4.29Zm3.87,45.71c5.6,0,10.14,4.53,10.14,10.11,0,5.59-4.53,10.12-10.13,10.12-5.6,0-10.14-4.53-10.14-10.11,0-5.59,4.53-10.12,10.13-10.12Zm-33.98-66.01c.98-2.32,2.3-4.43,3.98-6.33,2.8-3.34,6.37-6.52,10.28-8.55,1.74-1.09,3.6-1.65,5.63-1.71,2.89,0,2.32,3.28,1.76,4.93-.99,2.32-2.3,4.43-3.98,6.33-2.81,3.34-6.37,6.52-10.28,8.55-1.74,1.09-3.6,1.65-5.63,1.71-2.89,0-2.33-3.26-1.76-4.93Zm-34.06-29.16c.55-1.55,1.59-2.49,3.14-2.84,2.64,0,3.79,4.28,4.3,6.02.69,2.86,1.05,5.75,1.01,8.69,0,3.78-.31,8.44-2.15,11.87-.54,1.55-1.59,2.49-3.14,2.84-2.64,0-3.79-4.28-4.3-6.02-.69-2.86-1.05-5.75-1.01-8.69,0-3.78.31-8.44,2.15-11.87Zm-57.12,14.88c.84-.94,1.87-1.42,3.08-1.42.29,0,.61.02.92.09,3.88,0,8.19,2.08,11.46,3.9,2.57,1.42,4.94,3.13,7.1,5.14,1.28,1.27,4.46,4.36,3.17,6.67-.86.94-1.89,1.42-3.1,1.42-.29,0-.59-.02-.9-.09-3.88,0-8.19-2.09-11.46-3.9-2.57-1.42-4.94-3.13-7.1-5.14-1.28-1.28-4.46-4.37-3.17-6.66Zm-20.68,34.05c2.72-.65,5.44-1.01,8.25-1.01h.46c3.79,0,8.46.31,11.89,2.15,1.55.54,2.49,1.59,2.85,3.13,0,2.63-4.29,3.78-6.03,4.28-2.7.65-5.45,1.01-8.23,1.01h-.48c-3.79,0-8.46-.31-11.9-2.15-1.55-.55-2.49-1.59-2.85-3.13,0-2.64,4.29-3.78,6.03-4.29Zm-14.98,46.3c5.6,0,10.14,4.53,10.14,10.11,0,5.59-4.53,10.12-10.13,10.12-5.6,0-10.14-4.53-10.14-10.11,0-5.59,4.53-10.12,10.13-10.12Zm-160.82,20.28c-5.6,0-10.14-4.53-10.14-10.11,0-5.59,4.54-10.12,10.13-10.12,5.6,0,10.14,4.53,10.14,10.11,0,5.59-4.54,10.12-10.13,10.12Zm53.61-.02c-5.6,0-10.14-4.53-10.14-10.11,0-5.59,4.53-10.12,10.13-10.12,5.6,0,10.14,4.53,10.14,10.11,0,5.59-4.54,10.12-10.13,10.12Zm53.61-.02c-5.6,0-10.14-4.53-10.14-10.11,0-5.59,4.54-10.12,10.13-10.12,5.6,0,10.14,4.53,10.14,10.11,0,5.59-4.54,10.12-10.13,10.12Zm-11.68-66.54c2.72-.65,5.45-1,8.25-1h.46c3.79,0,8.46.31,11.9,2.15,1.55.54,2.49,1.59,2.85,3.13,0,2.63-4.29,3.78-6.03,4.29-2.72.67-5.45,1.02-8.25,1.02-.14,0-.32,0-.46-.02-3.79,0-8.46-.31-11.9-2.15-1.55-.55-2.49-1.59-2.85-3.13,0-2.63,4.29-3.78,6.03-4.29Zm-117.13,21.64c11.33-17.61,31.07-29.33,53.58-29.33,22.51,0,42.27,11.69,53.61,29.3l-107.19.03Zm85.04-45.5c.98-2.32,2.3-4.43,3.98-6.33,2.8-3.34,6.36-6.52,10.28-8.55,1.74-1.09,3.6-1.65,5.63-1.71,2.89,0,2.33,3.28,1.77,4.93-.99,2.32-2.3,4.44-3.98,6.34-2.8,3.34-6.36,6.52-10.28,8.55-1.74,1.07-3.6,1.65-5.63,1.71-2.89,0-2.33-3.26-1.76-4.93Zm-37.71-23.88c.55-1.55,1.59-2.49,3.14-2.84,2.64,0,3.79,4.28,4.3,6.02.69,2.86,1.05,5.75,1.01,8.69,0,3.78-.31,8.44-2.15,11.87-.54,1.55-1.59,2.49-3.14,2.84-2.64,0-3.79-4.28-4.3-6.02-.69-2.86-1.05-5.75-1.01-8.69,0-3.78.31-8.44,2.15-11.87Zm-53.38,15.92c.84-.94,1.89-1.42,3.08-1.42.29,0,.61.04.92.09,3.88,0,8.19,2.09,11.46,3.9,2.58,1.42,4.94,3.13,7.1,5.14,1.28,1.28,4.46,4.37,3.16,6.67-.84.94-1.86,1.42-3.08,1.42-.29,0-.61-.02-.92-.09-3.88,0-8.19-2.08-11.46-3.9-2.57-1.42-4.94-3.13-7.1-5.14-1.28-1.27-4.46-4.36-3.17-6.66Zm-16.07,28.53c2.72-.65,5.45-1.01,8.25-1.01h.46c3.79,0,8.46.31,11.9,2.15,1.55.54,2.49,1.59,2.85,3.13,0,2.63-4.29,3.78-6.03,4.29-2.72.67-5.44,1.02-8.25,1.02-.14,0-.31,0-.46-.02-3.79,0-8.46-.31-11.9-2.15-1.55-.55-2.49-1.59-2.85-3.13,0-2.63,4.29-3.78,6.03-4.29Zm-9.91,49.64c5.6,0,10.14,4.53,10.14,10.11,0,5.59-4.54,10.12-10.13,10.12-5.6,0-10.14-4.53-10.14-10.11,0-5.59,4.54-10.12,10.13-10.12Zm-160.82,20.28c-5.6,0-10.14-4.53-10.14-10.11,0-5.59,4.54-10.12,10.13-10.12,5.6,0,10.14,4.53,10.14,10.11,0,5.59-4.54,10.12-10.13,10.12Zm53.61-.02c-5.6,0-10.14-4.53-10.14-10.11,0-5.59,4.54-10.12,10.13-10.12,5.6,0,10.14,4.53,10.14,10.11,0,5.59-4.54,10.12-10.13,10.12Zm63.74-10.14c0,5.59-4.53,10.12-10.13,10.12-5.6,0-10.14-4.53-10.14-10.11,0-5.59,4.53-10.12,10.13-10.12,5.6,0,10.14,4.53,10.14,10.11Zm-29.5-58.32c2.72-.65,5.44-1.01,8.25-1.01h.46c3.79,0,8.46.31,11.89,2.15,1.55.54,2.49,1.58,2.85,3.13,0,2.63-4.29,3.78-6.03,4.28-2.72.65-5.47,1.01-8.25,1.01h-.46c-3.79,0-8.46-.31-11.9-2.15-1.55-.54-2.49-1.58-2.85-3.13,0-2.64,4.29-3.79,6.03-4.29Zm-119.78,23.54c11.07-18.77,31.47-31.42,54.86-31.43,23.39,0,43.8,12.63,54.88,31.39l-109.74.03Zm82.77-46.71c.99-2.32,2.3-4.43,3.98-6.34,2.8-3.34,6.36-6.52,10.28-8.55,1.74-1.09,3.6-1.65,5.63-1.71,2.89,0,2.33,3.28,1.76,4.93-.98,2.32-2.3,4.43-3.98,6.34-2.8,3.34-6.36,6.52-10.28,8.55-1.74,1.09-3.6,1.65-5.63,1.72-2.89,0-2.32-3.28-1.76-4.93Zm-34.16-24.86c.55-1.55,1.59-2.49,3.14-2.84,2.64,0,3.79,4.28,4.3,6.02.69,2.86,1.05,5.75,1.01,8.69,0,3.78-.31,8.44-2.15,11.87-.54,1.55-1.59,2.49-3.14,2.84-2.64,0-3.79-4.28-4.3-6.02-.69-2.86-1.05-5.75-1.01-8.69,0-3.78.31-8.44,2.15-11.87Zm-53.06,18.39c.86-.94,1.88-1.45,3.1-1.45.29,0,.58.04.9.11,3.88,0,8.19,2.08,11.46,3.9,2.57,1.42,4.94,3.13,7.1,5.14,1.28,1.28,4.46,4.37,3.17,6.67-.84.94-1.87,1.42-3.08,1.42-.29,0-.61-.02-.92-.08-3.88,0-8.19-2.08-11.46-3.9-2.58-1.42-4.94-3.13-7.1-5.14-1.28-1.27-4.46-4.36-3.17-6.67Zm-18.84,30.41c2.72-.65,5.45-1,8.25-1h.46c3.79,0,8.46.31,11.9,2.15,1.55.55,2.49,1.59,2.85,3.13,0,2.63-4.29,3.78-6.03,4.29-2.72.65-5.46,1.01-8.25,1.01h-.46c-3.79,0-8.46-.31-11.9-2.15-1.55-.54-2.49-1.59-2.85-3.13,0-2.63,4.29-3.78,6.03-4.29Zm1.61,47.49c5.6,0,10.14,4.53,10.14,10.11,0,5.59-4.53,10.12-10.13,10.12-5.6,0-10.14-4.53-10.14-10.11,0-5.59,4.53-10.12,10.13-10.12Zm-214.43,20.3c-5.6,0-10.14-4.53-10.14-10.11,0-5.59,4.54-10.12,10.13-10.12,5.6,0,10.14,4.53,10.14,10.11,0,5.59-4.54,10.12-10.13,10.12Zm53.61-.02c-5.6,0-10.14-4.53-10.14-10.11,0-5.59,4.54-10.12,10.13-10.12,5.6,0,10.14,4.53,10.14,10.11,0,5.59-4.53,10.12-10.13,10.12Zm53.61-.02c-5.6,0-10.14-4.53-10.14-10.11,0-5.59,4.54-10.12,10.13-10.12,5.6,0,10.14,4.53,10.14,10.11,0,5.59-4.54,10.12-10.13,10.12Zm63.74-10.14c0,5.59-4.54,10.12-10.13,10.12-5.6,0-10.14-4.53-10.14-10.11,0-5.59,4.54-10.12,10.13-10.12,5.6,0,10.14,4.53,10.14,10.11Zm-33.57-57.93c2.72-.65,5.45-1.01,8.25-1.01h.46c3.79,0,8.46.31,11.9,2.15,1.55.54,2.49,1.59,2.85,3.13,0,2.63-4.29,3.78-6.03,4.28-2.72.65-5.46,1.01-8.25,1.01h-.46c-3.79,0-8.46-.31-11.9-2.15-1.55-.55-2.49-1.59-2.85-3.13,0-2.64,4.29-3.78,6.03-4.29Zm-121.1,23.15c10.5-20.71,31.97-34.95,56.8-34.96,24.83,0,46.31,14.22,56.82,34.92l-113.63.03Zm85.13-45.67c.99-2.32,2.3-4.43,3.98-6.34,2.81-3.34,6.37-6.52,10.28-8.55,1.74-1.09,3.6-1.65,5.63-1.72,2.89,0,2.33,3.28,1.76,4.93-.99,2.32-2.3,4.43-3.98,6.34-2.81,3.34-6.37,6.52-10.28,8.55-1.74,1.07-3.6,1.65-5.63,1.72-2.89,0-2.32-3.26-1.76-4.93Zm-35.59-28.6c.55-1.55,1.59-2.49,3.14-2.84,2.64,0,3.79,4.28,4.3,6.02.69,2.86,1.05,5.75,1.01,8.69,0,3.78-.31,8.44-2.15,11.87-.54,1.55-1.59,2.49-3.14,2.84-2.64,0-3.79-4.28-4.3-6.02-.69-2.86-1.05-5.75-1.01-8.69,0-3.78.31-8.44,2.15-11.87Zm-51.7,18.68c.84-.94,1.86-1.42,3.08-1.42.29,0,.61.04.92.09,3.87,0,8.19,2.08,11.46,3.9,2.57,1.42,4.94,3.13,7.1,5.14,1.28,1.27,4.46,4.36,3.16,6.67-.84.94-1.86,1.42-3.08,1.42-.29,0-.61-.04-.92-.08-3.88,0-8.19-2.09-11.46-3.9-2.58-1.42-4.94-3.13-7.1-5.14-1.28-1.28-4.46-4.37-3.17-6.67Zm-24.96,32.48c2.72-.65,5.45-1.01,8.26-1.01h.46c3.8,0,8.46.31,11.9,2.15,1.55.54,2.49,1.59,2.85,3.13,0,2.63-4.29,3.78-6.03,4.28-2.72.65-5.46,1.01-8.25,1.01h-.46c-3.79,0-8.46-.31-11.89-2.15-1.55-.55-2.49-1.59-2.85-3.13,0-2.64,4.29-3.78,6.02-4.29ZM38.19,135.91c-5.6,0-10.14-4.53-10.14-10.11,0-5.59,4.53-10.12,10.13-10.12,5.6,0,10.14,4.53,10.14,10.11,0,5.59-4.53,10.12-10.13,10.12Zm53.61-.02c-5.6,0-10.14-4.53-10.14-10.11,0-5.59,4.54-10.12,10.13-10.12,5.6,0,10.14,4.53,10.14,10.11,0,5.59-4.54,10.12-10.13,10.12Zm53.61-.02c-5.6,0-10.14-4.53-10.14-10.11,0-5.59,4.54-10.12,10.13-10.12,5.6,0,10.14,4.53,10.14,10.11,0,5.59-4.54,10.12-10.13,10.12Zm53.6-20.25c5.6,0,10.14,4.53,10.14,10.11,0,5.59-4.53,10.12-10.13,10.12-5.6,0-10.14-4.53-10.14-10.11,0-5.59,4.53-10.12,10.13-10.12Zm-34.25-48.6c2.72-.65,5.45-1,8.25-1h.46c3.79,0,8.46.31,11.9,2.15,1.55.55,2.49,1.59,2.85,3.13,0,2.63-4.29,3.78-6.03,4.29-2.72.67-5.45,1.02-8.25,1.02-.14,0-.32,0-.46-.02-3.79,0-8.46-.31-11.9-2.15-1.55-.55-2.49-1.59-2.85-3.13,0-2.63,4.29-3.78,6.03-4.29Zm-36.76-19.02c.99-2.32,2.3-4.44,3.98-6.34,2.8-3.34,6.36-6.52,10.28-8.55,1.74-1.09,3.6-1.65,5.63-1.71,2.89,0,2.33,3.28,1.77,4.93-.99,2.32-2.3,4.43-3.98,6.33-2.8,3.34-6.36,6.52-10.28,8.55-1.74,1.09-3.6,1.65-5.63,1.71-2.89,0-2.33-3.26-1.77-4.93Zm29.94,42.93l-111.45.03c10.86-19.56,31.74-32.82,55.72-32.83,23.98,0,44.86,13.24,55.73,32.79ZM94.97,20.65c.55-1.55,1.59-2.49,3.14-2.84,2.64,0,3.79,4.28,4.3,6.02.69,2.86,1.05,5.75,1.01,8.69,0,3.78-.31,8.44-2.15,11.87-.54,1.55-1.59,2.49-3.14,2.84-2.64,0-3.79-4.28-4.3-6.02-.69-2.86-1.05-5.75-1.01-8.69,0-3.78.31-8.44,2.15-11.87Zm-49.52,19.8c.86-.94,1.89-1.42,3.1-1.42.3,0,.58.02.9.08,3.88,0,8.19,2.09,11.46,3.91,2.57,1.42,4.94,3.13,7.1,5.14,1.28,1.27,4.46,4.36,3.17,6.66-.84.94-1.89,1.42-3.1,1.42-.29,0-.59-.02-.9-.09-3.88,0-8.19-2.09-11.46-3.91-2.57-1.42-4.94-3.13-7.1-5.13-1.28-1.28-4.46-4.37-3.17-6.67Zm-22.96,26.91c2.72-.65,5.44-1.01,8.25-1.01h.46c3.79,0,8.46.31,11.9,2.15,1.55.54,2.49,1.59,2.85,3.13,0,2.63-4.29,3.78-6.03,4.28-2.72.65-5.47,1.01-8.25,1.01h-.46c-3.79,0-8.46-.31-11.9-2.15-1.55-.55-2.49-1.59-2.85-3.13,0-2.64,4.29-3.78,6.03-4.29Z"/>
    <rect class="cls-1" x="5.94" y="142.72" width="1090" height="23" transform="translate(1101.88 308.44) rotate(180)"/>
    <rect class="cls-1" x="1071.78" y="102.52" width="24.91" height="63.19" transform="translate(2168.48 268.24) rotate(180)"/>
    <rect class="cls-1" y="90.97" width="24.91" height="74.75" transform="translate(24.91 256.69) rotate(180)"/>
  </g>
</svg>