<?xml version="1.0" encoding="UTF-8"?>
<svg id="Calque_2" data-name="Calque 2" xmlns="http://www.w3.org/2000/svg" viewBox="0 0 1097.02 165.72">
  <defs>
    <style>
      .cls-1 {
        fill: #873b74;
      }

      .cls-1, .cls-2 {
        stroke-width: 0px;
      }

      .cls-2 {
        fill: #fff8f0;
      }
    </style>
  </defs>
  <g id="Calque_1-2" data-name="Calque 1">
    <rect class="cls-2" x=".32" width="1096.7" height="165.72" transform="translate(1097.35 165.72) rotate(180)"/>
    <path class="cls-1" d="m1096.96,74.08c-.47-3.81-1.01-7.61-1.54-11.41-.12-.89-.25-1.78-.34-2.66-.25-.35-.46-.73-.61-1.13-.68-1.77-1.1-3.59-1.47-5.42-.59-.58-1.03-1.39-1.21-2.45,0-.06-.02-.12-.02-.17-2.42-.02-4.66-1.57-4.41-4.78.25-3.24.45-6.45.83-9.66-.71-.39-1.32-1.03-1.73-1.98-2.52-5.88-2.12-12.02-1.63-18.27.05-.65.2-1.23.41-1.76L8.79,16.66s0,.08,0,.13c2.17.76,3.79,2.85,2.95,5.8-1.15,4.03-2.51,7.91-4.22,11.74-.46,1.02-1.11,1.68-1.86,2.08-1.36,2.38-2.92,4.64-4.73,6.72C.33,47.6,0,52.17,0,56.82c.02,58.77,47.84,106.46,106.73,106.44,52.64-.02,96.31-38.19,104.99-88.26h13.11c7.71,50.34,51.21,88.99,103.79,88.97,52.59-.02,96.06-38.69,103.75-89.04h16.94c6.93,51.22,50.86,90.8,104.08,90.79,53.21-.02,97.12-39.62,104.02-90.85h13.24c7.71,50.34,51.21,88.99,103.79,88.97,52.58-.02,96.06-38.69,103.75-89.04h9.65c9.9,48.59,52.98,85.21,104.58,85.19,51.72-.02,94.87-36.84,104.6-85.62-.02-.1-.04-.2-.06-.3ZM147.46,30.08c5.6,0,10.14,4.53,10.14,10.11,0,5.59-4.54,10.12-10.13,10.12-5.6,0-10.14-4.53-10.14-10.11,0-5.59,4.54-10.12,10.13-10.12Zm-53.61.02c5.6,0,10.14,4.53,10.14,10.11,0,5.59-4.54,10.12-10.13,10.12-5.6,0-10.14-4.53-10.14-10.11,0-5.59,4.54-10.12,10.13-10.12Zm64.55,44.92c-11.46,16.85-30.8,27.93-52.72,27.94-21.92,0-41.26-11.07-52.73-27.9l105.45-.03Zm-114.29,21.04c-2.72.65-5.45,1-8.25,1h-.46c-3.79,0-8.46-.31-11.9-2.15-1.55-.55-2.49-1.59-2.85-3.13,0-2.63,4.29-3.78,6.03-4.29,2.72-.67,5.45-1,8.25-1h.46c3.79,0,8.46.31,11.9,2.15,1.55.55,2.49,1.59,2.85,3.13,0,2.63-4.29,3.78-6.03,4.29Zm-3.87-45.71c-5.6,0-10.14-4.53-10.14-10.11,0-5.59,4.53-10.12,10.13-10.12,5.6,0,10.14,4.53,10.14,10.11,0,5.59-4.53,10.12-10.13,10.12Zm33.98,66.01c-.98,2.32-2.3,4.43-3.98,6.33-2.8,3.34-6.37,6.52-10.28,8.55-1.74,1.09-3.6,1.65-5.63,1.71-2.89,0-2.32-3.28-1.76-4.93.99-2.32,2.3-4.43,3.98-6.33,2.81-3.34,6.37-6.52,10.28-8.55,1.74-1.09,3.6-1.65,5.63-1.71,2.89,0,2.33,3.26,1.76,4.93Zm34.06,29.16c-.55,1.55-1.59,2.49-3.14,2.84-2.64,0-3.79-4.28-4.3-6.02-.69-2.86-1.05-5.75-1.01-8.69,0-3.78.31-8.44,2.15-11.87.54-1.55,1.59-2.49,3.14-2.84,2.64,0,3.79,4.28,4.3,6.02.69,2.86,1.05,5.75,1.01,8.69,0,3.78-.31,8.44-2.15,11.87Zm57.12-14.88c-.84.94-1.87,1.42-3.08,1.42-.29,0-.61-.02-.92-.09-3.88,0-8.19-2.08-11.46-3.9-2.57-1.42-4.94-3.13-7.1-5.14-1.28-1.27-4.46-4.36-3.17-6.67.86-.94,1.89-1.42,3.1-1.42.29,0,.59.02.9.09,3.88,0,8.19,2.09,11.46,3.9,2.57,1.42,4.94,3.13,7.1,5.14,1.28,1.28,4.46,4.37,3.17,6.66Zm20.68-34.05c-2.72.65-5.44,1.01-8.25,1.01h-.46c-3.79,0-8.46-.31-11.89-2.15-1.55-.54-2.49-1.59-2.85-3.13,0-2.63,4.29-3.78,6.03-4.28,2.7-.65,5.45-1.01,8.23-1.01h.48c3.79,0,8.46.31,11.9,2.15,1.55.55,2.49,1.59,2.85,3.13,0,2.64-4.29,3.78-6.03,4.29Zm14.98-46.3c-5.6,0-10.14-4.53-10.14-10.11,0-5.59,4.53-10.12,10.13-10.12,5.6,0,10.14,4.53,10.14,10.11,0,5.59-4.53,10.12-10.13,10.12Zm160.82-20.28c5.6,0,10.14,4.53,10.14,10.11,0,5.59-4.54,10.12-10.13,10.12-5.6,0-10.14-4.53-10.14-10.11,0-5.59,4.54-10.12,10.13-10.12Zm-53.61.02c5.6,0,10.14,4.53,10.14,10.11,0,5.59-4.53,10.12-10.13,10.12-5.6,0-10.14-4.53-10.14-10.11,0-5.59,4.54-10.12,10.13-10.12Zm-53.61.02c5.6,0,10.14,4.53,10.14,10.11,0,5.59-4.54,10.12-10.13,10.12-5.6,0-10.14-4.53-10.14-10.11,0-5.59,4.54-10.12,10.13-10.12Zm11.68,66.54c-2.72.65-5.45,1-8.25,1h-.46c-3.79,0-8.46-.31-11.9-2.15-1.55-.54-2.49-1.59-2.85-3.13,0-2.63,4.29-3.78,6.03-4.29,2.72-.67,5.45-1.02,8.25-1.02.14,0,.32,0,.46.02,3.79,0,8.46.31,11.9,2.15,1.55.55,2.49,1.59,2.85,3.13,0,2.63-4.29,3.78-6.03,4.29Zm117.13-21.64c-11.33,17.61-31.07,29.33-53.58,29.33-22.51,0-42.27-11.69-53.61-29.3l107.19-.03Zm-85.04,45.5c-.98,2.32-2.3,4.43-3.98,6.33-2.8,3.34-6.36,6.52-10.28,8.55-1.74,1.09-3.6,1.65-5.63,1.71-2.89,0-2.33-3.28-1.77-4.93.99-2.32,2.3-4.44,3.98-6.34,2.8-3.34,6.36-6.52,10.28-8.55,1.74-1.07,3.6-1.65,5.63-1.71,2.89,0,2.33,3.26,1.76,4.93Zm37.71,23.88c-.55,1.55-1.59,2.49-3.14,2.84-2.64,0-3.79-4.28-4.3-6.02-.69-2.86-1.05-5.75-1.01-8.69,0-3.78.31-8.44,2.15-11.87.54-1.55,1.59-2.49,3.14-2.84,2.64,0,3.79,4.28,4.3,6.02.69,2.86,1.05,5.75,1.01,8.69,0,3.78-.31,8.44-2.15,11.87Zm53.38-15.92c-.84.94-1.89,1.42-3.08,1.42-.29,0-.61-.04-.92-.09-3.88,0-8.19-2.09-11.46-3.9-2.58-1.42-4.94-3.13-7.1-5.14-1.28-1.28-4.46-4.37-3.16-6.67.84-.94,1.86-1.42,3.08-1.42.29,0,.61.02.92.09,3.88,0,8.19,2.08,11.46,3.9,2.57,1.42,4.94,3.13,7.1,5.14,1.28,1.27,4.46,4.36,3.17,6.66Zm16.07-28.53c-2.72.65-5.45,1.01-8.25,1.01h-.46c-3.79,0-8.46-.31-11.9-2.15-1.55-.54-2.49-1.59-2.85-3.13,0-2.63,4.29-3.78,6.03-4.29,2.72-.67,5.44-1.02,8.25-1.02.14,0,.31,0,.46.02,3.79,0,8.46.31,11.9,2.15,1.55.55,2.49,1.59,2.85,3.13,0,2.63-4.29,3.78-6.03,4.29Zm9.91-49.64c-5.6,0-10.14-4.53-10.14-10.11,0-5.59,4.54-10.12,10.13-10.12,5.6,0,10.14,4.53,10.14,10.11,0,5.59-4.54,10.12-10.13,10.12Zm160.82-20.28c5.6,0,10.14,4.53,10.14,10.11,0,5.59-4.54,10.12-10.13,10.12-5.6,0-10.14-4.53-10.14-10.11,0-5.59,4.54-10.12,10.13-10.12Zm-53.61.02c5.6,0,10.14,4.53,10.14,10.11,0,5.59-4.54,10.12-10.13,10.12-5.6,0-10.14-4.53-10.14-10.11,0-5.59,4.54-10.12,10.13-10.12Zm-63.74,10.14c0-5.59,4.53-10.12,10.13-10.12,5.6,0,10.14,4.53,10.14,10.11,0,5.59-4.53,10.12-10.13,10.12-5.6,0-10.14-4.53-10.14-10.11Zm29.5,58.32c-2.72.65-5.44,1.01-8.25,1.01h-.46c-3.79,0-8.46-.31-11.89-2.15-1.55-.54-2.49-1.58-2.85-3.13,0-2.63,4.29-3.78,6.03-4.28,2.72-.65,5.47-1.01,8.25-1.01h.46c3.79,0,8.46.31,11.9,2.15,1.55.54,2.49,1.58,2.85,3.13,0,2.64-4.29,3.79-6.03,4.29Zm119.78-23.54c-11.07,18.77-31.47,31.42-54.86,31.43-23.39,0-43.8-12.63-54.88-31.39l109.74-.03Zm-82.77,46.71c-.99,2.32-2.3,4.43-3.98,6.34-2.8,3.34-6.36,6.52-10.28,8.55-1.74,1.09-3.6,1.65-5.63,1.71-2.89,0-2.33-3.28-1.76-4.93.98-2.32,2.3-4.43,3.98-6.34,2.8-3.34,6.36-6.52,10.28-8.55,1.74-1.09,3.6-1.65,5.63-1.72,2.89,0,2.32,3.28,1.76,4.93Zm34.16,24.86c-.55,1.55-1.59,2.49-3.14,2.84-2.64,0-3.79-4.28-4.3-6.02-.69-2.86-1.05-5.75-1.01-8.69,0-3.78.31-8.44,2.15-11.87.54-1.55,1.59-2.49,3.14-2.84,2.64,0,3.79,4.28,4.3,6.02.69,2.86,1.05,5.75,1.01,8.69,0,3.78-.31,8.44-2.15,11.87Zm53.06-18.39c-.86.94-1.88,1.45-3.1,1.45-.29,0-.58-.04-.9-.11-3.88,0-8.19-2.08-11.46-3.9-2.57-1.42-4.94-3.13-7.1-5.14-1.28-1.28-4.46-4.37-3.17-6.67.84-.94,1.87-1.42,3.08-1.42.29,0,.61.02.92.08,3.88,0,8.19,2.08,11.46,3.9,2.58,1.42,4.94,3.13,7.1,5.14,1.28,1.27,4.46,4.36,3.17,6.67Zm18.84-30.41c-2.72.65-5.45,1-8.25,1h-.46c-3.79,0-8.46-.31-11.9-2.15-1.55-.55-2.49-1.59-2.85-3.13,0-2.63,4.29-3.78,6.03-4.29,2.72-.65,5.46-1.01,8.25-1.01h.46c3.79,0,8.46.31,11.9,2.15,1.55.54,2.49,1.59,2.85,3.13,0,2.63-4.29,3.78-6.03,4.29Zm-1.61-47.49c-5.6,0-10.14-4.53-10.14-10.11,0-5.59,4.53-10.12,10.13-10.12,5.6,0,10.14,4.53,10.14,10.11,0,5.59-4.53,10.12-10.13,10.12Zm214.43-20.3c5.6,0,10.14,4.53,10.14,10.11,0,5.59-4.54,10.12-10.13,10.12-5.6,0-10.14-4.53-10.14-10.11,0-5.59,4.54-10.12,10.13-10.12Zm-53.61.02c5.6,0,10.14,4.53,10.14,10.11,0,5.59-4.54,10.12-10.13,10.12-5.6,0-10.14-4.53-10.14-10.11,0-5.59,4.53-10.12,10.13-10.12Zm-53.61.02c5.6,0,10.14,4.53,10.14,10.11,0,5.59-4.54,10.12-10.13,10.12-5.6,0-10.14-4.53-10.14-10.11,0-5.59,4.54-10.12,10.13-10.12Zm-63.74,10.14c0-5.59,4.54-10.12,10.13-10.12,5.6,0,10.14,4.53,10.14,10.11,0,5.59-4.54,10.12-10.13,10.12-5.6,0-10.14-4.53-10.14-10.11Zm33.57,57.93c-2.72.65-5.45,1.01-8.25,1.01h-.46c-3.79,0-8.46-.31-11.9-2.15-1.55-.54-2.49-1.59-2.85-3.13,0-2.63,4.29-3.78,6.03-4.28,2.72-.65,5.46-1.01,8.25-1.01h.46c3.79,0,8.46.31,11.9,2.15,1.55.55,2.49,1.59,2.85,3.13,0,2.64-4.29,3.78-6.03,4.29Zm121.1-23.15c-10.5,20.71-31.97,34.95-56.8,34.96-24.83,0-46.31-14.22-56.82-34.92l113.63-.03Zm-85.13,45.67c-.99,2.32-2.3,4.43-3.98,6.34-2.81,3.34-6.37,6.52-10.28,8.55-1.74,1.09-3.6,1.65-5.63,1.72-2.89,0-2.33-3.28-1.76-4.93.99-2.32,2.3-4.43,3.98-6.34,2.81-3.34,6.37-6.52,10.28-8.55,1.74-1.07,3.6-1.65,5.63-1.72,2.89,0,2.32,3.26,1.76,4.93Zm35.59,28.6c-.55,1.55-1.59,2.49-3.14,2.84-2.64,0-3.79-4.28-4.3-6.02-.69-2.86-1.05-5.75-1.01-8.69,0-3.78.31-8.44,2.15-11.87.54-1.55,1.59-2.49,3.14-2.84,2.64,0,3.79,4.28,4.3,6.02.69,2.86,1.05,5.75,1.01,8.69,0,3.78-.31,8.44-2.15,11.87Zm51.7-18.68c-.84.94-1.86,1.42-3.08,1.42-.29,0-.61-.04-.92-.09-3.87,0-8.19-2.08-11.46-3.9-2.57-1.42-4.94-3.13-7.1-5.14-1.28-1.27-4.46-4.36-3.16-6.67.84-.94,1.86-1.42,3.08-1.42.29,0,.61.04.92.08,3.88,0,8.19,2.09,11.46,3.9,2.58,1.42,4.94,3.13,7.1,5.14,1.28,1.28,4.46,4.37,3.17,6.67Zm24.96-32.48c-2.72.65-5.45,1.01-8.26,1.01h-.46c-3.8,0-8.46-.31-11.9-2.15-1.55-.54-2.49-1.59-2.85-3.13,0-2.63,4.29-3.78,6.03-4.28,2.72-.65,5.46-1.01,8.25-1.01h.46c3.79,0,8.46.31,11.89,2.15,1.55.55,2.49,1.59,2.85,3.13,0,2.64-4.29,3.78-6.02,4.29Zm203.63-68.11c5.6,0,10.14,4.53,10.14,10.11,0,5.59-4.53,10.12-10.13,10.12-5.6,0-10.14-4.53-10.14-10.11,0-5.59,4.53-10.12,10.13-10.12Zm-53.61.02c5.6,0,10.14,4.53,10.14,10.11,0,5.59-4.54,10.12-10.13,10.12-5.6,0-10.14-4.53-10.14-10.11,0-5.59,4.54-10.12,10.13-10.12Zm-53.61.02c5.6,0,10.14,4.53,10.14,10.11,0,5.59-4.54,10.12-10.13,10.12-5.6,0-10.14-4.53-10.14-10.11,0-5.59,4.54-10.12,10.13-10.12Zm-53.6,20.25c-5.6,0-10.14-4.53-10.14-10.11,0-5.59,4.53-10.12,10.13-10.12,5.6,0,10.14,4.53,10.14,10.11,0,5.59-4.53,10.12-10.13,10.12Zm34.25,48.6c-2.72.65-5.45,1-8.25,1h-.46c-3.79,0-8.46-.31-11.9-2.15-1.55-.55-2.49-1.59-2.85-3.13,0-2.63,4.29-3.78,6.03-4.29,2.72-.67,5.45-1.02,8.25-1.02.14,0,.32,0,.46.02,3.79,0,8.46.31,11.9,2.15,1.55.55,2.49,1.59,2.85,3.13,0,2.63-4.29,3.78-6.03,4.29Zm36.76,19.02c-.99,2.32-2.3,4.44-3.98,6.34-2.8,3.34-6.36,6.52-10.28,8.55-1.74,1.09-3.6,1.65-5.63,1.71-2.89,0-2.33-3.28-1.77-4.93.99-2.32,2.3-4.43,3.98-6.33,2.8-3.34,6.36-6.52,10.28-8.55,1.74-1.09,3.6-1.65,5.63-1.71,2.89,0,2.33,3.26,1.77,4.93Zm-29.94-42.93l111.45-.03c-10.86,19.56-31.74,32.82-55.72,32.83-23.98,0-44.86-13.24-55.73-32.79Zm62.97,70.28c-.55,1.55-1.59,2.49-3.14,2.84-2.64,0-3.79-4.28-4.3-6.02-.69-2.86-1.05-5.75-1.01-8.69,0-3.78.31-8.44,2.15-11.87.54-1.55,1.59-2.49,3.14-2.84,2.64,0,3.79,4.28,4.3,6.02.69,2.86,1.05,5.75,1.01,8.69,0,3.78-.31,8.44-2.15,11.87Zm49.52-19.8c-.86.94-1.89,1.42-3.1,1.42-.3,0-.58-.02-.9-.08-3.88,0-8.19-2.09-11.46-3.91-2.57-1.42-4.94-3.13-7.1-5.14-1.28-1.27-4.46-4.36-3.17-6.66.84-.94,1.89-1.42,3.1-1.42.29,0,.59.02.9.09,3.88,0,8.19,2.09,11.46,3.91,2.57,1.42,4.94,3.13,7.1,5.13,1.28,1.28,4.46,4.37,3.17,6.67Zm22.96-26.91c-2.72.65-5.44,1.01-8.25,1.01h-.46c-3.79,0-8.46-.31-11.9-2.15-1.55-.54-2.49-1.59-2.85-3.13,0-2.63,4.29-3.78,6.03-4.28,2.72-.65,5.47-1.01,8.25-1.01h.46c3.79,0,8.46.31,11.9,2.15,1.55.55,2.49,1.59,2.85,3.13,0,2.64-4.29,3.78-6.03,4.29Z"/>
    <rect class="cls-1" x="1.08" width="1090" height="23"/>
    <rect class="cls-1" x=".32" width="24.91" height="63.19"/>
    <rect class="cls-1" x="1072.11" width="24.91" height="74.75"/>
  </g>
</svg>