<?xml version="1.0" encoding="UTF-8"?>
<svg id="Calque_2" data-name="Calque 2" xmlns="http://www.w3.org/2000/svg" viewBox="0 0 359.41 91.4">
  <defs>
    <style>
      .cls-1 {
        fill: #ff9e22;
        stroke-width: 0px;
      }
    </style>
  </defs>
  <g id="Calque_1-2" data-name="Calque 1">
    <path class="cls-1" d="m68.14,1.59H21.68C9.71,1.59,0,11.3,0,23.27v46.46c0,11.97,9.71,21.68,21.68,21.68h46.46c11.97,0,21.68-9.71,21.68-21.68V23.27c0-11.97-9.71-21.68-21.68-21.68Zm13.94,66.59c0,8.55-6.94,15.49-15.49,15.49H23.23c-8.55,0-15.49-6.94-15.49-15.49V24.82c0-8.55,6.94-15.49,15.49-15.49h43.36c8.55,0,15.49,6.94,15.49,15.49v43.36Z"/>
    <path class="cls-1" d="m44.91,23.27c-12.82,0-23.23,10.41-23.23,23.23s10.41,23.23,23.23,23.23,23.23-10.41,23.23-23.23-10.41-23.23-23.23-23.23Zm0,38.71c-8.53,0-15.49-6.95-15.49-15.49s6.95-15.49,15.49-15.49,15.49,6.95,15.49,15.49-6.95,15.49-15.49,15.49Z"/>
    <path class="cls-1" d="m69.68,26.37c2.57,0,4.65-2.08,4.65-4.65s-2.08-4.65-4.65-4.65-4.65,2.08-4.65,4.65,2.08,4.65,4.65,4.65Z"/>
    <path class="cls-1" d="m194.86,41.47l-.74,6.09c-.12,1.02-.97,1.78-1.97,1.78h-9.65v25.46c-1.02.1-2.05.14-3.09.14-2.33,0-4.61-.24-6.81-.69v-24.91h-7.42c-.68,0-1.24-.57-1.24-1.27v-7.62c0-.7.56-1.27,1.24-1.27h7.42v-11.43c0-7.01,5.54-12.7,12.38-12.7h8.66c.68,0,1.24.57,1.24,1.27v7.62c0,.7-.56,1.27-1.24,1.27h-6.19c-2.73,0-4.95,2.27-4.95,5.08v8.89h10.39c1.19,0,2.12,1.07,1.97,2.29h0Z"/>
    <path class="cls-1" d="m325.41,59.45v-25.86s2.82,4.86,13.01,5.16c.54.01.99-.45.99-1.01v-7.31c0-.55-.42-.98-.95-1.01-7.9-.46-11.66-6.73-12.02-12.48-.04-.53-.48-.94-1-.94h-8.06c-.54,0-.97.45-.97,1.01v41.11c0,4.47-3.3,8.35-7.61,8.56-4.93.24-8.94-4.14-8.33-9.31.43-3.65,3.27-6.65,6.79-7.15.7-.1,1.39-.11,2.05-.03.58.07,1.1-.38,1.1-.99v-7.33c0-.52-.38-.97-.89-1-1.01-.07-2.05-.04-3.1.08-7.77.91-14.05,7.42-14.91,15.46-1.14,10.61,6.86,19.59,16.89,19.59,9.39,0,17-7.87,17-17.59"/>
    <path class="cls-1" d="m203.68,0h-46.55c-12,0-21.72,9.84-21.72,21.97v47.07c0,12.13,9.73,21.96,21.72,21.96h46.55c12,0,21.72-9.84,21.72-21.96V21.97c0-12.13-9.73-21.97-21.72-21.97Zm13.97,67.47c0,8.66-6.95,15.69-15.52,15.69h-43.45c-8.56,0-15.52-7.03-15.52-15.69V23.54c0-8.66,6.95-15.69,15.52-15.69h43.45c8.56,0,15.52,7.03,15.52,15.69v43.93Z"/>
    <path class="cls-1" d="m337.68,0h-46.55c-12,0-21.72,9.84-21.72,21.97v47.07c0,12.13,9.73,21.96,21.72,21.96h46.55c12,0,21.72-9.84,21.72-21.96V21.97c0-12.13-9.73-21.97-21.72-21.97Zm13.97,67.47c0,8.66-6.95,15.69-15.52,15.69h-43.45c-8.57,0-15.52-7.03-15.52-15.69V23.54c0-8.66,6.95-15.69,15.52-15.69h43.45c8.57,0,15.52,7.03,15.52,15.69v43.93Z"/>
  </g>
</svg>