<svg width="358" height="445" viewBox="0 0 358 445" fill="none" xmlns="http://www.w3.org/2000/svg">
<path d="M357.925 377.91L357.855 358.121L357.603 298.186L357.421 248.594L356.653 44.0487L356.605 44L0 44.5199L0.418513 171.323L0.799466 271.161L1.15896 370.204L1.16969 371.065C1.20188 380.391 1.24481 389.624 1.28237 398.858L1.2931 399.259C1.36285 400.537 1.45406 401.81 1.57211 403.077C1.63113 403.57 1.70088 404.068 1.77063 404.561C1.97989 406.099 2.23743 407.659 2.554 409.197C2.77935 410.047 3.00471 410.892 3.26225 411.726L3.332 411.97L3.41249 412.219C3.64857 412.863 3.89539 413.519 4.1583 414.152L4.33 414.477L4.52852 414.883C4.68949 415.208 4.84509 415.528 5.02215 415.853C5.36555 416.427 5.73577 417.001 6.09526 417.575C6.49768 418.209 6.77669 418.626 7.0396 419.064C18.7204 434.445 36.4213 443.289 55.5978 443.337C80.0915 443.299 102.224 428.688 111.958 406.104L119.389 406.126C128.714 429.684 151.013 444.946 176.172 445C201.551 444.962 223.974 429.625 233.299 405.92L244.766 405.942C254.284 428.964 276.438 443.879 301.19 443.933C322.861 443.901 342.499 432.75 353.729 414.103C354.003 413.508 354.298 412.912 354.604 412.327C355.527 410.112 356.197 408.152 356.68 406.321L356.836 405.736C357.12 404.648 357.356 403.543 357.56 402.433L357.662 401.918L357.71 401.62L357.818 401.008L357.903 399.481L358 397.846L357.936 377.916L357.925 377.91ZM343.357 51.999C346.437 51.999 348.938 54.5119 348.943 57.6205C348.943 60.7291 346.453 63.2528 343.374 63.2582C340.294 63.2582 337.793 60.7453 337.788 57.6367C337.788 54.5281 340.278 52.0044 343.357 51.999ZM341.158 101.531C340.127 101.531 339.29 100.692 339.29 99.6517C339.29 98.6227 340.122 97.7779 341.152 97.7725C342.156 97.7725 343.009 98.6336 343.014 99.6463C343.014 100.686 342.182 101.531 341.158 101.531ZM335.771 96.1532C336.216 96.489 336.559 96.8572 336.785 97.2526C337.123 97.7779 337.337 98.3249 337.423 98.8773C337.482 99.2455 337.525 99.6192 337.525 99.9983C337.525 100.204 337.514 100.415 337.477 100.632C337.38 101.239 337.192 101.737 336.871 102.181C336.731 102.349 336.602 102.527 336.436 102.668C336.248 102.825 336.044 102.988 335.835 103.118C335.009 103.632 333.909 103.936 332.487 104.044C332.154 104.066 331.805 104.076 331.457 104.076C330.475 104.076 329.391 103.99 328.076 103.822C327.143 103.692 326.177 103.529 325.115 103.313L324.819 103.237L324.465 103.139C323.542 102.879 322.62 102.636 321.697 102.397C321.037 102.181 320.366 101.964 319.701 101.764L319.336 101.645L318.971 101.526L318.628 101.406C318.263 101.287 317.898 101.157 317.533 101.027C317.141 100.859 316.755 100.692 316.374 100.513C316.009 100.356 315.698 100.188 315.467 99.7709C316.669 99.1318 317.871 98.5198 319.089 97.9133C320.779 97.2147 322.437 96.646 324.149 96.1694C326.241 95.5737 328.001 95.2217 329.681 95.0538C330.249 94.9996 330.754 94.9834 331.204 94.978C331.537 94.978 331.843 94.9888 332.138 95.0051C332.744 95.0538 333.533 95.1513 334.274 95.4058C334.821 95.5737 335.315 95.8228 335.765 96.1478L335.771 96.1532ZM287.094 118C286.976 117.513 286.966 117.02 287.035 116.489C287.105 115.991 287.277 115.466 287.572 114.892C287.894 114.187 288.366 113.592 288.79 113.083C289.251 112.536 289.799 112.01 290.555 111.355C291.8 110.304 293.232 109.319 295.228 108.181C296.683 107.326 298.255 106.551 300.025 105.793C301.308 105.344 302.595 104.916 303.894 104.499C303.894 104.488 303.899 104.488 303.899 104.488C303.91 104.488 304.017 104.537 304.028 104.537C304.028 104.548 304.135 104.596 304.125 104.607C304.017 104.965 303.91 105.322 303.776 105.679C303.626 106.086 303.47 106.481 303.314 106.876L302.815 107.921L302.649 108.246C302.536 108.474 302.418 108.701 302.306 108.945C301.973 109.562 301.646 110.185 301.345 110.808C300.857 111.642 300.374 112.476 299.864 113.418L299.569 113.895C298.979 114.789 298.41 115.612 297.841 116.381C296.784 117.773 295.84 118.823 294.89 119.695C293.812 120.638 292.825 121.217 291.875 121.439C291.634 121.509 291.403 121.531 290.99 121.558C290.802 121.558 290.614 121.537 290.437 121.52C289.965 121.444 289.461 121.222 288.972 120.865C288.806 120.74 288.645 120.6 288.489 120.448C288.232 120.183 287.996 119.885 287.781 119.576C287.459 119.132 287.223 118.574 287.094 117.989V118ZM287.363 124.835C287.363 125.864 286.531 126.709 285.495 126.714C284.492 126.714 283.639 125.853 283.634 124.84C283.634 123.827 284.487 122.966 285.49 122.961C286.526 122.961 287.363 123.8 287.363 124.835ZM291.875 105.739C291.875 104.726 292.728 103.865 293.732 103.86C294.735 103.86 295.588 104.721 295.593 105.734C295.593 106.746 294.74 107.613 293.737 107.613C292.734 107.613 291.875 106.752 291.875 105.739ZM293.265 154.367C293.587 152.211 293.925 150.483 294.354 148.908C294.837 147.099 295.422 145.328 296.049 143.79C296.666 142.311 297.284 141.038 297.938 139.896C298.625 138.699 299.301 137.665 300.057 136.641C300.353 136.256 300.653 135.877 300.97 135.509C300.98 135.509 301.114 135.715 301.125 135.715L301.157 136.002C301.259 136.977 301.297 137.859 301.281 138.699C301.259 139.592 301.195 140.486 301.088 141.336C300.884 142.696 300.658 143.79 300.374 144.797C300.063 145.929 299.666 147.072 299.21 148.182C298.603 149.612 297.986 150.852 297.326 151.973C296.661 153.105 295.931 154.199 295.169 155.238C294.354 156.262 293.689 157.031 292.953 157.681C293.029 156.511 293.136 155.347 293.265 154.361V154.367ZM301.039 113.781C301.039 112.769 301.893 111.907 302.896 111.902C303.899 111.902 304.758 112.763 304.758 113.776C304.758 114.789 303.905 115.65 302.901 115.655C301.898 115.655 301.045 114.799 301.039 113.781ZM304.2 119.056C304.328 118.114 304.489 117.139 304.704 116.072L304.779 115.774L304.876 115.417C305.133 114.491 305.375 113.548 305.611 112.617C305.825 111.951 306.04 111.29 306.239 110.602L306.475 109.866L306.593 109.519C306.711 109.151 306.84 108.783 306.963 108.431C307.129 108.03 307.296 107.634 307.473 107.25C307.628 106.903 307.795 106.573 307.977 106.248C307.993 106.248 308.202 106.34 308.213 106.34C308.846 107.548 309.458 108.777 310.059 110.007C310.756 111.734 311.33 113.408 311.797 115.114C312.382 117.215 312.731 118.98 312.897 120.697C312.978 121.726 312.988 122.473 312.94 123.178C312.87 123.882 312.795 124.629 312.538 125.333C312.35 125.918 312.108 126.427 311.803 126.844C311.47 127.283 311.105 127.629 310.713 127.868C310.241 128.176 309.683 128.393 309.109 128.507C308.739 128.566 308.363 128.615 307.988 128.615C307.784 128.615 307.575 128.593 307.36 128.566C306.759 128.474 306.239 128.257 305.809 127.933C305.648 127.813 305.493 127.673 305.348 127.505C305.192 127.326 305.031 127.115 304.903 126.909C304.393 126.075 304.092 124.965 303.985 123.53C303.915 122.251 303.985 120.822 304.205 119.067L304.2 119.056ZM326.88 111.306C327.636 111.962 328.189 112.487 328.656 113.028C329.107 113.575 329.573 114.15 329.874 114.832C330.169 115.406 330.346 115.931 330.416 116.43C330.486 116.944 330.475 117.442 330.367 117.941C330.233 118.547 329.987 119.083 329.675 119.511C329.461 119.841 329.225 120.134 328.967 120.405C328.806 120.556 328.65 120.697 328.473 120.822C327.996 121.179 327.492 121.401 327.019 121.477C326.864 121.499 326.692 121.52 326.311 121.52C326.075 121.499 325.828 121.482 325.581 121.401C324.626 121.185 323.644 120.61 322.561 119.668C321.605 118.796 320.661 117.751 319.599 116.359C319.025 115.585 318.456 114.772 317.866 113.879L317.533 113.294C317.061 112.46 316.578 111.626 316.084 110.797C315.779 110.174 315.451 109.546 315.119 108.934C315.011 108.696 314.893 108.468 314.775 108.241L314.603 107.916L314.099 106.871C313.944 106.476 313.783 106.08 313.638 105.674C313.466 105.257 313.38 104.921 313.466 104.493C313.477 104.483 313.487 104.472 313.498 104.472L313.52 104.493C314.818 104.91 316.106 105.333 317.394 105.777C319.164 106.53 320.736 107.299 322.19 108.149C324.186 109.275 325.624 110.256 326.875 111.306H326.88ZM323.237 106.362C323.237 105.349 324.09 104.488 325.093 104.483C326.096 104.483 326.955 105.344 326.955 106.356C326.955 107.369 326.102 108.23 325.099 108.236C324.095 108.236 323.242 107.375 323.237 106.362ZM315.119 112.227C316.138 112.227 316.975 113.066 316.98 114.101C316.98 115.13 316.149 115.975 315.124 115.98C314.121 115.98 313.262 115.119 313.262 114.106C313.262 113.093 314.115 112.232 315.119 112.227ZM313.665 139.739C314.432 137.93 315.387 136.083 316.626 134.079C317.377 132.861 318.166 131.648 318.939 130.445C318.939 130.435 318.976 130.397 318.987 130.397L319.03 130.435C319.336 130.938 319.631 131.453 319.905 131.967C320.667 133.364 321.305 134.702 321.885 136.083C322.802 138.266 323.553 140.475 324.117 142.647C324.659 144.689 325.088 146.822 325.447 149.184C325.549 149.958 325.635 150.733 325.705 151.507C325.914 155.168 325.796 158.818 325.351 162.349C324.439 169.038 322.625 175.688 319.974 182.117C319.121 184.18 318.193 186.157 317.174 188.025C317.056 187.966 317.007 187.901 316.975 187.808L316.777 187.565C316.626 187.245 316.481 186.92 316.353 186.601C315.081 183.546 313.992 180.254 313.042 176.538C312.591 174.8 312.157 173.056 311.76 171.296C311.373 169.39 311.073 167.667 310.869 166.178C310.52 163.552 310.349 161.109 310.349 158.71C310.354 156.316 310.52 153.847 310.821 151.377C311.143 149.043 311.513 147.039 311.964 145.236C312.221 144.163 312.473 143.091 312.822 142.051C313.096 141.217 313.396 140.405 313.675 139.75L313.665 139.739ZM308.433 130.104C309.436 130.104 310.29 130.965 310.295 131.978C310.295 132.991 309.442 133.852 308.438 133.857C307.435 133.857 306.577 133.002 306.577 131.983C306.577 130.971 307.43 130.11 308.433 130.104ZM332.948 124.851C331.945 124.851 331.086 123.99 331.086 122.977C331.086 121.964 331.94 121.103 332.943 121.098C333.946 121.098 334.799 121.954 334.805 122.972C334.805 123.984 333.952 124.846 332.948 124.851ZM321.734 92.9742C321.734 91.9614 322.587 91.0949 323.591 91.0949C324.594 91.0949 325.447 91.956 325.453 92.9688C325.453 93.9815 324.599 94.8426 323.596 94.848C322.593 94.848 321.734 93.9869 321.734 92.9742ZM332.202 73.2664C333.206 73.2664 334.059 74.1275 334.064 75.1403C334.07 76.153 333.217 77.0141 332.208 77.0195C331.204 77.0195 330.351 76.1584 330.346 75.1457C330.341 74.1329 331.199 73.2719 332.202 73.2664ZM326.037 76.8462C326.343 76.8462 326.606 76.8841 326.875 76.9545C327.465 77.0953 328.007 77.3282 328.43 77.6532C328.758 77.8698 329.048 78.0972 329.316 78.368C329.461 78.5143 329.6 78.6767 329.729 78.8609C330.083 79.3428 330.298 79.8628 330.378 80.3502C330.405 80.5885 330.437 80.8051 330.416 81.0325C330.394 81.2817 330.378 81.5308 330.298 81.7745C330.083 82.7277 329.514 83.7187 328.586 84.8127C327.712 85.7821 326.671 86.7353 325.308 87.813C324.551 88.3925 323.736 88.9557 322.856 89.5514L322.539 89.7518L322.271 89.9035C321.654 90.2501 321.031 90.6183 320.414 90.9866L319.797 91.3549C319.18 91.6744 318.558 91.9939 317.952 92.3405L317.538 92.5517L317.254 92.6601L316.938 92.8604L316.428 93.115L315.907 93.3641L315.172 93.6511L314.722 93.8298C314.48 93.9273 314.212 94.0194 313.906 94.0194C313.788 94.0194 313.681 93.9977 313.552 93.9436C313.965 92.6438 314.394 91.344 314.823 90.0389C315.516 88.3437 316.294 86.7515 317.179 85.1864C318.284 83.2205 319.277 81.7203 320.307 80.4585C320.983 79.6624 321.493 79.1262 322.013 78.6821C322.367 78.3734 323.027 77.8048 323.8 77.4365C324.31 77.1603 324.836 76.9924 325.383 76.8895C325.608 76.8625 325.828 76.8408 326.043 76.8408L326.037 76.8462ZM313.16 83.4804C313.16 82.4677 314.013 81.6066 315.017 81.6012C316.02 81.6012 316.873 82.4623 316.878 83.475C316.878 84.4878 316.031 85.3543 315.022 85.3543C314.019 85.3543 313.166 84.4932 313.16 83.4804ZM318.193 52.0423C321.273 52.0423 323.773 54.5552 323.779 57.6638C323.779 60.7724 321.289 63.2961 318.209 63.3016C315.129 63.3016 312.629 60.7887 312.624 57.6801C312.618 54.5714 315.113 52.0477 318.193 52.0423ZM308.46 63.3449C309.463 63.3449 310.322 64.206 310.322 65.2187C310.322 66.2314 309.469 67.0925 308.465 67.098C307.462 67.098 306.609 66.2423 306.603 65.2241C306.603 64.2114 307.457 63.3503 308.46 63.3449ZM305.369 71.4251C305.498 71.2139 305.643 71.0081 305.799 70.8185C305.938 70.6723 306.094 70.5423 306.33 70.3528C306.711 70.0603 307.204 69.8762 307.816 69.7625C308.031 69.7246 308.24 69.7137 308.455 69.7137C308.825 69.7137 309.19 69.7516 309.565 69.8221C310.145 69.9304 310.708 70.147 311.18 70.4557C311.561 70.6831 311.921 71.0189 312.259 71.4738C312.565 71.8909 312.811 72.3728 313.01 72.9794C313.267 73.7214 313.369 74.5175 313.418 75.1294C313.461 75.866 313.45 76.6296 313.375 77.6098C313.241 79.2183 312.897 80.9946 312.291 83.1934C311.883 84.7694 311.314 86.4374 310.579 88.3058C310.021 89.4377 309.394 90.7158 308.508 92.0697C308.331 91.7448 308.154 91.4199 307.999 91.0678C307.821 90.6779 307.655 90.2826 307.483 89.8872L307.296 89.3402L307.076 88.6091L306.936 88.2625L306.748 87.7101C306.561 87.0331 306.346 86.367 306.115 85.7063C305.879 84.764 305.643 83.8325 305.337 82.7981L305.187 82.2294C304.978 81.1788 304.817 80.1985 304.693 79.2616C304.463 77.5286 304.382 76.1097 304.452 74.7991C304.538 73.4018 304.838 72.2862 305.369 71.4143V71.4251ZM304.135 88.2408C304.232 88.1921 304.334 88.1596 304.581 88.0784C304.699 88.0567 304.822 88.0459 304.951 88.0459C305.058 88.0459 305.176 88.0567 305.284 88.0675C305.487 88.1054 305.675 88.1759 305.874 88.3058C306.072 88.4358 306.239 88.582 306.394 88.7608C306.603 88.999 306.738 89.2536 306.866 89.5298C307.006 89.8006 307.113 90.0876 307.231 90.4721C307.44 91.1166 307.575 91.8531 307.628 92.6925C307.923 92.6546 308.218 92.633 308.514 92.633C308.83 92.633 309.131 92.6601 309.442 92.6817L309.978 92.7413L310.027 92.3026C310.113 91.9343 310.193 91.5769 310.29 91.2411C310.477 90.5263 310.671 89.9685 310.907 89.5135C311.153 88.9774 311.449 88.6091 311.792 88.3708C311.878 88.3112 311.958 88.2625 312.055 88.2408L312.323 88.1217C312.409 88.0892 312.5 88.073 312.597 88.073C312.726 88.073 312.854 88.0946 312.999 88.1434L313.246 88.2354C313.396 88.295 313.525 88.36 313.648 88.4521C313.852 88.5712 314.035 88.7391 314.18 88.9611C314.287 89.1182 314.367 89.3077 314.416 89.5244C314.485 89.7518 314.507 89.9793 314.485 90.2176C314.469 90.4829 314.4 90.7754 314.271 91.1112C314.185 91.4036 314.056 91.6798 313.858 92.0481C313.546 92.6709 313.133 93.2774 312.484 94.0248C312.693 94.1819 312.892 94.3606 313.074 94.5501L313.273 94.7668C313.52 95.0213 313.772 95.3029 314.051 95.487C314.786 94.9184 315.403 94.5122 316.004 94.2144C316.358 94.0248 316.642 93.9057 316.927 93.819C317.259 93.689 317.544 93.6295 317.968 93.6078C318.182 93.6078 318.349 93.6349 318.51 93.6782C318.697 93.7161 318.88 93.8082 319.078 93.9382C319.288 94.106 319.443 94.2848 319.551 94.4743C319.636 94.5989 319.711 94.7397 319.765 94.8805L319.846 95.135C319.878 95.2433 319.942 95.5358 319.856 95.8228L319.76 96.0882C319.717 96.1857 319.674 96.2777 319.61 96.3698C319.368 96.7056 318.993 96.9872 318.461 97.2309C317.962 97.48 317.404 97.6804 316.744 97.8429L316.047 98.0108L315.542 98.1299L315.258 98.1624L314.856 98.1516C314.995 99.0343 314.936 99.9063 314.663 100.724L314.99 100.751C315.864 100.87 316.578 101.027 317.259 101.255C317.64 101.368 317.941 101.488 318.193 101.628C318.52 101.786 318.767 101.943 318.95 102.11C319.137 102.278 319.277 102.446 319.395 102.647C319.518 102.852 319.604 103.053 319.631 103.242C319.663 103.508 319.642 103.768 319.593 103.957C319.556 104.114 319.508 104.266 319.443 104.412C319.411 104.493 319.373 104.558 319.325 104.64C319.191 104.867 319.041 105.04 318.864 105.127C318.778 105.176 318.697 105.214 318.595 105.257L318.29 105.344C318.193 105.354 318.091 105.365 317.984 105.365C317.651 105.365 317.276 105.284 316.862 105.127C316.369 104.948 315.848 104.699 315.226 104.336C314.899 104.141 314.561 103.919 314.201 103.686C314.19 103.686 314.18 103.686 313.954 103.508L313.541 103.112C313.385 103.313 313.208 103.508 313.021 103.697C312.688 104.033 312.312 104.325 311.958 104.483L312.355 104.975C312.887 105.658 313.278 106.286 313.616 106.941C313.804 107.304 313.922 107.597 314.008 107.884C314.067 108.041 314.174 108.371 314.217 108.777C314.228 109.075 314.196 109.286 314.153 109.465C314.115 109.665 314.024 109.86 313.895 110.05C313.745 110.256 313.563 110.429 313.364 110.537C313.219 110.635 313.09 110.705 312.962 110.748C312.876 110.792 312.795 110.808 312.704 110.83C312.586 110.873 312.468 110.889 312.323 110.889C312.205 110.889 312.119 110.868 312.039 110.851C311.969 110.841 311.851 110.813 311.76 110.754L311.486 110.597C311.153 110.342 310.874 109.974 310.628 109.438C310.392 108.956 310.193 108.409 310.027 107.716L309.742 106.497L309.71 106.221L309.667 105.484C309.286 105.555 308.9 105.587 308.508 105.587C308.047 105.587 307.671 105.539 307.387 105.43L307.328 105.977C307.21 106.849 307.043 107.607 306.84 108.274C306.711 108.669 306.598 108.956 306.459 109.227C306.4 109.351 306.244 109.671 305.981 109.99C305.82 110.169 305.648 110.321 305.45 110.429C305.294 110.537 305.096 110.619 304.86 110.667C304.763 110.678 304.661 110.689 304.565 110.689C304.398 110.689 304.269 110.667 304.141 110.629C303.99 110.591 303.846 110.554 303.706 110.494C303.62 110.456 303.55 110.413 303.47 110.364C303.336 110.294 303.127 110.126 302.987 109.898C302.939 109.839 302.901 109.752 302.869 109.644L302.772 109.324C302.713 108.918 302.783 108.463 302.987 107.894C303.153 107.391 303.406 106.865 303.77 106.248C303.974 105.912 304.189 105.56 304.425 105.197L304.602 104.959L305.005 104.542C304.618 104.293 304.264 103.995 303.953 103.692C303.749 103.486 303.588 103.286 303.508 103.096L303.105 103.421C303.105 103.421 302.869 103.584 302.858 103.584C302.499 103.833 302.15 104.044 301.817 104.239C301.179 104.618 300.658 104.867 300.176 105.013C299.752 105.165 299.387 105.235 299.065 105.235C298.958 105.235 298.85 105.224 298.743 105.208L298.448 105.122C298.351 105.089 298.271 105.04 298.196 104.992C298.019 104.894 297.863 104.721 297.75 104.488L297.611 104.271C297.552 104.12 297.514 103.973 297.482 103.822C297.423 103.584 297.412 103.345 297.455 103.096C297.503 102.879 297.579 102.679 297.686 102.511C297.788 102.322 297.933 102.154 298.126 101.975C298.362 101.764 298.62 101.628 298.893 101.498C299.156 101.358 299.451 101.249 299.837 101.13C300.508 100.908 301.243 100.778 302.295 100.708C302.08 99.8359 302.048 98.9802 302.225 98.2003L301.882 98.1299L301.372 98.0595C301.039 97.9837 300.717 97.9133 300.401 97.8212C299.703 97.6262 299.161 97.4259 298.689 97.1984C298.169 96.9439 297.793 96.6514 297.557 96.3102L297.396 96.0394L297.31 95.7632C297.23 95.4546 297.3 95.1675 297.321 95.0863C297.332 95.0051 297.359 94.9184 297.418 94.8317C297.477 94.6801 297.546 94.5501 297.632 94.4256C297.729 94.236 297.895 94.0573 298.11 93.9002C298.271 93.7811 298.453 93.6999 298.679 93.6511C298.834 93.6024 298.984 93.5807 299.376 93.5807C299.741 93.6295 300.057 93.7269 300.261 93.7973C300.535 93.9002 300.819 94.014 301.184 94.2144C301.823 94.5501 302.434 94.9726 303.132 95.6062C303.368 95.2379 303.663 94.8805 303.985 94.5447C304.291 94.2469 304.613 93.9815 304.929 93.7973C304.929 93.7973 304.763 93.5916 304.774 93.5699C304.527 93.2016 304.318 92.855 304.125 92.5192C303.749 91.8748 303.513 91.3603 303.352 90.8566C303.164 90.2988 303.105 89.8439 303.164 89.4215H303.196L303.255 89.1128L303.384 88.8528C303.481 88.6741 303.647 88.517 303.872 88.3871L304.108 88.2788L304.135 88.2408ZM301.785 80.6372C302.789 80.6372 303.647 81.4929 303.647 82.511C303.647 83.5238 302.794 84.3849 301.791 84.3903C300.787 84.3903 299.934 83.5292 299.929 82.5164C299.929 81.5037 300.782 80.6426 301.785 80.6372ZM293.039 52.0802C296.119 52.0802 298.62 54.5931 298.625 57.7017C298.625 60.8103 296.135 63.334 293.055 63.3395C289.976 63.3395 287.475 60.8266 287.47 57.718C287.47 54.6094 289.96 52.0856 293.039 52.0802ZM286.976 80.3989C287.051 79.9223 287.271 79.4133 287.62 78.9204C287.749 78.7417 287.888 78.5847 288.033 78.433C288.296 78.1622 288.591 77.9348 288.897 77.7181C289.348 77.3878 289.89 77.1441 290.469 77.0141C290.716 76.9437 290.99 76.9058 291.296 76.9058C291.521 76.9058 291.741 76.9275 291.966 76.9545C292.519 77.0574 293.039 77.2199 293.549 77.4961C294.247 77.8319 294.848 78.3085 295.341 78.7363C295.862 79.1804 296.377 79.7165 297.053 80.5072C298.088 81.7637 299.081 83.2638 300.197 85.2243C301.082 86.7894 301.86 88.3762 302.563 90.0714C302.998 91.3495 303.432 92.6709 303.738 94.2089C303.384 94.1006 303.03 93.9923 302.676 93.8678L302.225 93.689L301.485 93.402L301.072 93.207L300.46 92.8821L300.127 92.725L299.854 92.6005L299.44 92.3947C298.829 92.0481 298.212 91.7285 297.595 91.4144L296.972 91.0462C296.355 90.6833 295.733 90.3151 295.116 89.9685L294.853 89.8168L294.536 89.6218C293.651 89.0261 292.852 88.4629 292.074 87.8888C290.705 86.8165 289.664 85.8688 288.784 84.8994C287.862 83.8487 287.298 82.8576 287.062 81.8666C286.982 81.6229 286.966 81.3737 286.944 81.1246C286.933 80.908 286.955 80.6859 286.982 80.4206L286.976 80.3989ZM294.531 92.2214C294.531 93.2341 293.678 94.0952 292.674 94.1006C291.671 94.1006 290.818 93.2449 290.813 92.2268C290.813 91.2141 291.666 90.353 292.669 90.3475C293.672 90.3475 294.531 91.2086 294.531 92.2214ZM284.948 72.4216C285.951 72.4216 286.805 73.2827 286.81 74.2954C286.81 75.3082 285.957 76.1693 284.953 76.1747C283.95 76.1747 283.097 75.3136 283.092 74.3008C283.092 73.2881 283.939 72.4216 284.948 72.4216ZM279.293 98.4115C279.368 97.8645 279.588 97.3013 279.921 96.7922C280.167 96.3752 280.5 96.0178 280.929 95.6874C281.342 95.3787 281.825 95.135 282.421 94.9346C283.156 94.6747 283.945 94.5718 284.556 94.5231C284.83 94.5068 285.125 94.496 285.431 94.496C285.903 94.496 286.413 94.5231 287.008 94.5718C288.623 94.7072 290.373 95.0538 292.546 95.6658C294.107 96.0774 295.76 96.6514 297.605 97.3934C298.727 97.9566 299.998 98.5902 301.334 99.4784C301.013 99.6571 300.675 99.8359 300.342 99.9983C299.95 100.177 299.569 100.345 299.172 100.518L298.7 100.686L298.094 100.897L297.74 101.006C297.498 101.087 297.257 101.168 297.015 101.255C296.345 101.444 295.69 101.661 295.019 101.894C294.096 102.132 293.173 102.37 292.143 102.701C291.966 102.733 291.789 102.76 291.601 102.831C290.55 103.042 289.579 103.199 288.645 103.329C287.33 103.513 286.209 103.6 285.216 103.605C284.884 103.605 284.546 103.594 284.234 103.578C282.85 103.491 281.75 103.188 280.881 102.652C280.677 102.522 280.468 102.376 280.28 102.213C280.103 102.045 279.953 101.856 279.819 101.677C279.534 101.293 279.346 100.794 279.239 100.182C279.196 99.9658 279.186 99.7546 279.186 99.538C279.186 99.1643 279.223 98.796 279.293 98.4169V98.4115ZM276.594 99.2076C276.594 100.247 275.762 101.092 274.737 101.092C273.713 101.092 272.876 100.253 272.876 99.213C272.876 98.2003 273.729 97.3392 274.732 97.3338C275.735 97.3338 276.589 98.1949 276.594 99.2076ZM267.875 52.1127C270.955 52.1127 273.455 54.6256 273.46 57.7342C273.46 60.8428 270.971 63.3665 267.891 63.372C264.811 63.372 262.311 60.8591 262.305 57.7505C262.305 54.6418 264.795 52.1181 267.875 52.1127ZM242.716 52.1506C245.796 52.1506 248.296 54.6635 248.301 57.7721C248.301 60.8807 245.812 63.4044 242.732 63.4099C239.652 63.4099 237.152 60.897 237.146 57.7884C237.146 54.6798 239.636 52.156 242.716 52.1506ZM241.664 73.3964C242.389 73.3639 243.118 73.3531 243.848 73.3531C245.984 73.3531 248.28 73.4668 250.501 73.6726C253.994 74.0355 257.412 74.6366 260.669 75.4652C263.872 76.2613 267.167 77.312 270.499 78.5955C271.894 79.1371 273.278 79.7111 274.657 80.4043C273.723 81.0488 272.774 81.6878 271.797 82.2944C270.778 82.9118 269.726 83.4804 268.653 84.0166C266.523 85.0997 264.216 86.0367 261.592 86.8761C259.338 87.6018 256.886 88.2138 254.075 88.7228C251.44 89.1723 248.757 89.4648 246.123 89.5677C245.425 89.6002 244.728 89.611 244.03 89.611C239.411 89.6164 234.909 89.0261 230.643 87.8509C228.266 87.2119 225.884 86.302 223.566 85.1647C221.393 84.087 219.317 82.7331 217.385 81.1571C217.251 81.0488 217.176 80.8755 217.176 80.5614C217.895 80.009 218.63 79.5053 219.349 79.0883C220.164 78.6117 220.985 78.1622 221.962 77.7073C225.24 76.1963 229.002 75.0807 233.455 74.2683C236.245 73.7972 239.008 73.5047 241.659 73.4018L241.664 73.3964ZM217.551 52.1831C220.631 52.1831 223.132 54.696 223.137 57.8046C223.137 60.9132 220.647 63.4369 217.568 63.4424C214.488 63.4424 211.987 60.9295 211.982 57.8209C211.982 54.7123 214.472 52.1885 217.551 52.1831ZM192.392 52.221C195.472 52.221 197.973 54.7339 197.978 57.8425C197.978 60.9511 195.488 63.4749 192.409 63.4803C189.329 63.4803 186.828 60.9674 186.823 57.8588C186.823 54.7502 189.313 52.2264 192.392 52.221ZM167.233 52.2589C170.313 52.2589 172.814 54.7718 172.819 57.8804C172.819 60.989 170.329 63.5128 167.249 63.5182C164.17 63.5182 161.669 61.0053 161.664 57.8967C161.664 54.7881 164.154 52.2644 167.233 52.2589ZM142.074 52.2969C145.154 52.2969 147.654 54.8097 147.66 57.9183C147.66 61.027 145.17 63.5507 142.09 63.5561C139.011 63.5561 136.51 61.0432 136.505 57.9346C136.505 54.826 138.994 52.3023 142.074 52.2969ZM116.915 52.3348C119.995 52.3348 122.495 54.8476 122.501 57.9563C122.506 61.0649 120.011 63.5886 116.931 63.594C113.852 63.594 111.351 61.0811 111.346 57.9725C111.346 54.8639 113.835 52.3402 116.915 52.3348ZM91.7562 52.3727C94.836 52.3727 97.3364 54.8856 97.3418 57.9942C97.3418 61.1028 94.8521 63.6265 91.7723 63.6319C88.6925 63.6319 86.1921 61.119 86.1868 58.0104C86.1868 54.9018 88.6764 52.3781 91.7562 52.3727ZM85.8488 79.7978C89.1593 78.5251 92.4806 77.4582 95.7106 76.6296C98.8924 75.8118 102.353 75.1944 105.707 74.8207C108.094 74.5987 110.385 74.4741 112.516 74.4741C113.245 74.4741 113.97 74.4796 114.705 74.512C117.328 74.6095 120.043 74.8803 123 75.3731C127.383 76.1476 131.161 77.2741 134.525 78.8067C135.389 79.2129 136.215 79.657 137.031 80.1335C137.836 80.5993 138.517 81.0813 139.225 81.7149C139.193 81.9316 139.129 82.0886 139 82.1915C137.079 83.7729 135.003 85.1322 132.835 86.2208C130.517 87.3635 128.14 88.2842 125.763 88.9286C121.497 90.1147 116.996 90.7158 112.376 90.7212C111.678 90.7212 110.981 90.7104 110.283 90.6833C107.649 90.5858 104.966 90.3042 102.332 89.8601C99.5202 89.3565 97.0627 88.7553 94.8092 88.035C92.1855 87.2064 89.8729 86.2749 87.7374 85.1972C86.6643 84.6611 85.6127 84.1032 84.5878 83.4859C83.6059 82.8793 82.6509 82.2457 81.7119 81.5254C83.0855 80.908 84.4805 80.3285 85.838 79.7924L85.8488 79.7978ZM83.4933 96.7868C84.4966 96.7868 85.3498 97.6479 85.3551 98.6606C85.3551 99.6734 84.502 100.534 83.4986 100.54C82.4953 100.54 81.6422 99.6842 81.6368 98.6661C81.6368 97.6533 82.4846 96.7922 83.4933 96.7868ZM77.2907 95.1567C77.7521 95.5033 78.0848 95.8499 78.3048 96.2452C78.6321 96.7381 78.8467 97.3067 78.9487 97.87C79.0077 98.2436 79.0452 98.6119 79.0506 98.991C79.0506 99.2076 79.0399 99.4188 79.0023 99.6355C78.9648 99.9008 78.8252 100.589 78.4228 101.136C78.2887 101.314 78.1385 101.504 77.9614 101.672C77.7736 101.829 77.5643 101.98 77.3605 102.11C76.4966 102.647 75.4074 102.955 74.0124 103.037C73.6797 103.058 73.3363 103.069 72.9822 103.069C72.0003 103.069 70.9164 102.982 69.6019 102.814C68.6683 102.685 67.7078 102.533 66.6455 102.305L65.9962 102.127C65.0734 101.867 64.1505 101.623 63.2222 101.396C62.5676 101.168 61.8969 100.951 61.2263 100.762C60.9794 100.67 60.7434 100.594 60.4965 100.513L60.1531 100.405L59.6112 100.215L59.0586 100.025L58.3718 99.7275L57.8996 99.5109C57.6045 99.3864 57.3255 99.2347 57.0411 99.0777L57.0519 99.056L56.9928 98.7581C58.1894 98.1299 59.3966 97.5125 60.6146 96.8951C62.4603 96.1478 64.1129 95.5737 65.6743 95.1513C67.8527 94.5339 69.6126 94.1873 71.2062 94.0411C71.8071 93.9869 72.3276 93.9598 72.8105 93.9598C73.1056 93.9598 73.3899 93.9706 73.6636 93.9869C74.2699 94.0356 75.0586 94.1331 75.7937 94.3877C76.3947 94.588 76.8776 94.8317 77.2907 95.1404V95.1567ZM31.3831 110.911C32.6172 109.86 34.1034 108.853 36.0565 107.737C37.5481 106.882 39.1202 106.096 40.8533 105.338C42.141 104.9 43.4234 104.472 44.7218 104.055C44.7218 104.044 44.7326 104.044 44.7326 104.044C44.7433 104.044 44.8506 104.093 44.856 104.093C44.856 104.103 44.9633 104.152 44.9579 104.163C44.8506 104.52 44.7433 104.878 44.5448 105.392C44.4214 105.739 44.2926 106.091 44.1424 106.432L43.6434 107.472C43.5951 107.58 43.536 107.689 43.477 107.802L43.2517 108.257L43.1336 108.496C42.801 109.113 42.4844 109.736 42.1732 110.359C41.6849 111.193 41.202 112.027 40.6923 112.969L40.3972 113.446C39.807 114.339 39.2382 115.162 38.6695 115.931C37.6179 117.318 36.6789 118.385 35.7131 119.246C34.64 120.188 33.6581 120.757 32.6976 121.006C32.4508 121.055 32.204 121.087 31.8123 121.109C31.6245 121.109 31.4475 121.087 31.2704 121.06C30.5407 120.952 29.9719 120.535 29.8271 120.405C29.6607 120.296 29.4998 120.166 29.3173 119.988C29.0598 119.733 28.8237 119.435 28.6091 119.127C28.2818 118.682 28.0457 118.125 27.9169 117.534C27.7989 117.069 27.7882 116.56 27.8579 116.034C27.9545 115.476 28.1208 114.951 28.3945 114.437C28.7271 113.733 29.1993 113.126 29.6071 112.628C30.0685 112.081 30.6158 111.555 31.3724 110.9L31.3831 110.911ZM31.2972 105.961C31.2972 104.948 32.1504 104.087 33.1537 104.082C34.1571 104.082 35.0102 104.937 35.0156 105.956C35.0156 106.968 34.1678 107.829 33.1591 107.835C32.1557 107.835 31.3026 106.974 31.2972 105.961ZM44.8989 172.607C44.5072 174.372 44.078 176.121 43.6273 177.854C42.7205 181.456 41.6045 184.884 40.3221 188.009L40.145 188.399L39.9304 188.892L39.7533 189.141C39.705 189.227 39.646 189.298 39.4797 189.341C38.4924 187.456 37.5588 185.474 36.7808 183.611C34.0659 177.091 32.2201 170.413 31.2865 163.757C30.8304 160.183 30.6963 156.517 30.8948 152.866C30.9646 152.092 31.0504 151.317 31.147 150.603C31.4904 148.231 31.9143 146.07 32.4508 144.001C33.0088 141.84 33.7547 139.625 34.6507 137.442C35.2463 136.024 35.8955 134.664 36.6306 133.31C36.9042 132.785 37.1993 132.276 37.4944 131.783C37.4944 131.772 37.532 131.734 37.5427 131.734L37.5803 131.772L37.8593 132.189C38.5568 133.262 39.2436 134.323 39.9197 135.412C41.1323 137.377 42.1088 139.219 42.8385 140.903C43.1766 141.715 43.4824 142.528 43.756 143.362C44.1102 144.402 44.3677 145.474 44.6253 146.546C45.0706 148.328 45.4462 150.316 45.7842 152.628C46.09 155.157 46.2671 157.643 46.2778 160.015C46.2778 162.366 46.1169 164.819 45.8057 167.315C45.5642 169.081 45.253 170.846 44.8989 172.607ZM43.1551 115.547C42.1517 115.547 41.2986 114.686 41.2932 113.673C41.2932 112.66 42.141 111.799 43.1497 111.794C44.1531 111.794 45.0062 112.649 45.0116 113.668C45.0116 114.68 44.1585 115.541 43.1551 115.547ZM25.3576 124.472C24.3542 124.472 23.4957 123.611 23.4957 122.598C23.4957 121.585 24.3489 120.724 25.3522 120.719C26.3824 120.719 27.2194 121.558 27.2194 122.593C27.2194 123.622 26.3878 124.466 25.3576 124.472ZM48.0377 131.534C48.0377 130.521 48.8909 129.66 49.8942 129.655C50.8976 129.655 51.7507 130.516 51.7561 131.529C51.7561 132.541 50.9029 133.402 49.8996 133.408C48.8962 133.408 48.0377 132.547 48.0377 131.534ZM52.4429 127.51C52.0619 127.797 51.5629 127.997 50.9512 128.106C50.7366 128.138 50.5274 128.16 50.3235 128.16C49.9479 128.16 49.5777 128.111 49.2128 128.052C48.6709 127.954 48.1129 127.748 47.6031 127.418C47.1954 127.169 46.8359 126.822 46.5086 126.4C46.2135 125.994 45.9774 125.517 45.7681 124.894C45.5052 124.131 45.4086 123.34 45.3603 122.733C45.3067 122.04 45.3281 121.298 45.3925 120.253C45.5481 118.612 45.8915 116.841 46.4871 114.675C46.9163 113.039 47.4744 111.371 48.1987 109.557L48.687 108.555C49.0894 107.732 49.5508 106.811 50.2054 105.777H50.2269L50.2054 105.766C50.2162 105.766 50.2644 105.793 50.2644 105.793C50.4415 106.129 50.6078 106.459 50.7688 106.806L51.0854 107.499L51.2946 107.986L51.6702 109.075C51.7024 109.194 51.74 109.313 51.7775 109.422L52.0136 110.153C52.2121 110.83 52.4268 111.501 52.6467 112.167C52.8828 113.099 53.135 114.041 53.4301 115.076L53.575 115.639C53.7842 116.69 53.9506 117.664 54.0847 118.607C54.3101 120.361 54.3852 121.791 54.3154 123.069C54.2081 124.504 53.9184 125.62 53.4087 126.454C53.2799 126.66 53.135 126.871 52.9794 127.05C52.8131 127.228 52.6253 127.38 52.4482 127.515L52.4429 127.51ZM53.516 113.321C53.516 112.308 54.3691 111.447 55.3724 111.442C56.3758 111.442 57.2343 112.303 57.2343 113.316C57.2343 114.328 56.3812 115.189 55.3778 115.195C54.3745 115.195 53.5213 114.339 53.516 113.321ZM55.3885 137.285L55.5066 136.798L55.528 136.809L55.5066 136.787H55.5173C55.5173 136.787 55.5602 136.798 55.5656 136.798C55.8822 137.166 56.1934 137.54 56.5582 138.017C57.2611 138.97 57.9372 139.999 58.6186 141.179C59.2678 142.29 59.8902 143.546 60.459 144.916C61.1404 146.584 61.7413 148.355 62.2242 150.186C62.6481 151.751 63.0076 153.478 63.3027 155.471C63.4315 156.484 63.5603 157.692 63.5442 159.002C62.8037 158.212 62.0955 157.378 61.4248 156.527C60.6575 155.488 59.9278 154.399 59.2571 153.267C58.5971 152.157 57.9855 150.928 57.3631 149.487C56.8963 148.355 56.5046 147.218 56.188 146.097C55.909 145.117 55.6729 143.995 55.4637 142.669C55.3563 141.786 55.2812 140.892 55.2651 139.999C55.2437 139.154 55.2812 138.271 55.3778 137.291L55.3885 137.285ZM63.3939 119.219C62.4174 118.32 61.4731 117.269 60.4322 115.91C59.858 115.135 59.2893 114.323 58.6991 113.429C58.5971 113.267 58.5006 113.11 58.3611 112.844C57.8889 112.01 57.406 111.182 56.9124 110.348C56.6065 109.725 56.2792 109.097 55.9466 108.485C55.8392 108.246 55.7212 108.019 55.6032 107.792C55.5549 107.683 55.4959 107.575 55.4368 107.467L54.9325 106.427C54.7769 106.031 54.6159 105.625 54.471 105.23C54.3315 104.84 54.2242 104.499 54.3101 104.049L54.3208 104.038H54.3315C54.3315 104.038 54.353 104.049 54.3637 104.049C55.6515 104.466 56.9392 104.889 58.2269 105.322C59.9654 106.075 61.5428 106.855 63.0237 107.705C64.9821 108.815 66.4684 109.812 67.7078 110.862C68.4644 111.518 69.017 112.043 69.4785 112.584C69.7843 112.942 70.3423 113.603 70.7072 114.388C70.9916 114.951 71.1633 115.476 71.2384 115.985C71.3189 116.511 71.3081 117.014 71.1793 117.486C71.0559 118.092 70.8199 118.639 70.4926 119.062C70.235 119.446 70.015 119.717 69.7843 119.944C69.618 120.123 69.4624 120.253 69.3014 120.361C68.958 120.61 68.4376 120.93 67.7615 121.027C67.622 121.038 67.4771 121.071 67.1337 121.071C66.8976 121.049 66.6616 121.022 66.404 120.952C65.4489 120.735 64.467 120.161 63.3832 119.219H63.3939ZM62.6589 105.252C62.6589 104.239 63.512 103.378 64.5153 103.372C65.5187 103.372 66.3718 104.233 66.3772 105.246C66.3772 106.259 65.5241 107.12 64.5207 107.125C63.5173 107.125 62.6642 106.27 62.6589 105.252ZM72.8051 122.452C73.8085 122.452 74.6616 123.307 74.667 124.326C74.667 125.338 73.8192 126.199 72.8105 126.205C71.8071 126.205 70.954 125.344 70.9486 124.331C70.9486 123.318 71.8018 122.457 72.8051 122.452ZM66.1304 87.3743C65.3685 87.943 64.5583 88.517 63.6783 89.1128L63.3617 89.3132L63.0935 89.4594C62.4764 89.806 61.8594 90.1797 61.237 90.5425L60.6199 90.9108C60.0029 91.2303 59.3805 91.5498 58.7742 91.8964L58.3611 92.1077L58.0767 92.216L57.7601 92.4163L57.347 92.6276L56.7299 92.9254L55.9948 93.2125L55.5441 93.3912C55.3027 93.4887 55.0344 93.5807 54.7393 93.5807C54.6213 93.5807 54.514 93.5591 54.3852 93.4995C54.75 92.3026 55.1364 91.1166 55.5388 89.9251L55.6461 89.5948C56.3436 87.8997 57.1162 86.3074 58.0016 84.7423C59.0961 82.7872 60.0888 81.2871 61.1297 80.0144C61.8057 79.2183 62.3155 78.6821 62.8359 78.2326C63.3242 77.8102 63.9251 77.3282 64.6227 76.9924C65.1324 76.7162 65.6528 76.5429 66.2001 76.4455C66.4255 76.4184 66.6455 76.3967 66.8708 76.3967C67.1766 76.3967 67.4503 76.4346 67.6971 76.505C68.2873 76.6404 68.8292 76.8787 69.2531 77.2037C69.5804 77.4203 69.8702 77.6477 70.1384 77.9185C70.2887 78.0702 70.4228 78.2272 70.5516 78.4168C70.9164 78.9313 71.1311 79.4241 71.2008 79.9061C71.233 80.1444 71.2598 80.3718 71.2384 80.5885C71.2223 80.8376 71.2008 81.0813 71.1257 81.3304C70.8896 82.3215 70.3316 83.3126 69.4087 84.3686C68.5341 85.3434 67.4932 86.2966 66.1304 87.3689V87.3743ZM67.3966 91.7286C67.3966 92.7413 66.5435 93.6024 65.5402 93.6078C64.5368 93.6078 63.6837 92.7467 63.6783 91.734C63.6783 90.7212 64.5314 89.8601 65.5348 89.8547C66.5381 89.8547 67.3913 90.7158 67.3966 91.7286ZM75.0801 73.7809C75.0801 74.7937 74.227 75.6602 73.2236 75.6602C72.1881 75.6602 71.351 74.8207 71.351 73.7863C71.351 72.7574 72.1827 71.9125 73.2183 71.9071C74.2216 71.9071 75.0747 72.7682 75.0801 73.7809ZM66.5972 52.4214C69.677 52.4214 72.1773 54.9343 72.1827 58.0429C72.1827 61.1515 69.6931 63.6752 66.6133 63.6807C63.5334 63.6807 61.0331 61.1678 61.0277 58.0592C61.0277 54.9505 63.5173 52.4268 66.5972 52.4214ZM56.3973 80.1715C57.4006 80.1715 58.2537 81.0326 58.2591 82.0453C58.2591 83.058 57.4114 83.9191 56.4026 83.9245C55.3993 83.9245 54.5462 83.0634 54.5408 82.0507C54.5408 81.038 55.3939 80.1715 56.3973 80.1715ZM54.3154 87.8942C54.5408 88.035 54.6964 88.1921 54.7983 88.36C54.8681 88.4575 54.9056 88.5387 54.9271 88.6199L55.0237 88.9286C55.0827 89.3565 55.013 89.8276 54.8305 90.3638C54.6749 90.8675 54.4388 91.3874 54.0686 92.0318C53.8701 92.3676 53.6662 92.7196 53.4301 93.0933L53.2316 93.2612C53.5857 93.4887 53.913 93.754 54.2189 94.0519C54.3584 94.1927 54.4925 94.3389 54.6213 94.4906C54.7876 94.6801 54.9539 94.8588 55.0827 95.0159C55.85 94.4093 56.4456 94.0031 57.0143 93.7107C57.3684 93.5103 57.6528 93.3858 57.9372 93.2937C58.2537 93.1745 58.5381 93.1041 58.9942 93.0716C59.1712 93.0716 59.3269 93.0933 59.5093 93.1421C59.7239 93.1908 59.901 93.272 60.0566 93.3858C60.2927 93.5428 60.459 93.7215 60.5663 93.9111C60.6468 94.0411 60.7273 94.171 60.7809 94.3173C60.8131 94.3985 60.8399 94.4743 60.8614 94.561C60.8882 94.6476 60.958 94.9401 60.8775 95.2488C60.8614 95.3354 60.8292 95.4383 60.7916 95.525C60.7916 95.525 60.6575 95.7632 60.6468 95.8066C60.3785 96.1532 60.0083 96.4402 59.5093 96.6785C59.0371 96.9168 58.4952 97.1172 57.8084 97.3067C57.4435 97.415 57.0733 97.5071 56.5958 97.5775L56.3221 97.6587L56.027 97.6371C56.1451 98.4224 56.129 99.1968 56.0807 100.155C57.0465 100.285 57.7494 100.421 58.3611 100.621C58.7527 100.74 59.0371 100.849 59.3054 100.989C59.579 101.114 59.8366 101.255 60.0727 101.461C60.2712 101.639 60.4161 101.807 60.518 101.997C60.636 102.165 60.7165 102.37 60.7648 102.582C60.7916 102.825 60.7916 103.085 60.738 103.296C60.7004 103.454 60.6629 103.605 60.5985 103.751C60.5717 103.854 60.5287 103.93 60.4804 103.979C60.4322 104.076 60.2926 104.325 60.0297 104.477C59.9439 104.526 59.8634 104.564 59.7615 104.607L59.4556 104.705C59.359 104.715 59.2517 104.726 59.1391 104.726C58.8171 104.726 58.4523 104.656 58.0284 104.51C57.5455 104.363 57.025 104.114 56.3865 103.741C56.0539 103.546 55.7105 103.334 55.3563 103.069L55.1095 102.928L54.7769 102.603C54.6159 102.814 54.4549 103.015 54.2671 103.199C53.9345 103.529 53.5804 103.816 53.2316 103.984L53.6179 104.472C53.6179 104.472 53.7842 104.699 53.7842 104.71C54.0311 105.073 54.2457 105.425 54.4442 105.75C54.8359 106.405 55.0773 106.92 55.2329 107.407C55.4315 107.932 55.5119 108.42 55.4529 108.837C55.4422 108.918 55.4154 109.005 55.3671 109.156C55.3456 109.238 55.3081 109.313 55.2383 109.411C55.0934 109.687 54.8359 109.839 54.7608 109.877C54.691 109.925 54.6105 109.963 54.5354 110.001C54.4174 110.061 54.2725 110.104 54.0954 110.131C53.9506 110.18 53.8111 110.201 53.6662 110.201C53.575 110.201 53.4784 110.191 53.3711 110.18C53.1565 110.131 52.958 110.05 52.8023 109.942C52.6038 109.833 52.4268 109.692 52.2604 109.503C52.0941 109.297 51.9331 109.048 51.7775 108.728C51.638 108.474 51.52 108.176 51.4019 107.786C51.182 107.115 51.0263 106.378 50.9083 105.495V105.002C50.5166 105.084 50.1196 105.111 49.7172 105.116C49.2665 105.116 48.8909 105.067 48.6172 104.959C48.5797 105.23 48.5475 105.484 48.526 105.744C48.526 105.755 48.4884 106.021 48.4884 106.021C48.4133 106.476 48.306 106.876 48.2041 107.25C48.0485 107.905 47.8607 108.468 47.6139 108.978C47.3778 109.492 47.0934 109.882 46.7446 110.142L46.4871 110.304C46.4012 110.342 46.2993 110.375 46.2135 110.391C46.1222 110.424 46.0364 110.44 45.9184 110.44C45.7735 110.44 45.6554 110.424 45.5481 110.391C45.4676 110.38 45.3711 110.353 45.2906 110.304C45.1457 110.245 45.0169 110.174 44.8774 110.099C44.6413 109.958 44.4643 109.752 44.357 109.611C44.2389 109.454 44.1585 109.275 44.1048 109.037C44.0458 108.831 44.0243 108.62 44.035 108.344C44.0458 108.035 44.1316 107.737 44.2336 107.45C44.3194 107.158 44.4375 106.871 44.6253 106.508C44.9311 105.901 45.3281 105.273 45.8808 104.542L46.2939 104.125C45.8915 103.871 45.5267 103.578 45.2101 103.264C45.0116 103.064 44.8452 102.869 44.7648 102.679L44.2658 103.074L44.0404 103.248C43.6809 103.486 43.3429 103.703 43.0102 103.914C42.3932 104.282 41.8727 104.531 41.3791 104.71C40.9391 104.867 40.5743 104.948 40.2523 104.948C40.145 104.948 40.0431 104.943 39.9465 104.932L39.6514 104.845C39.5548 104.802 39.4743 104.764 39.3992 104.715C39.2221 104.618 39.0719 104.466 38.927 104.228L38.809 103.99C38.75 103.849 38.7124 103.703 38.6749 103.551C38.6051 103.28 38.6158 103.004 38.6319 102.814C38.6802 102.598 38.7607 102.387 38.8573 102.23C38.9753 102.029 39.1095 101.861 39.2973 101.693C39.5012 101.515 39.748 101.358 40.0538 101.206C40.3221 101.065 40.6065 100.946 40.9874 100.816C41.6581 100.599 42.361 100.448 43.2678 100.318L43.5414 100.356C43.3053 99.473 43.2624 98.5902 43.4287 97.7779L42.978 97.7021L42.4898 97.6533L41.4971 97.4205C40.8372 97.2526 40.2845 97.063 39.7748 96.8139C39.2221 96.5594 38.8519 96.2723 38.6319 95.942L38.471 95.6712C38.4334 95.5845 38.4012 95.4925 38.3744 95.4058C38.2885 95.1188 38.3583 94.8317 38.4012 94.7289L38.4602 94.4635C38.5193 94.3227 38.5997 94.1819 38.6749 94.0519C38.7822 93.8515 38.9485 93.6674 39.1685 93.5157C39.3456 93.3858 39.5387 93.2991 39.7265 93.2666C39.8767 93.207 40.0323 93.1854 40.4133 93.1854C40.8157 93.2233 41.143 93.3316 41.2986 93.3912C41.5884 93.4778 41.8727 93.597 42.2322 93.7865C42.9297 94.1385 43.5629 94.5664 44.2872 95.2217C44.5394 94.8155 44.8291 94.4472 45.2316 94.0411C45.3979 93.8732 45.5535 93.7161 45.6554 93.5536C45.0813 92.8225 44.6682 92.2051 44.3623 91.6094C44.1745 91.2466 44.0458 90.9595 43.9492 90.6779C43.8312 90.353 43.7721 90.0551 43.7399 89.7843C43.7292 89.5352 43.7399 89.3077 43.7882 89.0857C43.8472 88.8474 43.9224 88.6579 44.0404 88.5225C44.1906 88.3058 44.3623 88.1217 44.5609 88.0134C44.6896 87.9267 44.8291 87.8563 44.9633 87.7968C45.0491 87.7372 45.1403 87.7101 45.2101 87.7101C45.3603 87.6614 45.4837 87.6397 45.6125 87.6397C45.7091 87.6397 45.8003 87.6614 45.8915 87.6884L46.1652 87.7859C46.2725 87.8238 46.3637 87.878 46.4173 87.9376C46.7607 88.1759 47.0558 88.5387 47.3134 89.0749C47.5656 89.5839 47.7695 90.1472 47.9358 90.8025C48.0216 91.122 48.0968 91.4469 48.2041 92.021L48.2148 92.3568C48.7192 92.2485 49.2182 92.1889 49.7064 92.1889C50.0498 92.1889 50.3235 92.216 50.5327 92.2972C50.6508 91.3549 50.7849 90.64 50.9834 90.0226C51.1015 89.6381 51.2088 89.3402 51.3429 89.0803C51.4717 88.8041 51.6112 88.5441 51.8151 88.3058C51.9921 88.1054 52.1478 87.9701 52.3463 87.8455C52.5609 87.7155 52.7487 87.6343 52.9258 87.6072C53.0331 87.5964 53.1511 87.5855 53.2584 87.5855C53.4087 87.5855 53.5374 87.6072 53.6447 87.6343C53.7896 87.6722 53.9398 87.7101 54.0847 87.7697C54.1652 87.8022 54.2457 87.8401 54.3208 87.878L54.3154 87.8942ZM43.1766 84.9373C42.1732 84.9373 41.3201 84.0762 41.3147 83.0634C41.3147 82.0236 42.1464 81.1788 43.1712 81.1788C44.196 81.1788 45.033 82.0182 45.033 83.058C45.033 84.0708 44.1799 84.9373 43.1766 84.9373ZM52.357 70.369C52.5126 70.5586 52.6628 70.7536 52.797 70.9702C53.3174 71.8313 53.6179 72.9361 53.7199 74.3496C53.7896 75.6277 53.7199 77.0412 53.4999 78.8067C53.3711 79.749 53.2101 80.7347 52.9955 81.8016L52.915 82.0994L52.8184 82.4569C52.5555 83.3775 52.3194 84.309 52.0834 85.2568C51.858 85.9229 51.6541 86.5891 51.4556 87.2606L51.2141 87.9971C51.1819 88.1163 51.1444 88.2354 51.1068 88.3546L50.7312 89.4485C50.5649 89.8439 50.3986 90.2338 50.2215 90.6292C50.0659 90.9974 49.8996 91.3115 49.4864 91.5444C48.8533 90.3259 48.247 89.1074 47.6461 87.878C46.9432 86.1504 46.3744 84.4769 45.9076 82.771C45.2959 80.5722 44.9472 78.7959 44.8077 77.1874C44.7272 76.1476 44.7165 75.4002 44.7648 74.707C44.8291 74.003 44.9096 73.261 45.1618 72.557C45.3281 71.9992 45.575 71.5063 45.8969 71.046C46.2296 70.6073 46.5944 70.2607 46.9861 70.0224C47.4475 69.7137 48.0056 69.4971 48.585 69.3834C48.9606 69.313 49.3308 69.2751 49.6957 69.2751C49.9103 69.2751 50.1196 69.2805 50.3342 69.3238C50.9459 69.4321 51.4449 69.6271 51.8473 69.925C52.0243 70.0658 52.1907 70.2066 52.3516 70.369H52.357ZM49.6742 62.9062C50.6776 62.9062 51.5307 63.7673 51.5361 64.78C51.5361 65.7928 50.683 66.6539 49.6796 66.6593C48.6762 66.6593 47.8231 65.7982 47.8178 64.7855C47.8178 63.7727 48.6709 62.9116 49.6742 62.9062ZM41.4435 52.4647C44.5233 52.4647 47.0237 54.9776 47.029 58.0862C47.029 61.1948 44.5394 63.7186 41.4596 63.724C38.3798 63.724 35.8794 61.2111 35.874 58.1025C35.874 54.9939 38.3637 52.4702 41.4435 52.4647ZM28.8827 77.9943C29.1349 77.729 29.43 77.4961 29.7466 77.2795C30.1973 76.9491 30.7499 76.7054 31.3187 76.5754C31.5655 76.505 31.8392 76.4671 32.145 76.4671C32.3596 76.4671 32.5796 76.4888 32.805 76.5159C33.3576 76.6133 33.8781 76.7921 34.3985 77.0574C34.9512 77.3282 35.5092 77.7236 36.1799 78.2922C36.7111 78.7363 37.2208 79.2724 37.8915 80.0686C38.9431 81.3358 39.9411 82.836 41.0357 84.7856C41.9049 86.3129 42.6829 87.8997 43.4126 89.6327C43.8955 91.0733 44.2926 92.281 44.577 93.7703C44.2228 93.662 43.8687 93.5536 43.5146 93.4237L42.7849 93.1366L42.3234 92.9579L41.9103 92.763L41.2986 92.438L40.966 92.281L40.6226 92.1131L40.2899 91.9452C39.6782 91.5986 39.0612 91.2845 38.4334 90.9704C37.6178 90.4829 36.7808 89.9901 35.9545 89.5244L35.6916 89.3781L35.375 89.1832C34.4897 88.5874 33.6742 88.0134 32.923 87.4501C31.5333 86.3778 30.4817 85.4301 29.6286 84.4607C28.6949 83.383 28.1316 82.3919 27.8847 81.4279C27.8365 81.1734 27.8043 80.9351 27.7882 80.6859C27.7774 80.4856 27.7989 80.2906 27.8365 79.9819C27.933 79.3266 28.2764 78.7796 28.4857 78.5251C28.5823 78.3572 28.7218 78.1947 28.8988 78.016L28.8827 77.9943ZM36.4911 92.5734C36.4911 93.5861 35.638 94.4526 34.6346 94.4526C33.6312 94.4526 32.7781 93.5916 32.7728 92.5788C32.7728 91.5661 33.6205 90.705 34.6292 90.6996C35.6326 90.6996 36.4857 91.5607 36.4911 92.5734ZM25.9746 72.8982C26.978 72.8982 27.8365 73.7539 27.8365 74.772C27.8365 75.7847 26.9833 76.6458 25.98 76.6512C24.9766 76.6512 24.1235 75.7902 24.1181 74.7774C24.1181 73.7647 24.9713 72.9036 25.9746 72.8982ZM23.9518 95.0538C24.6493 94.7938 25.3844 94.7126 26.0819 94.6422C26.377 94.6205 26.6829 94.6097 27.0155 94.6097C27.4662 94.6097 27.9652 94.6314 28.5393 94.6801C30.251 94.8426 32.0109 95.1892 34.0712 95.7741C35.7614 96.2398 37.4247 96.8085 39.1363 97.5125C40.365 98.1137 41.5776 98.7256 42.8654 99.5976C42.5434 99.7763 42.2108 99.9442 41.8727 100.107C41.481 100.285 41.0947 100.453 40.703 100.627L39.6192 101.006L39.2651 101.125L38.9002 101.244L38.5407 101.363C37.9505 101.542 37.371 101.731 36.7916 101.921L36.5501 102.002C35.6272 102.24 34.699 102.495 33.6795 102.809L33.4059 102.858L33.1215 102.939C32.0806 103.15 31.1094 103.318 30.1758 103.448C28.8559 103.616 27.7774 103.708 26.7955 103.708C26.4414 103.708 26.098 103.697 25.7654 103.681C24.3381 103.573 23.2382 103.28 22.4119 102.76C22.208 102.636 21.9987 102.473 21.8109 102.316C21.6446 102.159 21.5051 101.991 21.3495 101.791C20.9847 101.293 20.8398 100.697 20.7647 100.285C20.7271 100.069 20.7164 99.8575 20.7164 99.6409C20.7164 99.2726 20.7539 98.8989 20.8237 98.5198C20.8988 97.9837 21.1188 97.415 21.4515 96.9005C21.6929 96.4835 22.0309 96.1261 22.4602 95.7957C22.9109 95.4654 23.4045 95.2217 23.9518 95.0484V95.0538ZM16.2683 52.481C19.3482 52.481 21.8485 54.9939 21.8539 58.1025C21.8539 61.2111 19.3643 63.7348 16.2844 63.7402C13.2046 63.7402 10.7043 61.2273 10.6989 58.1187C10.6989 55.0101 13.1885 52.4864 16.2683 52.481ZM17.4327 292.656C18.436 292.656 19.2891 293.517 19.2945 294.53C19.2945 295.543 18.4414 296.404 17.438 296.409C16.4347 296.409 15.5762 295.548 15.5762 294.536C15.5762 293.523 16.4293 292.662 17.4327 292.656ZM17.0839 101.163C16.0805 101.163 15.2274 100.307 15.2221 99.2889C15.2221 98.2761 16.0752 97.415 17.0785 97.4096C18.0819 97.4096 18.9404 98.2707 18.9404 99.2835C18.9404 100.296 18.0873 101.157 17.0839 101.163ZM11.273 77.8806C14.3528 77.8806 16.8532 80.3935 16.8585 83.5021C16.8585 86.6107 14.3689 89.1344 11.2891 89.1399C8.20929 89.1399 5.70894 86.627 5.70358 83.5184C5.70358 80.4097 8.19319 77.886 11.273 77.8806ZM11.3106 103.275C14.3904 103.275 16.8907 105.788 16.8961 108.896C16.8961 112.005 14.4065 114.529 11.3267 114.534C8.24685 114.534 5.7465 112.021 5.74114 108.913C5.74114 105.804 8.23075 103.28 11.3106 103.275ZM11.3481 128.669C14.428 128.669 16.9283 131.182 16.9337 134.291C16.9337 137.399 14.4441 139.923 11.3642 139.928C8.2844 139.928 5.78406 137.415 5.77869 134.307C5.77869 131.198 8.26831 128.674 11.3481 128.669ZM11.3857 154.063C14.4655 154.063 16.9659 156.576 16.9712 159.685C16.9712 162.793 14.4816 165.317 11.4018 165.322C8.32196 165.322 5.82162 162.81 5.81625 159.701C5.81625 156.592 8.30587 154.069 11.3857 154.063ZM11.4233 179.457C14.5031 179.457 17.0034 181.97 17.0088 185.079C17.0088 188.188 14.5192 190.711 11.4393 190.717C8.35952 190.717 5.85918 188.204 5.85381 185.095C5.85381 181.987 8.34343 179.463 11.4233 179.457ZM11.4608 204.852C14.5406 204.852 17.041 207.365 17.0463 210.473C17.0463 213.582 14.5567 216.105 11.4769 216.111C8.39708 216.111 5.89674 213.598 5.89137 210.489C5.89137 207.381 8.38098 204.857 11.4608 204.852ZM11.4984 230.246C14.5782 230.246 17.0785 232.759 17.0839 235.867C17.0839 238.976 14.5943 241.5 11.5145 241.505C8.43464 241.505 5.9343 238.992 5.92893 235.884C5.92893 232.775 8.41854 230.251 11.4984 230.246ZM11.5359 255.64C14.6157 255.64 17.1161 258.153 17.1215 261.262C17.1215 264.37 14.6318 266.894 11.552 266.899C8.4722 266.899 5.97185 264.386 5.96649 261.278C5.96649 258.169 8.4561 255.646 11.5359 255.64ZM11.5735 281.034C14.6533 281.034 17.1537 283.547 17.159 286.656C17.159 289.764 14.6694 292.288 11.5896 292.294C8.50976 292.294 6.00941 289.781 6.00405 286.672C6.00405 283.563 8.49366 281.04 11.5735 281.034ZM11.611 306.428C14.6909 306.428 17.1912 308.941 17.1966 312.05C17.1966 315.159 14.707 317.682 11.6271 317.688C8.54732 317.688 6.04697 315.175 6.04161 312.066C6.04161 308.958 8.53122 306.434 11.611 306.428ZM11.6486 331.823C14.7284 331.823 17.2288 334.336 17.2341 337.444C17.2341 340.553 14.7445 343.077 11.6647 343.082C8.58488 343.082 6.08453 340.569 6.07916 337.46C6.07916 334.352 8.56878 331.828 11.6486 331.823ZM11.6862 357.217C14.766 357.217 17.2663 359.73 17.2717 362.838C17.2717 365.947 14.7821 368.471 11.7023 368.476C8.62243 368.476 6.12209 365.963 6.11672 362.855C6.11672 359.746 8.60634 357.222 11.6862 357.217ZM11.7398 393.87C8.65999 393.87 6.15965 391.357 6.15428 388.249C6.15428 385.14 8.6439 382.617 11.7237 382.611C14.8035 382.611 17.3039 385.124 17.3093 388.233C17.3093 391.341 14.8196 393.865 11.7398 393.87ZM19.3213 416.714C16.2415 416.714 13.7412 414.201 13.7358 411.092C13.7358 407.984 16.2254 405.46 19.3052 405.455C22.3851 405.455 24.8854 407.967 24.8908 411.076C24.8961 414.185 22.4012 416.708 19.3213 416.714ZM34.4361 429.392C31.3563 429.392 28.8559 426.879 28.8505 423.77C28.8452 420.662 31.3402 418.138 34.42 418.133C37.4998 418.127 40.0002 420.646 40.0055 423.754C40.0055 426.863 37.5159 429.387 34.4361 429.392ZM54.573 436.979C51.4932 436.979 48.9928 434.466 48.9874 431.358C48.9874 428.249 51.4771 425.726 54.5569 425.72C57.6367 425.72 60.137 428.233 60.1424 431.342C60.1424 434.45 57.6528 436.974 54.573 436.979ZM74.6938 431.872C71.614 431.872 69.1136 429.359 69.1082 426.251C69.1082 423.142 71.5979 420.619 74.6777 420.613C77.7575 420.613 80.2579 423.126 80.2632 426.235C80.2632 429.343 77.7736 431.867 74.6938 431.872ZM83.5523 378.918C81.7978 382.53 78.7984 385.541 75.3215 387.171C72.07 388.715 68.4751 389.473 64.3168 389.478C63.512 389.478 62.7018 389.451 61.956 389.343L62.0633 414.64C62.0633 416.822 61.2048 418.896 59.6434 420.489C58.0552 422.081 56.0002 422.964 53.8379 422.969C49.3845 422.974 45.6072 419.173 45.5911 414.667V400.402H45.0813C43.4878 400.402 42.0015 400.245 40.5582 399.952C37.913 399.362 35.536 398.295 33.6742 396.865C30.8626 394.667 29.0813 392.657 27.9062 390.339C26.6346 387.832 25.8244 385.72 25.3629 383.716C23.6996 376.594 23.9572 369.364 24.1933 362.373L24.2201 361.587C24.2845 359.421 24.3596 357.26 24.3596 355.078C24.3703 350.496 28.0618 346.759 32.585 346.754C34.7312 346.754 36.8398 347.658 38.4066 349.234C39.9733 350.821 40.8372 352.879 40.8318 355.051C40.8318 357.293 40.7299 359.546 40.644 361.799L40.6172 362.513C40.4348 367.166 40.2577 371.98 40.7245 376.719C41.0089 378.522 41.3952 380.06 41.8996 381.539C42.1356 381.983 42.3825 382.422 42.6454 382.828L43.08 383.294C43.2302 383.38 43.3751 383.472 43.5253 383.548C43.8526 383.656 44.196 383.743 44.5072 383.808L44.8989 383.83L45.4676 383.889L45.4033 365.855L45.312 341.463C45.312 339.28 46.1705 337.206 47.7265 335.614C49.3147 334.027 51.3697 333.139 53.5321 333.139C57.9855 333.133 61.7628 336.935 61.7789 341.441L61.8272 354.417C61.8379 354.525 61.8379 354.645 61.8379 354.764V372.792C62.6964 372.857 63.5549 372.89 64.4027 372.89C65.009 372.89 65.6206 372.868 66.2269 372.825C66.7903 372.728 67.3591 372.587 67.9171 372.408C68.0834 372.321 68.2498 372.218 68.3893 372.121L68.6253 371.904C68.7702 371.655 68.9204 371.401 69.0546 371.141C69.3175 370.269 69.5536 369.332 69.7521 368.281C70.1492 364.035 69.9453 359.697 69.736 355.451L69.6448 353.588C69.5536 351.552 70.337 349.559 71.8286 347.972C73.449 346.261 75.6488 345.27 77.8702 345.264C82.3397 345.259 85.8863 348.823 86.117 353.567L86.219 355.852C86.616 363.705 87.0184 371.839 83.5577 378.939L83.5523 378.918ZM92.2874 419.145C89.2076 419.145 86.7072 416.633 86.7019 413.524C86.7019 410.415 89.1915 407.892 92.2713 407.886C95.3511 407.886 97.8515 410.399 97.8568 413.508C97.8568 416.616 95.3672 419.14 92.2874 419.145ZM99.8153 403.895C96.7354 403.895 94.2351 401.382 94.2297 398.273C94.2297 395.165 96.7194 392.641 99.7992 392.636C102.879 392.636 105.379 395.148 105.385 398.257C105.385 401.366 102.895 403.889 99.8153 403.895ZM132.529 406.386C129.449 406.386 126.949 403.873 126.943 400.765C126.943 397.656 129.433 395.132 132.513 395.127C135.593 395.127 138.093 397.64 138.098 400.748C138.098 403.857 135.609 406.381 132.529 406.386ZM142.616 421.61C139.536 421.61 137.036 419.097 137.031 415.988C137.031 412.879 139.52 410.356 142.6 410.35C145.68 410.35 148.18 412.863 148.186 415.972C148.186 419.08 145.696 421.604 142.616 421.61ZM157.731 434.288C154.651 434.288 152.151 431.775 152.145 428.666C152.145 425.558 154.635 423.034 157.715 423.029C160.795 423.029 163.295 425.541 163.3 428.65C163.3 431.759 160.811 434.282 157.731 434.288ZM177.868 439.335C174.788 439.335 172.288 436.822 172.282 433.714C172.282 430.605 174.772 428.081 177.852 428.076C180.932 428.076 183.432 430.589 183.437 433.697C183.437 436.806 180.948 439.33 177.868 439.335ZM197.994 436.768C194.914 436.768 192.414 434.255 192.409 431.147C192.409 428.038 194.898 425.514 197.978 425.509C201.058 425.509 203.558 428.022 203.563 431.13C203.563 434.239 201.074 436.763 197.994 436.768ZM200.43 387.902C197.178 389.446 193.584 390.204 189.425 390.209C188.62 390.209 187.816 390.182 187.07 390.074L187.172 415.371C187.172 417.553 186.313 419.627 184.752 421.22C183.164 422.812 181.109 423.695 178.941 423.7C174.488 423.705 170.71 419.904 170.694 415.398V401.133H170.179C168.585 401.133 167.105 400.981 165.656 400.683C163.011 400.093 160.634 399.021 158.772 397.596C155.96 395.398 154.179 393.388 153.004 391.07C151.732 388.563 150.922 386.451 150.461 384.447C148.797 377.331 149.055 370.095 149.291 363.104L149.318 362.319C149.382 360.158 149.457 357.991 149.452 355.814C149.468 351.233 153.154 347.496 157.677 347.485C159.818 347.485 161.932 348.395 163.499 349.965C165.066 351.552 165.935 353.61 165.924 355.787C165.908 358.219 165.811 360.65 165.72 363.077L165.699 363.353C165.527 367.978 165.339 372.749 165.817 377.439C166.107 379.232 166.493 380.813 166.992 382.259C167.217 382.714 167.464 383.147 167.743 383.553L168.178 384.019C168.317 384.106 168.462 384.198 168.612 384.279C168.945 384.388 169.283 384.474 169.605 384.534L170.002 384.555L170.571 384.615L170.506 366.581L170.41 342.183C170.41 340 171.268 337.926 172.83 336.339C174.418 334.753 176.473 333.864 178.635 333.859C183.094 333.854 186.877 337.655 186.893 342.161L186.941 355.126L186.952 355.484V373.518C187.816 373.578 188.658 373.605 189.511 373.605C190.123 373.605 190.729 373.583 191.33 373.545C191.899 373.448 192.468 373.307 193.031 373.128L193.503 372.836L193.739 372.619C193.889 372.37 194.034 372.116 194.163 371.856C194.458 370.913 194.689 369.949 194.855 368.996C195.263 364.75 195.059 360.407 194.844 356.15L194.753 354.303C194.662 352.272 195.445 350.279 196.937 348.687C198.557 346.976 200.757 345.979 202.979 345.979C207.448 345.974 210.995 349.537 211.225 354.282L211.327 356.567C211.724 364.425 212.127 372.56 208.666 379.654C206.912 383.266 203.907 386.278 200.435 387.908L200.43 387.902ZM215.588 424.041C212.508 424.041 210.008 421.528 210.002 418.42C210.002 415.311 212.492 412.787 215.572 412.782C218.651 412.782 221.152 415.295 221.157 418.404C221.157 421.512 218.667 424.036 215.588 424.041ZM225.627 406.251C222.547 406.251 220.046 403.738 220.041 400.629C220.041 397.521 222.531 394.997 225.611 394.991C228.69 394.991 231.191 397.504 231.196 400.613C231.196 403.722 228.706 406.245 225.627 406.251ZM255.266 400.608C255.266 397.499 257.756 394.975 260.835 394.97C263.915 394.97 266.415 397.483 266.421 400.591C266.421 403.7 263.931 406.224 260.851 406.229C257.772 406.229 255.271 403.716 255.266 400.608ZM268.428 423.965C265.348 423.965 262.847 421.453 262.842 418.344C262.842 415.235 265.332 412.712 268.411 412.706C271.491 412.706 273.992 415.219 273.997 418.328C273.997 421.436 271.507 423.96 268.428 423.965ZM286.059 436.638C282.979 436.638 280.479 434.125 280.473 431.017C280.473 427.908 282.963 425.384 286.043 425.379C289.122 425.379 291.623 427.892 291.628 431C291.628 434.109 289.139 436.633 286.059 436.638ZM306.19 439.146C303.11 439.146 300.61 436.633 300.605 433.524C300.605 430.416 303.094 427.892 306.174 427.886C309.254 427.886 311.754 430.399 311.76 433.508C311.76 436.616 309.27 439.14 306.19 439.146ZM327.862 430.74C324.782 430.74 322.282 428.228 322.276 425.119C322.276 422.01 324.766 419.487 327.846 419.481C330.925 419.481 333.426 421.994 333.431 425.103C333.431 428.211 330.942 430.735 327.862 430.74ZM331.575 379.291C329.82 382.904 326.815 385.915 323.339 387.545C320.087 389.088 316.492 389.847 312.334 389.852C311.529 389.852 310.724 389.825 309.978 389.717L310.08 415.002C310.08 417.185 309.222 419.259 307.66 420.851C306.072 422.438 304.017 423.326 301.855 423.332C297.402 423.337 293.624 419.535 293.608 415.03V400.765H293.109C291.516 400.765 290.029 400.608 288.586 400.315C285.941 399.725 283.564 398.658 281.702 397.228C278.896 395.051 277.114 393.042 275.934 390.697C274.662 388.189 273.852 386.077 273.391 384.073C271.727 376.952 271.985 369.722 272.216 362.725L272.242 361.939C272.312 359.773 272.387 357.612 272.382 355.435C272.398 350.853 276.084 347.117 280.607 347.111C282.754 347.111 284.868 348.021 286.429 349.592C287.996 351.178 288.865 353.236 288.854 355.414C288.838 357.861 288.742 360.304 288.65 362.741C288.463 367.426 288.264 372.256 288.742 377.076C289.026 378.869 289.423 380.45 289.927 381.896C290.153 382.34 290.399 382.779 290.668 383.185L290.893 383.423L291.102 383.662L291.542 383.916C291.875 384.014 292.213 384.106 292.524 384.165L293.013 384.193L293.485 384.241L293.42 366.223L293.329 341.809C293.329 339.627 294.188 337.553 295.749 335.96C297.337 334.374 299.392 333.485 301.554 333.485C306.008 333.48 309.785 337.282 309.807 341.788L309.855 354.764C309.866 354.883 309.866 354.991 309.866 355.11L309.876 373.145C310.713 373.204 311.54 373.242 312.361 373.242C312.988 373.242 313.627 373.22 314.26 373.166C314.829 373.069 315.387 372.928 315.95 372.749C316.117 372.663 316.283 372.56 316.422 372.462L316.658 372.245C316.814 371.996 316.954 371.742 317.088 371.482C317.372 370.577 317.597 369.646 317.78 368.622C318.188 364.425 317.984 360.12 317.769 355.906L317.667 353.946C317.576 351.91 318.359 349.917 319.851 348.33C321.471 346.618 323.671 345.627 325.893 345.622C330.367 345.617 333.909 349.18 334.145 353.924L334.247 356.204C334.638 364.062 335.046 372.197 331.585 379.291H331.575ZM343.357 415.679C340.278 415.679 337.777 413.167 337.772 410.058C337.772 406.949 340.262 404.426 343.341 404.42C346.421 404.42 348.922 406.933 348.927 410.042C348.927 413.15 346.437 415.674 343.357 415.679ZM348.905 393.367C345.826 393.367 343.325 390.854 343.32 387.745C343.32 384.637 345.81 382.113 348.889 382.107C351.969 382.107 354.47 384.62 354.475 387.729C354.475 390.838 351.985 393.361 348.905 393.367ZM348.868 367.973C345.788 367.973 343.288 365.46 343.282 362.351C343.282 359.242 345.772 356.719 348.852 356.713C351.932 356.713 354.432 359.226 354.437 362.335C354.437 365.443 351.948 367.967 348.868 367.973ZM348.83 342.578C345.75 342.578 343.25 340.065 343.245 336.957C343.245 333.848 345.734 331.324 348.814 331.319C351.894 331.319 354.394 333.832 354.4 336.941C354.4 340.049 351.91 342.573 348.83 342.578ZM348.793 317.184C345.713 317.184 343.213 314.671 343.207 311.563C343.207 308.454 345.697 305.93 348.777 305.925C351.856 305.925 354.357 308.438 354.362 311.546C354.362 314.655 351.873 317.179 348.793 317.184ZM348.755 291.79C345.675 291.79 343.175 289.277 343.17 286.168C343.17 283.06 345.659 280.536 348.739 280.531C351.819 280.531 354.319 283.044 354.325 286.152C354.325 289.261 351.835 291.784 348.755 291.79ZM348.718 266.396C345.638 266.396 343.137 263.883 343.132 260.774C343.132 257.666 345.622 255.142 348.702 255.136C351.781 255.136 354.282 257.649 354.287 260.758C354.287 263.867 351.797 266.39 348.718 266.396ZM348.68 241.001C345.6 241.001 343.1 238.489 343.095 235.38C343.095 232.271 345.584 229.748 348.664 229.742C351.744 229.742 354.244 232.255 354.249 235.364C354.249 238.472 351.76 240.996 348.68 241.001ZM348.643 215.607C345.563 215.607 343.062 213.094 343.057 209.986C343.057 206.877 345.547 204.353 348.626 204.348C351.706 204.348 354.207 206.861 354.212 209.969C354.212 213.078 351.722 215.602 348.643 215.607ZM348.605 190.213C345.525 190.213 343.025 187.7 343.019 184.592C343.019 181.483 345.509 178.959 348.589 178.954C351.669 178.954 354.169 181.467 354.174 184.575C354.174 187.684 351.685 190.208 348.605 190.213ZM348.567 164.819C345.488 164.819 342.987 162.306 342.982 159.197C342.982 156.089 345.471 153.565 348.551 153.56C351.631 153.56 354.131 156.072 354.137 159.181C354.137 162.29 351.647 164.813 348.567 164.819ZM348.53 139.425C345.45 139.425 342.95 136.912 342.944 133.803C342.944 130.695 345.434 128.171 348.514 128.165C351.594 128.165 354.094 130.678 354.099 133.787C354.099 136.895 351.61 139.419 348.53 139.425ZM348.492 114.03C345.412 114.03 342.912 111.518 342.907 108.409C342.907 105.3 345.396 102.777 348.476 102.771C351.556 102.771 354.056 105.284 354.062 108.393C354.062 111.501 351.572 114.025 348.492 114.03ZM348.455 88.6362C345.375 88.6362 342.875 86.1233 342.869 83.0147C342.869 79.9061 345.359 77.3824 348.439 77.377C351.518 77.377 354.019 79.8898 354.024 82.9984C354.024 86.1071 351.535 88.6308 348.455 88.6362Z" fill="#DF486B"/>
<rect x="0.99176" width="357.008" height="321" fill="#DF486B"/>
</svg>
