<svg width="361" height="444" viewBox="0 0 361 444" fill="none" xmlns="http://www.w3.org/2000/svg">
<rect x="-0.979492" width="360.979" height="321" fill="#863B74"/>
<path d="M359.661 375.396L359.59 355.535L359.334 295.383L359.148 245.612L358.367 40.3263L358.318 40.2773L-4.72839 40.7991L-4.30232 168.061L-3.91449 268.261L-3.5485 367.662L-3.53758 368.526C-3.5048 377.885 -3.4611 387.152 -3.42287 396.42L-3.41194 396.822C-3.34093 398.105 -3.24807 399.382 -3.12789 400.654C-3.06781 401.148 -2.99679 401.648 -2.92578 402.143C-2.71275 403.687 -2.45055 405.252 -2.12826 406.796C-1.89884 407.649 -1.66942 408.497 -1.40722 409.334L-1.33621 409.579L-1.25427 409.829C-1.01392 410.475 -0.762649 411.133 -0.494988 411.769L-0.320189 412.095L-0.118079 412.503C0.045795 412.829 0.204206 413.15 0.384468 413.476C0.734065 414.052 1.11097 414.628 1.47696 415.204C1.88664 415.84 2.17069 416.258 2.43835 416.699C14.3301 432.135 32.3508 441.011 51.8736 441.06C76.8097 441.022 99.3424 426.357 109.251 403.692L116.817 403.714C126.311 427.357 149.013 442.674 174.626 442.728C200.463 442.69 223.291 427.298 232.785 403.507L244.458 403.529C254.148 426.634 276.703 441.603 301.901 441.658C323.964 441.625 343.957 430.434 355.39 411.72C355.668 411.122 355.969 410.524 356.28 409.937C357.22 407.714 357.902 405.747 358.394 403.91L358.552 403.322C358.842 402.23 359.082 401.121 359.29 400.007L359.394 399.491L359.443 399.192L359.552 398.577L359.639 397.045L359.738 395.403L359.672 375.401L359.661 375.396ZM344.831 48.3053C347.966 48.3053 350.512 50.8273 350.517 53.9471C350.517 57.067 347.983 59.5998 344.847 59.6053C341.712 59.6053 339.166 57.0833 339.161 53.9634C339.161 50.8436 341.695 48.3107 344.831 48.3053ZM342.591 98.0165C341.542 98.0165 340.69 97.174 340.69 96.1304C340.69 95.0977 341.537 94.2498 342.586 94.2444C343.607 94.2444 344.476 95.1086 344.481 96.125C344.481 97.1686 343.634 98.0165 342.591 98.0165ZM337.107 92.6192C337.56 92.9562 337.91 93.3258 338.139 93.7226C338.483 94.2498 338.702 94.7988 338.789 95.3532C338.849 95.7228 338.893 96.0978 338.893 96.4783C338.893 96.6848 338.882 96.8968 338.844 97.1142C338.746 97.723 338.554 98.223 338.227 98.6687C338.085 98.8372 337.954 99.0166 337.784 99.1579C337.593 99.3155 337.385 99.4786 337.172 99.609C336.331 100.125 335.211 100.43 333.764 100.538C333.425 100.56 333.07 100.571 332.715 100.571C331.715 100.571 330.612 100.484 329.274 100.316C328.323 100.185 327.34 100.022 326.258 99.8047L325.958 99.7286L325.597 99.6308C324.658 99.3699 323.718 99.1253 322.779 98.8861C322.107 98.6687 321.424 98.4513 320.747 98.2502L320.375 98.1306L320.004 98.0111L319.654 97.8915C319.283 97.7719 318.911 97.6415 318.54 97.511C318.141 97.3425 317.748 97.174 317.36 96.9947C316.989 96.837 316.672 96.6685 316.437 96.25C317.66 95.6087 318.884 94.9945 320.124 94.3857C321.845 93.6846 323.533 93.1138 325.275 92.6355C327.405 92.0377 329.197 91.6844 330.907 91.5159C331.486 91.4615 331.999 91.4452 332.458 91.4398C332.797 91.4398 333.108 91.4507 333.409 91.467C334.026 91.5159 334.829 91.6137 335.583 91.8692C336.14 92.0377 336.643 92.2877 337.101 92.6138L337.107 92.6192ZM287.551 114.545C287.431 114.056 287.42 113.561 287.491 113.029C287.562 112.529 287.737 112.002 288.038 111.425C288.365 110.719 288.846 110.121 289.278 109.61C289.747 109.061 290.304 108.534 291.075 107.876C292.342 106.822 293.8 105.832 295.832 104.691C297.313 103.832 298.913 103.055 300.716 102.294C302.021 101.843 303.332 101.414 304.654 100.995C304.654 100.984 304.66 100.984 304.66 100.984C304.671 100.984 304.78 101.033 304.791 101.033C304.791 101.044 304.9 101.093 304.889 101.104C304.78 101.462 304.671 101.821 304.534 102.18C304.381 102.588 304.223 102.984 304.064 103.381L303.556 104.43L303.387 104.756C303.272 104.985 303.152 105.213 303.037 105.457C302.699 106.077 302.366 106.702 302.06 107.327C301.563 108.164 301.071 109.001 300.552 109.947L300.252 110.425C299.651 111.322 299.072 112.148 298.493 112.92C297.417 114.317 296.455 115.371 295.488 116.246C294.39 117.192 293.385 117.774 292.418 117.997C292.173 118.067 291.938 118.089 291.517 118.116C291.326 118.116 291.135 118.094 290.954 118.078C290.474 118.002 289.96 117.779 289.463 117.421C289.294 117.295 289.13 117.154 288.972 117.002C288.709 116.736 288.469 116.437 288.251 116.127C287.923 115.681 287.682 115.121 287.551 114.534V114.545ZM287.825 121.405C287.825 122.437 286.978 123.285 285.924 123.291C284.902 123.291 284.034 122.426 284.028 121.41C284.028 120.394 284.897 119.529 285.918 119.524C286.972 119.524 287.825 120.366 287.825 121.405ZM292.418 102.24C292.418 101.223 293.287 100.359 294.308 100.354C295.33 100.354 296.198 101.218 296.204 102.234C296.204 103.251 295.335 104.12 294.314 104.12C293.292 104.12 292.418 103.256 292.418 102.24ZM293.833 151.043C294.161 148.88 294.505 147.146 294.942 145.564C295.434 143.749 296.029 141.972 296.668 140.428C297.296 138.944 297.925 137.667 298.591 136.52C299.29 135.319 299.978 134.281 300.749 133.254C301.049 132.868 301.355 132.487 301.677 132.118C301.688 132.118 301.825 132.324 301.836 132.324L301.868 132.612C301.972 133.59 302.011 134.476 301.994 135.319C301.972 136.216 301.907 137.113 301.797 137.966C301.59 139.33 301.36 140.428 301.071 141.439C300.754 142.575 300.35 143.722 299.886 144.836C299.268 146.271 298.64 147.516 297.968 148.641C297.291 149.777 296.548 150.875 295.772 151.918C294.942 152.946 294.265 153.717 293.516 154.37C293.593 153.196 293.702 152.027 293.833 151.038V151.043ZM301.748 110.311C301.748 109.295 302.617 108.431 303.638 108.425C304.66 108.425 305.534 109.289 305.534 110.306C305.534 111.322 304.665 112.186 303.644 112.192C302.622 112.192 301.754 111.333 301.748 110.311ZM304.966 115.605C305.097 114.659 305.261 113.681 305.479 112.61L305.556 112.311L305.654 111.953C305.916 111.023 306.162 110.077 306.402 109.143C306.621 108.474 306.839 107.811 307.041 107.121L307.282 106.381L307.402 106.034C307.522 105.664 307.653 105.294 307.779 104.941C307.948 104.539 308.118 104.142 308.298 103.756C308.456 103.408 308.626 103.077 308.811 102.751C308.828 102.751 309.041 102.843 309.052 102.843C309.696 104.055 310.319 105.289 310.931 106.523C311.641 108.257 312.225 109.936 312.701 111.648C313.296 113.757 313.651 115.529 313.82 117.252C313.902 118.285 313.913 119.035 313.864 119.741C313.793 120.448 313.717 121.198 313.454 121.905C313.263 122.492 313.017 123.003 312.706 123.421C312.367 123.861 311.996 124.209 311.597 124.448C311.116 124.758 310.548 124.976 309.964 125.09C309.587 125.149 309.205 125.198 308.822 125.198C308.615 125.198 308.402 125.177 308.183 125.149C307.571 125.057 307.041 124.84 306.604 124.514C306.441 124.394 306.282 124.253 306.135 124.084C305.976 123.905 305.812 123.693 305.681 123.486C305.162 122.649 304.856 121.535 304.747 120.095C304.676 118.812 304.747 117.377 304.971 115.616L304.966 115.605ZM328.056 107.827C328.826 108.485 329.388 109.012 329.864 109.556C330.322 110.105 330.798 110.681 331.104 111.366C331.404 111.942 331.584 112.469 331.655 112.969C331.726 113.485 331.715 113.985 331.606 114.485C331.47 115.094 331.218 115.632 330.901 116.062C330.683 116.393 330.443 116.687 330.18 116.958C330.017 117.111 329.858 117.252 329.678 117.377C329.192 117.736 328.678 117.959 328.198 118.035C328.039 118.056 327.864 118.078 327.476 118.078C327.236 118.056 326.985 118.04 326.734 117.959C325.761 117.741 324.762 117.165 323.658 116.219C322.686 115.344 321.725 114.295 320.643 112.898C320.059 112.121 319.479 111.306 318.879 110.409L318.54 109.822C318.059 108.985 317.568 108.148 317.065 107.316C316.754 106.691 316.42 106.061 316.082 105.447C315.973 105.207 315.852 104.979 315.732 104.751L315.557 104.425L315.044 103.376C314.886 102.979 314.722 102.582 314.574 102.174C314.399 101.756 314.312 101.419 314.399 100.99C314.41 100.979 314.421 100.968 314.432 100.968L314.454 100.99C315.776 101.408 317.087 101.832 318.398 102.278C320.201 103.033 321.801 103.805 323.281 104.658C325.313 105.789 326.777 106.773 328.05 107.827H328.056ZM324.346 102.865C324.346 101.848 325.215 100.984 326.237 100.979C327.258 100.979 328.132 101.843 328.132 102.859C328.132 103.876 327.263 104.74 326.242 104.745C325.221 104.745 324.352 103.881 324.346 102.865ZM316.082 108.751C317.12 108.751 317.972 109.594 317.977 110.632C317.977 111.665 317.131 112.512 316.087 112.518C315.066 112.518 314.192 111.654 314.192 110.637C314.192 109.621 315.06 108.757 316.082 108.751ZM314.602 136.363C315.383 134.547 316.355 132.694 317.617 130.683C318.382 129.46 319.184 128.242 319.971 127.036C319.971 127.025 320.009 126.987 320.02 126.987L320.064 127.025C320.375 127.53 320.676 128.047 320.954 128.563C321.73 129.965 322.38 131.308 322.97 132.694C323.904 134.884 324.669 137.102 325.242 139.281C325.794 141.33 326.231 143.472 326.597 145.842C326.701 146.619 326.788 147.396 326.859 148.173C327.072 151.848 326.952 155.511 326.499 159.055C325.57 165.767 323.724 172.442 321.025 178.894C320.157 180.965 319.212 182.948 318.174 184.824C318.054 184.764 318.005 184.699 317.972 184.606L317.77 184.362C317.617 184.041 317.469 183.715 317.338 183.394C316.044 180.329 314.935 177.024 313.968 173.295C313.509 171.551 313.067 169.8 312.662 168.034C312.269 166.121 311.963 164.392 311.756 162.898C311.4 160.261 311.226 157.81 311.226 155.402C311.231 153 311.4 150.521 311.706 148.043C312.034 145.7 312.411 143.689 312.87 141.879C313.132 140.803 313.389 139.727 313.744 138.683C314.022 137.846 314.328 137.031 314.612 136.373L314.602 136.363ZM309.276 126.693C310.297 126.693 311.166 127.557 311.171 128.574C311.171 129.59 310.303 130.454 309.281 130.46C308.26 130.46 307.386 129.601 307.386 128.579C307.386 127.563 308.254 126.699 309.276 126.693ZM334.234 121.421C333.212 121.421 332.338 120.557 332.338 119.54C332.338 118.524 333.207 117.66 334.228 117.654C335.25 117.654 336.118 118.513 336.124 119.535C336.124 120.551 335.255 121.415 334.234 121.421ZM322.817 89.4287C322.817 88.4123 323.686 87.5427 324.707 87.5427C325.729 87.5427 326.597 88.4069 326.603 89.4233C326.603 90.4397 325.734 91.3039 324.712 91.3093C323.691 91.3093 322.817 90.4451 322.817 89.4287ZM333.474 69.6497C334.496 69.6497 335.364 70.5139 335.37 71.5303C335.375 72.5467 334.507 73.4109 333.48 73.4163C332.458 73.4163 331.59 72.5521 331.584 71.5357C331.579 70.5193 332.453 69.6551 333.474 69.6497ZM327.198 73.2424C327.509 73.2424 327.777 73.2805 328.05 73.3511C328.651 73.4924 329.203 73.7262 329.634 74.0523C329.967 74.2697 330.262 74.498 330.535 74.7697C330.683 74.9165 330.825 75.0795 330.956 75.2643C331.317 75.7481 331.535 76.2699 331.617 76.759C331.644 76.9982 331.677 77.2156 331.655 77.4439C331.633 77.6939 331.617 77.9439 331.535 78.1885C331.317 79.1451 330.738 80.1398 329.793 81.2377C328.902 82.2107 327.842 83.1673 326.455 84.2489C325.685 84.8305 324.854 85.3957 323.959 85.9936L323.636 86.1947L323.363 86.3469C322.735 86.6948 322.101 87.0644 321.473 87.434L320.845 87.8036C320.217 88.1242 319.583 88.4449 318.966 88.7928L318.545 89.0048L318.256 89.1135L317.934 89.3146L317.415 89.57L316.885 89.8201L316.136 90.1081L315.678 90.2875C315.432 90.3853 315.159 90.4777 314.847 90.4777C314.727 90.4777 314.618 90.456 314.487 90.4016C314.907 89.0972 315.344 87.7927 315.781 86.4828C316.486 84.7815 317.278 83.1836 318.179 81.6128C319.305 79.6398 320.315 78.1342 321.364 76.8678C322.052 76.0688 322.571 75.5307 323.101 75.085C323.462 74.7752 324.133 74.2045 324.92 73.8349C325.439 73.5577 325.974 73.3892 326.531 73.2859C326.761 73.2587 326.985 73.237 327.203 73.237L327.198 73.2424ZM314.088 79.9007C314.088 78.8843 314.957 78.02 315.978 78.0146C316.999 78.0146 317.868 78.8788 317.874 79.8952C317.874 80.9116 317.01 81.7813 315.983 81.7813C314.962 81.7813 314.093 80.917 314.088 79.9007ZM319.212 48.3488C322.347 48.3488 324.893 50.8707 324.898 53.9906C324.898 57.1105 322.364 59.6433 319.228 59.6487C316.093 59.6487 313.547 57.1268 313.542 54.0069C313.536 50.887 316.076 48.3542 319.212 48.3488ZM309.303 59.6922C310.324 59.6922 311.198 60.5564 311.198 61.5728C311.198 62.5892 310.33 63.4534 309.308 63.4589C308.287 63.4589 307.418 62.6001 307.413 61.5783C307.413 60.5619 308.281 59.6977 309.303 59.6922ZM306.157 67.8017C306.288 67.5897 306.435 67.3832 306.594 67.1929C306.736 67.0462 306.894 66.9157 307.134 66.7255C307.522 66.432 308.025 66.2472 308.647 66.133C308.866 66.095 309.079 66.0841 309.297 66.0841C309.674 66.0841 310.046 66.1222 310.428 66.1928C311.018 66.3015 311.592 66.519 312.072 66.8288C312.46 67.057 312.826 67.394 313.17 67.8506C313.482 68.2691 313.733 68.7529 313.935 69.3616C314.197 70.1062 314.301 70.9052 314.35 71.5194C314.394 72.2586 314.383 73.025 314.306 74.0088C314.17 75.6231 313.82 77.4058 313.203 79.6126C312.788 81.1942 312.209 82.8683 311.461 84.7435C310.892 85.8795 310.253 87.1622 309.352 88.521C309.172 88.1949 308.992 87.8688 308.833 87.5155C308.653 87.1242 308.484 86.7274 308.309 86.3306L308.118 85.7816L307.894 85.0479L307.752 84.7L307.56 84.1456C307.369 83.4662 307.151 82.7977 306.916 82.1346C306.675 81.1888 306.435 80.2539 306.124 79.2158L305.971 78.6451C305.758 77.5906 305.594 76.6069 305.468 75.6666C305.233 73.9273 305.151 72.5032 305.222 71.1879C305.31 69.7856 305.616 68.6659 306.157 67.7908V67.8017ZM304.9 84.6783C304.998 84.6294 305.102 84.5967 305.354 84.5152C305.474 84.4935 305.599 84.4826 305.73 84.4826C305.84 84.4826 305.96 84.4935 306.069 84.5043C306.277 84.5424 306.468 84.613 306.67 84.7435C306.872 84.8739 307.041 85.0207 307.2 85.2001C307.413 85.4392 307.549 85.6947 307.681 85.9719C307.823 86.2436 307.932 86.5317 308.052 86.9176C308.265 87.5644 308.402 88.3036 308.456 89.1461C308.757 89.108 309.057 89.0863 309.358 89.0863C309.68 89.0863 309.986 89.1135 310.303 89.1352L310.849 89.195L310.898 88.7547C310.985 88.3851 311.067 88.0264 311.166 87.6894C311.357 86.972 311.553 86.4121 311.794 85.9556C312.045 85.4175 312.345 85.0479 312.695 84.8087C312.782 84.7489 312.864 84.7 312.963 84.6783L313.236 84.5587C313.323 84.5261 313.416 84.5098 313.514 84.5098C313.646 84.5098 313.777 84.5315 313.924 84.5804L314.175 84.6728C314.328 84.7326 314.459 84.7978 314.585 84.8902C314.793 85.0098 314.978 85.1783 315.126 85.4012C315.235 85.5588 315.317 85.749 315.366 85.9664C315.437 86.1947 315.459 86.423 315.437 86.6622C315.421 86.9285 315.35 87.222 315.219 87.559C315.131 87.8525 315 88.1297 314.798 88.4993C314.481 89.1243 314.061 89.7331 313.4 90.4832C313.613 90.6408 313.815 90.8202 314.001 91.0104L314.203 91.2278C314.454 91.4833 314.711 91.7659 314.995 91.9507C315.743 91.38 316.371 90.9723 316.983 90.6734C317.344 90.4832 317.633 90.3636 317.923 90.2766C318.261 90.1462 318.551 90.0864 318.982 90.0647C319.201 90.0647 319.37 90.0918 319.534 90.1353C319.725 90.1734 319.911 90.2658 320.113 90.3962C320.326 90.5647 320.485 90.7441 320.594 90.9343C320.681 91.0593 320.758 91.2006 320.812 91.3419L320.894 91.5974C320.927 91.7061 320.993 91.9996 320.905 92.2877L320.807 92.554C320.763 92.6519 320.719 92.7443 320.654 92.8367C320.408 93.1736 320.026 93.4563 319.485 93.7009C318.977 93.9509 318.409 94.152 317.737 94.3151L317.027 94.4835L316.513 94.6031L316.224 94.6357L315.814 94.6249C315.956 95.5108 315.896 96.3859 315.617 97.2066L315.951 97.2338C316.841 97.3534 317.568 97.511 318.261 97.7393C318.649 97.8534 318.955 97.973 319.212 98.1143C319.545 98.2719 319.796 98.4296 319.982 98.5981C320.173 98.7666 320.315 98.9351 320.435 99.1362C320.561 99.3427 320.648 99.5438 320.676 99.734C320.709 100 320.687 100.261 320.638 100.452C320.599 100.609 320.55 100.761 320.485 100.908C320.452 100.99 320.414 101.055 320.364 101.136C320.228 101.365 320.075 101.539 319.895 101.626C319.807 101.674 319.725 101.712 319.621 101.756L319.31 101.843C319.212 101.854 319.108 101.865 318.999 101.865C318.66 101.865 318.278 101.783 317.857 101.626C317.355 101.446 316.825 101.196 316.191 100.832C315.858 100.636 315.514 100.413 315.148 100.18C315.137 100.18 315.126 100.18 314.896 100L314.476 99.6036C314.317 99.8047 314.137 100 313.946 100.191C313.607 100.528 313.225 100.821 312.864 100.979L313.269 101.473C313.809 102.158 314.208 102.789 314.552 103.446C314.743 103.811 314.864 104.104 314.951 104.392C315.011 104.55 315.12 104.881 315.164 105.289C315.175 105.588 315.142 105.8 315.099 105.979C315.06 106.18 314.967 106.376 314.836 106.566C314.683 106.773 314.498 106.947 314.296 107.055C314.148 107.153 314.017 107.224 313.886 107.267C313.799 107.311 313.717 107.327 313.624 107.349C313.504 107.392 313.383 107.409 313.236 107.409C313.116 107.409 313.028 107.387 312.946 107.371C312.875 107.36 312.755 107.333 312.662 107.273L312.384 107.115C312.045 106.86 311.761 106.49 311.51 105.952C311.269 105.468 311.067 104.919 310.898 104.224L310.608 103.001L310.576 102.723L310.532 101.984C310.144 102.055 309.751 102.088 309.352 102.088C308.882 102.088 308.5 102.039 308.21 101.93L308.15 102.479C308.03 103.354 307.861 104.115 307.653 104.783C307.522 105.18 307.407 105.468 307.265 105.74C307.205 105.865 307.047 106.186 306.779 106.506C306.615 106.686 306.441 106.838 306.238 106.947C306.08 107.055 305.878 107.137 305.638 107.186C305.539 107.197 305.435 107.208 305.337 107.208C305.168 107.208 305.037 107.186 304.906 107.148C304.753 107.11 304.605 107.072 304.463 107.012C304.376 106.974 304.305 106.93 304.223 106.881C304.086 106.811 303.873 106.642 303.731 106.414C303.682 106.354 303.644 106.267 303.611 106.159L303.513 105.838C303.453 105.43 303.524 104.974 303.731 104.403C303.901 103.897 304.157 103.37 304.529 102.751C304.736 102.414 304.955 102.06 305.195 101.696L305.375 101.457L305.785 101.039C305.392 100.788 305.031 100.49 304.714 100.185C304.507 99.9786 304.343 99.7775 304.261 99.5873L303.851 99.9134C303.851 99.9134 303.611 100.076 303.6 100.076C303.234 100.326 302.879 100.538 302.54 100.734C301.89 101.115 301.36 101.365 300.869 101.511C300.437 101.664 300.066 101.734 299.738 101.734C299.629 101.734 299.52 101.723 299.41 101.707L299.11 101.62C299.012 101.587 298.93 101.539 298.853 101.49C298.673 101.392 298.515 101.218 298.4 100.984L298.258 100.767C298.198 100.615 298.159 100.468 298.127 100.316C298.067 100.076 298.056 99.8373 298.099 99.5873C298.149 99.3699 298.225 99.1688 298.334 99.0003C298.438 98.81 298.586 98.6415 298.782 98.4622C299.023 98.2502 299.285 98.1143 299.563 97.9839C299.831 97.8426 300.131 97.7339 300.525 97.6143C301.208 97.3914 301.956 97.261 303.027 97.1903C302.808 96.3152 302.775 95.4565 302.956 94.6738L302.606 94.6031L302.087 94.5325C301.748 94.4564 301.421 94.3857 301.098 94.2933C300.388 94.0976 299.836 93.8965 299.356 93.6683C298.826 93.4128 298.444 93.1193 298.203 92.7769L298.039 92.5051L297.952 92.2279C297.87 91.9181 297.941 91.63 297.963 91.5485C297.974 91.467 298.001 91.38 298.061 91.293C298.121 91.1408 298.192 91.0104 298.28 90.8854C298.378 90.6951 298.547 90.5158 298.766 90.3582C298.93 90.2386 299.115 90.1571 299.345 90.1081C299.503 90.0592 299.656 90.0375 300.055 90.0375C300.426 90.0864 300.749 90.1842 300.956 90.2549C301.235 90.3582 301.524 90.4723 301.896 90.6734C302.546 91.0104 303.169 91.4343 303.879 92.0703C304.119 91.7007 304.419 91.3419 304.747 91.005C305.059 90.706 305.386 90.4397 305.709 90.2549C305.709 90.2549 305.539 90.0483 305.55 90.0266C305.299 89.657 305.086 89.3091 304.889 88.9722C304.507 88.3254 304.267 87.809 304.103 87.3035C303.911 86.7437 303.851 86.2871 303.911 85.8632H303.944L304.004 85.5534L304.135 85.2925C304.234 85.1131 304.403 84.9555 304.633 84.825L304.873 84.7163L304.9 84.6783ZM302.508 77.0471C303.529 77.0471 304.403 77.9059 304.403 78.9277C304.403 79.9441 303.535 80.8083 302.513 80.8138C301.492 80.8138 300.623 79.9496 300.618 78.9332C300.618 77.9168 301.486 77.0526 302.508 77.0471ZM293.604 48.3868C296.739 48.3868 299.285 50.9088 299.29 54.0286C299.29 57.1485 296.756 59.6814 293.62 59.6868C290.485 59.6868 287.939 57.1648 287.934 54.0449C287.934 50.9251 290.468 48.3922 293.604 48.3868ZM287.431 76.808C287.508 76.3297 287.732 75.8187 288.087 75.3241C288.218 75.1448 288.36 74.9871 288.507 74.835C288.775 74.5632 289.075 74.3349 289.387 74.1175C289.846 73.7859 290.397 73.5414 290.987 73.4109C291.239 73.3402 291.517 73.3022 291.828 73.3022C292.058 73.3022 292.282 73.3239 292.511 73.3511C293.074 73.4544 293.604 73.6175 294.123 73.8946C294.833 74.2316 295.445 74.7099 295.947 75.1393C296.477 75.585 297.001 76.1231 297.69 76.9167C298.744 78.1777 299.755 79.6832 300.891 81.6508C301.792 83.2216 302.584 84.8142 303.3 86.5154C303.742 87.7981 304.185 89.1243 304.496 90.668C304.135 90.5593 303.775 90.4506 303.414 90.3255L302.956 90.1462L302.202 89.8581L301.781 89.6624L301.158 89.3363L300.82 89.1787L300.541 89.0537L300.121 88.8471C299.498 88.4993 298.87 88.1786 298.241 87.8634L297.608 87.4938C296.98 87.1296 296.346 86.76 295.718 86.4121L295.45 86.2599L295.128 86.0643C294.227 85.4664 293.413 84.9011 292.621 84.325C291.228 83.2488 290.168 82.2976 289.272 81.3247C288.332 80.2702 287.759 79.2756 287.519 78.2809C287.437 78.0363 287.42 77.7863 287.398 77.5363C287.388 77.3189 287.409 77.096 287.437 76.8297L287.431 76.808ZM295.122 88.6732C295.122 89.6896 294.254 90.5538 293.232 90.5593C292.211 90.5593 291.342 89.7005 291.337 88.6786C291.337 87.6623 292.205 86.798 293.227 86.7926C294.248 86.7926 295.122 87.6568 295.122 88.6732ZM285.366 68.8018C286.388 68.8018 287.256 69.666 287.262 70.6824C287.262 71.6988 286.393 72.563 285.372 72.5684C284.35 72.5684 283.482 71.7042 283.476 70.6878C283.476 69.6714 284.339 68.8018 285.366 68.8018ZM279.609 94.8858C279.685 94.3368 279.909 93.7715 280.248 93.2606C280.499 92.8421 280.838 92.4834 281.275 92.1518C281.696 91.842 282.187 91.5974 282.794 91.3963C283.542 91.1354 284.345 91.0321 284.968 90.9832C285.246 90.9669 285.547 90.956 285.858 90.956C286.339 90.956 286.858 90.9832 287.464 91.0321C289.108 91.168 290.889 91.5159 293.101 92.1301C294.691 92.5431 296.373 93.1193 298.252 93.8639C299.394 94.4292 300.689 95.0651 302.049 95.9565C301.721 96.1359 301.377 96.3152 301.038 96.4783C300.639 96.6577 300.252 96.8262 299.847 97.0001L299.367 97.1686L298.749 97.3806L298.389 97.4893C298.143 97.5708 297.897 97.6523 297.651 97.7393C296.969 97.9295 296.302 98.1469 295.619 98.3807C294.68 98.6198 293.74 98.859 292.692 99.1905C292.511 99.2231 292.331 99.2503 292.14 99.321C291.069 99.5329 290.081 99.6906 289.13 99.821C287.792 100.006 286.65 100.093 285.64 100.098C285.301 100.098 284.957 100.087 284.64 100.071C283.231 99.9841 282.111 99.6797 281.226 99.1416C281.018 99.0111 280.805 98.8644 280.614 98.7013C280.434 98.5328 280.281 98.3426 280.144 98.1632C279.855 97.7773 279.664 97.2773 279.554 96.6631C279.511 96.4457 279.5 96.2337 279.5 96.0163C279.5 95.6413 279.538 95.2717 279.609 94.8912V94.8858ZM276.861 95.6847C276.861 96.7283 276.015 97.5762 274.971 97.5762C273.928 97.5762 273.076 96.7338 273.076 95.6902C273.076 94.6738 273.944 93.8096 274.966 93.8041C275.987 93.8041 276.856 94.6683 276.861 95.6847ZM267.985 48.4194C271.12 48.4194 273.666 50.9414 273.671 54.0613C273.671 57.1811 271.137 59.714 268.001 59.7194C264.866 59.7194 262.32 57.1974 262.315 54.0776C262.315 50.9577 264.849 48.4249 267.985 48.4194ZM242.371 48.4575C245.507 48.4575 248.052 50.9794 248.058 54.0993C248.058 57.2192 245.523 59.752 242.388 59.7574C239.252 59.7574 236.707 57.2355 236.701 54.1156C236.701 50.9957 239.236 48.4629 242.371 48.4575ZM241.301 69.7801C242.038 69.7475 242.781 69.7366 243.524 69.7366C245.698 69.7366 248.036 69.8508 250.297 70.0573C253.853 70.4215 257.333 71.0248 260.649 71.8564C263.91 72.6554 267.264 73.7098 270.656 74.998C272.076 75.5415 273.486 76.1177 274.889 76.8134C273.939 77.4602 272.972 78.1016 271.978 78.7103C270.94 79.3299 269.869 79.9007 268.777 80.4387C266.608 81.5258 264.259 82.4661 261.588 83.3086C259.294 84.0369 256.798 84.6511 253.935 85.162C251.253 85.6131 248.522 85.9067 245.84 86.0099C245.13 86.0425 244.42 86.0534 243.71 86.0534C239.007 86.0588 234.424 85.4664 230.081 84.2869C227.661 83.6456 225.236 82.7324 222.876 81.591C220.664 80.5094 218.55 79.1506 216.583 77.5689C216.447 77.4602 216.37 77.2863 216.37 76.971C217.102 76.4166 217.85 75.9111 218.582 75.4926C219.413 75.0143 220.248 74.5632 221.243 74.1066C224.58 72.5902 228.409 71.4705 232.943 70.6552C235.784 70.1823 238.597 69.8888 241.295 69.7856L241.301 69.7801ZM216.752 48.4901C219.888 48.4901 222.433 51.0121 222.439 54.1319C222.439 57.2518 219.904 59.7846 216.769 59.7901C213.633 59.7901 211.088 57.2681 211.082 54.1482C211.082 51.0284 213.617 48.4955 216.752 48.4901ZM191.139 48.5281C194.274 48.5281 196.82 51.0501 196.825 54.17C196.825 57.2898 194.291 59.8227 191.155 59.8281C188.02 59.8281 185.474 57.3061 185.469 54.1863C185.469 51.0664 188.004 48.5336 191.139 48.5281ZM165.526 48.5662C168.661 48.5662 171.206 51.0881 171.212 54.208C171.212 57.3279 168.677 59.8607 165.542 59.8661C162.406 59.8661 159.861 57.3442 159.855 54.2243C159.855 51.1045 162.39 48.5716 165.526 48.5662ZM139.912 48.6042C143.048 48.6042 145.593 51.1262 145.598 54.2461C145.598 57.3659 143.064 59.8988 139.928 59.9042C136.793 59.9042 134.247 57.3822 134.242 54.2624C134.242 51.1425 136.777 48.6097 139.912 48.6042ZM114.299 48.6423C117.434 48.6423 119.98 51.1642 119.985 54.2841C119.99 57.404 117.45 59.9368 114.315 59.9422C111.18 59.9422 108.634 57.4203 108.629 54.3004C108.629 51.1805 111.163 48.6477 114.299 48.6423ZM88.6851 48.6803C91.8206 48.6803 94.3661 51.2023 94.3715 54.3221C94.3715 57.442 91.8369 59.9749 88.7015 59.9803C85.566 59.9803 83.0205 57.4583 83.0151 54.3385C83.0151 51.2186 85.5497 48.6857 88.6851 48.6803ZM82.6709 76.2046C86.0413 74.9274 89.4225 73.8566 92.7109 73.025C95.9502 72.2043 99.4735 71.5846 102.888 71.2096C105.318 70.9868 107.651 70.8618 109.819 70.8618C110.562 70.8618 111.3 70.8672 112.048 70.8998C114.719 70.9976 117.483 71.2694 120.493 71.764C124.956 72.5413 128.801 73.6718 132.226 75.21C133.106 75.6176 133.947 76.0633 134.777 76.5416C135.597 77.0091 136.29 77.4928 137.011 78.1287C136.979 78.3462 136.913 78.5038 136.782 78.607C134.827 80.1942 132.713 81.5584 130.506 82.6509C128.146 83.7978 125.726 84.7218 123.306 85.3686C118.964 86.5589 114.381 87.1622 109.677 87.1676C108.967 87.1676 108.257 87.1568 107.547 87.1296C104.865 87.0318 102.134 86.7491 99.4516 86.3034C96.5893 85.7979 94.0875 85.1946 91.7933 84.4717C89.1221 83.6401 86.7678 82.7053 84.5937 81.6236C83.5012 81.0855 82.4306 80.5257 81.3873 79.9061C80.3876 79.2973 79.4153 78.6614 78.4594 77.9385C79.8578 77.3189 81.278 76.7373 82.66 76.1992L82.6709 76.2046ZM80.2729 93.2552C81.2944 93.2552 82.1629 94.1194 82.1684 95.1358C82.1684 96.1522 81.2999 97.0164 80.2784 97.0218C79.2569 97.0218 78.3884 96.1631 78.3829 95.1412C78.3829 94.1248 79.246 93.2606 80.2729 93.2552ZM73.9583 91.6191C74.4281 91.967 74.7668 92.3149 74.9907 92.7116C75.3239 93.2063 75.5424 93.777 75.6462 94.3422C75.7063 94.7173 75.7446 95.0869 75.75 95.4673C75.75 95.6847 75.7391 95.8967 75.7009 96.1141C75.6626 96.3805 75.5206 97.0707 75.1109 97.6197C74.9743 97.7991 74.8214 97.9893 74.6411 98.1578C74.45 98.3154 74.2369 98.4676 74.0293 98.5981C73.1499 99.1362 72.041 99.446 70.6208 99.5275C70.2821 99.5492 69.9325 99.5601 69.572 99.5601C68.5723 99.5601 67.4689 99.4731 66.1306 99.3047C65.1802 99.1742 64.2024 99.022 63.1208 98.7937L62.4598 98.6144C61.5203 98.3535 60.5808 98.1089 59.6358 97.8806C58.9693 97.6523 58.2865 97.4349 57.6037 97.2447C57.3525 97.1523 57.1121 97.0762 56.8608 96.9947L56.5112 96.8859L55.9595 96.6957L55.3969 96.5055L54.6977 96.2065L54.217 95.9891C53.9166 95.8641 53.6325 95.7119 53.343 95.5543L53.3539 95.5326L53.2938 95.2336C54.512 94.6031 55.741 93.9835 56.981 93.3639C58.8601 92.6138 60.5425 92.0377 62.1321 91.6137C64.3499 90.9941 66.1415 90.6462 67.7639 90.4995C68.3757 90.4451 68.9055 90.4179 69.3972 90.4179C69.6976 90.4179 69.9871 90.4288 70.2657 90.4451C70.883 90.494 71.6859 90.5919 72.4343 90.8473C73.0461 91.0484 73.5377 91.293 73.9583 91.6028V91.6191ZM27.2215 107.43C28.4779 106.376 29.991 105.365 31.9793 104.245C33.4979 103.387 35.0984 102.598 36.8628 101.838C38.1738 101.397 39.4793 100.968 40.8012 100.549C40.8012 100.538 40.8121 100.538 40.8121 100.538C40.8231 100.538 40.9323 100.587 40.9378 100.587C40.9378 100.598 41.047 100.647 41.0415 100.658C40.9323 101.017 40.823 101.376 40.6209 101.892C40.4953 102.24 40.3642 102.593 40.2113 102.935L39.7032 103.979C39.6541 104.088 39.594 104.196 39.5339 104.311L39.3045 104.767L39.1843 105.006C38.8456 105.626 38.5234 106.251 38.2065 106.876C37.7094 107.713 37.2178 108.55 36.6989 109.496L36.3985 109.974C35.7976 110.871 35.2186 111.697 34.6395 112.469C33.5689 113.86 32.613 114.931 31.6297 115.795C30.5372 116.741 29.5376 117.312 28.5598 117.562C28.3086 117.611 28.0573 117.643 27.6585 117.665C27.4673 117.665 27.2871 117.643 27.1068 117.616C26.3639 117.507 25.7849 117.089 25.6374 116.958C25.4681 116.85 25.3042 116.719 25.1185 116.54C24.8563 116.285 24.6159 115.986 24.3974 115.676C24.0642 115.23 23.8239 114.67 23.6928 114.078C23.5726 113.61 23.5617 113.099 23.6327 112.572C23.731 112.012 23.9004 111.485 24.1789 110.969C24.5176 110.262 24.9983 109.653 25.4135 109.153C25.8832 108.604 26.4404 108.077 27.2106 107.42L27.2215 107.43ZM27.1341 102.463C27.1341 101.446 28.0027 100.582 29.0241 100.577C30.0456 100.577 30.9142 101.435 30.9196 102.457C30.9196 103.474 30.0565 104.338 29.0296 104.343C28.0081 104.343 27.1396 103.479 27.1341 102.463ZM40.9815 169.349C40.5827 171.121 40.1457 172.877 39.6869 174.616C38.7637 178.231 37.6275 181.671 36.322 184.807L36.1417 185.199L35.9232 185.693L35.743 185.943C35.6938 186.03 35.6337 186.101 35.4644 186.144C34.4593 184.253 33.5088 182.264 32.7168 180.394C29.9528 173.85 28.0737 167.148 27.1232 160.468C26.6589 156.881 26.5223 153.201 26.7244 149.538C26.7955 148.76 26.8829 147.983 26.9812 147.266C27.3308 144.885 27.7623 142.716 28.3086 140.64C28.8767 138.471 29.6359 136.248 30.5482 134.058C31.1545 132.634 31.8155 131.27 32.5638 129.911C32.8424 129.384 33.1428 128.873 33.4433 128.378C33.4433 128.367 33.4815 128.329 33.4924 128.329L33.5307 128.367L33.8147 128.786C34.5248 129.862 35.224 130.927 35.9123 132.02C37.1468 133.993 38.141 135.841 38.8839 137.531C39.228 138.346 39.5394 139.162 39.818 139.999C40.1785 141.042 40.4407 142.118 40.7029 143.195C41.1563 144.983 41.5386 146.978 41.8828 149.299C42.1941 151.837 42.3744 154.332 42.3853 156.712C42.3853 159.071 42.2214 161.533 41.9046 164.039C41.6588 165.811 41.342 167.583 40.9815 169.349ZM39.2062 112.083C38.1847 112.083 37.3162 111.219 37.3107 110.202C37.3107 109.186 38.1738 108.322 39.2007 108.316C40.2222 108.316 41.0907 109.175 41.0962 110.197C41.0962 111.213 40.2276 112.078 39.2062 112.083ZM21.0872 121.04C20.0657 121.04 19.1917 120.176 19.1917 119.16C19.1917 118.143 20.0602 117.279 21.0817 117.274C22.1305 117.274 22.9827 118.116 22.9827 119.154C22.9827 120.187 22.136 121.035 21.0872 121.04ZM44.177 128.128C44.177 127.112 45.0455 126.247 46.067 126.242C47.0885 126.242 47.957 127.106 47.9625 128.123C47.9625 129.139 47.094 130.003 46.0725 130.009C45.051 130.009 44.177 129.144 44.177 128.128ZM48.6617 124.09C48.2738 124.378 47.7658 124.579 47.1431 124.687C46.9246 124.72 46.7116 124.742 46.504 124.742C46.1216 124.742 45.7447 124.693 45.3733 124.633C44.8216 124.535 44.2535 124.329 43.7345 123.997C43.3194 123.747 42.9534 123.399 42.6202 122.975C42.3198 122.568 42.0794 122.089 41.8664 121.464C41.5987 120.698 41.5004 119.904 41.4512 119.296C41.3966 118.6 41.4185 117.855 41.484 116.806C41.6424 115.159 41.992 113.382 42.5983 111.208C43.0353 109.566 43.6034 107.892 44.3409 106.072L44.838 105.066C45.2476 104.24 45.7174 103.316 46.3838 102.278H46.4057L46.3838 102.267C46.3948 102.267 46.4439 102.294 46.4439 102.294C46.6242 102.631 46.7935 102.963 46.9574 103.31L47.2797 104.006L47.4927 104.495L47.8751 105.588C47.9079 105.707 47.9461 105.827 47.9843 105.936L48.2247 106.669C48.4268 107.349 48.6453 108.023 48.8693 108.691C49.1096 109.626 49.3663 110.572 49.6668 111.61L49.8143 112.175C50.0273 113.23 50.1966 114.208 50.3332 115.154C50.5626 116.915 50.6391 118.35 50.5681 119.633C50.4588 121.073 50.1639 122.193 49.6449 123.03C49.5138 123.236 49.3663 123.448 49.2079 123.628C49.0386 123.807 48.8474 123.959 48.6671 124.095L48.6617 124.09ZM49.7542 109.849C49.7542 108.833 50.6227 107.969 51.6442 107.963C52.6657 107.963 53.5397 108.827 53.5397 109.844C53.5397 110.86 52.6711 111.724 51.6496 111.73C50.6282 111.73 49.7596 110.871 49.7542 109.849ZM51.6606 133.9L51.7807 133.411L51.8026 133.422L51.7807 133.4H51.7917C51.7917 133.4 51.8354 133.411 51.8408 133.411C52.1631 133.781 52.4799 134.156 52.8514 134.634C53.567 135.591 54.2552 136.623 54.949 137.808C55.6099 138.923 56.2436 140.184 56.8226 141.559C57.5163 143.233 58.1281 145.01 58.6197 146.847C59.0513 148.418 59.4173 150.152 59.7177 152.152C59.8488 153.168 59.9799 154.381 59.9635 155.696C59.2097 154.902 58.4886 154.065 57.8058 153.212C57.0247 152.168 56.2818 151.076 55.599 149.94C54.9271 148.826 54.3044 147.592 53.6708 146.146C53.1955 145.01 52.7968 143.869 52.4745 142.744C52.1904 141.76 51.9501 140.635 51.737 139.303C51.6278 138.417 51.5513 137.52 51.5349 136.623C51.5131 135.775 51.5513 134.89 51.6496 133.906L51.6606 133.9ZM59.8106 115.768C58.8164 114.866 57.855 113.811 56.7953 112.447C56.2108 111.67 55.6318 110.855 55.0309 109.958C54.9271 109.795 54.8288 109.637 54.6868 109.371C54.2061 108.534 53.7145 107.702 53.2119 106.865C52.9005 106.24 52.5673 105.61 52.2287 104.995C52.1194 104.756 51.9992 104.528 51.8791 104.3C51.8299 104.191 51.7698 104.082 51.7097 103.974L51.1963 102.93C51.0378 102.533 50.874 102.126 50.7265 101.729C50.5845 101.337 50.4752 100.995 50.5626 100.544L50.5735 100.533H50.5845C50.5845 100.533 50.6063 100.544 50.6172 100.544C51.9282 100.962 53.2392 101.386 54.5502 101.821C56.32 102.577 57.926 103.359 59.4336 104.213C61.4274 105.327 62.9405 106.327 64.2024 107.382C64.9726 108.039 65.5352 108.566 66.005 109.11C66.3163 109.469 66.8844 110.132 67.2559 110.92C67.5454 111.485 67.7202 112.012 67.7967 112.523C67.8786 113.051 67.8677 113.556 67.7366 114.029C67.6109 114.638 67.3706 115.187 67.0374 115.611C66.7752 115.996 66.5512 116.268 66.3163 116.496C66.147 116.676 65.9886 116.806 65.8247 116.915C65.4751 117.165 64.9453 117.486 64.257 117.584C64.115 117.594 63.9675 117.627 63.6179 117.627C63.3775 117.605 63.1372 117.578 62.875 117.507C61.9027 117.29 60.903 116.714 59.7996 115.768H59.8106ZM59.0622 101.751C59.0622 100.734 59.9307 99.8699 60.9522 99.8645C61.9737 99.8645 62.8422 100.729 62.8477 101.745C62.8477 102.762 61.9791 103.626 60.9577 103.631C59.9362 103.631 59.0677 102.772 59.0622 101.751ZM69.3917 119.013C70.4132 119.013 71.2817 119.872 71.2872 120.894C71.2872 121.91 70.4241 122.774 69.3972 122.78C68.3757 122.78 67.5072 121.915 67.5017 120.899C67.5017 119.883 68.3702 119.018 69.3917 119.013ZM62.5964 83.8086C61.8207 84.3793 60.9959 84.9555 60.1001 85.5534L59.7778 85.7545L59.5047 85.9012C58.8765 86.2491 58.2483 86.6241 57.6146 86.9883L56.9865 87.3579C56.3583 87.6786 55.7246 87.9992 55.1074 88.3471L54.6868 88.5591L54.3973 88.6678L54.075 88.8689L53.6544 89.0809L53.0262 89.3798L52.2778 89.6679L51.819 89.8472C51.5732 89.9451 51.3 90.0375 50.9996 90.0375C50.8794 90.0375 50.7702 90.0157 50.6391 89.9559C51.0105 88.7547 51.4038 87.5644 51.8135 86.3686L51.9228 86.0371C52.6329 84.3358 53.4195 82.7379 54.3208 81.1671C55.4351 79.2049 56.4457 77.6994 57.5054 76.4221C58.1937 75.6231 58.7126 75.085 59.2425 74.6339C59.7395 74.2099 60.3513 73.7262 61.0615 73.3892C61.5804 73.112 62.1103 72.938 62.6674 72.8402C62.8968 72.813 63.1208 72.7913 63.3502 72.7913C63.6616 72.7913 63.9402 72.8293 64.1914 72.9C64.7923 73.0359 65.344 73.275 65.7756 73.6011C66.1088 73.8186 66.4037 74.0468 66.6769 74.3186C66.8298 74.4708 66.9664 74.6284 67.0975 74.8186C67.4689 75.335 67.6874 75.8296 67.7584 76.3134C67.7912 76.5525 67.8185 76.7808 67.7967 76.9982C67.7803 77.2482 67.7584 77.4928 67.682 77.7428C67.4416 78.7375 66.8735 79.7322 65.934 80.792C65.0436 81.7704 63.9839 82.727 62.5964 83.8032V83.8086ZM63.8856 88.1786C63.8856 89.195 63.017 90.0592 61.9955 90.0647C60.9741 90.0647 60.1055 89.2004 60.1001 88.184C60.1001 87.1676 60.9686 86.3034 61.9901 86.298C63.0116 86.298 63.8801 87.1622 63.8856 88.1786ZM71.7078 70.166C71.7078 71.1824 70.8393 72.0521 69.8178 72.0521C68.7635 72.0521 67.9114 71.2096 67.9114 70.1715C67.9114 69.1388 68.7581 68.2909 69.8123 68.2854C70.8338 68.2854 71.7023 69.1496 71.7078 70.166ZM63.0716 48.7292C66.2071 48.7292 68.7526 51.2512 68.7581 54.3711C68.7581 57.4909 66.2235 60.0238 63.088 60.0292C59.9526 60.0292 57.4071 57.5072 57.4016 54.3874C57.4016 51.2675 59.9362 48.7347 63.0716 48.7292ZM52.6875 76.5797C53.709 76.5797 54.5775 77.4439 54.583 78.4603C54.583 79.4767 53.7199 80.3409 52.693 80.3463C51.6715 80.3463 50.803 79.4821 50.7975 78.4657C50.7975 77.4493 51.666 76.5797 52.6875 76.5797ZM50.5681 84.3304C50.7975 84.4717 50.9559 84.6294 51.0597 84.7978C51.1307 84.8957 51.1689 84.9772 51.1908 85.0587L51.2891 85.3686C51.3492 85.7979 51.2782 86.2708 51.0925 86.8089C50.9341 87.3144 50.6937 87.8362 50.3168 88.483C50.1147 88.82 49.9071 89.1733 49.6668 89.5483L49.4647 89.7168C49.8252 89.9451 50.1584 90.2114 50.4698 90.5103C50.6118 90.6517 50.7483 90.7984 50.8794 90.9506C51.0488 91.1408 51.2181 91.3202 51.3492 91.4778C52.1303 90.8691 52.7367 90.4614 53.3157 90.1679C53.6762 89.9668 53.9657 89.8418 54.2552 89.7494C54.5775 89.6298 54.867 89.5592 55.3313 89.5266C55.5116 89.5266 55.67 89.5483 55.8557 89.5972C56.0742 89.6461 56.2545 89.7277 56.4129 89.8418C56.6533 89.9994 56.8226 90.1788 56.9318 90.369C57.0138 90.4995 57.0957 90.6299 57.1503 90.7767C57.1831 90.8582 57.2104 90.9343 57.2323 91.0213C57.2596 91.1082 57.3306 91.4017 57.2487 91.7115C57.2323 91.7985 57.1995 91.9018 57.1613 91.9887C57.1613 91.9887 57.0247 92.2279 57.0138 92.2714C56.7407 92.6192 56.3637 92.9073 55.8557 93.1465C55.375 93.3856 54.8233 93.5867 54.1241 93.777C53.7527 93.8857 53.3758 93.9781 52.8896 94.0487L52.611 94.1302L52.3106 94.1085C52.4308 94.8966 52.4144 95.6739 52.3652 96.6359C53.3485 96.7664 54.064 96.9023 54.6868 97.1034C55.0855 97.2229 55.375 97.3316 55.6482 97.473C55.9267 97.598 56.1889 97.7393 56.4293 97.9458C56.6314 98.1252 56.7789 98.2937 56.8827 98.4839C57.0029 98.6524 57.0848 98.859 57.134 99.0709C57.1613 99.3155 57.1613 99.5764 57.1066 99.7884C57.0684 99.946 57.0302 100.098 56.9646 100.245C56.9373 100.348 56.8936 100.424 56.8444 100.473C56.7953 100.571 56.6533 100.821 56.3856 100.973C56.2982 101.022 56.2163 101.06 56.1125 101.104L55.8011 101.202C55.7028 101.212 55.5935 101.223 55.4788 101.223C55.1511 101.223 54.7796 101.153 54.3481 101.006C53.8565 100.859 53.3266 100.609 52.6766 100.234C52.3379 100.038 51.9883 99.8264 51.6278 99.5601L51.3765 99.4188L51.0378 99.0927C50.874 99.3047 50.7101 99.5058 50.5189 99.6906C50.1802 100.022 49.8197 100.31 49.4647 100.479L49.858 100.968C49.858 100.968 50.0273 101.196 50.0273 101.207C50.2786 101.571 50.4971 101.924 50.6992 102.251C51.0979 102.908 51.3437 103.425 51.5022 103.914C51.7043 104.441 51.7862 104.93 51.7261 105.349C51.7152 105.43 51.6879 105.517 51.6387 105.669C51.6169 105.751 51.5786 105.827 51.5076 105.925C51.3601 106.202 51.0979 106.354 51.0215 106.392C50.9504 106.441 50.8685 106.479 50.792 106.517C50.6719 106.577 50.5244 106.621 50.3441 106.648C50.1966 106.697 50.0546 106.718 49.9071 106.718C49.8143 106.718 49.7159 106.708 49.6067 106.697C49.3882 106.648 49.1861 106.566 49.0277 106.458C48.8256 106.349 48.6453 106.207 48.476 106.017C48.3066 105.811 48.1427 105.561 47.9843 105.24C47.8423 104.985 47.7221 104.686 47.602 104.294C47.378 103.62 47.2196 102.881 47.0994 101.995V101.501C46.7007 101.582 46.2964 101.609 45.8867 101.615C45.4279 101.615 45.0455 101.566 44.7669 101.457C44.7287 101.729 44.6959 101.984 44.6741 102.245C44.6741 102.256 44.6358 102.522 44.6358 102.522C44.5594 102.979 44.4501 103.381 44.3463 103.756C44.1879 104.414 43.9967 104.979 43.7455 105.49C43.5051 106.006 43.2156 106.398 42.8605 106.659L42.5983 106.822C42.5109 106.86 42.4072 106.892 42.3198 106.909C42.2269 106.941 42.1395 106.958 42.0193 106.958C41.8718 106.958 41.7517 106.941 41.6424 106.909C41.5605 106.898 41.4622 106.871 41.3802 106.822C41.2327 106.762 41.1016 106.691 40.9596 106.615C40.7193 106.474 40.539 106.267 40.4298 106.126C40.3096 105.968 40.2276 105.789 40.173 105.55C40.1129 105.343 40.0911 105.131 40.102 104.854C40.1129 104.544 40.2003 104.245 40.3041 103.957C40.3915 103.664 40.5117 103.376 40.7029 103.012C41.0142 102.403 41.4185 101.772 41.9811 101.039L42.4017 100.62C41.992 100.365 41.6206 100.071 41.2983 99.7558C41.0962 99.5547 40.9268 99.359 40.8449 99.1688L40.3369 99.5655L40.1075 99.7395C39.7415 99.9786 39.3974 100.196 39.0587 100.408C38.4305 100.778 37.9006 101.028 37.3981 101.207C36.9502 101.365 36.5787 101.446 36.251 101.446C36.1417 101.446 36.0379 101.441 35.9396 101.43L35.6392 101.343C35.5409 101.299 35.4589 101.261 35.3824 101.212C35.2022 101.115 35.0492 100.962 34.9017 100.723L34.7816 100.484C34.7215 100.343 34.6832 100.196 34.645 100.044C34.574 99.7721 34.5849 99.4949 34.6013 99.3047C34.6505 99.0872 34.7324 98.8753 34.8307 98.7176C34.9509 98.5165 35.0875 98.348 35.2787 98.1795C35.4862 98.0002 35.7375 97.8426 36.0489 97.6904C36.322 97.5491 36.6115 97.4295 36.9993 97.299C37.6821 97.0816 38.3977 96.9294 39.3209 96.799L39.5995 96.837C39.3591 95.9511 39.3154 95.0651 39.4847 94.2498L39.0259 94.1737L38.5288 94.1248L37.5183 93.8911C36.8464 93.7226 36.2837 93.5324 35.7648 93.2823C35.2022 93.0269 34.8253 92.7388 34.6013 92.4073L34.4374 92.1355C34.3992 92.0485 34.3664 91.9561 34.3391 91.8692C34.2517 91.5811 34.3227 91.293 34.3664 91.1898L34.4265 90.9234C34.4866 90.7821 34.5685 90.6408 34.645 90.5103C34.7543 90.3092 34.9236 90.1244 35.1476 89.9723C35.3278 89.8418 35.5245 89.7548 35.7157 89.7222C35.8686 89.6624 36.027 89.6407 36.4148 89.6407C36.8245 89.6787 37.1577 89.7874 37.3162 89.8472C37.6111 89.9342 37.9006 90.0538 38.2666 90.244C38.9767 90.5973 39.6213 91.0267 40.3587 91.6844C40.6155 91.2767 40.9104 90.9071 41.3201 90.4995C41.4895 90.331 41.6479 90.1734 41.7517 90.0103C41.1672 89.2765 40.7466 88.6569 40.4352 88.059C40.244 87.6949 40.1129 87.4068 40.0146 87.1242C39.8944 86.798 39.8343 86.4991 39.8016 86.2273C39.7906 85.9773 39.8016 85.749 39.8507 85.5262C39.9108 85.287 39.9873 85.0968 40.1075 84.9609C40.2604 84.7435 40.4352 84.5587 40.6373 84.45C40.7684 84.363 40.9104 84.2924 41.047 84.2326C41.1344 84.1728 41.2273 84.1456 41.2983 84.1456C41.4512 84.0967 41.5769 84.075 41.708 84.075C41.8063 84.075 41.8992 84.0967 41.992 84.1239L42.2706 84.2217C42.3799 84.2598 42.4727 84.3141 42.5273 84.3739C42.8769 84.613 43.1774 84.9772 43.4396 85.5153C43.6963 86.0262 43.9039 86.5915 44.0732 87.2492C44.1606 87.5699 44.2371 87.896 44.3463 88.4721L44.3573 88.8091C44.8707 88.7004 45.3787 88.6406 45.8758 88.6406C46.2254 88.6406 46.504 88.6678 46.717 88.7493C46.8372 87.8036 46.9738 87.0861 47.1759 86.4665C47.2961 86.0806 47.4053 85.7816 47.5419 85.5207C47.673 85.2435 47.815 84.9827 48.0226 84.7435C48.2028 84.5424 48.3612 84.4065 48.5634 84.2815C48.7819 84.1511 48.973 84.0695 49.1533 84.0423C49.2625 84.0315 49.3827 84.0206 49.492 84.0206C49.6449 84.0206 49.776 84.0423 49.8853 84.0695C50.0328 84.1076 50.1857 84.1456 50.3332 84.2054C50.4151 84.238 50.4971 84.2761 50.5735 84.3141L50.5681 84.3304ZM39.228 81.3627C38.2065 81.3627 37.338 80.4985 37.3325 79.4821C37.3325 78.4386 38.1792 77.5906 39.2225 77.5906C40.2659 77.5906 41.118 78.4331 41.118 79.4767C41.118 80.4931 40.2495 81.3627 39.228 81.3627ZM48.5743 66.7418C48.7327 66.932 48.8856 67.1277 49.0222 67.3451C49.5521 68.2093 49.858 69.3181 49.9617 70.7367C50.0328 72.0195 49.9617 73.4381 49.7378 75.21C49.6067 76.1557 49.4428 77.145 49.2243 78.2157L49.1424 78.5146L49.0441 78.8734C48.7764 79.7974 48.536 80.7323 48.2957 81.6834C48.0663 82.352 47.8587 83.0205 47.6566 83.6945L47.4108 84.4337C47.378 84.5533 47.3398 84.6728 47.3015 84.7924L46.9192 85.8903C46.7498 86.2871 46.5805 86.6785 46.4002 87.0752C46.2418 87.4448 46.0725 87.7601 45.6519 87.9938C45.0073 86.7709 44.39 85.5479 43.7782 84.3141C43.0627 82.5802 42.4836 80.9007 42.0084 79.1886C41.3857 76.9819 41.0306 75.1991 40.8886 73.5848C40.8067 72.5413 40.7957 71.7912 40.8449 71.0955C40.9104 70.3889 40.9924 69.6442 41.2491 68.9377C41.4185 68.3778 41.6697 67.8832 41.9975 67.4212C42.3362 66.981 42.7076 66.6331 43.1064 66.3939C43.5761 66.0841 44.1442 65.8667 44.7342 65.7526C45.1165 65.6819 45.4935 65.6439 45.8649 65.6439C46.0834 65.6439 46.2964 65.6493 46.5149 65.6928C47.1376 65.8015 47.6457 65.9972 48.0553 66.2961C48.2356 66.4374 48.4049 66.5787 48.5688 66.7418H48.5743ZM45.8431 59.252C46.8645 59.252 47.7331 60.1162 47.7385 61.1326C47.7385 62.149 46.87 63.0132 45.8485 63.0186C44.827 63.0186 43.9585 62.1544 43.953 61.138C43.953 60.1216 44.8216 59.2574 45.8431 59.252ZM37.4636 48.7727C40.5991 48.7727 43.1446 51.2947 43.1501 54.4145C43.1501 57.5344 40.6155 60.0673 37.48 60.0727C34.3446 60.0727 31.7991 57.5507 31.7936 54.4309C31.7936 51.311 34.3282 48.7781 37.4636 48.7727ZM24.676 74.3947C24.9328 74.1284 25.2332 73.8946 25.5555 73.6772C26.0143 73.3457 26.577 73.1011 27.156 72.9706C27.4072 72.9 27.6858 72.8619 27.9972 72.8619C28.2157 72.8619 28.4397 72.8837 28.6691 72.9109C29.2317 73.0087 29.7616 73.1881 30.2914 73.4544C30.8541 73.7262 31.4222 74.1229 32.105 74.6936C32.6457 75.1393 33.1647 75.6774 33.8475 76.4764C34.9181 77.7483 35.9342 79.2538 37.0485 81.2106C37.9334 82.7433 38.7255 84.3358 39.4684 86.0751C39.96 87.5209 40.3642 88.733 40.6537 90.2277C40.2932 90.119 39.9327 90.0103 39.5721 89.8798L38.8293 89.5918L38.3595 89.4124L37.9389 89.2167L37.3162 88.8906L36.9775 88.733L36.6279 88.5645L36.2892 88.396C35.6665 88.0482 35.0383 87.7329 34.3992 87.4177C33.5689 86.9285 32.7168 86.4339 31.8755 85.9664L31.6079 85.8197L31.2856 85.624C30.3843 85.0261 29.554 84.45 28.7893 83.8847C27.3745 82.8085 26.3038 81.8574 25.4353 80.8844C24.4848 79.8028 23.9113 78.8082 23.66 77.8407C23.6108 77.5852 23.5781 77.3461 23.5617 77.096C23.5508 76.8949 23.5726 76.6993 23.6108 76.3894C23.7092 75.7318 24.0588 75.1828 24.2718 74.9274C24.3701 74.7589 24.5121 74.5958 24.6924 74.4164L24.676 74.3947ZM32.4218 89.0265C32.4218 90.0429 31.5533 90.9126 30.5318 90.9126C29.5103 90.9126 28.6418 90.0483 28.6363 89.0319C28.6363 88.0155 29.4994 87.1513 30.5263 87.1459C31.5478 87.1459 32.4163 88.0101 32.4218 89.0265ZM21.7154 69.2801C22.7368 69.2801 23.6108 70.1389 23.6108 71.1607C23.6108 72.1771 22.7423 73.0413 21.7208 73.0467C20.6994 73.0467 19.8308 72.1825 19.8254 71.1661C19.8254 70.1497 20.6939 69.2855 21.7154 69.2801ZM19.656 91.5159C20.3661 91.255 21.1145 91.1735 21.8246 91.1028C22.1251 91.0811 22.4364 91.0702 22.7751 91.0702C23.2339 91.0702 23.7419 91.0919 24.3264 91.1408C26.0689 91.3039 27.8606 91.6518 29.9582 92.2388C31.6789 92.7062 33.3723 93.2769 35.1148 93.9835C36.3657 94.5868 37.6002 95.201 38.9112 96.0761C38.5834 96.2555 38.2448 96.4239 37.9006 96.587C37.5019 96.7664 37.1086 96.9349 36.7098 97.1088L35.6064 97.4893L35.2459 97.6088L34.8744 97.7284L34.5084 97.848C33.9076 98.0274 33.3176 98.2176 32.7277 98.4078L32.4819 98.4894C31.5423 98.7285 30.5973 98.984 29.5595 99.2992L29.2809 99.3481L28.9914 99.4297C27.9316 99.6416 26.9429 99.8101 25.9925 99.9406C24.6487 100.109 23.5508 100.201 22.5511 100.201C22.1906 100.201 21.841 100.191 21.5023 100.174C20.0493 100.066 18.9295 99.7721 18.0883 99.2503C17.8807 99.1253 17.6677 98.9622 17.4765 98.8046C17.3072 98.647 17.1651 98.4785 17.0067 98.2774C16.6353 97.7773 16.4878 97.1795 16.4113 96.7664C16.3731 96.549 16.3622 96.337 16.3622 96.1196C16.3622 95.75 16.4004 95.3749 16.4714 94.9945C16.5479 94.4564 16.7718 93.8857 17.1105 93.3693C17.3563 92.9508 17.7005 92.5921 18.1375 92.2605C18.5963 91.929 19.0989 91.6844 19.656 91.5104V91.5159ZM11.8338 48.789C14.9692 48.789 17.5147 51.311 17.5202 54.4309C17.5202 57.5507 14.9856 60.0836 11.8502 60.089C8.71472 60.089 6.16921 57.567 6.16375 54.4472C6.16375 51.3273 8.69833 48.7945 11.8338 48.789ZM13.0191 289.833C14.0406 289.833 14.9091 290.698 14.9146 291.714C14.9146 292.731 14.0461 293.595 13.0246 293.6C12.0031 293.6 11.1291 292.736 11.1291 291.72C11.1291 290.703 11.9977 289.839 13.0191 289.833ZM12.6641 97.6469C11.6426 97.6469 10.7741 96.7881 10.7686 95.7663C10.7686 94.7499 11.6371 93.8857 12.6586 93.8802C13.6801 93.8802 14.5541 94.7444 14.5541 95.7608C14.5541 96.7772 13.6856 97.6415 12.6641 97.6469ZM6.74823 74.2806C9.88368 74.2806 12.4292 76.8025 12.4347 79.9224C12.4347 83.0422 9.90007 85.5751 6.76462 85.5805C3.62917 85.5805 1.08366 83.0586 1.0782 79.9387C1.0782 76.8188 3.61278 74.286 6.74823 74.2806ZM6.78647 99.7667C9.92192 99.7667 12.4674 102.289 12.4729 105.408C12.4729 108.528 9.93831 111.061 6.80286 111.067C3.66741 111.067 1.1219 108.545 1.11644 105.425C1.11644 102.305 3.65102 99.7721 6.78647 99.7667ZM6.82471 125.253C9.96016 125.253 12.5057 127.775 12.5111 130.895C12.5111 134.014 9.97655 136.547 6.84109 136.553C3.70564 136.553 1.16014 134.031 1.15467 130.911C1.15467 127.791 3.68926 125.258 6.82471 125.253ZM6.86294 150.739C9.99839 150.739 12.5439 153.261 12.5494 156.381C12.5494 159.501 10.0148 162.033 6.87933 162.039C3.74388 162.039 1.19837 159.517 1.19291 156.397C1.19291 153.277 3.72749 150.744 6.86294 150.739ZM6.90118 176.225C10.0366 176.225 12.5821 178.747 12.5876 181.867C12.5876 184.987 10.053 187.52 6.91757 187.525C3.78212 187.525 1.23661 185.003 1.23115 181.883C1.23115 178.763 3.76573 176.23 6.90118 176.225ZM6.93942 201.711C10.0749 201.711 12.6204 204.233 12.6258 207.353C12.6258 210.473 10.0913 213.006 6.95581 213.011C3.82035 213.011 1.27485 210.489 1.26939 207.369C1.26939 204.249 3.80397 201.716 6.93942 201.711ZM6.97766 227.197C10.1131 227.197 12.6586 229.719 12.6641 232.839C12.6641 235.959 10.1295 238.492 6.99404 238.497C3.85859 238.497 1.31309 235.975 1.30762 232.855C1.30762 229.735 3.8422 227.203 6.97766 227.197ZM7.01589 252.683C10.1513 252.683 12.6968 255.205 12.7023 258.325C12.7023 261.445 10.1677 263.978 7.03228 263.983C3.89683 263.983 1.35132 261.461 1.34586 258.341C1.34586 255.222 3.88044 252.689 7.01589 252.683ZM7.05413 278.169C10.1896 278.169 12.7351 280.691 12.7405 283.811C12.7405 286.931 10.206 289.464 7.07052 289.469C3.93507 289.469 1.38956 286.947 1.3841 283.827C1.3841 280.708 3.91868 278.175 7.05413 278.169ZM7.09237 303.655C10.2278 303.655 12.7733 306.177 12.7788 309.297C12.7788 312.417 10.2442 314.95 7.10875 314.955C3.9733 314.955 1.4278 312.433 1.42234 309.314C1.42234 306.194 3.95692 303.661 7.09237 303.655ZM7.1306 329.142C10.2661 329.142 12.8116 331.664 12.817 334.783C12.817 337.903 10.2824 340.436 7.14699 340.442C4.01154 340.442 1.46603 337.92 1.46057 334.8C1.46057 331.68 3.99515 329.147 7.1306 329.142ZM7.16884 354.628C10.3043 354.628 12.8498 357.15 12.8553 360.27C12.8553 363.389 10.3207 365.922 7.18523 365.928C4.04978 365.928 1.50427 363.406 1.49881 360.286C1.49881 357.166 4.03339 354.633 7.16884 354.628ZM7.22347 391.414C4.08801 391.414 1.54251 388.892 1.53705 385.772C1.53705 382.652 4.07163 380.119 7.20708 380.114C10.3425 380.114 12.888 382.636 12.8935 385.756C12.8935 388.875 10.3589 391.408 7.22347 391.414ZM14.9419 414.34C11.8065 414.34 9.26096 411.818 9.2555 408.698C9.2555 405.578 11.7901 403.045 14.9255 403.04C18.061 403.04 20.6065 405.562 20.612 408.682C20.6174 411.802 18.0774 414.334 14.9419 414.34ZM30.3297 427.064C27.1942 427.064 24.6487 424.542 24.6432 421.422C24.6378 418.302 27.1778 415.769 30.3133 415.764C33.4487 415.758 35.9942 418.286 35.9997 421.406C35.9997 424.526 33.4651 427.058 30.3297 427.064ZM50.8303 434.679C47.6948 434.679 45.1493 432.157 45.1439 429.037C45.1439 425.917 47.6784 423.384 50.8139 423.379C53.9493 423.379 56.4948 425.901 56.5003 429.021C56.5003 432.14 53.9657 434.673 50.8303 434.679ZM71.3145 429.553C68.179 429.553 65.6335 427.031 65.6281 423.911C65.6281 420.792 68.1627 418.259 71.2981 418.253C74.4336 418.253 76.9791 420.775 76.9845 423.895C76.9845 427.015 74.45 429.548 71.3145 429.553ZM80.333 376.407C78.5468 380.032 75.4933 383.054 71.9536 384.69C68.6434 386.239 64.9835 387 60.7501 387.006C59.9307 387.006 59.1059 386.979 58.3466 386.87L58.4559 412.258C58.4559 414.449 57.5819 416.53 55.9923 418.128C54.3754 419.726 52.2833 420.612 50.0819 420.618C45.5481 420.623 41.7025 416.807 41.6861 412.285V397.969H41.1672C39.5448 397.969 38.0317 397.811 36.5623 397.518C33.8693 396.925 31.4495 395.854 29.554 394.419C26.6917 392.213 24.8781 390.196 23.6819 387.87C22.3873 385.353 21.5624 383.234 21.0926 381.223C19.3993 374.075 19.6615 366.819 19.9018 359.802L19.9291 359.014C19.9947 356.84 20.0712 354.671 20.0712 352.481C20.0821 347.882 23.8403 344.132 28.4451 344.127C30.6301 344.127 32.7768 345.034 34.3719 346.616C35.9669 348.209 36.8464 350.274 36.8409 352.454C36.8409 354.704 36.7371 356.965 36.6497 359.226L36.6224 359.943C36.4367 364.612 36.2564 369.444 36.7317 374.2C37.0212 376.01 37.4145 377.554 37.9279 379.038C38.1683 379.483 38.4196 379.924 38.6872 380.331L39.1297 380.799C39.2826 380.886 39.4301 380.978 39.5831 381.054C39.9163 381.163 40.2659 381.25 40.5827 381.315L40.9815 381.337L41.5605 381.396L41.4949 363.297L41.4021 338.816C41.4021 336.626 42.2761 334.544 43.8602 332.946C45.4771 331.354 47.5692 330.462 49.7706 330.462C54.3044 330.457 58.15 334.272 58.1664 338.795L58.2155 351.818C58.2264 351.926 58.2264 352.046 58.2264 352.165V370.26C59.1004 370.325 59.9744 370.357 60.8375 370.357C61.4548 370.357 62.0775 370.336 62.6947 370.292C63.2683 370.194 63.8473 370.053 64.4154 369.874C64.5847 369.787 64.7541 369.683 64.8961 369.586L65.1365 369.368C65.2839 369.118 65.4369 368.863 65.5734 368.602C65.8411 367.727 66.0815 366.786 66.2836 365.732C66.6878 361.471 66.4802 357.117 66.2672 352.856L66.1743 350.986C66.0815 348.942 66.879 346.942 68.3975 345.35C70.0472 343.632 72.2868 342.637 74.5483 342.632C79.0985 342.627 82.7092 346.203 82.9441 350.964L83.0479 353.258C83.4521 361.139 83.8618 369.303 80.3385 376.429L80.333 376.407ZM89.2259 416.78C86.0904 416.78 83.5449 414.258 83.5395 411.138C83.5395 408.019 86.0741 405.486 89.2095 405.48C92.345 405.48 94.8905 408.002 94.8959 411.122C94.8959 414.242 92.3614 416.775 89.2259 416.78ZM96.8897 401.474C93.7543 401.474 91.2088 398.952 91.2033 395.833C91.2033 392.713 93.7379 390.18 96.8733 390.174C100.009 390.174 102.554 392.696 102.56 395.816C102.56 398.936 100.025 401.469 96.8897 401.474ZM130.194 403.975C127.059 403.975 124.513 401.453 124.508 398.333C124.508 395.213 127.042 392.68 130.178 392.675C133.313 392.675 135.859 395.197 135.864 398.317C135.864 401.436 133.33 403.969 130.194 403.975ZM140.464 419.253C137.328 419.253 134.783 416.731 134.777 413.612C134.777 410.492 137.312 407.959 140.447 407.953C143.583 407.953 146.128 410.475 146.134 413.595C146.134 416.715 143.599 419.248 140.464 419.253ZM155.852 431.977C152.716 431.977 150.171 429.455 150.165 426.336C150.165 423.216 152.7 420.683 155.835 420.677C158.971 420.677 161.516 423.199 161.522 426.319C161.522 429.439 158.987 431.972 155.852 431.977ZM176.352 437.043C173.217 437.043 170.671 434.521 170.666 431.401C170.666 428.281 173.2 425.749 176.336 425.743C179.471 425.743 182.017 428.265 182.022 431.385C182.022 434.505 179.488 437.038 176.352 437.043ZM196.842 434.467C193.706 434.467 191.161 431.945 191.155 428.825C191.155 425.705 193.69 423.172 196.825 423.167C199.961 423.167 202.506 425.689 202.512 428.809C202.512 431.928 199.977 434.461 196.842 434.467ZM199.322 385.424C196.011 386.973 192.352 387.734 188.118 387.74C187.299 387.74 186.48 387.712 185.72 387.604L185.824 412.992C185.824 415.182 184.95 417.264 183.36 418.862C181.744 420.46 179.651 421.346 177.445 421.351C172.911 421.357 169.065 417.541 169.049 413.019V398.702H168.524C166.902 398.702 165.394 398.55 163.92 398.251C161.227 397.659 158.807 396.583 156.911 395.153C154.049 392.947 152.235 390.93 151.039 388.604C149.744 386.087 148.92 383.967 148.45 381.956C146.757 374.814 147.019 367.553 147.259 360.536L147.286 359.748C147.352 357.579 147.428 355.405 147.423 353.22C147.439 348.622 151.192 344.871 155.797 344.86C157.976 344.86 160.129 345.774 161.724 347.35C163.319 348.942 164.204 351.008 164.193 353.193C164.176 355.633 164.078 358.074 163.985 360.509L163.963 360.786C163.788 365.428 163.597 370.216 164.083 374.923C164.378 376.722 164.772 378.309 165.28 379.76C165.509 380.217 165.76 380.652 166.044 381.06L166.487 381.527C166.629 381.614 166.776 381.706 166.929 381.788C167.268 381.897 167.612 381.983 167.94 382.043L168.344 382.065L168.923 382.125L168.858 364.025L168.759 339.539C168.759 337.349 169.633 335.267 171.223 333.675C172.84 332.082 174.932 331.191 177.133 331.185C181.673 331.18 185.524 334.995 185.54 339.518L185.589 352.53L185.6 352.888V370.988C186.48 371.048 187.337 371.075 188.206 371.075C188.828 371.075 189.446 371.053 190.057 371.015C190.636 370.917 191.215 370.776 191.789 370.597L192.27 370.303L192.51 370.086C192.663 369.836 192.811 369.58 192.942 369.319C193.242 368.374 193.477 367.406 193.646 366.449C194.061 362.188 193.854 357.829 193.635 353.557L193.542 351.703C193.45 349.665 194.247 347.665 195.766 346.067C197.415 344.35 199.655 343.349 201.916 343.349C206.467 343.344 210.077 346.92 210.312 351.682L210.416 353.975C210.82 361.862 211.23 370.026 207.707 377.146C205.92 380.771 202.861 383.793 199.327 385.43L199.322 385.424ZM214.753 421.694C211.618 421.694 209.072 419.172 209.067 416.052C209.067 412.932 211.601 410.399 214.737 410.394C217.872 410.394 220.418 412.916 220.423 416.036C220.423 419.156 217.889 421.688 214.753 421.694ZM224.973 403.839C221.838 403.839 219.293 401.317 219.287 398.197C219.287 395.077 221.822 392.544 224.957 392.539C228.093 392.539 230.638 395.061 230.643 398.181C230.643 401.301 228.109 403.833 224.973 403.839ZM255.148 398.175C255.148 395.055 257.683 392.523 260.818 392.517C263.954 392.517 266.499 395.039 266.505 398.159C266.505 401.279 263.97 403.812 260.835 403.817C257.699 403.817 255.154 401.295 255.148 398.175ZM268.547 421.618C265.412 421.618 262.867 419.096 262.861 415.976C262.861 412.856 265.396 410.323 268.531 410.318C271.667 410.318 274.212 412.84 274.218 415.96C274.218 419.079 271.683 421.612 268.547 421.618ZM286.497 434.336C283.362 434.336 280.816 431.814 280.811 428.694C280.811 425.575 283.345 423.042 286.481 423.036C289.616 423.036 292.162 425.558 292.167 428.678C292.167 431.798 289.633 434.331 286.497 434.336ZM306.992 436.853C303.857 436.853 301.311 434.331 301.306 431.211C301.306 428.091 303.84 425.558 306.976 425.553C310.111 425.553 312.657 428.075 312.662 431.195C312.662 434.315 310.128 436.847 306.992 436.853ZM329.055 428.417C325.92 428.417 323.374 425.895 323.369 422.775C323.369 419.656 325.903 417.123 329.039 417.117C332.174 417.117 334.72 419.639 334.725 422.759C334.725 425.879 332.191 428.412 329.055 428.417ZM332.835 376.782C331.049 380.407 327.99 383.429 324.45 385.065C321.14 386.614 317.48 387.375 313.247 387.381C312.427 387.381 311.608 387.354 310.849 387.245L310.953 412.622C310.953 414.813 310.079 416.894 308.489 418.492C306.872 420.085 304.78 420.976 302.579 420.982C298.045 420.987 294.199 417.172 294.183 412.649V398.333H293.675C292.052 398.333 290.539 398.175 289.07 397.882C286.377 397.289 283.957 396.219 282.062 394.784C279.205 392.599 277.391 390.582 276.189 388.229C274.895 385.712 274.07 383.592 273.6 381.581C271.907 374.434 272.169 367.178 272.404 360.155L272.431 359.367C272.502 357.193 272.579 355.024 272.573 352.839C272.59 348.241 276.342 344.491 280.947 344.485C283.132 344.485 285.284 345.399 286.874 346.975C288.469 348.567 289.354 350.633 289.343 352.818C289.327 355.274 289.228 357.726 289.135 360.172C288.944 364.873 288.742 369.721 289.228 374.559C289.518 376.358 289.922 377.945 290.436 379.396C290.665 379.842 290.916 380.282 291.189 380.69L291.419 380.929L291.632 381.168L292.08 381.424C292.418 381.521 292.763 381.614 293.079 381.674L293.576 381.701L294.057 381.75L293.992 363.667L293.899 339.164C293.899 336.974 294.773 334.892 296.362 333.294C297.979 331.702 300.071 330.81 302.273 330.81C306.807 330.805 310.652 334.62 310.674 339.143L310.723 352.165C310.734 352.285 310.734 352.394 310.734 352.513L310.745 370.613C311.597 370.673 312.438 370.711 313.274 370.711C313.913 370.711 314.563 370.689 315.208 370.635C315.787 370.537 316.355 370.395 316.928 370.216C317.098 370.129 317.267 370.026 317.409 369.928L317.65 369.711C317.808 369.461 317.95 369.205 318.087 368.944C318.376 368.037 318.605 367.102 318.791 366.074C319.206 361.862 318.999 357.541 318.78 353.312L318.676 351.345C318.584 349.301 319.381 347.301 320.9 345.708C322.549 343.991 324.789 342.996 327.05 342.991C331.606 342.985 335.211 346.562 335.452 351.323L335.555 353.611C335.954 361.498 336.369 369.662 332.846 376.782H332.835ZM344.831 413.302C341.695 413.302 339.15 410.78 339.144 407.66C339.144 404.54 341.679 402.007 344.814 402.002C347.95 402.002 350.495 404.524 350.501 407.644C350.501 410.763 347.966 413.296 344.831 413.302ZM350.479 390.908C347.343 390.908 344.798 388.386 344.792 385.266C344.792 382.147 347.327 379.614 350.463 379.608C353.598 379.608 356.143 382.13 356.149 385.25C356.149 388.37 353.614 390.903 350.479 390.908ZM350.441 365.422C347.305 365.422 344.76 362.9 344.754 359.78C344.754 356.66 347.289 354.128 350.424 354.122C353.56 354.122 356.105 356.644 356.111 359.764C356.111 362.884 353.576 365.417 350.441 365.422ZM350.402 339.936C347.267 339.936 344.721 337.414 344.716 334.294C344.716 331.174 347.251 328.642 350.386 328.636C353.521 328.636 356.067 331.158 356.072 334.278C356.072 337.398 353.538 339.931 350.402 339.936ZM350.364 314.45C347.229 314.45 344.683 311.928 344.678 308.808C344.678 305.688 347.212 303.155 350.348 303.15C353.483 303.15 356.029 305.672 356.034 308.792C356.034 311.912 353.5 314.445 350.364 314.45ZM350.326 288.964C347.19 288.964 344.645 286.442 344.64 283.322C344.64 280.202 347.174 277.669 350.31 277.664C353.445 277.664 355.991 280.186 355.996 283.306C355.996 286.426 353.461 288.958 350.326 288.964ZM350.288 263.478C347.152 263.478 344.607 260.956 344.601 257.836C344.601 254.716 347.136 252.183 350.271 252.178C353.407 252.178 355.952 254.7 355.958 257.82C355.958 260.939 353.423 263.472 350.288 263.478ZM350.249 237.992C347.114 237.992 344.569 235.47 344.563 232.35C344.563 229.23 347.098 226.697 350.233 226.692C353.369 226.692 355.914 229.214 355.919 232.334C355.919 235.453 353.385 237.986 350.249 237.992ZM350.211 212.506C347.076 212.506 344.53 209.984 344.525 206.864C344.525 203.744 347.059 201.211 350.195 201.206C353.33 201.206 355.876 203.728 355.881 206.847C355.881 209.967 353.347 212.5 350.211 212.506ZM350.173 187.019C347.038 187.019 344.492 184.497 344.487 181.378C344.487 178.258 347.021 175.725 350.157 175.719C353.292 175.719 355.838 178.241 355.843 181.361C355.843 184.481 353.308 187.014 350.173 187.019ZM350.135 161.533C346.999 161.533 344.454 159.011 344.448 155.892C344.448 152.772 346.983 150.239 350.118 150.233C353.254 150.233 355.799 152.755 355.805 155.875C355.805 158.995 353.27 161.528 350.135 161.533ZM350.097 136.047C346.961 136.047 344.416 133.525 344.41 130.405C344.41 127.286 346.945 124.753 350.08 124.747C353.216 124.747 355.761 127.269 355.767 130.389C355.767 133.509 353.232 136.042 350.097 136.047ZM350.058 110.561C346.923 110.561 344.377 108.039 344.372 104.919C344.372 101.799 346.906 99.2666 350.042 99.2612C353.177 99.2612 355.723 101.783 355.728 104.903C355.728 108.023 353.194 110.556 350.058 110.561ZM350.02 85.0751C346.885 85.0751 344.339 82.5531 344.334 79.4332C344.334 76.3134 346.868 73.7805 350.004 73.7751C353.139 73.7751 355.685 76.297 355.69 79.4169C355.69 82.5368 353.156 85.0696 350.02 85.0751Z" fill="#863B74" stroke="#863B74" stroke-miterlimit="10"/>
</svg>
