<svg width="364" height="444" viewBox="0 0 364 444" fill="none" xmlns="http://www.w3.org/2000/svg">
<path d="M363.924 376.241L363.853 356.255L363.596 295.721L363.411 245.635L362.631 39.0492L362.582 39L0 39.5251L0.425527 167.593L0.812865 268.427L1.17838 368.458L1.18929 369.327C1.22203 378.746 1.26567 388.072 1.30386 397.398L1.31477 397.803C1.38569 399.094 1.47843 400.379 1.59845 401.659C1.65846 402.157 1.72938 402.66 1.80031 403.158C2.01307 404.711 2.27493 406.286 2.5968 407.84C2.82593 408.698 3.05506 409.552 3.31693 410.394L3.38785 410.64L3.46968 410.892C3.70972 411.543 3.96067 412.204 4.22799 412.844L4.40257 413.173L4.60442 413.583C4.76808 413.911 4.92629 414.234 5.10632 414.562C5.45547 415.142 5.8319 415.722 6.19742 416.301C6.60658 416.941 6.89026 417.362 7.15758 417.805C19.0341 433.339 37.0317 442.272 56.5296 442.321C81.4338 442.283 103.938 427.525 113.834 404.716L121.39 404.738C130.871 428.532 153.544 443.945 179.125 444C204.929 443.962 227.728 428.471 237.209 404.53L248.868 404.552C258.546 427.804 281.071 442.868 306.237 442.922C328.272 442.89 348.239 431.628 359.657 412.795C359.936 412.194 360.236 411.592 360.547 411.001C361.485 408.764 362.167 406.784 362.658 404.935L362.816 404.345C363.105 403.245 363.345 402.129 363.553 401.008L363.656 400.488L363.705 400.188L363.815 399.569L363.902 398.027L364 396.375L363.935 376.247L363.924 376.241ZM349.112 47.0788C352.243 47.0788 354.786 49.6167 354.791 52.7563C354.791 55.896 352.26 58.4449 349.128 58.4503C345.997 58.4503 343.455 55.9124 343.449 52.7728C343.449 49.6331 345.981 47.0842 349.112 47.0788ZM346.875 97.1048C345.828 97.1048 344.977 96.257 344.977 95.2068C344.977 94.1676 345.822 93.3143 346.87 93.3089C347.89 93.3089 348.757 94.1785 348.763 95.2014C348.763 96.2516 347.917 97.1048 346.875 97.1048ZM341.398 91.6734C341.851 92.0125 342.2 92.3845 342.429 92.7838C342.773 93.3143 342.991 93.8668 343.078 94.4247C343.138 94.7966 343.182 95.174 343.182 95.5569C343.182 95.7648 343.171 95.9781 343.133 96.1969C343.035 96.8095 342.844 97.3127 342.516 97.7612C342.375 97.9308 342.244 98.1113 342.074 98.2535C341.884 98.4121 341.676 98.5762 341.463 98.7075C340.623 99.2271 339.505 99.5334 338.059 99.6428C337.721 99.6647 337.366 99.6756 337.012 99.6756C336.013 99.6756 334.911 99.5881 333.575 99.4185C332.626 99.2873 331.644 99.1232 330.563 98.9044L330.263 98.8278L329.903 98.7293C328.965 98.4668 328.027 98.2207 327.088 97.98C326.417 97.7612 325.735 97.5424 325.059 97.34L324.688 97.2197L324.317 97.0994L323.968 96.979C323.597 96.8587 323.226 96.7274 322.855 96.5962C322.457 96.4266 322.064 96.257 321.676 96.0765C321.306 95.9179 320.989 95.7483 320.755 95.3272C321.977 94.6818 323.199 94.0637 324.437 93.4511C326.155 92.7455 327.841 92.1712 329.581 91.6898C331.709 91.0881 333.498 90.7326 335.206 90.5631C335.784 90.5084 336.297 90.4919 336.755 90.4865C337.094 90.4865 337.405 90.4974 337.705 90.5138C338.321 90.5631 339.123 90.6615 339.876 90.9186C340.432 91.0882 340.934 91.3398 341.393 91.6679L341.398 91.6734ZM291.906 113.738C291.786 113.246 291.775 112.748 291.846 112.212C291.917 111.709 292.091 111.178 292.392 110.599C292.719 109.888 293.199 109.286 293.63 108.772C294.099 108.219 294.656 107.689 295.425 107.027C296.69 105.966 298.147 104.97 300.176 103.822C301.655 102.957 303.253 102.175 305.054 101.41C306.358 100.956 307.667 100.523 308.987 100.102C308.987 100.091 308.992 100.091 308.992 100.091C309.003 100.091 309.113 100.141 309.123 100.141C309.123 100.151 309.233 100.201 309.222 100.212C309.113 100.573 309.003 100.934 308.867 101.295C308.714 101.705 308.556 102.104 308.398 102.503L307.89 103.559L307.721 103.887C307.607 104.117 307.487 104.347 307.372 104.593C307.034 105.216 306.701 105.845 306.396 106.474C305.899 107.317 305.408 108.159 304.89 109.111L304.59 109.592C303.99 110.495 303.412 111.326 302.833 112.103C301.759 113.509 300.798 114.57 299.833 115.45C298.736 116.402 297.732 116.987 296.767 117.212C296.521 117.283 296.287 117.305 295.867 117.332C295.676 117.332 295.485 117.31 295.305 117.294C294.825 117.217 294.312 116.993 293.815 116.632C293.646 116.506 293.483 116.364 293.324 116.211C293.062 115.943 292.822 115.642 292.604 115.33C292.277 114.881 292.037 114.318 291.906 113.727V113.738ZM292.179 120.641C292.179 121.68 291.333 122.534 290.28 122.539C289.26 122.539 288.393 121.669 288.387 120.647C288.387 119.624 289.255 118.754 290.275 118.749C291.328 118.749 292.179 119.596 292.179 120.641ZM296.767 101.355C296.767 100.332 297.634 99.4623 298.654 99.4568C299.675 99.4568 300.542 100.327 300.547 101.349C300.547 102.372 299.68 103.247 298.66 103.247C297.64 103.247 296.767 102.378 296.767 101.355ZM298.18 150.467C298.507 148.29 298.851 146.546 299.287 144.954C299.778 143.127 300.373 141.338 301.011 139.785C301.639 138.292 302.266 137.006 302.931 135.852C303.63 134.644 304.317 133.599 305.086 132.565C305.386 132.177 305.692 131.794 306.014 131.422C306.025 131.422 306.161 131.63 306.172 131.63L306.205 131.92C306.308 132.904 306.347 133.796 306.33 134.644C306.308 135.546 306.243 136.449 306.134 137.307C305.927 138.68 305.697 139.785 305.408 140.802C305.092 141.946 304.688 143.1 304.224 144.221C303.608 145.665 302.981 146.918 302.31 148.05C301.633 149.193 300.891 150.298 300.116 151.348C299.287 152.382 298.611 153.159 297.863 153.815C297.94 152.633 298.049 151.457 298.18 150.462V150.467ZM306.085 109.477C306.085 108.455 306.952 107.585 307.972 107.579C308.992 107.579 309.865 108.449 309.865 109.472C309.865 110.495 308.998 111.364 307.978 111.37C306.958 111.37 306.09 110.506 306.085 109.477ZM309.298 114.805C309.429 113.853 309.593 112.869 309.811 111.791L309.887 111.49L309.985 111.129C310.247 110.194 310.493 109.242 310.733 108.301C310.951 107.629 311.169 106.961 311.371 106.267L311.611 105.523L311.731 105.173C311.851 104.801 311.982 104.429 312.108 104.073C312.277 103.669 312.446 103.269 312.626 102.881C312.784 102.531 312.953 102.197 313.139 101.869C313.155 101.869 313.368 101.962 313.379 101.962C314.022 103.182 314.644 104.423 315.255 105.665C315.965 107.41 316.548 109.1 317.023 110.823C317.618 112.945 317.972 114.728 318.141 116.462C318.223 117.501 318.234 118.256 318.185 118.967C318.114 119.678 318.038 120.433 317.776 121.144C317.585 121.735 317.339 122.249 317.028 122.67C316.69 123.113 316.319 123.463 315.921 123.704C315.441 124.016 314.874 124.235 314.29 124.35C313.913 124.41 313.531 124.459 313.15 124.459C312.942 124.459 312.729 124.437 312.511 124.41C311.9 124.317 311.371 124.098 310.935 123.77C310.771 123.649 310.613 123.507 310.465 123.338C310.307 123.157 310.144 122.944 310.013 122.736C309.494 121.894 309.189 120.772 309.08 119.323C309.009 118.032 309.08 116.588 309.303 114.816L309.298 114.805ZM332.358 106.978C333.127 107.64 333.689 108.17 334.164 108.717C334.622 109.27 335.097 109.849 335.402 110.538C335.702 111.118 335.883 111.649 335.953 112.152C336.024 112.672 336.013 113.175 335.904 113.678C335.768 114.291 335.517 114.832 335.201 115.264C334.982 115.598 334.742 115.893 334.48 116.167C334.317 116.32 334.159 116.462 333.979 116.588C333.493 116.949 332.98 117.173 332.5 117.25C332.342 117.272 332.167 117.294 331.78 117.294C331.54 117.272 331.289 117.255 331.038 117.173C330.067 116.954 329.069 116.375 327.967 115.423C326.996 114.542 326.035 113.487 324.955 112.081C324.371 111.299 323.793 110.478 323.193 109.576L322.855 108.985C322.375 108.143 321.884 107.3 321.382 106.464C321.071 105.835 320.738 105.2 320.4 104.582C320.291 104.341 320.171 104.112 320.051 103.882L319.876 103.554L319.363 102.498C319.205 102.099 319.041 101.699 318.894 101.289C318.72 100.868 318.632 100.529 318.72 100.097C318.73 100.086 318.741 100.075 318.752 100.075L318.774 100.097C320.094 100.518 321.404 100.945 322.713 101.393C324.513 102.153 326.112 102.93 327.59 103.789C329.62 104.927 331.082 105.917 332.353 106.978H332.358ZM328.654 101.984C328.654 100.961 329.521 100.091 330.542 100.086C331.562 100.086 332.435 100.956 332.435 101.978C332.435 103.001 331.567 103.871 330.547 103.876C329.527 103.876 328.659 103.007 328.654 101.984ZM320.4 107.908C321.436 107.908 322.287 108.755 322.293 109.8C322.293 110.839 321.447 111.693 320.405 111.698C319.385 111.698 318.512 110.828 318.512 109.806C318.512 108.783 319.38 107.913 320.4 107.908ZM318.921 135.694C319.702 133.867 320.673 132.002 321.933 129.978C322.697 128.747 323.499 127.522 324.284 126.308C324.284 126.297 324.322 126.258 324.333 126.258L324.377 126.297C324.688 126.805 324.988 127.325 325.266 127.845C326.041 129.256 326.69 130.607 327.279 132.002C328.212 134.206 328.976 136.438 329.549 138.631C330.1 140.693 330.536 142.848 330.902 145.233C331.005 146.015 331.093 146.797 331.164 147.579C331.376 151.277 331.256 154.964 330.803 158.53C329.876 165.285 328.032 172.002 325.337 178.494C324.47 180.578 323.526 182.575 322.489 184.462C322.369 184.402 322.32 184.336 322.287 184.243L322.086 183.997C321.933 183.674 321.786 183.346 321.655 183.023C320.362 179.938 319.254 176.613 318.289 172.86C317.83 171.105 317.388 169.343 316.985 167.566C316.592 165.64 316.286 163.901 316.079 162.397C315.725 159.744 315.55 157.277 315.55 154.854C315.555 152.437 315.725 149.942 316.03 147.448C316.357 145.091 316.734 143.067 317.192 141.245C317.454 140.162 317.71 139.079 318.065 138.029C318.343 137.187 318.649 136.367 318.932 135.705L318.921 135.694ZM313.602 125.963C314.623 125.963 315.49 126.833 315.495 127.856C315.495 128.878 314.628 129.748 313.608 129.754C312.588 129.754 311.715 128.889 311.715 127.861C311.715 126.838 312.582 125.969 313.602 125.963ZM338.528 120.657C337.508 120.657 336.635 119.788 336.635 118.765C336.635 117.742 337.503 116.872 338.523 116.867C339.543 116.867 340.411 117.731 340.416 118.759C340.416 119.782 339.549 120.652 338.528 120.657ZM327.126 88.4627C327.126 87.4398 327.994 86.5647 329.014 86.5647C330.034 86.5647 330.902 87.4344 330.907 88.4572C330.907 89.48 330.04 90.3497 329.02 90.3552C327.999 90.3552 327.126 89.4855 327.126 88.4627ZM337.77 68.5584C338.79 68.5584 339.658 69.4281 339.663 70.4509C339.669 71.4737 338.801 72.3434 337.776 72.3489C336.755 72.3489 335.888 71.4792 335.883 70.4564C335.877 69.4335 336.75 68.5638 337.77 68.5584ZM331.502 72.1739C331.813 72.1739 332.08 72.2121 332.353 72.2833C332.953 72.4255 333.504 72.6607 333.935 72.9888C334.268 73.2076 334.562 73.4374 334.835 73.7108C334.982 73.8585 335.124 74.0226 335.255 74.2086C335.615 74.6954 335.833 75.2205 335.915 75.7128C335.943 75.9534 335.975 76.1722 335.953 76.4019C335.932 76.6536 335.915 76.9052 335.833 77.1513C335.615 78.114 335.037 79.1149 334.093 80.2198C333.204 81.1989 332.146 82.1616 330.76 83.25C329.991 83.8353 329.161 84.4042 328.267 85.0058L327.945 85.2082L327.672 85.3614C327.045 85.7114 326.412 86.0834 325.784 86.4553L325.157 86.8272C324.53 87.1499 323.897 87.4727 323.28 87.8227L322.86 88.036L322.571 88.1454L322.249 88.3478L321.731 88.6049L321.202 88.8565L320.454 89.1464L319.996 89.3269C319.751 89.4254 319.478 89.5183 319.167 89.5183C319.047 89.5183 318.938 89.4965 318.807 89.4418C319.227 88.129 319.663 86.8163 320.1 85.4981C320.804 83.7861 321.595 82.178 322.495 80.5972C323.619 78.6117 324.628 77.0966 325.675 75.8222C326.363 75.0181 326.881 74.4766 327.41 74.0281C327.77 73.7163 328.441 73.142 329.227 72.7701C329.745 72.4911 330.28 72.3215 330.836 72.2176C331.065 72.1903 331.289 72.1684 331.507 72.1684L331.502 72.1739ZM318.409 78.8743C318.409 77.8514 319.276 76.9817 320.296 76.9763C321.316 76.9763 322.184 77.846 322.189 78.8688C322.189 79.8916 321.327 80.7668 320.302 80.7668C319.281 80.7668 318.414 79.8971 318.409 78.8743ZM323.526 47.1225C326.657 47.1225 329.2 49.6605 329.205 52.8001C329.205 55.9397 326.674 58.4886 323.542 58.4941C320.411 58.4941 317.869 55.9561 317.863 52.8165C317.858 49.6769 320.394 47.128 323.526 47.1225ZM313.63 58.5378C314.65 58.5378 315.523 59.4075 315.523 60.4304C315.523 61.4532 314.655 62.3229 313.635 62.3284C312.615 62.3284 311.747 61.4641 311.742 60.4358C311.742 59.413 312.609 58.5433 313.63 58.5378ZM310.487 66.6987C310.618 66.4853 310.766 66.2775 310.924 66.0861C311.066 65.9384 311.224 65.8071 311.464 65.6157C311.851 65.3203 312.353 65.1343 312.975 65.0195C313.193 64.9812 313.406 64.9702 313.624 64.9702C314.001 64.9702 314.372 65.0085 314.753 65.0796C315.343 65.189 315.915 65.4078 316.396 65.7196C316.783 65.9493 317.148 66.2884 317.492 66.7479C317.803 67.1691 318.054 67.6559 318.256 68.2685C318.518 69.0178 318.621 69.8219 318.671 70.44C318.714 71.1838 318.703 71.9551 318.627 72.9451C318.49 74.5696 318.141 76.3637 317.525 78.5844C317.11 80.1761 316.532 81.8607 315.785 83.7478C315.217 84.891 314.579 86.1818 313.679 87.5492C313.499 87.2211 313.319 86.8929 313.16 86.5373C312.98 86.1435 312.811 85.7442 312.637 85.3449L312.446 84.7925L312.222 84.0541L312.08 83.704L311.889 83.1461C311.698 82.4624 311.48 81.7896 311.246 81.1223C311.006 80.1706 310.766 79.2298 310.455 78.1851L310.302 77.6108C310.089 76.5496 309.925 75.5596 309.8 74.6133C309.565 72.863 309.483 71.43 309.554 70.1063C309.642 68.6951 309.947 67.5684 310.487 66.6877V66.6987ZM309.233 83.6821C309.331 83.6329 309.434 83.6001 309.685 83.5181C309.805 83.4962 309.931 83.4852 310.062 83.4852C310.171 83.4852 310.291 83.4962 310.4 83.5071C310.607 83.5454 310.798 83.6165 311 83.7478C311.202 83.8791 311.371 84.0267 311.529 84.2072C311.742 84.4479 311.878 84.705 312.009 84.9839C312.151 85.2574 312.26 85.5473 312.38 85.9357C312.593 86.5866 312.73 87.3304 312.784 88.1783C313.084 88.14 313.384 88.1181 313.684 88.1181C314.006 88.1181 314.312 88.1454 314.628 88.1673L315.174 88.2275L315.223 87.7844C315.31 87.4125 315.392 87.0515 315.49 86.7124C315.681 85.9904 315.877 85.427 316.117 84.9675C316.368 84.426 316.668 84.0541 317.017 83.8134C317.105 83.7533 317.187 83.704 317.285 83.6821L317.558 83.5618C317.645 83.529 317.738 83.5126 317.836 83.5126C317.967 83.5126 318.098 83.5345 318.245 83.5837L318.496 83.6767C318.649 83.7368 318.78 83.8025 318.905 83.8955C319.112 84.0158 319.298 84.1854 319.445 84.4096C319.554 84.5682 319.636 84.7597 319.685 84.9785C319.756 85.2082 319.778 85.4379 319.756 85.6786C319.74 85.9466 319.669 86.242 319.538 86.5811C319.451 86.8765 319.32 87.1554 319.118 87.5274C318.801 88.1564 318.381 88.769 317.721 89.5238C317.934 89.6824 318.136 89.8629 318.321 90.0544L318.523 90.2732C318.774 90.5302 319.031 90.8147 319.314 91.0006C320.062 90.4263 320.689 90.0161 321.3 89.7152C321.66 89.5238 321.949 89.4035 322.238 89.316C322.577 89.1847 322.866 89.1245 323.297 89.1026C323.515 89.1026 323.684 89.13 323.848 89.1737C324.039 89.212 324.224 89.305 324.426 89.4363C324.639 89.6059 324.797 89.7864 324.906 89.9778C324.993 90.1036 325.07 90.2458 325.124 90.388L325.206 90.6451C325.239 90.7545 325.304 91.0499 325.217 91.3398L325.119 91.6078C325.075 91.7062 325.032 91.7992 324.966 91.8922C324.721 92.2313 324.339 92.5157 323.799 92.7619C323.291 93.0135 322.724 93.2159 322.053 93.38L321.344 93.5495L320.831 93.6699L320.542 93.7027L320.133 93.6917C320.274 94.5833 320.214 95.4639 319.936 96.2899L320.269 96.3172C321.158 96.4375 321.884 96.5962 322.577 96.8259C322.964 96.9408 323.269 97.0611 323.526 97.2033C323.859 97.3619 324.11 97.5205 324.295 97.6901C324.486 97.8597 324.628 98.0292 324.748 98.2316C324.873 98.4395 324.961 98.6418 324.988 98.8333C325.021 99.1013 324.999 99.3638 324.95 99.5553C324.912 99.7139 324.862 99.8671 324.797 100.015C324.764 100.097 324.726 100.162 324.677 100.244C324.541 100.474 324.388 100.649 324.208 100.737C324.121 100.786 324.039 100.824 323.935 100.868L323.624 100.956C323.526 100.966 323.422 100.977 323.313 100.977C322.975 100.977 322.593 100.895 322.173 100.737C321.671 100.556 321.142 100.305 320.509 99.9382C320.176 99.7412 319.833 99.517 319.467 99.2818C319.456 99.2818 319.445 99.2818 319.216 99.1013L318.796 98.702C318.638 98.9044 318.458 99.1013 318.267 99.2927C317.929 99.6319 317.547 99.9272 317.187 100.086L317.59 100.584C318.13 101.273 318.529 101.907 318.872 102.569C319.063 102.936 319.183 103.231 319.271 103.521C319.331 103.679 319.44 104.013 319.483 104.423C319.494 104.724 319.462 104.937 319.418 105.118C319.38 105.32 319.287 105.517 319.156 105.709C319.003 105.917 318.818 106.092 318.616 106.201C318.469 106.299 318.338 106.371 318.207 106.414C318.12 106.458 318.038 106.474 317.945 106.496C317.825 106.54 317.705 106.557 317.558 106.557C317.438 106.557 317.35 106.535 317.268 106.518C317.198 106.507 317.078 106.48 316.985 106.42L316.707 106.261C316.368 106.004 316.085 105.632 315.834 105.091C315.594 104.604 315.392 104.051 315.223 103.351L314.934 102.121L314.901 101.842L314.857 101.098C314.47 101.169 314.077 101.202 313.679 101.202C313.21 101.202 312.828 101.152 312.539 101.043L312.479 101.595C312.359 102.476 312.189 103.242 311.982 103.915C311.851 104.314 311.737 104.604 311.595 104.877C311.535 105.003 311.377 105.326 311.109 105.649C310.946 105.829 310.771 105.982 310.569 106.092C310.411 106.201 310.209 106.283 309.969 106.332C309.871 106.343 309.767 106.354 309.669 106.354C309.5 106.354 309.369 106.332 309.238 106.294C309.085 106.256 308.938 106.217 308.796 106.157C308.709 106.119 308.638 106.075 308.556 106.026C308.42 105.955 308.207 105.785 308.065 105.556C308.016 105.495 307.978 105.408 307.945 105.298L307.847 104.976C307.787 104.566 307.858 104.106 308.065 103.532C308.234 103.023 308.491 102.493 308.862 101.869C309.069 101.53 309.287 101.174 309.527 100.808L309.707 100.567L310.116 100.146C309.724 99.8944 309.363 99.5936 309.047 99.2873C308.84 99.0794 308.676 98.877 308.594 98.6856L308.185 99.0138C308.185 99.0138 307.945 99.1779 307.934 99.1779C307.569 99.4295 307.214 99.6428 306.876 99.8397C306.227 100.223 305.697 100.474 305.206 100.622C304.775 100.775 304.404 100.846 304.077 100.846C303.968 100.846 303.859 100.835 303.75 100.819L303.45 100.731C303.352 100.698 303.27 100.649 303.193 100.6C303.013 100.502 302.855 100.327 302.741 100.091L302.599 99.8725C302.539 99.7194 302.5 99.5717 302.468 99.4185C302.408 99.1779 302.397 98.9372 302.44 98.6856C302.49 98.4668 302.566 98.2644 302.675 98.0949C302.779 97.9034 302.926 97.7339 303.122 97.5534C303.362 97.34 303.624 97.2033 303.903 97.072C304.17 96.9298 304.47 96.8204 304.863 96.7001C305.545 96.4758 306.292 96.3445 307.361 96.2734C307.143 95.3928 307.11 94.5286 307.29 93.741L306.941 93.6699L306.423 93.5988C306.085 93.5222 305.757 93.4511 305.436 93.3581C304.726 93.1612 304.175 92.9588 303.695 92.7291C303.166 92.472 302.784 92.1766 302.544 91.832L302.38 91.5585L302.293 91.2796C302.211 90.9678 302.282 90.6779 302.304 90.5959C302.315 90.5138 302.342 90.4263 302.402 90.3388C302.462 90.1856 302.533 90.0544 302.621 89.9286C302.719 89.7371 302.888 89.5566 303.106 89.398C303.27 89.2777 303.455 89.1956 303.684 89.1464C303.843 89.0972 303.995 89.0753 304.394 89.0753C304.765 89.1245 305.086 89.223 305.294 89.2941C305.572 89.398 305.861 89.5129 306.232 89.7152C306.881 90.0544 307.503 90.481 308.212 91.121C308.452 90.749 308.752 90.388 309.08 90.0489C309.391 89.7481 309.718 89.48 310.04 89.2941C310.04 89.2941 309.871 89.0862 309.882 89.0644C309.631 88.6924 309.418 88.3424 309.222 88.0032C308.84 87.3523 308.6 86.8327 308.436 86.324C308.245 85.7606 308.185 85.3012 308.245 84.8745H308.278L308.338 84.5628L308.469 84.3002C308.567 84.1197 308.736 83.9611 308.965 83.8298L309.205 83.7204L309.233 83.6821ZM306.843 76.0027C307.863 76.0027 308.736 76.8669 308.736 77.8952C308.736 78.918 307.869 79.7877 306.849 79.7932C305.828 79.7932 304.961 78.9235 304.955 77.9007C304.955 76.8778 305.823 76.0081 306.843 76.0027ZM297.951 47.1608C301.082 47.1608 303.624 49.6988 303.63 52.8384C303.63 55.978 301.098 58.5269 297.967 58.5324C294.836 58.5324 292.293 55.9944 292.288 52.8548C292.288 49.7152 294.819 47.1663 297.951 47.1608ZM291.786 75.762C291.862 75.2807 292.086 74.7665 292.441 74.2688C292.572 74.0883 292.713 73.9296 292.861 73.7765C293.128 73.503 293.428 73.2733 293.739 73.0545C294.197 72.7208 294.748 72.4747 295.337 72.3434C295.588 72.2723 295.867 72.234 296.178 72.234C296.407 72.234 296.63 72.2559 296.86 72.2833C297.421 72.3872 297.951 72.5513 298.469 72.8302C299.178 73.1693 299.789 73.6507 300.291 74.0828C300.82 74.5313 301.344 75.0728 302.031 75.8714C303.084 77.1404 304.093 78.6555 305.228 80.6355C306.128 82.2163 306.919 83.8189 307.634 85.5309C308.076 86.8218 308.518 88.1564 308.829 89.7098C308.469 89.6004 308.109 89.491 307.749 89.3652L307.29 89.1847L306.538 88.8948L306.117 88.6979L305.496 88.3697L305.157 88.2111L304.879 88.0853L304.459 87.8774C303.837 87.5274 303.21 87.2046 302.582 86.8874L301.949 86.5155C301.322 86.149 300.689 85.7771 300.062 85.427L299.795 85.2738L299.473 85.0769C298.573 84.4753 297.76 83.9064 296.969 83.3266C295.577 82.2436 294.519 81.2864 293.624 80.3073C292.686 79.2462 292.113 78.2452 291.873 77.2443C291.791 76.9981 291.775 76.7465 291.753 76.4949C291.742 76.2761 291.764 76.0519 291.791 75.7839L291.786 75.762ZM299.467 87.7024C299.467 88.7252 298.6 89.5949 297.58 89.6004C296.559 89.6004 295.692 88.7362 295.687 87.7079C295.687 86.685 296.554 85.8153 297.574 85.8099C298.594 85.8099 299.467 86.6796 299.467 87.7024ZM289.724 67.7051C290.744 67.7051 291.611 68.5748 291.617 69.5976C291.617 70.6205 290.749 71.4901 289.729 71.4956C288.709 71.4956 287.842 70.6259 287.836 69.6031C287.836 68.5802 288.698 67.7051 289.724 67.7051ZM283.974 93.9543C284.05 93.4018 284.274 92.833 284.612 92.3188C284.863 91.8977 285.201 91.5367 285.638 91.203C286.058 90.8912 286.549 90.6451 287.154 90.4427C287.902 90.1802 288.704 90.0763 289.326 90.027C289.604 90.0106 289.904 89.9997 290.215 89.9997C290.695 89.9997 291.213 90.027 291.819 90.0763C293.461 90.213 295.239 90.5631 297.449 91.1811C299.036 91.5968 300.717 92.1766 302.593 92.926C303.733 93.4948 305.026 94.1348 306.385 95.0318C306.057 95.2123 305.714 95.3928 305.376 95.5569C304.977 95.7374 304.59 95.907 304.186 96.082L303.706 96.2516L303.09 96.4649L302.73 96.5743C302.484 96.6563 302.239 96.7384 301.993 96.8259C301.311 97.0173 300.646 97.2361 299.964 97.4713C299.025 97.712 298.087 97.9526 297.04 98.2863C296.86 98.3191 296.679 98.3465 296.489 98.4176C295.419 98.6309 294.432 98.7895 293.483 98.9208C292.146 99.1068 291.006 99.1943 289.997 99.1997C289.658 99.1997 289.315 99.1888 288.998 99.1724C287.591 99.0849 286.472 98.7786 285.589 98.2371C285.381 98.1058 285.168 97.9581 284.978 97.794C284.797 97.6245 284.645 97.433 284.508 97.2525C284.219 96.8642 284.028 96.361 283.919 95.7429C283.875 95.5241 283.865 95.3108 283.865 95.092C283.865 94.7146 283.903 94.3426 283.974 93.9598V93.9543ZM281.23 94.7583C281.23 95.8085 280.384 96.6618 279.342 96.6618C278.3 96.6618 277.449 95.814 277.449 94.7638C277.449 93.741 278.316 92.8713 279.337 92.8658C280.357 92.8658 281.224 93.7355 281.23 94.7583ZM272.364 47.1936C275.496 47.1936 278.038 49.7316 278.044 52.8712C278.044 56.0108 275.512 58.5597 272.381 58.5652C269.249 58.5652 266.707 56.0272 266.702 52.8876C266.702 49.748 269.233 47.1991 272.364 47.1936ZM246.784 47.2319C249.915 47.2319 252.457 49.7699 252.463 52.9095C252.463 56.0491 249.932 58.598 246.8 58.6035C243.669 58.6035 241.126 56.0655 241.121 52.9259C241.121 49.7863 243.652 47.2374 246.784 47.2319ZM245.714 68.6896C246.451 68.6568 247.193 68.6459 247.935 68.6459C250.106 68.6459 252.441 68.7607 254.7 68.9686C258.251 69.3351 261.726 69.9422 265.038 70.7791C268.295 71.5831 271.644 72.6443 275.032 73.9406C276.451 74.4875 277.858 75.0673 279.26 75.7675C278.311 76.4184 277.345 77.0638 276.352 77.6764C275.316 78.2999 274.247 78.8743 273.155 79.4158C270.99 80.5097 268.644 81.456 265.976 82.3038C263.685 83.0367 261.192 83.6548 258.333 84.169C255.654 84.6229 252.927 84.9183 250.248 85.0222C249.539 85.055 248.83 85.066 248.12 85.066C243.423 85.0715 238.846 84.4753 234.509 83.2883C232.092 82.6429 229.67 81.724 227.313 80.5753C225.104 79.4869 222.992 78.1194 221.028 76.5278C220.892 76.4184 220.816 76.2433 220.816 75.9261C221.547 75.3682 222.294 74.8595 223.025 74.4383C223.854 73.957 224.689 73.503 225.682 73.0435C229.015 71.5175 232.84 70.3907 237.368 69.5703C240.204 69.0944 243.014 68.799 245.709 68.6951L245.714 68.6896ZM221.198 47.2647C224.329 47.2647 226.871 49.8027 226.877 52.9423C226.877 56.0819 224.345 58.6308 221.214 58.6363C218.083 58.6363 215.54 56.0983 215.535 52.9587C215.535 49.8191 218.066 47.2702 221.198 47.2647ZM195.617 47.303C198.748 47.303 201.291 49.841 201.296 52.9806C201.296 56.1202 198.765 58.6691 195.633 58.6746C192.502 58.6746 189.96 56.1366 189.954 52.997C189.954 49.8574 192.485 47.3085 195.617 47.303ZM170.036 47.3413C173.168 47.3413 175.71 49.8793 175.715 53.0189C175.715 56.1585 173.184 58.7074 170.053 58.7129C166.921 58.7129 164.379 56.1749 164.373 53.0353C164.373 49.8957 166.905 47.3468 170.036 47.3413ZM144.455 47.3796C147.587 47.3796 150.129 49.9176 150.135 53.0572C150.135 56.1968 147.603 58.7457 144.472 58.7512C141.34 58.7512 138.798 56.2132 138.793 53.0736C138.793 49.934 141.324 47.3851 144.455 47.3796ZM118.875 47.4179C122.006 47.4179 124.548 49.9559 124.554 53.0955C124.559 56.2351 122.023 58.784 118.891 58.7894C115.76 58.7894 113.217 56.2515 113.212 53.1119C113.212 49.9723 115.743 47.4234 118.875 47.4179ZM93.294 47.4562C96.4255 47.4562 98.9677 49.9941 98.9732 53.1338C98.9732 56.2734 96.4418 58.8223 93.3104 58.8277C90.179 58.8277 87.6367 56.2898 87.6313 53.1502C87.6313 50.0105 90.1626 47.4617 93.294 47.4562ZM87.2876 75.1549C90.6536 73.8695 94.0305 72.7919 97.3147 71.9551C100.55 71.1291 104.069 70.5056 107.478 70.1282C109.906 69.9039 112.235 69.7781 114.401 69.7781C115.143 69.7781 115.88 69.7836 116.627 69.8164C119.295 69.9149 122.055 70.1883 125.061 70.6861C129.518 71.4683 133.359 72.606 136.78 74.1539C137.658 74.5641 138.498 75.0126 139.327 75.494C140.146 75.9644 140.838 76.4512 141.559 77.0911C141.526 77.3099 141.46 77.4685 141.329 77.5725C139.376 79.1696 137.265 80.5425 135.061 81.6419C132.704 82.7961 130.288 83.7259 127.871 84.3768C123.534 85.5747 118.957 86.1818 114.259 86.1873C113.55 86.1873 112.841 86.1763 112.132 86.149C109.453 86.0505 106.725 85.7661 104.047 85.3176C101.188 84.8089 98.6895 84.2018 96.3982 83.4743C93.7305 82.6374 91.3792 81.6966 89.2079 80.6082C88.1168 80.0667 87.0475 79.5033 86.0055 78.8797C85.0072 78.2671 84.0361 77.6272 83.0814 76.8997C84.478 76.2761 85.8964 75.6909 87.2766 75.1494L87.2876 75.1549ZM84.8926 92.3134C85.9128 92.3134 86.7802 93.1831 86.7857 94.2059C86.7857 95.2287 85.9182 96.0984 84.8981 96.1039C83.8779 96.1039 83.0105 95.2397 83.005 94.2114C83.005 93.1885 83.867 92.3188 84.8926 92.3134ZM78.5861 90.667C79.0553 91.017 79.3935 91.3671 79.6172 91.7664C79.95 92.2641 80.1682 92.8385 80.2718 93.4073C80.3318 93.7847 80.37 94.1567 80.3755 94.5395C80.3755 94.7583 80.3646 94.9716 80.3264 95.1904C80.2882 95.4585 80.1463 96.1531 79.7372 96.7056C79.6008 96.8861 79.4481 97.0775 79.268 97.2471C79.0771 97.4057 78.8643 97.5588 78.657 97.6901C77.7787 98.2316 76.6712 98.5434 75.2528 98.6254C74.9145 98.6473 74.5654 98.6582 74.2053 98.6582C73.207 98.6582 72.105 98.5707 70.7684 98.4012C69.8191 98.2699 68.8426 98.1167 67.7624 97.887L67.1023 97.7065C66.164 97.444 65.2256 97.1978 64.2818 96.9681C63.6163 96.7384 62.9343 96.5196 62.2524 96.3281C62.0014 96.2352 61.7614 96.1586 61.5105 96.0765L61.1613 95.9671L60.6103 95.7757L60.0484 95.5843L59.3501 95.2834L58.87 95.0646C58.57 94.9388 58.2863 94.7857 57.9971 94.6271L58.008 94.6052L57.948 94.3043C59.1646 93.6699 60.3921 93.0463 61.6305 92.4228C63.5072 91.6679 65.1874 91.0881 66.775 90.6615C68.9899 90.038 70.7793 89.6879 72.3996 89.5402C73.0106 89.4855 73.5398 89.4582 74.0308 89.4582C74.3308 89.4582 74.6199 89.4691 74.8982 89.4855C75.5146 89.5347 76.3166 89.6332 77.064 89.8903C77.675 90.0927 78.166 90.3388 78.5861 90.6506V90.667ZM31.9091 106.578C33.1638 105.517 34.675 104.5 36.6608 103.373C38.1774 102.509 39.7758 101.716 41.538 100.95C42.8473 100.507 44.1511 100.075 45.4714 99.6537C45.4714 99.6428 45.4823 99.6428 45.4823 99.6428C45.4932 99.6428 45.6023 99.692 45.6077 99.692C45.6077 99.703 45.7169 99.7522 45.7114 99.7631C45.6023 100.124 45.4932 100.485 45.2913 101.005C45.1659 101.355 45.0349 101.71 44.8822 102.055L44.3748 103.105C44.3257 103.215 44.2657 103.324 44.2057 103.439L43.9766 103.898L43.8565 104.139C43.5183 104.762 43.1964 105.391 42.88 106.02C42.3836 106.863 41.8926 107.705 41.3743 108.657L41.0742 109.138C40.4741 110.041 39.8959 110.872 39.3176 111.649C38.2483 113.049 37.2936 114.127 36.3116 114.996C35.2205 115.948 34.2222 116.522 33.2456 116.774C32.9947 116.823 32.7437 116.856 32.3455 116.878C32.1546 116.878 31.9745 116.856 31.7945 116.829C31.0525 116.719 30.4743 116.298 30.327 116.167C30.1579 116.057 29.9942 115.926 29.8087 115.746C29.5468 115.489 29.3068 115.188 29.0886 114.876C28.7558 114.427 28.5158 113.864 28.3848 113.268C28.2648 112.797 28.2539 112.283 28.3248 111.753C28.423 111.189 28.5921 110.659 28.8704 110.139C29.2086 109.428 29.6887 108.816 30.1033 108.312C30.5725 107.76 31.1289 107.229 31.8981 106.567L31.9091 106.578ZM31.8218 101.579C31.8218 100.556 32.6892 99.6865 33.7094 99.6811C34.7295 99.6811 35.597 100.545 35.6024 101.574C35.6024 102.596 34.7404 103.466 33.7148 103.472C32.6946 103.472 31.8272 102.602 31.8218 101.579ZM45.6514 168.889C45.2531 170.673 44.8167 172.439 44.3584 174.19C43.4365 177.827 42.3017 181.289 40.9979 184.445L40.8178 184.839L40.5996 185.337L40.4196 185.589C40.3705 185.676 40.3105 185.747 40.1414 185.791C39.1376 183.887 38.1883 181.885 37.3973 180.004C34.6368 173.418 32.7601 166.674 31.8109 159.952C31.3471 156.342 31.2108 152.639 31.4126 148.952C31.4835 148.17 31.5708 147.388 31.669 146.666C32.0182 144.27 32.4492 142.088 32.9947 139.998C33.5621 137.816 34.3204 135.579 35.2314 133.375C35.837 131.941 36.4971 130.569 37.2445 129.201C37.5227 128.671 37.8228 128.156 38.1228 127.659C38.1228 127.648 38.161 127.609 38.1719 127.609L38.2101 127.648L38.4938 128.069C39.203 129.152 39.9013 130.224 40.5887 131.323C41.8217 133.309 42.8145 135.169 43.5565 136.87C43.9002 137.69 44.2111 138.511 44.4894 139.353C44.8494 140.403 45.1113 141.486 45.3732 142.569C45.826 144.369 46.2079 146.376 46.5515 148.712C46.8625 151.266 47.0425 153.777 47.0534 156.172C47.0534 158.546 46.8898 161.024 46.5734 163.546C46.3279 165.329 46.0115 167.112 45.6514 168.889ZM43.8784 111.26C42.8582 111.26 41.9908 110.391 41.9853 109.368C41.9853 108.345 42.8473 107.475 43.8729 107.47C44.8931 107.47 45.7605 108.334 45.766 109.362C45.766 110.385 44.8985 111.255 43.8784 111.26ZM25.7826 120.275C24.7624 120.275 23.8895 119.405 23.8895 118.382C23.8895 117.359 24.7569 116.49 25.7771 116.484C26.8246 116.484 27.6756 117.332 27.6756 118.377C27.6756 119.416 26.83 120.269 25.7826 120.275ZM48.8428 127.407C48.8428 126.384 49.7103 125.515 50.7304 125.509C51.7506 125.509 52.618 126.379 52.6235 127.402C52.6235 128.424 51.7561 129.294 50.7359 129.3C49.7157 129.3 48.8428 128.43 48.8428 127.407ZM53.3218 123.343C52.9344 123.633 52.4271 123.835 51.8052 123.945C51.5869 123.978 51.3742 123.999 51.1669 123.999C50.785 123.999 50.4086 123.95 50.0376 123.89C49.4866 123.792 48.9192 123.584 48.401 123.25C47.9863 122.998 47.6208 122.648 47.288 122.222C46.988 121.812 46.7479 121.33 46.5352 120.701C46.2679 119.93 46.1697 119.131 46.1206 118.519C46.066 117.819 46.0878 117.069 46.1533 116.014C46.3115 114.356 46.6607 112.568 47.2662 110.38C47.7026 108.728 48.27 107.043 49.0065 105.211L49.503 104.199C49.9121 103.368 50.3813 102.438 51.0469 101.393H51.0687L51.0469 101.382C51.0578 101.382 51.1069 101.41 51.1069 101.41C51.2869 101.749 51.456 102.082 51.6197 102.432L51.9416 103.132L52.1543 103.625L52.5362 104.724C52.5689 104.844 52.6071 104.965 52.6453 105.074L52.8853 105.813C53.0872 106.496 53.3054 107.175 53.5291 107.847C53.7691 108.788 54.0255 109.74 54.3256 110.785L54.4729 111.353C54.6857 112.415 54.8548 113.399 54.9912 114.351C55.2203 116.123 55.2967 117.567 55.2257 118.858C55.1166 120.307 54.822 121.434 54.3038 122.276C54.1728 122.484 54.0255 122.698 53.8673 122.878C53.6982 123.059 53.5073 123.212 53.3272 123.349L53.3218 123.343ZM54.4129 109.012C54.4129 107.99 55.2803 107.12 56.3005 107.114C57.3206 107.114 58.1935 107.984 58.1935 109.007C58.1935 110.03 57.3261 110.899 56.3059 110.905C55.2858 110.905 54.4183 110.041 54.4129 109.012ZM56.3168 133.216L56.4369 132.724L56.4587 132.735L56.4369 132.713H56.4478C56.4478 132.713 56.4914 132.724 56.4969 132.724C56.8187 133.096 57.1352 133.473 57.5061 133.954C58.2208 134.917 58.9082 135.956 59.601 137.149C60.2611 138.27 60.894 139.539 61.4723 140.923C62.1651 142.607 62.7761 144.396 63.2671 146.245C63.6981 147.826 64.0636 149.57 64.3637 151.583C64.4946 152.606 64.6255 153.826 64.6092 155.15C63.8563 154.351 63.1362 153.509 62.4542 152.65C61.6741 151.6 60.9322 150.5 60.2502 149.357C59.5792 148.236 58.9573 146.994 58.3245 145.539C57.8498 144.396 57.4516 143.247 57.1297 142.115C56.846 141.125 56.606 139.993 56.3932 138.653C56.2841 137.761 56.2077 136.859 56.1914 135.956C56.1695 135.103 56.2077 134.211 56.3059 133.221L56.3168 133.216ZM64.4564 114.969C63.4635 114.061 62.5033 113 61.445 111.627C60.8612 110.845 60.283 110.024 59.6829 109.122C59.5792 108.958 59.481 108.799 59.3392 108.531C58.8591 107.689 58.3681 106.852 57.8662 106.01C57.5552 105.381 57.2225 104.746 56.8842 104.128C56.7751 103.887 56.6551 103.658 56.5351 103.428C56.486 103.318 56.426 103.209 56.3659 103.1L55.8531 102.049C55.6949 101.65 55.5312 101.24 55.384 100.841C55.2421 100.447 55.133 100.102 55.2203 99.6483L55.2312 99.6373H55.2421C55.2421 99.6373 55.2639 99.6483 55.2748 99.6483C56.5842 100.069 57.8935 100.496 59.2028 100.934C60.9704 101.694 62.5743 102.482 64.08 103.34C66.0712 104.462 67.5824 105.468 68.8426 106.529C69.6118 107.191 70.1737 107.722 70.6429 108.269C70.9539 108.63 71.5212 109.297 71.8922 110.09C72.1814 110.659 72.3559 111.189 72.4323 111.704C72.5141 112.234 72.5032 112.743 72.3723 113.219C72.2468 113.831 72.0068 114.384 71.674 114.81C71.4121 115.199 71.1885 115.472 70.9539 115.702C70.7848 115.882 70.6265 116.014 70.4629 116.123C70.1137 116.375 69.5846 116.697 68.8972 116.796C68.7553 116.807 68.608 116.84 68.2589 116.84C68.0188 116.818 67.7788 116.79 67.5169 116.719C66.5459 116.5 65.5475 115.921 64.4455 114.969H64.4564ZM63.709 100.863C63.709 99.8397 64.5764 98.97 65.5966 98.9645C66.6168 98.9645 67.4842 99.8342 67.4896 100.857C67.4896 101.88 66.6222 102.75 65.6021 102.755C64.5819 102.755 63.7145 101.891 63.709 100.863ZM74.0253 118.234C75.0455 118.234 75.9129 119.099 75.9184 120.127C75.9184 121.15 75.0564 122.019 74.0308 122.025C73.0106 122.025 72.1432 121.155 72.1377 120.132C72.1377 119.11 73.0051 118.24 74.0253 118.234ZM67.2387 82.807C66.464 83.3813 65.6402 83.9611 64.7455 84.5628L64.4237 84.7652L64.1509 84.9128C63.5235 85.2629 62.8961 85.6403 62.2633 86.0068L61.6359 86.3787C61.0085 86.7014 60.3757 87.0241 59.7592 87.3742L59.3392 87.5875L59.05 87.6969L58.7282 87.8993L58.3081 88.1126L57.6807 88.4135L56.9333 88.7034L56.475 88.8839C56.2295 88.9823 55.9568 89.0753 55.6567 89.0753C55.5367 89.0753 55.4276 89.0534 55.2967 88.9932C55.6676 87.7844 56.0604 86.5866 56.4696 85.3832L56.5787 85.0496C57.2879 83.3376 58.0735 81.7295 58.9737 80.1487C60.0866 78.1741 61.0958 76.659 62.1542 75.3736C62.8416 74.5696 63.3599 74.0281 63.889 73.5741C64.3855 73.1475 64.9965 72.6607 65.7057 72.3215C66.224 72.0426 66.7532 71.8675 67.3096 71.7691C67.5387 71.7417 67.7624 71.7199 67.9915 71.7199C68.3025 71.7199 68.5807 71.7582 68.8317 71.8293C69.4318 71.966 69.9828 72.2067 70.4138 72.5349C70.7466 72.7536 71.0412 72.9834 71.3139 73.2569C71.4667 73.41 71.6031 73.5686 71.734 73.7601C72.105 74.2797 72.3232 74.7774 72.3941 75.2642C72.4268 75.5049 72.4541 75.7346 72.4323 75.9534C72.4159 76.205 72.3941 76.4512 72.3177 76.7028C72.0777 77.7037 71.5103 78.7047 70.572 79.7713C69.6827 80.7558 68.6244 81.7185 67.2387 82.8015V82.807ZM68.5262 87.2046C68.5262 88.2275 67.6588 89.0972 66.6386 89.1026C65.6184 89.1026 64.751 88.233 64.7455 87.2101C64.7455 86.1873 65.613 85.3176 66.6331 85.3121C67.6533 85.3121 68.5207 86.1818 68.5262 87.2046ZM76.3384 69.078C76.3384 70.1008 75.471 70.976 74.4508 70.976C73.3979 70.976 72.5469 70.1282 72.5469 69.0835C72.5469 68.0442 73.3925 67.1909 74.4454 67.1855C75.4656 67.1855 76.333 68.0552 76.3384 69.078ZM67.7133 47.5054C70.8448 47.5054 73.387 50.0434 73.3925 53.183C73.3925 56.3226 70.8611 58.8715 67.7297 58.877C64.5983 58.877 62.056 56.339 62.0505 53.1994C62.0505 50.0598 64.5819 47.5109 67.7133 47.5054ZM57.3425 75.5323C58.3626 75.5323 59.2301 76.402 59.2355 77.4248C59.2355 78.4476 58.3736 79.3173 57.3479 79.3228C56.3278 79.3228 55.4603 78.4531 55.4549 77.4303C55.4549 76.4074 56.3223 75.5323 57.3425 75.5323ZM55.2257 83.3321C55.4549 83.4743 55.6131 83.6329 55.7167 83.8025C55.7877 83.9009 55.8259 83.983 55.8477 84.065L55.9459 84.3768C56.0059 84.8089 55.935 85.2848 55.7495 85.8263C55.5913 86.335 55.3512 86.8601 54.9748 87.5109C54.7729 87.8501 54.5656 88.2056 54.3256 88.583L54.1237 88.7526C54.4838 88.9823 54.8166 89.2503 55.1276 89.5512C55.2694 89.6934 55.4058 89.8411 55.5367 89.9942C55.7058 90.1856 55.875 90.3661 56.0059 90.5248C56.786 89.9122 57.3916 89.5019 57.9698 89.2066C58.3299 89.0042 58.6191 88.8784 58.9082 88.7854C59.2301 88.6651 59.5192 88.594 59.9829 88.5611C60.1629 88.5611 60.3212 88.583 60.5066 88.6322C60.7249 88.6815 60.9049 88.7635 61.0631 88.8784C61.3031 89.037 61.4723 89.2175 61.5814 89.4089C61.6632 89.5402 61.745 89.6715 61.7996 89.8192C61.8323 89.9012 61.8596 89.9778 61.8814 90.0653C61.9087 90.1528 61.9796 90.4482 61.8978 90.76C61.8814 90.8475 61.8487 90.9514 61.8105 91.0389C61.8105 91.0389 61.6741 91.2796 61.6632 91.3233C61.3904 91.6734 61.014 91.9633 60.5066 92.204C60.0266 92.4446 59.4756 92.647 58.7773 92.8385C58.4063 92.9479 58.0299 93.0408 57.5443 93.1119L57.2661 93.194L56.966 93.1721C57.0861 93.9652 57.0697 94.7474 57.0206 95.7155C58.0026 95.8468 58.7172 95.9835 59.3392 96.1859C59.7374 96.3063 60.0266 96.4157 60.2993 96.5579C60.5776 96.6837 60.8394 96.8259 61.0795 97.0337C61.2813 97.2142 61.4286 97.3838 61.5323 97.5752C61.6523 97.7448 61.7341 97.9526 61.7832 98.166C61.8105 98.4121 61.8105 98.6747 61.7559 98.888C61.7178 99.0466 61.6796 99.1997 61.6141 99.3474C61.5868 99.4513 61.5432 99.5279 61.4941 99.5772C61.445 99.6756 61.3031 99.9272 61.0358 100.08C60.9485 100.13 60.8667 100.168 60.7631 100.212L60.4521 100.31C60.3539 100.321 60.2448 100.332 60.1302 100.332C59.8029 100.332 59.4319 100.261 59.0009 100.113C58.5099 99.9655 57.9808 99.7139 57.3316 99.3365C56.9933 99.1396 56.6442 98.9263 56.2841 98.6582L56.0332 98.516L55.6949 98.1878C55.5312 98.4012 55.3676 98.6035 55.1766 98.7895C54.8384 99.1232 54.4783 99.4131 54.1237 99.5826L54.5165 100.075C54.5165 100.075 54.6857 100.305 54.6857 100.316C54.9366 100.682 55.1548 101.038 55.3567 101.366C55.7549 102.028 56.0004 102.547 56.1586 103.039C56.3605 103.57 56.4423 104.062 56.3823 104.483C56.3714 104.566 56.3441 104.653 56.295 104.806C56.2732 104.888 56.235 104.965 56.1641 105.063C56.0168 105.342 55.7549 105.495 55.6786 105.534C55.6076 105.583 55.5258 105.621 55.4494 105.659C55.3294 105.72 55.1821 105.763 55.0021 105.791C54.8548 105.84 54.7129 105.862 54.5656 105.862C54.4729 105.862 54.3747 105.851 54.2656 105.84C54.0474 105.791 53.8455 105.709 53.6873 105.599C53.4855 105.49 53.3054 105.348 53.1363 105.156C52.9672 104.948 52.8035 104.697 52.6453 104.374C52.5035 104.117 52.3834 103.816 52.2634 103.422C52.0398 102.744 51.8815 102 51.7615 101.109V100.611C51.3633 100.693 50.9596 100.72 50.5504 100.726C50.0921 100.726 49.7103 100.677 49.432 100.567C49.3938 100.841 49.3611 101.098 49.3393 101.36C49.3393 101.371 49.3011 101.639 49.3011 101.639C49.2247 102.099 49.1156 102.503 49.012 102.881C48.8538 103.543 48.6628 104.112 48.4119 104.626C48.1718 105.145 47.8827 105.539 47.5281 105.802L47.2662 105.966C47.1789 106.004 47.0753 106.037 46.988 106.053C46.8952 106.086 46.808 106.103 46.6879 106.103C46.5406 106.103 46.4206 106.086 46.3115 106.053C46.2297 106.042 46.1315 106.015 46.0496 105.966C45.9023 105.906 45.7714 105.835 45.6296 105.758C45.3895 105.616 45.2095 105.408 45.1004 105.266C44.9804 105.107 44.8985 104.927 44.844 104.686C44.784 104.478 44.7621 104.265 44.7731 103.986C44.784 103.674 44.8713 103.373 44.9749 103.083C45.0622 102.788 45.1822 102.498 45.3732 102.132C45.6841 101.519 46.0878 100.884 46.6497 100.146L47.0698 99.7248C46.6607 99.4678 46.2897 99.1724 45.9678 98.8552C45.766 98.6528 45.5968 98.4559 45.515 98.2644L45.0076 98.6637L44.7785 98.8387C44.413 99.0794 44.0693 99.2982 43.7311 99.5115C43.1037 99.8835 42.5745 100.135 42.0726 100.316C41.6253 100.474 41.2543 100.556 40.927 100.556C40.8178 100.556 40.7142 100.551 40.616 100.54L40.3159 100.452C40.2177 100.409 40.1359 100.37 40.0595 100.321C39.8795 100.223 39.7268 100.069 39.5795 99.8288L39.4594 99.5881C39.3994 99.4459 39.3612 99.2982 39.323 99.145C39.2521 98.8716 39.263 98.5926 39.2794 98.4012C39.3285 98.1824 39.4103 97.9691 39.5085 97.8104C39.6286 97.6081 39.7649 97.4385 39.9559 97.2689C40.1632 97.0884 40.4141 96.9298 40.7251 96.7767C40.9979 96.6344 41.287 96.5141 41.6744 96.3828C42.3563 96.1641 43.071 96.0109 43.9929 95.8796L44.2712 95.9179C44.0311 95.0263 43.9875 94.1348 44.1566 93.3143L43.6983 93.2377L43.2019 93.1885L42.1926 92.9533C41.5216 92.7838 40.9597 92.5923 40.4414 92.3407C39.8795 92.0836 39.5031 91.7937 39.2794 91.4601L39.1157 91.1866C39.0775 91.0991 39.0448 91.0061 39.0175 90.9186C38.9302 90.6287 39.0012 90.3388 39.0448 90.2349L39.1048 89.9669C39.1648 89.8246 39.2467 89.6824 39.323 89.5512C39.4322 89.3488 39.6013 89.1628 39.8249 89.0097C40.005 88.8784 40.2014 88.7909 40.3923 88.758C40.5451 88.6979 40.7033 88.676 41.0906 88.676C41.4998 88.7143 41.8326 88.8237 41.9908 88.8839C42.2854 88.9714 42.5745 89.0917 42.94 89.2831C43.6492 89.6387 44.293 90.0708 45.0295 90.7326C45.2859 90.3224 45.5805 89.9505 45.9896 89.5402C46.1588 89.3707 46.317 89.212 46.4206 89.0479C45.8369 88.3095 45.4168 87.686 45.1058 87.0843C44.9149 86.7178 44.784 86.4279 44.6858 86.1435C44.5658 85.8153 44.5057 85.5145 44.473 85.241C44.4621 84.9894 44.473 84.7597 44.5221 84.5354C44.5821 84.2948 44.6585 84.1033 44.7785 83.9666C44.9313 83.7478 45.1058 83.5618 45.3077 83.4524C45.4386 83.3649 45.5805 83.2938 45.7169 83.2336C45.8041 83.1735 45.8969 83.1461 45.9678 83.1461C46.1206 83.0969 46.246 83.075 46.377 83.075C46.4752 83.075 46.5679 83.0969 46.6607 83.1242L46.9389 83.2227C47.048 83.261 47.1407 83.3157 47.1953 83.3758C47.5444 83.6165 47.8445 83.983 48.1064 84.5245C48.3628 85.0386 48.5701 85.6075 48.7392 86.2693C48.8265 86.592 48.9029 86.9202 49.012 87.5L49.0229 87.8391C49.5357 87.7297 50.043 87.6696 50.5395 87.6696C50.8886 87.6696 51.1669 87.6969 51.3796 87.779C51.4997 86.8272 51.636 86.1052 51.8379 85.4817C51.9579 85.0933 52.067 84.7925 52.2034 84.53C52.3343 84.251 52.4762 83.9884 52.6835 83.7478C52.8635 83.5454 53.0217 83.4087 53.2236 83.2829C53.4418 83.1516 53.6327 83.0695 53.8128 83.0422C53.9219 83.0312 54.0419 83.0203 54.151 83.0203C54.3038 83.0203 54.4347 83.0422 54.5438 83.0695C54.6911 83.1078 54.8439 83.1461 54.9912 83.2063C55.073 83.2391 55.1548 83.2774 55.2312 83.3157L55.2257 83.3321ZM43.9002 80.3456C42.88 80.3456 42.0126 79.4759 42.0071 78.4531C42.0071 77.4029 42.8527 76.5496 43.8947 76.5496C44.9367 76.5496 45.7878 77.3974 45.7878 78.4476C45.7878 79.4705 44.9204 80.3456 43.9002 80.3456ZM53.2345 65.6321C53.3927 65.8235 53.5455 66.0204 53.6818 66.2392C54.211 67.1089 54.5165 68.2247 54.6202 69.6523C54.6911 70.9432 54.6202 72.3708 54.3965 74.1539C54.2656 75.1056 54.1019 76.1011 53.8837 77.1786L53.8019 77.4795L53.7037 77.8405C53.4364 78.7703 53.1963 79.7111 52.9563 80.6683C52.7271 81.3411 52.5198 82.0139 52.318 82.6921L52.0725 83.436C52.0397 83.5563 52.0016 83.6767 51.9634 83.797L51.5815 84.9019C51.4124 85.3012 51.2433 85.695 51.0632 86.0943C50.905 86.4662 50.7359 86.7835 50.3158 87.0187C49.6721 85.788 49.0556 84.5573 48.4446 83.3157C47.7299 81.5708 47.1516 79.8807 46.677 78.1577C46.0551 75.937 45.7005 74.143 45.5587 72.5185C45.4768 71.4683 45.4659 70.7134 45.515 70.0133C45.5805 69.3023 45.6623 68.5529 45.9187 67.8418C46.0878 67.2785 46.3388 66.7807 46.6661 66.3158C47.0044 65.8727 47.3753 65.5227 47.7736 65.282C48.2427 64.9702 48.8101 64.7514 49.3993 64.6366C49.7812 64.5655 50.1576 64.5272 50.5286 64.5272C50.7468 64.5272 50.9596 64.5327 51.1778 64.5764C51.7997 64.6858 52.3071 64.8827 52.7162 65.1836C52.8963 65.3258 53.0654 65.468 53.229 65.6321H53.2345ZM50.5068 58.0948C51.5269 58.0948 52.3944 58.9645 52.3998 59.9873C52.3998 61.0102 51.5324 61.8798 50.5122 61.8853C49.492 61.8853 48.6246 61.0156 48.6192 59.9928C48.6192 58.97 49.4866 58.1003 50.5068 58.0948ZM42.1381 47.5492C45.2695 47.5492 47.8118 50.0871 47.8172 53.2267C47.8172 56.3664 45.2859 58.9153 42.1544 58.9207C39.023 58.9207 36.4807 56.3828 36.4753 53.2432C36.4753 50.1035 39.0066 47.5546 42.1381 47.5492ZM29.3668 73.3334C29.6232 73.0654 29.9233 72.8302 30.2451 72.6114C30.7034 72.2778 31.2653 72.0316 31.8436 71.9004C32.0945 71.8293 32.3728 71.791 32.6837 71.791C32.902 71.791 33.1256 71.8129 33.3548 71.8402C33.9167 71.9387 34.4459 72.1192 34.975 72.3872C35.5369 72.6607 36.1043 73.06 36.7863 73.6343C37.3263 74.0828 37.8446 74.6243 38.5265 75.4283C39.5958 76.7083 40.6105 78.2234 41.7235 80.1925C42.6072 81.7349 43.3983 83.3376 44.1402 85.0879C44.6312 86.5428 45.0349 87.7626 45.3241 89.2667C44.964 89.1573 44.6039 89.0479 44.2439 88.9167L43.5019 88.6268L43.0328 88.4463L42.6127 88.2494L41.9908 87.9212L41.6525 87.7626L41.3034 87.593L40.9651 87.4234C40.3432 87.0734 39.7158 86.7561 39.0775 86.4389C38.2483 85.9466 37.3973 85.4489 36.5571 84.9785L36.2898 84.8308L35.9679 84.6339C35.0678 84.0322 34.2385 83.4524 33.4748 82.8836C32.0618 81.8006 30.9925 80.8434 30.1251 79.8643C29.1759 78.7758 28.603 77.7748 28.3521 76.8012C28.303 76.5442 28.2703 76.3035 28.2539 76.0519C28.243 75.8495 28.2648 75.6526 28.303 75.3408C28.4012 74.679 28.7503 74.1265 28.9631 73.8695C29.0613 73.6999 29.2031 73.5358 29.3832 73.3553L29.3668 73.3334ZM37.1027 88.0579C37.1027 89.0808 36.2352 89.9559 35.2151 89.9559C34.1949 89.9559 33.3275 89.0862 33.322 88.0634C33.322 87.0406 34.184 86.1709 35.2096 86.1654C36.2298 86.1654 37.0972 87.0351 37.1027 88.0579ZM26.4099 68.1864C27.4301 68.1864 28.303 69.0506 28.303 70.079C28.303 71.1018 27.4356 71.9715 26.4154 71.9769C25.3952 71.9769 24.5278 71.1073 24.5223 70.0844C24.5223 69.0616 25.3898 68.1919 26.4099 68.1864ZM24.3532 90.5631C25.0624 90.3005 25.8098 90.2185 26.5191 90.1474C26.8191 90.1255 27.1301 90.1145 27.4683 90.1145C27.9266 90.1145 28.4339 90.1364 29.0177 90.1856C30.758 90.3497 32.5473 90.6998 34.6423 91.2905C36.3607 91.7609 38.0519 92.3352 39.7922 93.0463C41.0415 93.6534 42.2745 94.2715 43.5838 95.1521C43.2564 95.3327 42.9182 95.5022 42.5745 95.6663C42.1763 95.8468 41.7835 96.0164 41.3852 96.1914L40.2832 96.5743L39.9231 96.6946L39.5522 96.8149L39.1867 96.9353C38.5866 97.1158 37.9974 97.3072 37.4082 97.4987L37.1627 97.5807C36.2243 97.8214 35.2805 98.0784 34.244 98.3957L33.9658 98.4449L33.6766 98.527C32.6183 98.7403 31.6308 98.9098 30.6816 99.0411C29.3395 99.2107 28.243 99.3037 27.2446 99.3037C26.8846 99.3037 26.5354 99.2927 26.1972 99.2763C24.746 99.1669 23.6277 98.8716 22.7875 98.3465C22.5802 98.2207 22.3674 98.0566 22.1765 97.898C22.0074 97.7393 21.8655 97.5698 21.7073 97.3674C21.3364 96.8642 21.1891 96.2625 21.1127 95.8468C21.0745 95.628 21.0636 95.4147 21.0636 95.1959C21.0636 94.824 21.1018 94.4466 21.1727 94.0637C21.2491 93.5222 21.4727 92.9479 21.811 92.4282C22.0565 92.0071 22.4002 91.6461 22.8366 91.3124C23.2949 90.9788 23.7968 90.7326 24.3532 90.5576V90.5631ZM16.541 47.5656C19.6724 47.5656 22.2147 50.1035 22.2201 53.2432C22.2201 56.3828 19.6888 58.9317 16.5574 58.9371C13.4259 58.9371 10.8837 56.3992 10.8782 53.2596C10.8782 50.1199 13.4096 47.5711 16.541 47.5656ZM17.7248 290.137C18.745 290.137 19.6124 291.006 19.6179 292.029C19.6179 293.052 18.7505 293.922 17.7303 293.927C16.7101 293.927 15.8372 293.058 15.8372 292.035C15.8372 291.012 16.7047 290.142 17.7248 290.137ZM17.3702 96.7329C16.35 96.7329 15.4826 95.8687 15.4772 94.8404C15.4772 93.8175 16.3446 92.9478 17.3648 92.9424C18.3849 92.9424 19.2578 93.8121 19.2578 94.8349C19.2578 95.8577 18.3904 96.7274 17.3702 96.7329ZM11.4619 73.2186C14.5934 73.2186 17.1356 75.7565 17.1411 78.8961C17.1411 82.0358 14.6098 84.5847 11.4783 84.5901C8.34687 84.5901 5.80462 82.0522 5.79917 78.9126C5.79917 75.7729 8.33051 73.224 11.4619 73.2186ZM11.5001 98.8661C14.6316 98.8661 17.1738 101.404 17.1793 104.544C17.1793 107.683 14.6479 110.232 11.5165 110.238C8.38506 110.238 5.84281 107.7 5.83736 104.56C5.83736 101.42 8.36869 98.8716 11.5001 98.8661ZM11.5383 124.514C14.6698 124.514 17.212 127.052 17.2175 130.191C17.2175 133.331 14.6861 135.88 11.5547 135.885C8.42325 135.885 5.881 133.347 5.87554 130.208C5.87554 127.068 8.40688 124.519 11.5383 124.514ZM11.5765 150.161C14.708 150.161 17.2502 152.699 17.2557 155.839C17.2557 158.978 14.7243 161.527 11.5929 161.533C8.46144 161.533 5.91919 158.995 5.91373 155.855C5.91373 152.715 8.44507 150.167 11.5765 150.161ZM11.6147 175.809C14.7461 175.809 17.2884 178.347 17.2938 181.486C17.2938 184.626 14.7625 187.175 11.6311 187.18C8.49963 187.18 5.95738 184.642 5.95192 181.503C5.95192 178.363 8.48326 175.814 11.6147 175.809ZM11.6529 201.456C14.7843 201.456 17.3266 203.994 17.332 207.134C17.332 210.273 14.8007 212.822 11.6693 212.828C8.53781 212.828 5.99556 210.29 5.99011 207.15C5.99011 204.011 8.52145 201.462 11.6529 201.456ZM11.6911 227.104C14.8225 227.104 17.3648 229.642 17.3702 232.781C17.3702 235.921 14.8389 238.47 11.7074 238.475C8.576 238.475 6.03375 235.937 6.0283 232.798C6.0283 229.658 8.55964 227.109 11.6911 227.104ZM11.7293 252.751C14.8607 252.751 17.403 255.289 17.4084 258.429C17.4084 261.568 14.8771 264.117 11.7456 264.123C8.61419 264.123 6.07194 261.585 6.06649 258.445C6.06649 255.306 8.59783 252.757 11.7293 252.751ZM11.7675 278.399C14.8989 278.399 17.4411 280.937 17.4466 284.076C17.4466 287.216 14.9153 289.765 11.7838 289.77C8.65238 289.77 6.11013 287.232 6.10467 284.093C6.10467 280.953 8.63601 278.404 11.7675 278.399ZM11.8056 304.046C14.9371 304.046 17.4793 306.584 17.4848 309.724C17.4848 312.863 14.9535 315.412 11.822 315.418C8.69057 315.418 6.14832 312.88 6.14286 309.74C6.14286 306.601 8.6742 304.052 11.8056 304.046ZM11.8438 329.694C14.9753 329.694 17.5175 332.232 17.523 335.371C17.523 338.511 14.9916 341.06 11.8602 341.065C8.72876 341.065 6.18651 338.527 6.18105 335.388C6.18105 332.248 8.71239 329.699 11.8438 329.694ZM11.882 355.341C15.0135 355.341 17.5557 357.879 17.5612 361.019C17.5612 364.158 15.0298 366.707 11.8984 366.713C8.76694 366.713 6.22469 364.175 6.21924 361.035C6.21924 357.896 8.75058 355.347 11.882 355.341ZM11.9366 392.36C8.80513 392.36 6.26288 389.822 6.25743 386.683C6.25743 383.543 8.78877 380.994 11.9202 380.989C15.0516 380.989 17.5939 383.527 17.5994 386.666C17.5994 389.806 15.068 392.355 11.9366 392.36ZM19.6452 415.432C16.5137 415.432 13.9715 412.894 13.966 409.754C13.966 406.614 16.4973 404.066 19.6288 404.06C22.7602 404.06 25.3025 406.598 25.3079 409.738C25.3134 412.877 22.7766 415.426 19.6452 415.432ZM35.0132 428.236C31.8818 428.236 29.3395 425.698 29.3341 422.559C29.3286 419.419 31.8654 416.87 34.9969 416.865C38.1283 416.859 40.6705 419.403 40.676 422.542C40.676 425.682 38.1447 428.231 35.0132 428.236ZM55.4876 435.899C52.3562 435.899 49.8139 433.361 49.8085 430.222C49.8085 427.082 52.3398 424.533 55.4712 424.528C58.6027 424.528 61.1449 427.066 61.1504 430.205C61.1504 433.345 58.619 435.894 55.4876 435.899ZM75.9456 430.741C72.8142 430.741 70.2719 428.203 70.2665 425.064C70.2665 421.924 72.7978 419.375 75.9293 419.37C79.0607 419.37 81.603 421.908 81.6084 425.047C81.6084 428.187 79.0771 430.736 75.9456 430.741ZM84.9526 377.258C83.1687 380.907 80.1191 383.948 76.5839 385.594C73.2779 387.153 69.6227 387.919 65.3947 387.924C64.5764 387.924 63.7527 387.897 62.9943 387.788L63.1034 413.337C63.1034 415.541 62.2306 417.636 60.643 419.244C59.0282 420.852 56.9388 421.744 54.7402 421.749C50.2122 421.755 46.3715 417.915 46.3551 413.364V398.957H45.8369C44.2166 398.957 42.7054 398.798 41.2379 398.503C38.5484 397.907 36.1316 396.829 34.2385 395.385C31.3799 393.164 29.5687 391.135 28.3739 388.794C27.081 386.262 26.2572 384.128 25.788 382.105C24.0968 374.912 24.3587 367.61 24.5987 360.548L24.626 359.755C24.6915 357.567 24.7678 355.385 24.7678 353.181C24.7788 348.553 28.5321 344.779 33.1311 344.774C35.3133 344.774 37.4573 345.687 39.0503 347.279C40.6433 348.882 41.5216 350.96 41.5161 353.153C41.5161 355.418 41.4125 357.693 41.3252 359.969L41.2979 360.691C41.1124 365.389 40.9324 370.252 41.407 375.038C41.6962 376.859 42.089 378.413 42.6018 379.906C42.8418 380.354 43.0928 380.797 43.3601 381.208L43.802 381.678C43.9547 381.766 44.102 381.858 44.2548 381.935C44.5876 382.044 44.9367 382.132 45.2531 382.198L45.6514 382.219L46.2297 382.28L46.1642 364.065L46.0715 339.43C46.0715 337.226 46.9443 335.131 48.5264 333.523C50.1412 331.92 52.2307 331.023 54.4292 331.023C58.9573 331.017 62.7979 334.857 62.8143 339.408L62.8634 352.513C62.8743 352.623 62.8743 352.743 62.8743 352.864V371.072C63.7472 371.138 64.6201 371.171 65.482 371.171C66.0985 371.171 66.7204 371.149 67.3369 371.105C67.9097 371.007 68.488 370.864 69.0554 370.684C69.2245 370.596 69.3936 370.492 69.5354 370.394L69.7755 370.175C69.9228 369.924 70.0755 369.666 70.2119 369.404C70.4792 368.523 70.7193 367.577 70.9211 366.516C71.3248 362.228 71.1175 357.846 70.9048 353.558L70.812 351.677C70.7193 349.62 71.5158 347.607 73.0324 346.004C74.68 344.276 76.9167 343.275 79.1753 343.27C83.7197 343.264 87.3257 346.863 87.5603 351.655L87.664 353.963C88.0677 361.894 88.4768 370.11 84.9581 377.28L84.9526 377.258ZM93.8341 417.888C90.7027 417.888 88.1604 415.35 88.155 412.21C88.155 409.07 90.6863 406.521 93.8178 406.516C96.9492 406.516 99.4914 409.054 99.4969 412.194C99.4969 415.333 96.9656 417.882 93.8341 417.888ZM101.488 402.485C98.3567 402.485 95.8145 399.947 95.809 396.807C95.809 393.668 98.3403 391.119 101.472 391.113C104.603 391.113 107.145 393.651 107.151 396.791C107.151 399.93 104.62 402.479 101.488 402.485ZM134.75 405.001C131.619 405.001 129.076 402.463 129.071 399.323C129.071 396.184 131.602 393.635 134.734 393.629C137.865 393.629 140.408 396.167 140.413 399.307C140.413 402.447 137.882 404.995 134.75 405.001ZM145.006 420.376C141.875 420.376 139.333 417.838 139.327 414.699C139.327 411.559 141.859 409.01 144.99 409.005C148.122 409.005 150.664 411.543 150.669 414.682C150.669 417.822 148.138 420.371 145.006 420.376ZM160.375 433.181C157.243 433.181 154.701 430.643 154.695 427.503C154.695 424.364 157.227 421.815 160.358 421.809C163.49 421.809 166.032 424.347 166.037 427.487C166.037 430.627 163.506 433.175 160.375 433.181ZM180.849 438.279C177.717 438.279 175.175 435.741 175.17 432.601C175.17 429.461 177.701 426.913 180.833 426.907C183.964 426.907 186.506 429.445 186.512 432.585C186.512 435.724 183.98 438.273 180.849 438.279ZM201.312 435.686C198.181 435.686 195.639 433.148 195.633 430.008C195.633 426.869 198.165 424.32 201.296 424.314C204.427 424.314 206.97 426.852 206.975 429.992C206.975 433.132 204.444 435.681 201.312 435.686ZM203.789 386.333C200.483 387.892 196.828 388.657 192.6 388.663C191.782 388.663 190.963 388.635 190.205 388.526L190.309 414.075C190.309 416.279 189.436 418.374 187.848 419.982C186.233 421.591 184.144 422.482 181.94 422.488C177.412 422.493 173.571 418.653 173.555 414.102V399.695H173.031C171.411 399.695 169.905 399.542 168.432 399.241C165.743 398.645 163.326 397.562 161.433 396.124C158.574 393.903 156.763 391.874 155.568 389.533C154.275 387 153.452 384.867 152.982 382.843C151.291 375.656 151.553 368.348 151.793 361.287L151.82 360.494C151.886 358.311 151.962 356.123 151.957 353.925C151.973 349.297 155.721 345.523 160.32 345.512C162.497 345.512 164.646 346.431 166.239 348.017C167.832 349.62 168.716 351.698 168.705 353.897C168.689 356.353 168.59 358.809 168.498 361.26L168.476 361.538C168.301 366.21 168.11 371.028 168.596 375.765C168.891 377.576 169.283 379.173 169.791 380.633C170.02 381.093 170.271 381.53 170.554 381.941L170.996 382.411C171.138 382.498 171.285 382.591 171.438 382.673C171.776 382.783 172.12 382.87 172.447 382.931L172.851 382.952L173.429 383.013L173.364 364.798L173.266 340.157C173.266 337.953 174.139 335.858 175.726 334.255C177.341 332.653 179.43 331.756 181.629 331.75C186.163 331.745 190.009 335.585 190.025 340.135L190.074 353.23L190.085 353.591V371.805C190.963 371.865 191.82 371.893 192.687 371.893C193.309 371.893 193.926 371.871 194.537 371.832C195.115 371.734 195.693 371.592 196.266 371.411L196.746 371.116L196.986 370.897C197.139 370.646 197.286 370.388 197.417 370.126C197.717 369.174 197.952 368.201 198.121 367.238C198.536 362.95 198.328 358.563 198.11 354.264L198.017 352.399C197.925 350.347 198.721 348.335 200.238 346.726C201.885 344.998 204.122 343.992 206.381 343.992C210.925 343.986 214.531 347.585 214.766 352.377L214.869 354.685C215.273 362.621 215.682 370.837 212.163 378.002C210.379 381.651 207.324 384.692 203.795 386.338L203.789 386.333ZM219.201 422.832C216.069 422.832 213.527 420.294 213.522 417.155C213.522 414.015 216.053 411.466 219.185 411.461C222.316 411.461 224.858 413.999 224.864 417.138C224.864 420.278 222.332 422.827 219.201 422.832ZM229.408 404.864C226.277 404.864 223.734 402.326 223.729 399.187C223.729 396.047 226.26 393.498 229.392 393.493C232.523 393.493 235.065 396.031 235.071 399.17C235.071 402.31 232.54 404.859 229.408 404.864ZM259.544 399.165C259.544 396.025 262.075 393.476 265.207 393.471C268.338 393.471 270.881 396.009 270.886 399.148C270.886 402.288 268.355 404.837 265.223 404.842C262.092 404.842 259.55 402.304 259.544 399.165ZM272.926 422.756C269.795 422.756 267.253 420.218 267.247 417.078C267.247 413.938 269.779 411.39 272.91 411.384C276.041 411.384 278.584 413.922 278.589 417.062C278.589 420.201 276.058 422.75 272.926 422.756ZM290.853 435.555C287.722 435.555 285.179 433.017 285.174 429.877C285.174 426.738 287.705 424.189 290.837 424.183C293.968 424.183 296.51 426.721 296.516 429.861C296.516 433 293.984 435.549 290.853 435.555ZM311.322 438.087C308.191 438.087 305.648 435.549 305.643 432.41C305.643 429.27 308.174 426.721 311.306 426.716C314.437 426.716 316.979 429.254 316.985 432.393C316.985 435.533 314.453 438.082 311.322 438.087ZM333.357 429.598C330.225 429.598 327.683 427.06 327.678 423.921C327.678 420.781 330.209 418.232 333.34 418.227C336.472 418.227 339.014 420.765 339.019 423.904C339.019 427.044 336.488 429.593 333.357 429.598ZM337.132 377.636C335.348 381.284 332.293 384.325 328.758 385.972C325.452 387.531 321.796 388.296 317.568 388.302C316.75 388.302 315.932 388.274 315.174 388.165L315.277 413.703C315.277 415.908 314.404 418.002 312.817 419.61C311.202 421.213 309.113 422.11 306.914 422.116C302.386 422.121 298.545 418.281 298.529 413.731V399.323H298.022C296.401 399.323 294.89 399.165 293.423 398.869C290.733 398.273 288.316 397.196 286.423 395.752C283.57 393.553 281.759 391.523 280.559 389.155C279.266 386.623 278.442 384.489 277.973 382.466C276.281 375.273 276.543 367.971 276.778 360.904L276.805 360.111C276.876 357.923 276.953 355.741 276.947 353.542C276.963 348.914 280.711 345.14 285.31 345.135C287.492 345.135 289.642 346.054 291.229 347.64C292.822 349.243 293.706 351.321 293.695 353.52C293.679 355.992 293.581 358.459 293.488 360.92C293.297 365.652 293.095 370.531 293.581 375.399C293.87 377.209 294.274 378.806 294.786 380.267C295.016 380.715 295.267 381.158 295.539 381.569L295.768 381.809L295.981 382.05L296.429 382.307C296.767 382.405 297.11 382.498 297.427 382.559L297.923 382.586L298.403 382.635L298.338 364.437L298.245 339.78C298.245 337.576 299.118 335.481 300.706 333.873C302.32 332.27 304.41 331.373 306.608 331.373C311.137 331.367 314.977 335.207 314.999 339.758L315.048 352.864C315.059 352.984 315.059 353.093 315.059 353.214L315.07 371.428C315.921 371.488 316.761 371.526 317.596 371.526C318.234 371.526 318.883 371.504 319.527 371.45C320.105 371.351 320.673 371.209 321.245 371.028C321.415 370.941 321.584 370.837 321.726 370.739L321.966 370.52C322.124 370.268 322.266 370.011 322.402 369.749C322.691 368.835 322.92 367.894 323.106 366.861C323.52 362.621 323.313 358.273 323.095 354.018L322.991 352.038C322.898 349.981 323.695 347.968 325.212 346.365C326.859 344.637 329.096 343.636 331.354 343.631C335.904 343.625 339.505 347.224 339.745 352.016L339.849 354.318C340.247 362.255 340.661 370.471 337.143 377.636H337.132ZM349.112 414.387C345.981 414.387 343.438 411.849 343.433 408.709C343.433 405.57 345.964 403.021 349.096 403.015C352.227 403.015 354.769 405.553 354.775 408.693C354.775 411.833 352.243 414.381 349.112 414.387ZM354.753 391.852C351.622 391.852 349.079 389.314 349.074 386.174C349.074 383.034 351.605 380.486 354.737 380.48C357.868 380.48 360.41 383.018 360.416 386.158C360.416 389.297 357.884 391.846 354.753 391.852ZM354.715 366.204C351.583 366.204 349.041 363.666 349.036 360.527C349.036 357.387 351.567 354.838 354.698 354.833C357.83 354.833 360.372 357.371 360.378 360.51C360.378 363.65 357.846 366.199 354.715 366.204ZM354.677 340.557C351.545 340.557 349.003 338.019 348.997 334.879C348.997 331.739 351.529 329.191 354.66 329.185C357.792 329.185 360.334 331.723 360.339 334.863C360.339 338.002 357.808 340.551 354.677 340.557ZM354.638 314.909C351.507 314.909 348.965 312.371 348.959 309.232C348.959 306.092 351.491 303.543 354.622 303.538C357.754 303.538 360.296 306.076 360.301 309.215C360.301 312.355 357.77 314.904 354.638 314.909ZM354.6 289.262C351.469 289.262 348.927 286.724 348.921 283.584C348.921 280.444 351.452 277.896 354.584 277.89C357.715 277.89 360.258 280.428 360.263 283.568C360.263 286.707 357.732 289.256 354.6 289.262ZM354.562 263.614C351.431 263.614 348.888 261.076 348.883 257.937C348.883 254.797 351.414 252.248 354.546 252.243C357.677 252.243 360.219 254.78 360.225 257.92C360.225 261.06 357.694 263.609 354.562 263.614ZM354.524 237.967C351.392 237.967 348.85 235.429 348.845 232.289C348.845 229.149 351.376 226.6 354.508 226.595C357.639 226.595 360.181 229.133 360.187 232.273C360.187 235.412 357.655 237.961 354.524 237.967ZM354.486 212.319C351.354 212.319 348.812 209.781 348.807 206.641C348.807 203.502 351.338 200.953 354.469 200.947C357.601 200.947 360.143 203.485 360.148 206.625C360.148 209.765 357.617 212.314 354.486 212.319ZM354.448 186.671C351.316 186.671 348.774 184.134 348.768 180.994C348.768 177.854 351.3 175.305 354.431 175.3C357.563 175.3 360.105 177.838 360.11 180.978C360.11 184.117 357.579 186.666 354.448 186.671ZM354.409 161.024C351.278 161.024 348.736 158.486 348.73 155.346C348.73 152.207 351.261 149.658 354.393 149.652C357.524 149.652 360.067 152.19 360.072 155.33C360.072 158.47 357.541 161.019 354.409 161.024ZM354.371 135.376C351.24 135.376 348.697 132.839 348.692 129.699C348.692 126.559 351.223 124.01 354.355 124.005C357.486 124.005 360.028 126.543 360.034 129.683C360.034 132.822 357.503 135.371 354.371 135.376ZM354.333 109.729C351.201 109.729 348.659 107.191 348.654 104.051C348.654 100.912 351.185 98.3629 354.317 98.3574C357.448 98.3574 359.99 100.895 359.996 104.035C359.996 107.175 357.464 109.723 354.333 109.729ZM354.295 84.0814C351.163 84.0814 348.621 81.5435 348.616 78.4039C348.616 75.2643 351.147 72.7154 354.278 72.7099C357.41 72.7099 359.952 75.2478 359.958 78.3875C359.958 81.5271 357.426 84.076 354.295 84.0814Z" fill="#FF9E22"/>
<rect x="1" width="363" height="321" fill="#FF9E22"/>
</svg>
