<?xml version="1.0" encoding="UTF-8"?>
<svg id="Calque_2" data-name="Calque 2" xmlns="http://www.w3.org/2000/svg" xmlns:xlink="http://www.w3.org/1999/xlink" viewBox="0 0 720.25 227.47">
  <defs>
    <style>
      .cls-1 {
        clip-path: url(#clippath);
      }

      .cls-2 {
        fill: none;
      }

      .cls-2, .cls-3 {
        stroke-width: 0px;
      }

      .cls-4 {
        clip-path: url(#clippath-1);
      }

      .cls-3 {
        fill: #df486b;
      }
    </style>
    <clipPath id="clippath">
      <rect class="cls-2" width="720.25" height="227.47"/>
    </clipPath>
    <clipPath id="clippath-1">
      <rect class="cls-2" x="-1.04" y="-575.53" width="721.29" height="803"/>
    </clipPath>
  </defs>
  <g id="Calque_2-2" data-name="Calque 2">
    <g id="Calque_1-2" data-name="Calque 1-2">
      <g class="cls-1">
        <g class="cls-4">
          <path class="cls-3" d="m0,0l.15,76.98v1.73c.05,18.69.11,37.19.14,55.7l.02.8c.14,2.57.31,5.11.55,7.65.12,1,.26,1.99.4,2.98.42,3.09.94,6.21,1.56,9.29.45,1.7.91,3.4,1.42,5.06l.14.5.16.49c.47,1.3.97,2.61,1.5,3.88l.34.66.4.81c.32.66.64,1.29.99,1.95.7,1.16,1.43,2.31,2.17,3.46.81,1.27,1.37,2.1,1.91,2.98,23.52,30.85,59.22,48.63,97.92,48.8,49.43,0,94.16-29.18,113.89-74.39l15,.07c18.74,47.23,63.69,77.89,114.47,78.08,51.22.02,96.54-30.64,115.44-78.1l23.15.09c19.13,46.15,63.8,76.12,113.75,76.32,43.74,0,83.42-22.25,106.14-59.58.55-1.18,1.15-2.38,1.77-3.55,1.86-4.42,3.23-8.36,4.21-12.02l.31-1.18c.58-2.18,1.06-4.39,1.47-6.62l.2-1.03.1-.61.21-1.23.18-3.05.19-3.29-.06-39.93v.02l-.07-39.65-.15-60.49M120.24,81.94c.47-2.13,1.16-4.32,2.05-6.52.78-1.94,1.63-3.55,2.6-4.92,1.31-1.93,2.59-3.42,3.87-4.56,1.16-1.02,2.34-1.97,3.68-2.63,1.25-.66,2.62-1.3,4.1-1.35h.47c.52,0,.91.07,1.25.14.64.14,1.16.35,1.58.61.4.24.78.52,1.07.8.24.22.45.47.68.78.47.64.79,1.32,1.07,1.93.38.83.64,1.59.75,2.29.12.66.24,1.33.24,2.01.02,1.67-.26,3.22-.82,4.61-.61,1.63-1.25,2.84-1.98,3.81-2.05,2.96-4.74,5.7-8.75,8.92l-.92.64c-.83.55-1.65,1.11-2.46,1.68-1.11.59-2.19,1.23-3.44,1.99l-2.28,1.43c-1.23.78-2.48,1.54-3.87,2.3-.22-.28-.36-.59-.36-.92.08-5.06.54-9.2,1.43-13.03h.04Zm-26.83-17.07c.1-.97.19-1.95.46-2.88.26-1.13.59-2.22,1.03-3.33.42-1.06.89-2.11,1.51-3.05.61-.96,1.31-2.01,2.15-2.91.5-.52.99-.97,1.81-1.61.24-.16.47-.34.71-.48.87-.52,1.78-.87,2.76-1.07.4-.12.91-.19,1.35-.19l1.03.1c.4.07.83.12,1.83.5.35.12.73.26,1.06.5.4.22.83.52,1.18.81,1.68,1.34,3.02,3.11,3.93,5.26.73,1.71,1.21,3.76,1.42,6.1.16,2.22.1,4.59-.14,7.02-.28,2.5-.67,5.01-1.2,7.51l-.7,3.04c-.19.66-.38,1.32-.52,1.89-.54,1.85-1.11,3.68-1.69,5.51l-.4,1.18c-.6,1.52-1.17,3.06-1.75,4.61l-.68,1.54c-1.07,2.41-2.14,4.82-3.28,7.28l-.45-.7-.32-.5-.79-1.34-1.21-2.36-1.2-2.39c-3.24-6.88-6.54-14.25-7.7-21.98-.45-2.94-.54-5.42-.24-8.05h.04Zm-30,5.99c.54-1.99,1.39-3.74,2.44-5.04.5-.56,1.09-1.2,1.82-1.58.6-.38,1.15-.59,1.67-.7.42-.05.83-.1,1.25-.1.29,0,.59.02.95.1.71.16,1.25.35,1.7.58,1.17.53,2.34,1.39,3.71,2.68,1.19,1.23,2.32,2.62,3.39,4.13.67.96,1.33,1.93,1.94,2.93l1.49,2.9.61,1.37.85,1.94.36.8c.52,1.33.99,2.68,1.47,4.04.53,1.78,1.07,3.57,1.56,5.36l.32,1.27.31,1.29c.09.56.16,1.11.22,1.67l.1.71c.1.8.22,1.59.24,2.48-.28-.07-.47-.12-.61-.22-1.85-1.13-3.73-2.17-5.64-3.18-1.25-.68-2.5-1.35-3.73-2.06-3.55-2.03-7.26-4.3-10.45-7.18-1.75-1.61-2.93-2.95-3.85-4.32-1.19-1.69-1.91-3.24-2.22-4.75-.36-1.93-.33-3.66.09-5.15h.02v.03ZM19.58,1.68c6.22,0,11.26,5.05,11.26,11.28s-5.04,11.28-11.26,11.28-11.26-5.05-11.26-11.28S13.37,1.68,19.58,1.68Zm-.02,50.88c6.22,0,11.26,5.05,11.26,11.28s-5.04,11.28-11.26,11.28-11.26-5.05-11.26-11.28,5.04-11.28,11.26-11.28Zm-11.28,62.16c0-6.23,5.04-11.28,11.26-11.28s11.26,5.05,11.26,11.28-5.04,11.28-11.26,11.28-11.26-5.05-11.26-11.28Zm26.47,57.08c-6.22,0-11.26-5.06-11.26-11.28s5.04-11.29,11.26-11.29,11.26,5.06,11.26,11.29-5.04,11.28-11.26,11.28Zm30.46,25.45c-6.22,0-11.26-5.05-11.26-11.28s5.04-11.28,11.26-11.28,11.26,5.05,11.26,11.28-5.04,11.28-11.26,11.28Zm40.62,15.28c-6.22,0-11.26-5.05-11.26-11.28s5.04-11.28,11.26-11.28,11.26,5.05,11.26,11.28-5.04,11.28-11.26,11.28Zm28.09-87.78c-.31,1.65-.85,3.36-1.63,5.13-.99,2.34-2.36,4.43-3.72,6.33-2.9,4.19-6.58,8.3-11.65,12.92-2.54,2.3-5.5,4.78-9.58,7.96-.64.46-1.29.96-2.14,1.4l-1.09-.8-1.09-.81c-3.37-2.53-6.62-5.21-9.65-7.95-5.05-4.63-8.75-8.73-11.64-12.92-1.35-1.91-2.72-4.01-3.71-6.34-.78-1.77-1.3-3.48-1.63-5.13-.69-4.04-.69-7.77.06-11.09.83-3.7,2.34-6.5,4.5-8.34.73-.59,1.49-1.07,2.28-1.43.78-.36,1.51-.68,2.56-.81.61-.1,1.21-.17,2.18-.17h.04l.12.04c.83.08,1.7.16,2.56.4,4.23,1.08,8.37,3.84,11.32,7.51,1.33,1.71,2.4,3.44,3.07,5.15.94-1.8,2.03-3.46,3.2-4.95,2.95-3.67,7.09-6.43,11.34-7.5.89-.26,1.89-.36,3.07-.43.61,0,1.22.09,2.1.22.85.12,1.65.48,2.28.78.8.36,1.54.83,2.28,1.42,2.18,1.88,3.71,4.7,4.48,8.36.78,3.3.79,7.02.08,11.09l-.03-.04h.04Zm12.54,77.61c-6.22,0-11.26-5.05-11.26-11.28s5.04-11.28,11.26-11.28,11.26,5.05,11.26,11.28-5.04,11.28-11.26,11.28Zm35.56-25.42c-6.22,0-11.26-5.06-11.26-11.29s5.04-11.28,11.26-11.28,11.26,5.06,11.26,11.28-5.04,11.29-11.26,11.29Zm15.25-30.52c-6.22,0-11.26-5.06-11.26-11.28s5.04-11.29,11.26-11.29,11.26,5.05,11.26,11.29-5.04,11.28-11.26,11.28Zm171.43-61.91c.47-2.13,1.16-4.32,2.05-6.52.78-1.94,1.63-3.55,2.6-4.92,1.31-1.93,2.59-3.42,3.87-4.56,1.16-1.01,2.34-1.96,3.69-2.63,1.25-.66,2.62-1.29,4.1-1.35h.47c.52,0,.91.06,1.25.14.64.14,1.16.35,1.58.61.4.24.78.52,1.07.8.24.22.45.47.68.78.47.64.8,1.32,1.07,1.93.38.83.64,1.59.75,2.29.12.66.24,1.33.24,2.01.02,1.67-.26,3.22-.82,4.61-.61,1.63-1.25,2.84-1.98,3.81-2.05,2.96-4.74,5.7-8.75,8.92l-.92.64c-.83.55-1.65,1.11-2.46,1.68-1.11.59-2.19,1.23-3.44,1.99l-2.28,1.42c-1.23.78-2.48,1.54-3.87,2.3-.22-.28-.36-.59-.36-.92.07-5.06.54-9.2,1.43-13.03h.03Zm-26.83-17.07c.1-.97.19-1.96.46-2.88.26-1.13.59-2.22,1.03-3.33.42-1.06.9-2.1,1.51-3.05.61-.96,1.31-2.01,2.15-2.9.5-.52.99-.97,1.81-1.61.24-.16.47-.33.71-.47.87-.52,1.78-.87,2.76-1.07.4-.12.91-.2,1.35-.2l1.03.1c.4.07.83.12,1.83.5.36.12.73.26,1.06.5.4.21.83.52,1.19.81,1.68,1.34,3.02,3.11,3.93,5.26.73,1.71,1.21,3.76,1.42,6.1.16,2.22.1,4.59-.14,7.02-.28,2.51-.67,5.01-1.2,7.51l-.7,3.05c-.19.66-.38,1.32-.52,1.89-.54,1.85-1.11,3.68-1.69,5.51l-.4,1.18c-.6,1.52-1.17,3.05-1.75,4.61l-.68,1.54c-1.07,2.41-2.14,4.82-3.28,7.28l-.45-.7-.32-.5-.79-1.34-1.21-2.36-1.2-2.39c-3.24-6.88-6.54-14.25-7.7-21.98-.45-2.94-.54-5.42-.24-8.05l.03-.03Zm-30,5.99c.54-1.99,1.39-3.74,2.44-5.04.5-.56,1.09-1.2,1.82-1.58.6-.38,1.15-.59,1.67-.7.42-.05.83-.1,1.25-.1.29,0,.59.02.95.1.71.16,1.25.35,1.7.58,1.17.53,2.34,1.39,3.71,2.68,1.18,1.23,2.32,2.62,3.39,4.14.67.96,1.33,1.93,1.94,2.92l1.49,2.9.61,1.37.85,1.94.36.8c.52,1.33.99,2.68,1.47,4.04.53,1.78,1.07,3.57,1.56,5.36l.32,1.27.31,1.3c.09.56.16,1.11.22,1.67l.1.71c.1.8.21,1.59.24,2.48-.28-.07-.47-.12-.61-.22-1.85-1.13-3.73-2.17-5.64-3.18-1.25-.68-2.5-1.35-3.73-2.06-3.55-2.03-7.26-4.3-10.45-7.18-1.75-1.61-2.93-2.95-3.85-4.32-1.18-1.7-1.91-3.24-2.22-4.75-.36-1.93-.33-3.66.09-5.15h.02v.02Zm-48.58,78.08c-6.22,0-11.26-5.05-11.26-11.28s5.04-11.28,11.26-11.28,11.26,5.05,11.26,11.28-5.04,11.28-11.26,11.28Zm20.3,30.53c-6.22,0-11.26-5.05-11.26-11.28s5.04-11.28,11.26-11.28,11.26,5.05,11.26,11.28-5.04,11.28-11.26,11.28Zm30.46,25.45c-6.22,0-11.26-5.05-11.26-11.28s5.04-11.28,11.26-11.28,11.26,5.05,11.26,11.28-5.04,11.28-11.26,11.28Zm40.62,10.19c-6.22,0-11.26-5.05-11.26-11.28s5.04-11.28,11.26-11.28,11.26,5.05,11.26,11.28-5.04,11.28-11.26,11.28Zm27.71-90.37c-.31,1.65-.85,3.36-1.63,5.13-.99,2.34-2.36,4.42-3.72,6.33-2.9,4.19-6.58,8.3-11.65,12.92-2.54,2.3-5.5,4.78-9.58,7.96-.64.46-1.29.96-2.14,1.4l-1.09-.8-1.09-.81c-3.37-2.53-6.62-5.21-9.65-7.95-5.05-4.63-8.75-8.73-11.64-12.92-1.35-1.91-2.72-4.01-3.71-6.34-.78-1.77-1.3-3.48-1.63-5.13-.69-4.04-.69-7.77.06-11.09.83-3.7,2.34-6.5,4.5-8.35.73-.59,1.49-1.07,2.28-1.42.78-.36,1.51-.68,2.56-.81.61-.1,1.21-.17,2.18-.17h.04l.12.04c.83.07,1.7.16,2.56.4,4.23,1.08,8.37,3.84,11.32,7.51,1.33,1.71,2.4,3.44,3.07,5.15.94-1.8,2.03-3.45,3.2-4.94,2.95-3.67,7.09-6.43,11.34-7.5.89-.26,1.89-.36,3.07-.43.61,0,1.22.09,2.1.22.85.12,1.65.47,2.28.78.8.36,1.54.83,2.28,1.42,2.18,1.88,3.71,4.7,4.48,8.36.78,3.3.79,7.02.08,11.09l-.03-.04h.04Zm12.92,85.3c-6.22,0-11.26-5.06-11.26-11.29s5.04-11.28,11.26-11.28,11.26,5.05,11.26,11.28-5.04,11.29-11.26,11.29Zm35.56-25.43c-6.22,0-11.26-5.05-11.26-11.28s5.04-11.28,11.26-11.28,11.26,5.05,11.26,11.28-5.04,11.28-11.26,11.28Zm20.32-35.61c-6.22,0-11.26-5.06-11.26-11.28s5.04-11.29,11.26-11.29,11.26,5.05,11.26,11.29-5.04,11.28-11.26,11.28Zm147.51-78.99c.1-.98.19-1.95.45-2.88.26-1.13.59-2.22,1.03-3.31.42-1.06.89-2.11,1.51-3.06.61-.96,1.3-2.01,2.15-2.9.5-.52.99-.97,1.81-1.61.24-.16.47-.35.71-.48.87-.52,1.78-.88,2.76-1.07.4-.12.91-.19,1.35-.19l1.03.1c.4.05.83.12,1.83.5.36.12.73.26,1.06.5.4.22.83.52,1.18.81,1.68,1.34,3.02,3.1,3.92,5.25.73,1.71,1.22,3.76,1.43,6.11.16,2.22.1,4.59-.14,7.01-.28,2.51-.69,5.03-1.21,7.51l-.68,3.04c-.19.66-.38,1.31-.52,1.89-.54,1.85-1.11,3.67-1.69,5.51l-.19.57-.19.59c-.6,1.53-1.2,3.07-1.75,4.61-1.31,2.93-2.62,5.84-3.96,8.83l-.45-.7-.32-.5-.79-1.33-1.21-2.36-1.2-2.39c-3.24-6.88-6.54-14.25-7.7-21.98-.45-2.94-.54-5.43-.24-8.05h-.01l.03-.02Zm-30,5.99c.54-1.99,1.39-3.74,2.43-5.05.5-.55,1.09-1.19,1.82-1.57.6-.38,1.15-.59,1.67-.7.42-.06.83-.1,1.25-.1.29,0,.59.02.95.1.71.16,1.25.34,1.7.57,1.17.54,2.34,1.39,3.71,2.69,1.19,1.23,2.32,2.62,3.39,4.13.67.96,1.32,1.93,1.94,2.93l1.49,2.9.61,1.37.85,1.95.36.8c.52,1.33.99,2.69,1.47,4.04l.79,2.69.81,2.7c.16.81.35,1.67.57,2.55l.12.83.12.83.1.71c.1.8.22,1.59.24,2.48-.28-.06-.47-.12-.61-.22-1.85-1.13-3.73-2.17-5.64-3.18-1.25-.68-2.5-1.35-3.73-2.06-3.54-2.03-7.26-4.3-10.45-7.18-1.75-1.61-2.93-2.95-3.85-4.31-1.18-1.7-1.91-3.24-2.22-4.75-.36-1.93-.33-3.66.09-5.14l.03-.02h-.01Zm-57.68,61.79c0-6.23,5.04-11.28,11.26-11.28s11.26,5.05,11.26,11.28-5.04,11.28-11.26,11.28-11.26-5.05-11.26-11.28Zm26.47,46.84c-6.22,0-11.26-5.05-11.26-11.28s5.04-11.28,11.26-11.28,11.26,5.05,11.26,11.28-5.04,11.28-11.26,11.28Zm35.54,25.46c-6.22,0-11.26-5.05-11.26-11.28s5.04-11.28,11.26-11.28,11.26,5.05,11.26,11.28-5.04,11.28-11.26,11.28Zm40.62,5.11c-6.22,0-11.26-5.06-11.26-11.29s5.04-11.28,11.26-11.28,11.26,5.06,11.26,11.28-5.04,11.29-11.26,11.29Zm25.55-85.31c-.31,1.65-.85,3.38-1.63,5.13-.99,2.34-2.36,4.42-3.72,6.33-2.9,4.2-6.58,8.29-11.65,12.92-2.57,2.36-5.55,4.83-9.7,8.04-.59.44-1.21.89-2.03,1.31l-1.09-.79-1.09-.81c-3.37-2.53-6.63-5.22-9.65-7.96-5.05-4.63-8.75-8.73-11.64-12.92-1.35-1.91-2.72-4-3.71-6.34-.78-1.75-1.3-3.48-1.63-5.13-.69-4.04-.69-7.77.06-11.09.83-3.7,2.34-6.5,4.5-8.34.73-.59,1.49-1.07,2.28-1.43.78-.36,1.51-.68,2.56-.81.61-.1,1.21-.18,2.18-.18h.04l.12.04c.83.09,1.7.16,2.55.4,4.25,1.08,8.37,3.84,11.32,7.51,1.32,1.71,2.4,3.44,3.07,5.15.94-1.81,2.02-3.45,3.2-4.94,2.95-3.68,7.09-6.43,11.33-7.51.9-.26,1.89-.36,3.07-.43.61,0,1.22.08,2.1.22.85.12,1.65.47,2.28.78.8.36,1.54.83,2.28,1.42,2.18,1.87,3.71,4.7,4.48,8.36.78,3.29.79,7.02.08,11.09h-.02l.06-.02Zm-1.83-36.9l-.92.64-.7.47-1.77,1.22c-.94.52-1.83,1.06-2.86,1.66l-.55.31-2.28,1.42c-1.23.78-2.49,1.55-3.87,2.31-.22-.28-.36-.61-.36-.92.08-5.06.54-9.21,1.43-13.04.47-2.13,1.17-4.31,2.05-6.52.78-1.95,1.63-3.55,2.6-4.93,1.31-1.93,2.59-3.41,3.87-4.54,1.16-1.02,2.34-1.97,3.69-2.65,1.25-.66,2.62-1.29,4.1-1.35h.47c.52,0,.91.05,1.25.14.64.14,1.16.33,1.58.61.4.24.78.52,1.07.8.24.22.45.47.68.78.47.64.79,1.32,1.07,1.93.38.83.64,1.59.75,2.29.12.66.24,1.33.24,2.01.02,1.67-.26,3.22-.82,4.61-.61,1.63-1.25,2.84-1.98,3.81-2.6,3.78-6.06,6.76-8.77,8.92h.02v.02Zm20.04,105.45c-6.22,0-11.26-5.05-11.26-11.28s5.04-11.28,11.26-11.28,11.26,5.05,11.26,11.28-5.04,11.28-11.26,11.28Zm31.32-30.11c-6.22,0-11.26-5.05-11.26-11.28s5.04-11.28,11.26-11.28,11.26,5.05,11.26,11.28-5.04,11.28-11.26,11.28Zm11.27-44.68c-6.22,0-11.26-5.05-11.26-11.28s5.04-11.28,11.26-11.28,11.26,5.05,11.26,11.28-5.04,11.28-11.26,11.28Zm.01-50.88c-6.22,0-11.26-5.05-11.26-11.28s5.04-11.28,11.26-11.28,11.26,5.05,11.26,11.28-5.04,11.28-11.26,11.28Zm.02-50.88c-6.22,0-11.26-5.05-11.26-11.28s5.04-11.28,11.26-11.28,11.26,5.05,11.26,11.28-5.04,11.28-11.26,11.28Z"/>
        </g>
      </g>
    </g>
  </g>
</svg>