<svg width="391" height="153" viewBox="0 0 391 153" fill="none" xmlns="http://www.w3.org/2000/svg">
<path d="M99.7285 31.5894H53.2714C41.3007 31.5894 31.5925 41.2975 31.5925 53.2683V99.7253C31.5925 111.696 41.3037 121.404 53.2714 121.404H99.7285C111.699 121.404 121.407 111.693 121.407 99.7253V53.2683C121.407 41.2975 111.696 31.5894 99.7285 31.5894ZM113.667 98.1802C113.667 106.727 106.731 113.667 98.1804 113.667H54.8195C46.2724 113.667 39.3329 106.73 39.3329 98.1802V54.8194C39.3329 46.2722 46.2694 39.3327 54.8195 39.3327H98.1804C106.728 39.3327 113.667 46.2692 113.667 54.8194V98.1802Z" fill="#FF9E22"/>
<path d="M76.4985 53.2715C63.6763 53.2715 53.2685 63.6793 53.2685 76.5015C53.2685 89.3237 63.6763 99.7315 76.4985 99.7315C89.3206 99.7315 99.7284 89.3237 99.7284 76.5015C99.7284 63.6793 89.3206 53.2715 76.4985 53.2715ZM76.4985 91.9852C67.9662 91.9852 61.0118 85.0307 61.0118 76.4985C61.0118 67.9662 67.9662 61.0118 76.4985 61.0118C85.0307 61.0118 91.9851 67.9662 91.9851 76.4985C91.9851 85.0307 85.0307 91.9852 76.4985 91.9852Z" fill="#FF9E22"/>
<path d="M101.277 56.3706C103.843 56.3706 105.924 54.2899 105.924 51.7234C105.924 49.1568 103.843 47.0762 101.277 47.0762C98.71 47.0762 96.6293 49.1568 96.6293 51.7234C96.6293 54.2899 98.71 56.3706 101.277 56.3706Z" fill="#FF9E22"/>
<path d="M226.453 71.4689L225.71 77.5578C225.585 78.5765 224.742 79.3411 223.743 79.3411H214.091V104.798C213.072 104.893 212.041 104.939 210.999 104.939C208.668 104.939 206.391 104.701 204.191 104.247V79.3411H196.768C196.085 79.3411 195.531 78.7704 195.531 78.0717V70.4538C195.531 69.7569 196.087 69.1844 196.768 69.1844H204.191V57.7584C204.191 50.7458 209.732 45.063 216.566 45.063H225.227C225.909 45.063 226.464 45.6337 226.464 46.3323V53.9503C226.464 54.6472 225.907 55.2197 225.227 55.2197H219.04C216.309 55.2197 214.092 57.4932 214.092 60.2989V69.1862H224.486C225.678 69.1862 226.602 70.2599 226.453 71.4725V71.4689Z" fill="#FF9E22"/>
<path d="M356.999 89.4483V63.5851C356.999 63.5851 359.817 68.4441 370.007 68.7436C370.551 68.7586 371 68.2965 371 67.7359V60.4271C371 59.8815 370.58 59.4515 370.055 59.4215C362.152 58.9572 358.399 52.6883 358.031 46.9371C357.995 46.4044 357.547 46 357.03 46H348.972C348.434 46 348 46.4493 348 47.0056V88.1175C348 92.5828 344.701 96.4682 340.389 96.68C335.461 96.9218 331.453 92.5442 332.063 87.3729C332.493 83.7185 335.328 80.7274 338.852 80.2203C339.551 80.1197 340.238 80.1133 340.898 80.1882C341.483 80.2567 342 79.8052 342 79.1954V71.8674C342 71.3454 341.618 70.8961 341.113 70.864C340.102 70.7955 339.065 70.8212 338.015 70.9431C330.243 71.8546 323.97 78.361 323.108 86.4058C321.972 97.0181 329.972 106 340 106C349.39 106 357.001 98.1264 357.001 88.4127" fill="#FF9E22"/>
<path d="M235.276 30H188.724C176.728 30 167 39.8363 167 51.965V99.035C167 111.164 176.731 121 188.724 121H235.276C247.272 121 257 111.161 257 99.035V51.965C257 39.8363 247.269 30 235.276 30ZM249.244 97.4695C249.244 106.129 242.293 113.161 233.725 113.161H190.275C181.71 113.161 174.756 106.132 174.756 97.4695V53.5365C174.756 44.8766 181.707 37.8455 190.275 37.8455H233.725C242.29 37.8455 249.244 44.8736 249.244 53.5365V97.4695Z" fill="#FF9E22"/>
<path d="M369.276 30H322.724C310.728 30 301 39.8363 301 51.965V99.035C301 111.164 310.731 121 322.724 121H369.276C381.272 121 391 111.161 391 99.035V51.965C391 39.8363 381.269 30 369.276 30ZM383.244 97.4695C383.244 106.129 376.293 113.161 367.725 113.161H324.275C315.71 113.161 308.756 106.132 308.756 97.4695V53.5365C308.756 44.8766 315.707 37.8455 324.275 37.8455H367.725C376.29 37.8455 383.244 44.8736 383.244 53.5365V97.4695Z" fill="#FF9E22"/>
</svg>
